<?xml version="1.0" standalone="no"?>
<!DOCTYPE svg PUBLIC "-//W3C//DTD SVG 1.1//EN" "http://www.w3.org/Graphics/SVG/1.1/DTD/svg11.dtd" >
<svg xmlns="http://www.w3.org/2000/svg" xmlns:xlink="http://www.w3.org/1999/xlink" version="1.1">
<metadata></metadata>
<defs>
<font id="majesti_banner_heavyregular" horiz-adv-x="1312" >
<font-face units-per-em="2048" ascent="1536" descent="-512" />
<missing-glyph horiz-adv-x="444" />
<glyph unicode="fi" horiz-adv-x="1359" d="M27 823v29h170v70q0 190 141.5 309t390.5 119q205 0 317.5 -76.5t112.5 -175.5q0 -73 -49 -125.5t-121 -52.5q-69 0 -118.5 51t-49.5 123q0 55 30.5 99.5t80.5 63.5q-60 80 -182 80q-106 0 -167 -65.5t-61 -169.5v-250h443l247 22v-690q0 -89 23.5 -130.5t99.5 -41.5v-12 h-571v12q76 0 99.5 41.5t23.5 130.5v467q0 86 -22.5 129t-92.5 43h-250v-633q0 -105 50 -141.5t145 -36.5v-12h-684v12q84 0 124 43t40 135v633h-170z" />
<glyph unicode="fl" horiz-adv-x="1359" d="M27 823v29h170v98q0 186 129.5 293t359.5 107q229 0 346 -105l170 123h10v-1184q0 -89 23.5 -130.5t99.5 -41.5v-12h-571v12q76 0 99.5 41.5t23.5 130.5v758q-48 17 -77.5 60t-29.5 98q0 54 30.5 96.5t78.5 60.5q-54 80 -166 80q-98 0 -149.5 -64.5t-51.5 -170.5v-250 h236v-29h-236v-633q0 -105 50 -141.5t145 -36.5v-12h-684v12q84 0 124 43t40 135v633h-170z" />
<glyph unicode="fj" horiz-adv-x="1341" d="M27 823v29h170v70q0 190 141.5 309t390.5 119q205 0 317.5 -76.5t112.5 -175.5q0 -73 -49 -125.5t-121 -52.5q-69 0 -118.5 51t-49.5 123q0 55 30.5 99.5t80.5 63.5q-60 80 -182 80q-106 0 -167 -65.5t-61 -169.5v-250h443l247 22v-823q0 -67 -33.5 -127t-83.5 -102 t-120.5 -79.5t-131 -60t-128.5 -42.5l-4 8q42 23 72.5 48t49.5 54t30.5 54t16.5 61t6 61t1 68v657q0 86 -22.5 129t-92.5 43h-250v-633q0 -105 50 -141.5t145 -36.5v-12h-684v12q84 0 124 43t40 135v633h-170z" />
<glyph unicode="fy" horiz-adv-x="1738" d="M27 823v29h170v123q0 178 119.5 276.5t306.5 98.5q93 0 165 -25t112 -65.5t59.5 -83t19.5 -84.5q0 -67 -46 -111.5t-108 -44.5q-63 0 -107 46t-44 112q0 55 31.5 97t82.5 56q-33 90 -120 90q-66 0 -106 -51t-40 -149v-285h774v-12q-74 0 -91.5 -47t22.5 -127l155 -322 l68 152q66 151 66 227q0 117 -119 117v12h391v-12q-124 0 -213 -138q-14 -21 -30.5 -51t-25.5 -49t-29 -61.5t-26 -55.5l-233 -505q-21 -45 -39.5 -80t-54 -86.5t-72.5 -85.5t-91 -59t-112 -25q-65 0 -94 26.5t-29 67.5q0 49 38.5 71t98 26.5t122 8.5t119.5 28.5t81 74.5 l25 53l-349 662q-23 42 -34.5 61t-35 47.5t-52 40.5t-64.5 12h-166v-633q0 -105 50 -141.5t145 -36.5v-12h-684v12q84 0 124 43t40 135v633h-170z" />
<glyph unicode=" "  horiz-adv-x="444" />
<glyph unicode="&#x09;" horiz-adv-x="444" />
<glyph unicode="&#xa0;" horiz-adv-x="444" />
<glyph unicode="!" horiz-adv-x="559" d="M84 1100q0 86 57 138t138 52t138.5 -51.5t57.5 -138.5q0 -47 -23 -109.5t-52.5 -124.5t-62.5 -182t-50 -264h-15q-17 144 -50 264t-62.5 182t-52.5 124.5t-23 109.5zM102 160q0 73 52.5 125.5t126.5 52.5q73 0 125.5 -52t52.5 -126t-52.5 -126t-125.5 -52 q-74 0 -126.5 52.5t-52.5 125.5z" />
<glyph unicode="&#x22;" horiz-adv-x="817" d="M66 1151q0 58 38.5 98.5t110.5 40.5t111 -39t39 -98q0 -42 -22 -104t-59.5 -157t-60.5 -181h-16q-24 86 -61 181.5t-58.5 156.5t-21.5 102zM453 1151q0 58 38.5 98.5t110.5 40.5t111 -39t39 -98q0 -42 -22 -104t-59.5 -157t-60.5 -181h-16q-24 86 -61 181.5t-58.5 156.5 t-21.5 102z" />
<glyph unicode="#" horiz-adv-x="1095" d="M66 369v18h188l111 496h-203v18h207l82 365h22l-82 -365h432l82 365h23l-82 -365h184v-18h-188l-111 -496h203v-18h-207l-82 -369h-22l82 369h-433l-82 -369h-22l82 369h-184zM276 387h433l110 496h-432z" />
<glyph unicode="$" horiz-adv-x="1189" d="M82 268q0 68 44.5 118t119.5 50q73 0 120.5 -48t47.5 -120q0 -62 -36.5 -109t-92.5 -61q86 -106 299 -106v497q-175 71 -200 82q-166 78 -227 180q-44 75 -44 175q0 170 122.5 266.5t348.5 97.5v135h20v-135q211 -3 336 -82.5t125 -199.5q0 -71 -44.5 -120.5 t-119.5 -49.5q-73 0 -120.5 48t-47.5 120q0 58 32 103t85 62q-83 103 -246 103v-447q23 -10 67 -27t70.5 -27t67.5 -28.5t67 -33t60.5 -37t56 -43.5t45 -50.5t36.5 -60.5t21.5 -70t8.5 -83q0 -182 -130 -285.5t-370 -106.5v-190h-20v190q-226 1 -364 85.5t-138 207.5z M365 1073q0 -85 55.5 -137t163.5 -98v434q-113 -6 -166 -63t-53 -136zM604 -6q128 10 186 74.5t58 152.5q0 51 -18.5 92t-56.5 72t-75 51.5t-94 44.5v-487z" />
<glyph unicode="%" horiz-adv-x="1579" d="M63 944q0 85 33.5 152.5t88.5 107.5t118.5 61t128.5 21q94 0 181 -41.5t137 -120.5q55 -10 98 -10q74 0 175 22.5t185 59.5q10 14 18.5 43.5t19 47.5t30.5 18q15 0 24 -11t9 -26q0 -30 -26.5 -52.5t-57.5 -35.5l-910 -1198l-16 14l897 1178q-181 -78 -342 -78 q-53 0 -92 8q37 -72 37 -160q0 -84 -33.5 -151t-87.5 -107t-117.5 -61t-128.5 -21q-52 0 -103 12.5t-99.5 40t-85 66.5t-59 96.5t-22.5 124.5zM319 944q0 -79 4.5 -133.5t16 -101.5t34.5 -70t58 -23t58.5 23t35.5 69.5t16.5 102t4.5 133.5q0 196 -35 270q-33 26 -70 58 q-1 0 -4.5 1t-5.5 1q-35 0 -58 -23.5t-34.5 -70.5t-16 -102t-4.5 -134zM778 319q0 85 33.5 152.5t88.5 108t118.5 61.5t128.5 21t128.5 -21t117.5 -61.5t87 -108t33 -152.5q0 -67 -22 -124t-58.5 -96t-84 -66.5t-98.5 -40t-103 -12.5t-103 12.5t-99.5 40t-85 66.5t-59 96 t-22.5 124zM1034 319q0 -79 4.5 -133.5t16 -101t34.5 -69.5t58 -23t58.5 23t35.5 69t16.5 101.5t4.5 133.5q0 79 -4.5 134t-16.5 102t-35.5 70.5t-58.5 23.5t-58 -23.5t-34.5 -70.5t-16 -102t-4.5 -134z" />
<glyph unicode="&#x26;" horiz-adv-x="1654" d="M74 291q0 51 21.5 94t55.5 74t89.5 59.5t108.5 48.5t128 43l-53 54q-91 90 -134.5 163.5t-43.5 153.5q0 99 67.5 170.5t178 105t251.5 33.5q212 0 327.5 -73t115.5 -181q0 -45 -22 -82.5t-52.5 -61.5t-80 -46t-84.5 -32.5t-88 -25t-71 -20.5l410 -399q34 84 49 159 q8 27 3.5 53t-20 46t-63 32.5t-125.5 12.5v14h488v-14q-54 0 -92 -7t-61 -16.5t-42 -34t-29.5 -44t-28.5 -62.5q-1 -3 -2 -5l-2.5 -5t-2.5 -5.5t-2 -5.5l-58 -131l222 -215q76 -75 124 -101t113 -26v-14h-559l-94 92q-149 -117 -406 -117q-238 0 -387 87t-149 229zM399 342 q0 -160 91 -246t241 -86q153 0 273 92l-517 500q-37 -37 -62.5 -104.5t-25.5 -155.5zM571 1087q0 -66 32.5 -117t119.5 -136l59 -60q64 47 104 120t40 165t-43 154.5t-135 62.5q-84 0 -130.5 -52.5t-46.5 -136.5z" />
<glyph unicode="'" horiz-adv-x="430" d="M66 1151q0 58 38.5 98.5t110.5 40.5t111 -39t39 -98q0 -42 -22 -104t-59.5 -157t-60.5 -181h-16q-24 86 -61 181.5t-58.5 156.5t-21.5 102z" />
<glyph unicode="(" horiz-adv-x="712" d="M59 537q0 97 21 186.5t55 159t83.5 136t99.5 114.5t111.5 97t109.5 82l104 71.5t86 62.5l6 -8q-66 -49 -125.5 -122t-115.5 -181t-89.5 -263t-33.5 -335t33.5 -335t89.5 -263.5t115.5 -181.5t125.5 -122l-6 -8q-30 24 -86 63t-104 71.5t-109.5 82t-111.5 97.5t-99.5 114 t-83.5 136t-55 159.5t-21 186.5z" />
<glyph unicode=")" horiz-adv-x="712" d="M-23 -365q66 49 125.5 122t116 181.5t90 263.5t33.5 335t-33.5 335t-90 263t-116 181t-125.5 122l7 8q30 -24 85.5 -62.5t104 -71.5t110 -82t111 -97t99.5 -114.5t83.5 -136t54.5 -159t21 -186.5q0 -128 -37 -243.5t-90 -195t-134 -158.5t-143.5 -124.5t-146.5 -103.5 t-118 -85z" />
<glyph unicode="*" horiz-adv-x="880" d="M104 816q10 39 48 61q20 12 49 14.5t88 6t121 13.5l4 -8q-39 -48 -72 -97.5t-50.5 -73t-37.5 -36.5q-35 -21 -74 -10t-63 51q-23 40 -13 79zM104.5 1031.5q-10.5 36.5 12.5 78.5q25 41 62.5 52t74.5 -11q21 -12 38 -35t50 -72.5t72 -97.5l-4 -10q-62 11 -121 15t-88 7 t-49 15q-37 22 -47.5 58.5zM338 649q0 24 11.5 51t38 80t48.5 111h10q22 -58 48.5 -111t38.5 -80t12 -51q0 -43 -29 -70.5t-76 -27.5q-46 0 -74 28t-28 70zM338 1200q0 42 28 70t74 28q47 0 76 -27.5t29 -70.5q0 -24 -12 -51t-38.5 -80t-48.5 -111h-10q-22 58 -48.5 111 t-38 80t-11.5 51zM469 903l4 8q62 -10 121 -13.5t88 -6t49 -14.5q38 -22 47 -61t-14 -79q-24 -40 -62 -51t-73 10q-21 13 -38.5 36.5t-50 73t-71.5 97.5zM469 946q39 48 71.5 97.5t50 72.5t38.5 35q37 22 74.5 11t62.5 -52q23 -42 12.5 -79t-47.5 -58q-20 -12 -49 -15 t-88 -6.5t-121 -13.5z" />
<glyph unicode="+" horiz-adv-x="1050" d="M70 494v18h446v446h19v-446h446v-18h-446v-447h-19v447h-446z" />
<glyph unicode="," horiz-adv-x="538" d="M84 168q0 70 52.5 120t129.5 50q82 0 132.5 -58.5t50.5 -148.5q0 -127 -98 -248t-263 -176l-4 8q102 38 181 125.5t89 196.5q-44 -35 -102 -35q-69 0 -118.5 49t-49.5 117z" />
<glyph unicode="-" horiz-adv-x="765" d="M113 442v84h540v-84h-540z" />
<glyph unicode="." horiz-adv-x="524" d="M84 160q0 74 52 126t126 52t126 -52t52 -126t-52 -126t-126 -52t-126 52t-52 126z" />
<glyph unicode="/" horiz-adv-x="892" d="M45 -326l784 1760l17 -9l-787 -1759z" />
<glyph unicode="0" horiz-adv-x="1325" d="M92 633q0 296 154.5 476.5t417.5 180.5q262 0 415.5 -180.5t153.5 -476.5q0 -195 -68.5 -343.5t-198 -231.5t-302.5 -83q-263 0 -417.5 181t-154.5 477zM461 633q0 -80 2.5 -145.5t9 -144.5t21 -137.5t36 -110t56 -78.5t78.5 -27q38 0 68.5 21.5t51 56.5t35.5 88 t23.5 106t13.5 122t6.5 125t1.5 124t-1.5 124t-6.5 125t-13.5 122t-23.5 106t-35.5 88t-51 56.5t-68.5 21.5q-44 0 -78.5 -27t-56 -78.5t-36 -110t-21 -137.5t-9 -144.5t-2.5 -145.5z" />
<glyph unicode="1" horiz-adv-x="876" d="M63 1104v10q323 31 570 156l10 -4v-1045q0 -55 9.5 -93.5t25.5 -61t43.5 -35t55.5 -16t71 -3.5v-12h-778v12q59 0 98.5 9.5t70.5 34t45.5 70t14.5 114.5v753q0 59 -19.5 85t-74.5 26h-142z" />
<glyph unicode="2" horiz-adv-x="1253" d="M80 946q0 60 34 120t97.5 110.5t167 82t229.5 31.5q140 0 252.5 -37t184 -118t71.5 -195q0 -77 -34 -135t-93 -96.5t-133 -68.5t-161.5 -60t-169 -61.5t-165 -81.5t-141.5 -113q-46 -52 -67 -107q73 158 325 158q88 0 230.5 -26.5t207.5 -26.5q99 0 153 39.5t54 132.5 q0 38 -8 77h12q27 -114 27 -227q0 -71 -13 -133.5t-40.5 -117t-79 -86.5t-121.5 -32q-71 0 -136.5 33.5t-117 81t-101 95t-109 81t-120.5 33.5q-86 0 -133 -58t-45 -149q0 -45 13 -92h-19q-23 120 -3.5 197.5t91.5 154.5q46 50 125 112t143.5 113t127.5 114.5t99 143.5 t36 173q0 121 -60.5 190.5t-173.5 69.5q-168 0 -235 -152q61 -11 101 -60t40 -116q0 -75 -50 -126.5t-122 -51.5q-75 0 -122.5 55t-47.5 129z" />
<glyph unicode="3" horiz-adv-x="1251" d="M80 260q0 72 47.5 127t122.5 55q72 0 122 -51.5t50 -126.5q0 -63 -35.5 -111t-91.5 -63q60 -92 201 -92q144 0 219.5 90.5t75.5 241.5q0 298 -318 307q-68 1 -112.5 -11t-45.5 -12q-13 0 -24.5 9t-11.5 22t10 23t26 10q7 0 22 -6.5t48.5 -12.5t87.5 -4q76 3 132 31t87 75 t45.5 100.5t14.5 115.5q0 134 -66 212.5t-182 78.5q-126 0 -193 -94q59 -12 97 -60.5t38 -112.5q0 -74 -48.5 -123t-123.5 -49q-77 0 -122.5 51.5t-45.5 123.5q0 124 136 205t366 81q234 0 374 -86t140 -235q0 -81 -43.5 -143.5t-120.5 -100t-175.5 -56t-215.5 -18.5h-20 v-10h20q125 0 230 -18.5t188 -56.5t129.5 -101.5t46.5 -147.5q0 -83 -45.5 -149.5t-123.5 -108t-178.5 -63t-215.5 -21.5q-234 0 -376 81.5t-142 203.5z" />
<glyph unicode="4" horiz-adv-x="1284" d="M25 338l176 151q97 83 159 206.5t62 252.5q0 212 -172 342q100 4 198 -10t185 -45t140.5 -88.5t53.5 -132.5q0 -64 -38.5 -122.5t-107 -109.5t-140.5 -95t-163 -100.5t-149 -103.5l-172 -137h627v178l334 307h10v-485q59 1 96 7t52.5 12t23.5 6q18 0 28.5 -10t10.5 -23 t-12.5 -22t-26.5 -9q-7 0 -24 5.5t-54.5 10.5t-93.5 5v-107q0 -55 9.5 -93.5t25.5 -61t43.5 -35t55.5 -16t71 -3.5v-12h-778v12q59 0 98.5 9.5t70.5 34t45.5 70t14.5 114.5v90h-655z" />
<glyph unicode="5" horiz-adv-x="1218" d="M70 262q0 74 48.5 127t125.5 53q76 0 122 -50t46 -124q0 -65 -35 -113t-90 -63q59 -94 176 -94q95 0 165 55.5t103 141.5t33 188q0 148 -73.5 244t-217.5 96q-122 0 -266 -78q-6 -27 -10 -38.5t-13.5 -21.5t-25.5 -10q-29 0 -29 29q0 33 64 55l53 607q26 -1 100 -5.5 t119 -7t121 -4t127.5 0.5t115.5 8t107 17t81.5 30t57.5 45q29 -98 29 -160q0 -72 -27.5 -124.5t-74.5 -80.5t-98.5 -40.5t-110.5 -12.5q-118 0 -230.5 49t-310.5 170l-45 -487q97 47 185.5 71.5t199.5 24.5q106 0 201 -23.5t172.5 -69.5t123.5 -122.5t46 -173.5 q0 -127 -77.5 -218t-204 -134.5t-286.5 -43.5q-223 0 -360 81.5t-137 205.5z" />
<glyph unicode="6" d="M92 604q0 150 43.5 276t124.5 217t202 142t271 51q199 0 322 -81.5t123 -202.5q0 -74 -45.5 -125.5t-122.5 -51.5q-75 0 -123.5 49t-48.5 123q0 58 30 102.5t80 63.5q-58 107 -174 107t-197 -99t-115 -256.5t-26 -349.5q27 111 114.5 175.5t229.5 64.5q191 0 316 -111.5 t125 -289.5q0 -190 -145.5 -311.5t-393.5 -121.5q-126 0 -227.5 34.5t-168 93t-111 139.5t-64 171t-19.5 191zM432 377q0 -172 61.5 -280.5t172.5 -108.5q52 0 92.5 27.5t64 69.5t38.5 100t20.5 111t5.5 110q0 165 -48 263.5t-149 98.5q-43 0 -85.5 -19.5t-82.5 -62 t-65 -122.5t-25 -187z" />
<glyph unicode="7" horiz-adv-x="1077" d="M82 715v551h20l13 -351h4q7 68 14.5 114.5t24 100t39 85.5t60 53.5t87.5 21.5q57 0 114.5 -27t105.5 -66t95 -78t99.5 -66t101.5 -27q45 0 81.5 24t55.5 58.5t29 65t10 51.5q0 29 -2 41h21q2 -10 2 -33q-1 -72 -28 -142t-87 -173t-76 -134q-89 -178 -139 -359.5 t-61 -424.5h-351q9 92 40.5 184.5t69 162.5t101.5 156t108.5 138t119.5 136q29 32 43 48q15 17 54.5 59t60 65t49 61t47.5 73l-7 4q-27 -39 -42.5 -60.5t-43 -51t-53 -44t-62.5 -25.5t-81 -11q-47 0 -192.5 21.5t-221.5 21.5q-51 0 -84.5 -8.5t-61.5 -31.5t-42.5 -68 t-18.5 -115h-16z" />
<glyph unicode="8" horiz-adv-x="1366" d="M92 328q0 49 14.5 92.5t50.5 85.5t91.5 74t142 54.5t197.5 29.5q-227 15 -343 95.5t-116 211.5q0 145 141.5 232t413.5 87q271 0 412 -87t141 -232q0 -131 -116 -211.5t-343 -95.5q110 -7 196.5 -29.5t142 -54.5t91.5 -74t51 -86t15 -92q0 -53 -17 -101t-60 -95t-108 -81 t-169 -55t-236 -21t-236.5 21t-170 55t-108.5 81t-60 95t-17 101zM463 326q0 -170 61 -253t160 -83q97 0 158 83.5t61 252.5t-60.5 250t-158.5 81q-99 0 -160 -81t-61 -250zM500 973q0 -301 184 -301q182 0 182 301q0 303 -182 303q-184 0 -184 -303z" />
<glyph unicode="9" d="M92 864q0 187 144.5 306.5t390.5 119.5q125 0 226 -34t168.5 -92.5t113 -140t66 -172t20.5 -192.5q0 -144 -41.5 -267t-120 -216.5t-201.5 -147t-276 -53.5q-200 0 -323.5 82t-123.5 203q0 74 45.5 125t122.5 51q75 0 123.5 -49t48.5 -123q0 -57 -31 -102t-82 -64 q56 -106 181 -106q63 0 115.5 27.5t86.5 73.5t61 107.5t39.5 129t22 137.5t8.5 134t-2 118q-28 -111 -114.5 -175.5t-231.5 -64.5q-187 0 -311.5 104t-124.5 281zM426 883q0 -78 13 -140.5t34.5 -101.5t50.5 -65.5t59 -37t62 -10.5q33 0 64 11t61.5 38t53 68.5t36.5 107 t14 148.5q0 171 -58 273t-167 102q-65 0 -111.5 -38t-69.5 -101t-32.5 -125t-9.5 -129z" />
<glyph unicode=":" horiz-adv-x="557" d="M100 160q0 73 52.5 125.5t126.5 52.5q73 0 125.5 -52t52.5 -126t-52.5 -126t-125.5 -52q-74 0 -126.5 52.5t-52.5 125.5zM100 668q0 73 52.5 125.5t126.5 52.5q73 0 125.5 -52t52.5 -126t-52.5 -126.5t-125.5 -52.5t-126 52.5t-53 126.5z" />
<glyph unicode=";" horiz-adv-x="565" d="M100 168q0 70 53 120t130 50q82 0 132 -58t50 -149q0 -127 -98 -248t-263 -176l-4 8q102 38 181.5 125.5t89.5 196.5q-44 -35 -103 -35q-69 0 -118.5 49t-49.5 117zM100 668q0 73 52.5 125.5t126.5 52.5q73 0 125.5 -52t52.5 -126t-52.5 -126.5t-125.5 -52.5t-126 52.5 t-53 126.5z" />
<glyph unicode="&#x3c;" horiz-adv-x="952" d="M57 496v12l795 407v-22l-768 -391l768 -391v-23z" />
<glyph unicode="=" horiz-adv-x="1161" d="M125 268v19h911v-19h-911zM125 719v18h911v-18h-911z" />
<glyph unicode="&#x3e;" horiz-adv-x="952" d="M100 88v23l768 391l-768 391v22l795 -407v-12z" />
<glyph unicode="?" horiz-adv-x="1163" d="M63 971q0 58 33.5 114t95 102t161.5 74.5t222 28.5q243 0 384 -102.5t141 -245.5q0 -51 -19.5 -94t-51 -73t-76 -54.5t-89 -40t-95.5 -28t-90.5 -19.5t-80 -14t-57.5 -11l-11 -188h-12l-10 196q248 75 248 334q0 139 -66.5 230.5t-193.5 91.5q-82 0 -143.5 -37.5 t-94.5 -97.5q61 -11 100 -59t39 -113q0 -73 -48.5 -123.5t-119.5 -50.5q-74 0 -120 54t-46 126zM354 160q0 74 52 126t126 52t126.5 -52.5t52.5 -125.5t-52.5 -125.5t-126.5 -52.5t-126 52t-52 126z" />
<glyph unicode="@" horiz-adv-x="1634" d="M84 416q0 131 44 253.5t121 217t177 166t217.5 109.5t237.5 38q188 0 340 -91t235.5 -243t83.5 -331q0 -187 -91.5 -309t-248.5 -122q-228 0 -276 144q-135 -146 -289 -146q-116 0 -176 75t-60 192q0 86 32 166.5t89.5 144.5t145.5 102.5t192 38.5q120 0 168 -57l256 51 l10 -10l-114 -455q-19 -79 -19 -123q0 -98 72 -98q111 0 195.5 115.5t84.5 294.5q0 170 -80.5 314t-225.5 230t-322 86q-144 0 -275 -59.5t-225.5 -160t-150.5 -240.5t-56 -295q0 -133 42 -252t116.5 -207.5t185.5 -140.5t242 -52q120 0 239 40.5t216 113.5l8 -12 q-203 -164 -465 -164q-139 0 -263.5 51t-215.5 139.5t-144 215t-53 270.5zM674 342q0 -70 25 -115t77 -45q65 0 144 82q-7 28 -7 51q0 51 17 117l78 320q-32 43 -86 43q-58 0 -107.5 -49.5t-78.5 -122.5t-45.5 -147.5t-16.5 -133.5z" />
<glyph unicode="A" horiz-adv-x="1386" d="M-88 0v12q58 0 109.5 26t85.5 57t75 101t60 111t60 133q3 7 5 11l367 827h14l490 -1002q26 -54 50.5 -94.5t57.5 -82.5t73 -64.5t83 -22.5v-12h-770v12q73 0 108 40q33 37 33 90q-1 4 -1 8q-2 58 -34 126l-61 132h-406l-12 -29q-31 -95 -31 -171v-17q4 -82 63.5 -130.5 t168.5 -48.5v-12h-588zM322 428h385l-199 422z" />
<glyph unicode="B" horiz-adv-x="1449" d="M55 0v12q96 0 130 42t34 167v823q0 125 -34 167t-130 42v13h713q559 0 559 -301q0 -144 -131 -223.5t-408 -79.5v-9q582 0 582 -315q0 -154 -137.5 -246t-415.5 -92h-762zM573 14h148q72 0 126.5 28.5t85 77t45.5 104.5t15 118q0 61 -14.5 113t-45.5 96.5t-88 70 t-134 25.5h-138v-633zM573 662h89q146 0 217 80.5t71 220.5q0 43 -6 81.5t-22.5 77t-41.5 66.5t-66.5 45.5t-94.5 17.5h-146v-589z" />
<glyph unicode="C" horiz-adv-x="1435" d="M78 623q0 201 95.5 353t265.5 233t390 81q55 0 128 -6t123 -11q34 -3 73 -3h41q62 2 115 16l37 -446l-11 -2q-174 440 -475 440q-75 0 -136.5 -25.5t-104.5 -72t-74.5 -106t-50 -133t-27 -148.5t-8.5 -156q0 -99 12 -188.5t40.5 -175t72.5 -147.5t112.5 -100t155.5 -38 q112 0 211.5 64.5t171.5 167.5t129 243l8 -2l-69 -424q-212 -62 -451 -62q-191 0 -340.5 49.5t-243 137.5t-142 205t-48.5 256z" />
<glyph unicode="D" horiz-adv-x="1607" d="M55 0v12q96 0 130 42t34 167v823q0 125 -34 167t-130 42v13h717q354 0 555 -169.5t201 -463.5t-201 -463.5t-555 -169.5h-717zM573 14h146q96 0 171.5 36t123 95t79 140.5t44 167t12.5 180.5q0 94 -12.5 179.5t-44 167t-79 140.5t-122.5 95t-170 36h-148v-1237z" />
<glyph unicode="E" horiz-adv-x="1331" d="M55 0v12q96 0 130 42t34 167v823q0 125 -34 167t-130 42v13h1131l31 -432l-9 -3q-43 190 -164.5 305t-322.5 115h-148v-612h64q77 0 140.5 26t106 71.5t70 98.5t43.5 115h9v-633h-9q-16 61 -43.5 113.5t-70 97.5t-106 71t-140.5 26h-64v-611h158q363 0 496 451l8 -2 l-39 -463h-1141z" />
<glyph unicode="F" horiz-adv-x="1253" d="M55 0v12q96 0 130 42t34 167v823q0 125 -34 167t-130 42v13h1121l30 -432l-8 -3q-42 186 -168.5 303t-318.5 117h-138v-633h54q77 0 140.5 26t106 72t70 99t43.5 115h8v-633h-8q-16 61 -43.5 113.5t-70 97.5t-106 70.5t-140.5 25.5h-54v-362q0 -71 13.5 -117.5t42 -70.5 t63 -33t86.5 -9v-12h-723z" />
<glyph unicode="G" horiz-adv-x="1619" d="M78 612q0 128 41.5 238.5t114 190t170.5 136.5t211 85t235 28q52 0 130.5 -6t137.5 -11q39 -3 84 -3h45q70 3 123 16l37 -426l-10 -2q-39 111 -99.5 195t-130 131t-139.5 69.5t-141 22.5q-112 0 -197 -55t-134 -150.5t-73 -211.5t-24 -251q0 -97 12 -183.5t41.5 -168 t75 -139.5t117.5 -93.5t163 -35.5q121 0 244 57v334q0 126 -38.5 174.5t-139.5 48.5v12h682v-12q-96 0 -130 -42t-34 -167v-330q-318 -88 -592 -88q-191 0 -341.5 47.5t-246 133.5t-145 201.5t-49.5 254.5z" />
<glyph unicode="H" horiz-adv-x="1695" d="M55 0v12q96 0 130 42t34 167v823q0 125 -34 167t-130 42v13h682v-13q-96 0 -130 -42t-34 -167v-397h549v397q0 125 -34 167t-130 42v13h682v-13q-96 0 -129.5 -42t-33.5 -167v-823q0 -125 33.5 -167t129.5 -42v-12h-682v12q96 0 130 42t34 167v408h-549v-408 q0 -125 34 -167t130 -42v-12h-682z" />
<glyph unicode="I" horiz-adv-x="792" d="M55 0v12q96 0 130 42t34 167v823q0 125 -34 167t-130 42v13h682v-13q-96 0 -130 -42t-34 -167v-823q0 -125 34 -167t130 -42v-12h-682z" />
<glyph unicode="J" horiz-adv-x="768" d="M6 -336q41 22 73 46.5t53 47.5t35.5 53t22.5 52.5t12 57t4.5 57.5t0.5 61v1005q0 125 -34 167t-130 42v13h682v-13q-96 0 -130 -42t-34 -167v-946q0 -83 -47 -156t-128 -126.5t-175 -92.5t-201 -65z" />
<glyph unicode="K" horiz-adv-x="1519" d="M55 0v12q96 0 130 42t34 167v823q0 125 -34 167t-130 42v13h682v-13q-96 0 -130 -42t-34 -167v-520l326 322q203 200 203 313q0 94 -154 94v13h584v-13q-147 0 -309 -127q-97 -76 -299 -278l-13 -12l428 -646q62 -94 113 -136t104 -42v-12h-526l-368 588l-89 -86v-281 q0 -125 34 -167t130 -42v-12h-682z" />
<glyph unicode="L" horiz-adv-x="1257" d="M55 0v12q96 0 130 42t34 167v823q0 125 -34 167t-130 42v13h723v-13q-52 0 -86.5 -8.5t-63 -32.5t-42 -70.5t-13.5 -117.5v-1010h123q101 0 188.5 37t149 100.5t104 143t62.5 170.5l8 -2l-32 -463h-1121z" />
<glyph unicode="M" horiz-adv-x="1923" d="M-20 0v12q156 0 220.5 104t86.5 382l30 395q4 46 4 87q0 36 -3 67q-7 67 -32 112.5t-77 69.5t-133 24v13h569l387 -801l344 801h459v-13q-100 0 -134 -66q-29 -56 -29 -163q0 -19 1 -39l37 -698q8 -149 46 -212t140 -63v-12h-702v12q98 0 134 62q29 50 29 147q0 22 -1 45 l-45 793l-451 -1043h-8l-502 1020l-45 -538q-9 -95 -9 -170q0 -69 8 -120q16 -108 68 -152t158 -44v-12h-550z" />
<glyph unicode="N" horiz-adv-x="1478" d="M8 0v12q58 0 99.5 10t71.5 34.5t48 58t28.5 87.5t14.5 115t4 150v467q0 163 -55.5 241t-189.5 78v13h479l709 -734v267q0 106 -6 175.5t-22 127t-46 88.5t-77 47t-116 16v13h553v-13q-58 0 -99.5 -10t-71.5 -34.5t-48 -57.5t-28.5 -87.5t-14.5 -115.5t-4 -149v-815 l-10 -2l-932 972v-487q0 -89 4 -150t14.5 -115t28.5 -87.5t48 -58t71.5 -34.5t99.5 -10v-12h-553z" />
<glyph unicode="O" horiz-adv-x="1601" d="M76 633q0 192 94.5 342.5t259.5 232.5t371 82t371 -82t259.5 -232.5t94.5 -342.5q0 -144 -55.5 -267.5t-151.5 -208.5t-230 -133.5t-288 -48.5t-288 48.5t-230 133.5t-151.5 208.5t-55.5 267.5zM457 633q0 -102 8.5 -189t32.5 -173.5t61.5 -146.5t99 -97t142.5 -37 q344 0 344 643t-344 643q-81 0 -142.5 -37t-99 -97t-61.5 -146.5t-32.5 -173.5t-8.5 -189z" />
<glyph unicode="P" horiz-adv-x="1359" d="M55 0v12q96 0 130 42t34 167v823q0 125 -34 167t-130 42v13h713q120 0 215 -20t158.5 -54.5t105.5 -82.5t60 -102t18 -116t-18 -115t-60 -100.5t-105.5 -81t-158.5 -53t-215 -19.5h-123v13h39q62 0 110 22.5t76 57.5t46 84t24 95t6 97t-6 97.5t-24 96t-46 85t-76 58.5 t-110 23h-111v-1030q0 -125 34 -167t130 -42v-12h-682z" />
<glyph unicode="Q" horiz-adv-x="1601" d="M76 633q0 192 94.5 342.5t259.5 232.5t371 82t371 -82t259.5 -232.5t94.5 -342.5q0 -138 -51 -257.5t-140.5 -204t-214 -136t-268.5 -58.5q62 -4 125 -26t116 -50t106.5 -55.5t115 -46t121.5 -18.5q128 0 192 84l8 -4q-38 -65 -71.5 -112t-77.5 -92.5t-95 -69t-108 -23.5 q-53 0 -120.5 23t-133.5 55t-133.5 64.5t-143 55.5t-141.5 23q-120 0 -223 -78l-8 6q21 20 60.5 59.5t60.5 60t57.5 50t65.5 45.5t69 29.5t82 17.5q-149 4 -278.5 53.5t-222.5 134.5t-146 206.5t-53 263.5zM457 633q0 -102 8.5 -189t32.5 -173.5t61.5 -146.5t99 -97 t142.5 -37q344 0 344 643t-344 643q-81 0 -142.5 -37t-99 -97t-61.5 -146.5t-32.5 -173.5t-8.5 -189z" />
<glyph unicode="R" horiz-adv-x="1507" d="M55 0v12q96 0 130 42t34 167v823q0 125 -34 167t-130 42v13h723q295 0 433.5 -90t138.5 -248q0 -66 -23 -117.5t-66 -85t-92.5 -56.5t-116.5 -35.5t-122.5 -18.5t-124.5 -9v-8q83 0 146 -4t111 -14.5t80 -21t56.5 -33t38.5 -41.5t27 -55.5t20 -65.5t20.5 -80.5 t26.5 -92.5q31 -101 70 -139.5t127 -38.5v-12h-498q-37 62 -78 238q-45 197 -58 234q-27 78 -75 103q-43 21 -139 21h-107v-375q0 -125 34 -167t130 -42v-12h-682zM573 608h148q73 0 126.5 28t82 75.5t42 101.5t13.5 115q0 63 -14 117t-44 102t-87 76t-135 28h-132v-643z " />
<glyph unicode="S" horiz-adv-x="1210" d="M104 418l11 2q40 -102 82 -175.5t97.5 -133.5t126.5 -90.5t159 -30.5q128 0 197 61.5t69 155.5q0 55 -25 99.5t-67 75t-97 57t-115 51t-120.5 50t-115.5 60.5t-97 77.5t-67 105t-25 139.5q0 179 128 273.5t365 94.5q55 0 119.5 -5.5t106.5 -10.5q32 -4 72 -4h24 q54 2 104 14l21 -420l-8 -2q-33 79 -59.5 134t-65.5 112t-80 91.5t-97 56.5t-122 22q-115 0 -175.5 -57.5t-60.5 -141.5q0 -52 25 -94t67.5 -72t97.5 -56t116 -50.5t121.5 -51t115.5 -62t97.5 -79t67.5 -106t25 -139.5q0 -190 -145 -292t-391 -102q-209 0 -463 54z" />
<glyph unicode="T" horiz-adv-x="1398" d="M53 803l33 463h1227l33 -463l-9 -2q-24 77 -50 138t-64.5 121.5t-83.5 100.5t-107.5 65t-136.5 25h-18v-1009q0 -71 13.5 -117.5t41.5 -70.5t62.5 -33t86.5 -9v-12h-764v12q52 0 86.5 9t63 33t42 70.5t13.5 117.5v1009h-18q-74 0 -136.5 -25t-108 -65t-84 -100.5 t-64.5 -121.5t-50 -138z" />
<glyph unicode="U" horiz-adv-x="1452" d="M31 1253v13h682v-13q-93 0 -128.5 -55.5t-35.5 -185.5v-664q0 -336 293 -336q76 0 140 23.5t114.5 71t79 127.5t28.5 186v379q0 88 -4 149t-14.5 115.5t-28.5 87.5t-48 57.5t-71.5 34.5t-99.5 10v13h553v-13q-58 0 -99.5 -10t-71.5 -34.5t-48 -57.5t-28.5 -87.5 t-14.5 -115.5t-4 -149v-379q0 -222 -121.5 -333.5t-360.5 -111.5q-119 0 -216.5 27.5t-173 82t-117 145t-41.5 208.5v574q0 130 -35.5 185.5t-128.5 55.5z" />
<glyph unicode="V" horiz-adv-x="1357" d="M-49 1253v13h770v-13q-73 -1 -108 -43q-33 -39 -33 -92v-8q2 -58 32 -121l252 -567l144 350q65 162 65 281q0 94 -44 147t-136 53v13h547v-13q-95 0 -159.5 -48.5t-119.5 -145.5q-35 -62 -135 -297l-328 -774h-14l-469 1001q-18 38 -25 52.5t-26 50t-31.5 51.5 t-34.5 41.5t-42 37.5t-47.5 21.5t-57.5 9.5z" />
<glyph unicode="W" horiz-adv-x="2048" d="M-45 1253v13h709v-13q-40 0 -66.5 -13.5t-37 -35t-11.5 -51.5t6 -60t20 -63l242 -604l201 504l-23 59q-106 264 -256 264v13h744v-13q-56 0 -89.5 -24.5t-43.5 -64.5q-6 -26 -6 -54q0 -14 2 -30q5 -44 22 -91l209 -551l127 334q63 167 63 283q0 95 -45 146.5t-137 51.5 v13h547v-13q-93 0 -159.5 -49t-117.5 -139q-18 -31 -37.5 -73t-31 -69t-34 -84.5t-30.5 -76.5l-303 -774h-14l-375 913l-368 -913h-15l-430 1001q-49 111 -81 156q-77 108 -181 108z" />
<glyph unicode="X" horiz-adv-x="1497" d="M-55 0v12q145 0 331 170q116 107 234 254l92 115l-280 434q-81 125 -157.5 196.5t-164.5 71.5v13h797v-13q-71 1 -101 -35q-25 -29 -25 -67q0 -9 1 -17q7 -48 39 -98l168 -258l59 76q129 162 129 272q0 61 -41 94t-113 33v13h609v-13q-148 0 -326 -153 q-120 -104 -248 -262l-61 -74l315 -485q174 -267 332 -267v-12h-795v12q88 0 112 59q7 17 7 37q0 50 -43 119l-203 310l-88 -113q-112 -146 -112 -258q0 -74 51 -114t131 -40v-12h-649z" />
<glyph unicode="Y" horiz-adv-x="1404" d="M-45 1253v13h752v-13q-92 0 -114 -63q-6 -18 -6 -38q0 -49 38 -110l260 -428h2l143 248q88 151 88 250q0 141 -178 141v13h530v-13q-79 0 -140 -35.5t-118 -107.5q-55 -71 -165 -258l-146 -246v-364q0 -71 13.5 -117.5t42 -70.5t63 -33t86.5 -9v-12h-764v12q52 0 86.5 9 t63 33t42 70.5t13.5 117.5v260l-348 555q-123 196 -244 196z" />
<glyph unicode="Z" d="M53 4l772 1247h-227q-75 0 -144.5 -26.5t-123.5 -70.5t-99.5 -103t-76 -121.5t-50.5 -128.5l-10 2l39 463h1102l4 -4l-778 -1248h270q93 0 177 40t145 106.5t104 143.5t68 161l10 -2l-39 -463h-1141z" />
<glyph unicode="[" horiz-adv-x="694" d="M125 -344v1761h577v-12h-192q-96 0 -96 -88v-1563q0 -88 96 -88h192v-10h-577z" />
<glyph unicode="\" horiz-adv-x="892" d="M47 1425l16 9l785 -1760l-14 -8z" />
<glyph unicode="]" horiz-adv-x="694" d="M-8 -334h192q97 0 97 88v1563q0 88 -97 88h-192v12h577v-1761h-577v10z" />
<glyph unicode="^" horiz-adv-x="942" d="M74 686l391 614h12l391 -614l-8 -6l-389 344l-389 -344z" />
<glyph unicode="_" horiz-adv-x="1056" d="M0 -100h1057v-19h-1057v19z" />
<glyph unicode="`" horiz-adv-x="747" d="M177 1230.5q-10 45.5 20 82.5q31 38 78 37.5t90 -37.5q26 -21 57.5 -63t91 -133t94.5 -140l-4 -4q-48 21 -125 54t-112.5 48.5t-75 36t-60.5 37.5q-44 36 -54 81.5z" />
<glyph unicode="a" horiz-adv-x="1118" d="M66 219q0 123 99.5 181.5t260.5 58.5q117 0 223 -27v215q0 102 -33 159.5t-124 57.5q-108 0 -175 -90q41 -20 66 -60t25 -85q0 -63 -45 -106.5t-111 -43.5q-68 0 -108 47t-40 107q0 103 113.5 172t292.5 69q67 0 131 -10.5t125.5 -35.5t107 -62t73.5 -94.5t28 -128.5 v-439q0 -57 53 -57q64 0 131 100l10 -6q-25 -36 -47 -60.5t-54.5 -49.5t-75 -38t-93.5 -13q-90 0 -148 39t-83 104q-106 -146 -301 -146q-136 0 -218.5 65t-82.5 177zM399 236q0 -83 28.5 -137t90.5 -54q70 0 131 78v293q-62 16 -98 16q-152 0 -152 -196z" />
<glyph unicode="b" horiz-adv-x="1161" d="M6 1315v12l449 41v-631q115 137 282 137q88 0 158 -38t112.5 -101t64.5 -140t22 -161q0 -74 -17 -141t-54 -125t-91 -100.5t-131.5 -66.5t-171.5 -24q-146 0 -238 68l-256 -65l-6 2v1161q0 89 -23.5 130.5t-99.5 41.5zM455 102q0 -41 29 -75.5t83 -34.5q44 0 78 26.5 t54 68.5t33 99t17.5 112t4.5 114q0 170 -41 273t-129 103q-69 0 -129 -67v-619z" />
<glyph unicode="c" horiz-adv-x="1017" d="M63 432q0 134 70 236t184 154t250 52q179 0 282 -85.5t103 -194.5q0 -73 -47 -116.5t-112 -43.5q-69 0 -116.5 48t-47.5 116q0 60 36 105t93 55q-43 106 -150 106q-49 0 -87.5 -25t-61.5 -64.5t-37.5 -93.5t-19.5 -105t-5 -107q0 -210 74.5 -325t204.5 -115 q149 0 280 159l11 -8q-164 -203 -426 -203q-114 0 -207 38.5t-151 103t-89 145t-31 168.5z" />
<glyph unicode="d" horiz-adv-x="1177" d="M68 422q0 125 48 225.5t148.5 163.5t239.5 63q115 0 203 -47v316q0 92 -39.5 132t-124.5 40v12l489 41v-1184q0 -89 23.5 -130.5t99.5 -41.5v-12h-438v109q-111 -132 -277 -132q-115 0 -201 63.5t-128.5 163.5t-42.5 218zM408 434q0 -167 47 -269t135 -102q61 0 117 56 v637q-22 44 -55 72t-74 28q-49 0 -84.5 -43t-53 -112t-25 -135t-7.5 -132z" />
<glyph unicode="e" horiz-adv-x="1052" d="M63 424q0 93 35 175t97.5 143t154.5 96.5t201 35.5q196 0 314 -110.5t126 -298.5h-594q2 -204 78.5 -320t214.5 -116q156 0 287 159l10 -8q-33 -40 -66.5 -70.5t-85.5 -63.5t-122.5 -51t-155.5 -18q-118 0 -214 37t-156 99.5t-92 142t-32 168.5zM397 481h277 q0 383 -129 383q-40 0 -70.5 -37.5t-46.5 -97.5t-23.5 -122.5t-7.5 -125.5z" />
<glyph unicode="f" horiz-adv-x="776" d="M27 823v29h170v123q0 178 119.5 276.5t306.5 98.5q93 0 165 -25t112 -65.5t59.5 -83t19.5 -84.5q0 -67 -46 -111.5t-108 -44.5q-63 0 -107 46t-44 112q0 55 31.5 97t82.5 56q-33 90 -120 90q-66 0 -106 -51t-40 -149v-285h236v-29h-236v-633q0 -105 50 -141.5t145 -36.5 v-12h-684v12q84 0 124 43t40 135v633h-170z" />
<glyph unicode="g" horiz-adv-x="1026" d="M33 -195q0 92 178 127q-113 42 -113 144q0 138 197 213q-107 37 -166 109t-59 167q0 136 119 222.5t317 86.5q129 0 229 -38q24 47 52.5 107t39 80t24.5 42t30 37q29 28 68 28h3q41 -2 70 -34q28 -31 28 -70q0 -42 -32 -72q-9 -8 -20 -16t-29 -17l-31 -15.5t-40.5 -17.5 t-43 -17.5t-52 -20.5t-54.5 -21q93 -40 143.5 -108.5t50.5 -155.5q0 -135 -118 -222t-318 -87q-109 0 -201 29q-47 -23 -47 -60q0 -25 32 -37t84.5 -12.5t119.5 -1.5t137 -1.5t137 -13.5t119.5 -36t84.5 -71.5t32 -117.5q0 -139 -128.5 -214.5t-398.5 -75.5 q-198 0 -321 40.5t-123 120.5zM184 -164q0 -41 14.5 -72t48.5 -57t98 -39.5t155 -13.5q81 0 142.5 11t95 27t53.5 37.5t26 38.5t6 35q0 44 -41.5 67t-112 28t-146 5t-161.5 5t-141 22q-37 -37 -37 -94zM387 565q0 -299 119 -299t119 299t-119 299t-119 -299z" />
<glyph unicode="h" horiz-adv-x="1206" d="M25 0v12q76 0 99 41.5t23 130.5v959q0 89 -23 130.5t-99 41.5v12l448 41v-651q157 157 330 157q113 0 185.5 -69t72.5 -211v-410q0 -89 23.5 -130.5t99.5 -41.5v-12h-551v12q60 0 81 43t21 129v447q0 72 -29 106.5t-79 34.5q-76 0 -154 -74v-514q0 -89 23.5 -130.5 t99.5 -41.5v-12h-571z" />
<glyph unicode="i" horiz-adv-x="632" d="M37 0v12q76 0 99.5 41.5t23.5 130.5v465q0 89 -23.5 130.5t-99.5 41.5v13l448 40v-690q0 -89 23.5 -130.5t99.5 -41.5v-12h-571zM131 1157q0 77 54.5 127.5t133.5 50.5t134 -50.5t55 -127.5q0 -78 -55 -129t-134 -51t-133.5 51t-54.5 129z" />
<glyph unicode="j" horiz-adv-x="616" d="M-14 -352q42 23 72.5 48t49.5 54t30.5 54t16.5 61t6 61t1 68v653q0 85 -32.5 128.5t-111.5 43.5v15l469 40v-823q0 -67 -33.5 -127t-83.5 -102t-120.5 -79.5t-131 -60t-128.5 -42.5zM133 1157q0 77 55 127.5t134 50.5t133.5 -50.5t54.5 -127.5q0 -78 -54.5 -129 t-133.5 -51t-134 51t-55 129z" />
<glyph unicode="k" horiz-adv-x="1169" d="M25 0v12q76 0 99 41.5t23 130.5v959q0 89 -23 130.5t-99 41.5v12l448 41v-995l166 159q143 137 143 224q0 84 -141 84v12h500v-12q-79 0 -147 -27.5t-142 -87.5q-48 -37 -109 -98l-6 -6l312 -482q80 -127 172 -127v-12h-451l-254 393l-43 -41v-168q0 -89 23.5 -130.5 t99.5 -41.5v-12h-571z" />
<glyph unicode="l" horiz-adv-x="620" d="M25 0v12q76 0 99 41.5t23 130.5v959q0 89 -23 130.5t-99 41.5v12l448 41v-1184q0 -89 23.5 -130.5t99.5 -41.5v-12h-571z" />
<glyph unicode="m" horiz-adv-x="1734" d="M37 0v12q76 0 99.5 41.5t23.5 130.5v465q0 89 -23.5 130.5t-99.5 41.5v13l428 40v-167q156 167 321 167q84 0 146 -42.5t86 -129.5q161 172 325 172q109 0 177.5 -68.5t68.5 -211.5v-410q0 -89 23.5 -130.5t99.5 -41.5v-12h-541v12q60 0 81.5 43.5t21.5 128.5v447 q0 72 -29 106.5t-78 34.5q-71 0 -145 -82q10 -48 10 -96v-410q0 -89 20.5 -130.5t90.5 -41.5v-12h-529v12q60 0 81.5 43.5t21.5 128.5v447q0 72 -29 106.5t-78 34.5q-63 0 -135 -72v-516q0 -85 21.5 -128.5t81.5 -43.5v-12h-541z" />
<glyph unicode="n" horiz-adv-x="1218" d="M37 0v12q76 0 99.5 41.5t23.5 130.5v465q0 89 -23.5 130.5t-99.5 41.5v13l438 40v-167q159 167 340 167q113 0 185.5 -69t72.5 -211v-410q0 -89 23.5 -130.5t99.5 -41.5v-12h-551v12q60 0 81.5 43.5t21.5 128.5v447q0 72 -29.5 106.5t-79.5 34.5q-76 0 -154 -74v-514 q0 -85 21.5 -128.5t81.5 -43.5v-12h-551z" />
<glyph unicode="o" horiz-adv-x="1159" d="M63 426q0 200 146.5 324t370.5 124t370 -124t146 -324t-146 -324.5t-370 -124.5t-370.5 124.5t-146.5 324.5zM408 426q0 -219 39.5 -326.5t132.5 -107.5t132.5 107.5t39.5 326.5t-39.5 326.5t-132.5 107.5t-132.5 -107.5t-39.5 -326.5z" />
<glyph unicode="p" horiz-adv-x="1177" d="M23 -322q32 0 55 9.5t36 24t20 39t9 48t2 58.5v784q0 35 -2 58.5t-9 48t-20 39t-36 23.5t-55 9v12l438 41v-131q111 133 276 133q115 0 201.5 -63.5t129 -163t42.5 -217.5q0 -93 -28.5 -174t-81.5 -143.5t-137 -99t-189 -36.5q-124 0 -203 48v-185q0 -80 33 -121t110 -41 v-12h-591v12zM471 164q0 -84 39.5 -126t91.5 -42q39 0 69.5 28t49 71t30 100.5t15.5 110.5t4 108q0 177 -46 275.5t-134 98.5q-68 0 -119 -55v-569z" />
<glyph unicode="q" horiz-adv-x="1161" d="M68 414q0 95 29.5 177.5t86 146t145.5 100t201 36.5q146 0 240 -69l256 67l6 -2v-1013q0 -35 2 -58.5t9.5 -48t20.5 -39t36 -24t55 -9.5v-12h-592v12q80 0 112 44.5t32 134.5v258q-112 -138 -283 -138q-71 0 -130.5 25t-100.5 68t-69.5 99.5t-42 118t-13.5 126.5z M408 440q0 -170 41 -273.5t129 -103.5q68 0 129 68v625q-5 40 -33.5 72t-79.5 32q-54 0 -92.5 -38.5t-58 -104.5t-27.5 -133.5t-8 -143.5z" />
<glyph unicode="r" horiz-adv-x="937" d="M37 0v12q40 0 65.5 12.5t37.5 39t16 54.5t4 72v451q0 44 -4 72t-16 54.5t-37.5 39t-65.5 12.5v12l438 41v-292q21 80 56.5 143.5t93.5 107t127 43.5q82 0 129 -52.5t47 -121.5q0 -71 -48.5 -120.5t-117.5 -49.5q-71 0 -120 52q-46 49 -46 122v9q-76 -42 -111 -135v-388 q0 -91 32 -134.5t112 -43.5v-12h-592z" />
<glyph unicode="s" horiz-adv-x="909" d="M88 289l8 2q65 -135 101 -184q83 -113 214 -117h11q50 0 86 13.5t52.5 35.5t23 42t6.5 42q0 40 -21.5 71.5t-57 50.5t-80.5 38t-92 34.5t-92 40t-80.5 54t-57 77.5t-21.5 109q0 134 98 205t273 71q46 0 115.5 -6.5t101.5 -7.5h6q33 0 96 10l10 -295l-8 -2 q-29 65 -55.5 110.5t-63 89.5t-83 66.5t-101.5 22.5q-77 0 -111 -38.5t-34 -88.5q0 -43 28 -74.5t72.5 -52t98.5 -39t108 -42t98.5 -54.5t72.5 -83.5t28 -121.5q0 -142 -109 -216.5t-293 -74.5q-135 0 -340 39z" />
<glyph unicode="t" horiz-adv-x="747" d="M27 823v29h125v221l325 64v-285h250v-29h-250v-616q0 -76 25 -110t76 -34q55 0 100.5 33t91.5 86l10 -8q-33 -39 -64 -68.5t-76 -61.5t-100.5 -49.5t-117.5 -17.5q-124 0 -197 72.5t-73 212.5v561h-125z" />
<glyph unicode="u" horiz-adv-x="1204" d="M20 819v12l449 41v-651q0 -72 29.5 -106.5t79.5 -34.5q75 0 153 74v487q0 57 -7 93t-30.5 60.5t-64.5 24.5v12l428 41v-682q0 -44 4 -72t16 -54.5t37.5 -39t65.5 -12.5v-12h-439v145q-161 -168 -340 -168q-113 0 -185.5 69.5t-72.5 211.5v383q0 44 -4 72t-16 54.5 t-37.5 39t-65.5 12.5z" />
<glyph unicode="v" horiz-adv-x="1019" d="M-31 840v12h609v-12q-74 0 -92 -47q-5 -15 -5 -32q0 -39 27 -95l156 -322l67 152q66 143 66 229q0 115 -119 115v12h391v-12q-116 0 -205 -127q-41 -60 -119 -228l-227 -493h-8l-354 670q-42 78 -87 128t-100 50z" />
<glyph unicode="w" horiz-adv-x="1576" d="M-16 840v12h579v-12q-49 0 -68.5 -22t-13.5 -59.5t33 -92.5l160 -330l119 266l-27 60q-16 34 -21 44t-20.5 39t-24.5 39.5t-24.5 27t-31 22.5t-32.5 6v12h568v-12q-74 0 -90 -48q-5 -15 -6 -34q0 -39 24 -92l123 -308l57 138q72 173 72 243q0 101 -109 101v12h371v-12 q-124 0 -203 -115q-12 -17 -24 -38t-20 -36t-21 -44t-17 -38t-18 -44.5t-16 -39.5l-211 -493h-9l-278 588l-273 -588h-8l-354 670q-19 36 -36.5 62.5t-41.5 55.5t-51.5 44.5t-56.5 15.5z" />
<glyph unicode="x" horiz-adv-x="1060" d="M-49 0v12q111 0 250 119q88 77 168 184l41 58l-150 252q-61 102 -118.5 158.5t-123.5 56.5v12h584v-12q-43 0 -58.5 -24t-8 -55t27.5 -63l96 -159l31 39q84 107 84 184q0 78 -112 78v12h409v-12q-105 0 -225 -113q-57 -54 -150 -166l-28 -35l184 -303q54 -89 117 -150 t123 -61v-12h-600v12q44 0 60.5 24.5t9.5 59t-30 72.5l-114 192l-43 -63q-80 -117 -80 -193q0 -92 119 -92v-12h-463z" />
<glyph unicode="y" horiz-adv-x="1036" d="M-14 840v12h608v-12q-74 0 -92 -47q-5 -15 -5 -32q0 -40 27 -95l156 -322l68 152q65 149 65 227q0 117 -119 117v12h391v-12q-124 0 -213 -138q-14 -21 -30 -50t-26 -50.5t-28 -60t-26 -56.5l-234 -505q-21 -46 -39 -80.5t-54 -86.5t-72.5 -85.5t-90.5 -58.5t-112 -25 q-65 0 -94 26.5t-29 67.5q0 49 38.5 71t98 26.5t122 8.5t119.5 28.5t81 74.5l24 53l-348 662q-19 36 -36.5 62.5t-41.5 55.5t-51.5 44.5t-56.5 15.5z" />
<glyph unicode="z" horiz-adv-x="993" d="M59 6l508 832h-92q-67 0 -129.5 -31t-111 -84t-85.5 -114t-63 -130l-10 2l37 371h802l5 -6l-504 -832h108q233 0 391 357l11 -2l-39 -369h-824z" />
<glyph unicode="{" horiz-adv-x="751" d="M-31 530v13q162 0 242 73.5t80 243.5q0 77 -20.5 180.5t-20.5 143.5q0 59 23 102.5t63 71t104 44t135.5 22.5t167.5 6v-9q-134 -3 -182.5 -46.5t-48.5 -139.5q0 -87 40 -246t40 -211q0 -63 -32.5 -108t-98 -72t-153.5 -40t-210 -15v-15q84 -6 145.5 -13.5t121 -19.5 t98.5 -28.5t69.5 -40.5t45 -56.5t14.5 -74.5q0 -52 -40 -211t-40 -246q0 -96 48.5 -139.5t182.5 -46.5v-8q-96 0 -167.5 6t-135.5 22.5t-104 43.5t-63 70.5t-23 102.5q0 40 20.5 143.5t20.5 180.5q0 170 -80 243.5t-242 73.5z" />
<glyph unicode="|" horiz-adv-x="268" d="M125 -344v1761h18v-1761h-18z" />
<glyph unicode="}" horiz-adv-x="751" d="M8 -348q134 3 183 46.5t49 139.5q0 87 -40 246t-40 211q0 42 14 74.5t44.5 56.5t70 40.5t98.5 28.5t120.5 19.5t145.5 13.5v15q-247 5 -370 58t-123 177q0 52 40 211t40 246q0 96 -49 139.5t-183 46.5v9q96 0 168 -6t135.5 -22.5t104 -44t63.5 -71t23 -102.5 q0 -40 -20.5 -143.5t-20.5 -180.5q0 -170 79.5 -243.5t241.5 -73.5v-13q-162 0 -241.5 -73.5t-79.5 -243.5q0 -77 20.5 -180.5t20.5 -143.5q0 -59 -23 -102.5t-63.5 -70.5t-104.5 -43.5t-135.5 -22.5t-167.5 -6v8z" />
<glyph unicode="~" horiz-adv-x="931" d="M121 365q14 68 26.5 114t30.5 88.5t40 67t52.5 39t69.5 14.5q57 0 169 -42t167 -42q107 0 139 103l6 -2q-10 -46 -16.5 -74t-17.5 -66.5t-21.5 -61.5t-27 -49t-35.5 -40t-44.5 -23.5t-56.5 -9.5q-57 0 -169 42t-167 42q-103 0 -137 -103z" />
<glyph unicode="&#xa1;" horiz-adv-x="538" d="M74 -272q0 47 23 109.5t52.5 124.5t62.5 182t50 264h14q14 -118 38.5 -218.5t49.5 -164t48.5 -115.5t38 -97t14.5 -85q0 -86 -57 -138.5t-138 -52.5t-138.5 52t-57.5 139zM90 668q0 74 52 126t126 52t126 -52t52 -126t-52.5 -126.5t-125.5 -52.5t-125.5 52.5t-52.5 126.5 z" />
<glyph unicode="&#xa2;" horiz-adv-x="1054" d="M82 666q0 193 137.5 313.5t339.5 128.5v172h16v-172q95 1 172.5 -23.5t125 -66t73 -91t25.5 -100.5q0 -73 -47.5 -116t-112.5 -43q-69 0 -116.5 47.5t-47.5 115.5q0 60 36 105t93 55q-43 107 -149 107q-49 0 -87.5 -25.5t-61.5 -64.5t-37.5 -93.5t-19.5 -105.5t-5 -107 q0 -210 74 -325t204 -115q149 0 281 160l10 -8q-161 -198 -414 -203v-197h-16v197q-113 1 -205 39.5t-149.5 102.5t-88 144.5t-30.5 168.5z" />
<glyph unicode="&#xa3;" horiz-adv-x="1335" d="M68 657v19h196q-71 121 -71 235q0 178 150 278.5t380 100.5q123 0 223.5 -30.5t160.5 -80t92 -107t32 -116.5q0 -75 -47 -129.5t-121 -54.5q-71 0 -120.5 51.5t-49.5 124.5q0 65 39 113t98 59q-68 150 -237 150q-137 0 -195.5 -95.5t-58.5 -273.5q0 -57 8 -225h319v-19 h-317q10 -220 10 -239q0 -56 -6 -115q37 -4 121.5 -13.5t143 -14.5t100.5 -5q142 0 210 64t72 217h12q4 -50 6 -96.5t-0.5 -106t-11 -109.5t-27 -100.5t-46.5 -85.5t-72 -56.5t-100 -21.5q-55 0 -101.5 20t-83 53t-69.5 68t-76 74t-86 62q-47 -266 -244 -266 q-80 0 -129 41.5t-49 111.5q0 81 69 127.5t195 46.5q47 0 105 -6q-15 55 -49.5 112t-88 127.5t-78.5 110.5h-208zM141 139q0 -61 41 -100t115 -39q103 0 161 84.5t40 187.5q-61 23 -131 23q-101 0 -163.5 -40.5t-62.5 -115.5z" />
<glyph unicode="&#xa5;" horiz-adv-x="1591" d="M51 1253v13h721v-13q-92 0 -114 -62.5t32 -148.5l260 -428h2l144 248q88 151 88 250q0 141 -178 141v13h530v-13q-87 0 -152 -41.5t-127 -126.5q-37 -50 -145 -233l-88 -150h250v-18h-262l-45 -78v-182h307v-18h-307v-164q0 -71 13.5 -117.5t41.5 -70.5t62.5 -33t86.5 -9 v-12h-733v12q52 0 86.5 9t63 33t42 70.5t13.5 117.5v164h-328v18h328v78l-115 182h-213v18h203l-223 355q-123 196 -244 196z" />
<glyph unicode="&#xa6;" horiz-adv-x="284" d="M133 -344v819h19v-819h-19zM133 700v717h19v-717h-19z" />
<glyph unicode="&#xa7;" horiz-adv-x="1019" d="M100 76q0 51 36 84t87 33q52 0 87.5 -36t35.5 -87q0 -43 -25 -77t-65 -44q63 -86 215 -86q114 0 165.5 46.5t51.5 108.5q0 41 -25 73.5t-66 53t-93 40.5t-107 36t-107 40t-93 51t-66 70.5t-25 98.5q0 47 17.5 85.5t54 71.5t74.5 57t98 55q-98 42 -153.5 101.5 t-55.5 154.5q0 131 108 207.5t281 76.5q168 0 262.5 -67t94.5 -152q0 -54 -37 -86.5t-86 -32.5q-52 0 -87.5 36t-35.5 87q0 43 25.5 77.5t64.5 43.5q-50 86 -184 86q-97 0 -151 -43.5t-54 -108.5q0 -43 25 -76.5t66 -54.5t93.5 -41.5t107.5 -37t107.5 -41t93.5 -53t66 -74 t25 -103.5q0 -83 -54 -138.5t-182 -121.5q95 -42 148 -100t53 -150q0 -131 -108.5 -207.5t-295.5 -76.5q-180 0 -283.5 67.5t-103.5 153.5zM283 625q0 -39 23 -68.5t67.5 -51t89 -37t110 -36.5t107.5 -39q2 1 10 8t11 9.5t10 9.5t10 11.5t9 11.5t8.5 13.5t6 15t4.5 17.5 t1 19q0 40 -22 70.5t-66 53t-85.5 38t-107 36.5t-104.5 37q-82 -44 -82 -118z" />
<glyph unicode="&#xa8;" horiz-adv-x="1003" d="M170 1153q0 59 41 101t102 42q60 0 103 -42t43 -103q0 -60 -42.5 -102.5t-101.5 -42.5t-102 43t-43 104zM563 1153q0 59 41.5 101t102.5 42q60 0 102.5 -42t42.5 -103q0 -60 -42 -102.5t-101 -42.5t-102.5 43t-43.5 104z" />
<glyph unicode="&#xa9;" horiz-adv-x="1486" d="M86 633q0 134 52 256t140 210t210 139.5t255 51.5q135 0 256.5 -51.5t209.5 -139.5t140 -210t52 -256q0 -133 -52 -255t-140 -210t-210 -140.5t-256 -52.5q-178 0 -329.5 88.5t-239.5 240t-88 329.5zM104 633q0 -130 50.5 -248t136.5 -204t204 -136.5t248 -50.5 q174 0 321.5 85.5t233.5 233t86 320.5q0 174 -86 321.5t-233.5 233.5t-321.5 86q-173 0 -320.5 -86t-233 -233.5t-85.5 -321.5zM319 625q0 178 127 280.5t334 102.5q40 0 106 -5.5t96.5 -6t92.5 9.5l21 -267l-6 -2q-105 262 -283 262q-61 0 -105.5 -32t-67 -87t-32.5 -114.5 t-10 -128.5q0 -70 10 -131.5t33 -117.5t66.5 -89t103.5 -33q95 0 172.5 79t130.5 210l6 -4l-45 -258q-129 -35 -268 -35q-242 0 -362 101t-120 266z" />
<glyph unicode="&#xaa;" horiz-adv-x="1101" d="M111 434v19h882v-19h-882zM127 774q0 101 81 148t214 47q91 0 180 -21v174q0 82 -27 129t-100 47q-88 0 -139 -73q34 -15 54 -48t20 -71q0 -54 -36.5 -88.5t-92.5 -34.5t-89.5 38.5t-33.5 86.5q0 86 93 142.5t241 56.5q70 0 134.5 -14.5t121.5 -45t91.5 -85t34.5 -126.5 v-356q0 -43 44 -43q48 0 106 78l6 -4q-43 -62 -92.5 -96.5t-128.5 -34.5q-146 0 -193 116q-87 -118 -243 -118q-110 0 -178 52.5t-68 143.5zM406 788q0 -153 94 -153q54 0 102 59v240q-37 12 -76 12q-120 0 -120 -158z" />
<glyph unicode="&#xab;" horiz-adv-x="1185" d="M45 455v8l592 407l6 -8l-414 -403l414 -404l-6 -8zM522 455v8l592 407l6 -8l-413 -403l413 -404l-6 -8z" />
<glyph unicode="&#xad;" horiz-adv-x="765" d="M113 442v84h540v-84h-540z" />
<glyph unicode="&#xae;" horiz-adv-x="815" d="M88 1014q0 132 94 225.5t226 93.5q133 0 226 -93.5t93 -225.5t-93 -226t-226 -94q-132 0 -226 94t-94 226zM104 1014q0 -126 89.5 -214.5t214.5 -88.5q126 0 214.5 88.5t88.5 214.5t-88.5 214.5t-214.5 88.5q-125 0 -214.5 -88.5t-89.5 -214.5zM238 856v4q23 0 30.5 9.5 t7.5 41.5v205q0 32 -7.5 41.5t-30.5 9.5v4h186q74 0 108.5 -23t34.5 -61q0 -25 -12 -41.5t-35 -24t-42.5 -10t-47.5 -3.5v-2q32 0 52.5 -3t32.5 -6t20 -14t10.5 -18t8 -28t9.5 -34q8 -25 17.5 -34t31.5 -9v-4h-131q-5 9 -18 62q-12 60 -22 73t-46 13h-24v-93q0 -31 9 -41 t32 -10v-4h-174zM371 1010h37q63 0 63 77q0 33 -16 55.5t-52 22.5h-32v-155z" />
<glyph unicode="&#xaf;" horiz-adv-x="907" d="M150 1024v82h614v-82h-614z" />
<glyph unicode="&#xb0;" horiz-adv-x="784" d="M68 1047q0 68 28.5 120.5t76 83.5t103.5 46.5t115 15.5q60 0 116 -15.5t104 -46t77 -83.5t29 -121t-29 -121t-76.5 -83.5t-104 -46.5t-116.5 -16q-47 0 -92 9.5t-87 30.5t-74 51.5t-51 76t-19 99.5zM279 1047q0 -256 112 -256q115 0 115 256t-115 256q-112 0 -112 -256z " />
<glyph unicode="&#xb1;" horiz-adv-x="1144" d="M117 0v18h911v-18h-911zM117 657v19h446v446h19v-446h446v-19h-446v-446h-19v446h-446z" />
<glyph unicode="&#xb2;" horiz-adv-x="827" d="M45 1272q0 81 96.5 148t259.5 67q93 0 168 -23t123.5 -73.5t48.5 -122.5q0 -56 -31 -96.5t-80 -63t-115 -45t-129.5 -41.5t-131 -54t-113.5 -81q-21 -21 -41 -53q57 90 224 90q55 0 148.5 -14.5t135.5 -14.5q64 0 99.5 24.5t35.5 84.5q0 23 -6 47h11q18 -58 18 -140 q0 -48 -8 -88t-26.5 -75.5t-53 -55.5t-82.5 -20t-92.5 21t-79.5 50.5t-68 59t-72 50.5t-79 21q-57 0 -88 -36.5t-31 -92.5q0 -31 8 -59h-12q-15 76 -1 126t66 99q29 27 80 64.5t91 68.5t80 71t62.5 89.5t22.5 106.5q0 75 -39 118.5t-108 43.5q-57 0 -96.5 -28t-55.5 -65 q41 -8 69 -39t28 -73q0 -49 -34.5 -82t-84.5 -33q-52 0 -84.5 35.5t-32.5 83.5z" />
<glyph unicode="&#xb3;" horiz-adv-x="825" d="M47 850q0 45 32.5 80t84.5 35q51 0 85 -33t34 -82q0 -38 -23.5 -70.5t-60.5 -42.5q35 -51 120 -51q93 0 143 56.5t50 148.5q0 184 -209 190q-43 1 -71 -7l-29 -7q-10 0 -17.5 5t-7.5 13t7 14.5t16 6.5q3 0 34.5 -7t63.5 -7q53 0 91 17.5t58.5 47.5t29.5 63t9 70 q0 87 -43 135t-116 48q-80 0 -119 -56q39 -9 63.5 -39t24.5 -71q0 -48 -32.5 -79.5t-84.5 -31.5q-53 0 -82.5 32.5t-29.5 78.5q0 80 90.5 130t244.5 50q158 0 251.5 -54.5t93.5 -146.5q0 -68 -53 -113.5t-135.5 -64.5t-188.5 -18h-15v-7h15q178 0 289.5 -50t111.5 -150 q0 -101 -108 -156t-269 -55q-157 0 -252.5 50.5t-95.5 127.5z" />
<glyph unicode="&#xb4;" horiz-adv-x="747" d="M156 979q30 44 76 111.5t69.5 101.5t51.5 69t48 52q43 37 90 37.5t78 -37.5q30 -37 20 -82.5t-54 -81.5q-21 -17 -60 -37t-77.5 -36t-111.5 -47t-126 -54z" />
<glyph unicode="&#xb5;" horiz-adv-x="1284" d="M127 74v770l326 28v-651q0 -72 29 -106.5t79 -34.5q76 0 154 74v688l325 30v-731q0 -106 88 -106q12 0 22 1.5t21.5 6t16 6t18.5 9.5t15 8l6 -11q-128 -78 -266 -78q-122 0 -179 46.5t-57 121.5q-161 -168 -340 -168q-90 0 -156 44t-90 135v-72q0 -46 20 -88t50 -73 t64.5 -63t64.5 -58.5t50 -59t20 -64.5q0 -38 -24.5 -63t-72.5 -25q-32 0 -58.5 12t-44.5 36.5t-32.5 52.5t-23 68t-14 75t-7.5 82t-3 80t-1 78z" />
<glyph unicode="&#xb6;" horiz-adv-x="1024" d="M61 899q0 157 127.5 262t325.5 105h434v-15h-123v-1372h-16v1372h-264v-1372h-19v662q-218 0 -341.5 102.5t-123.5 255.5z" />
<glyph unicode="&#xb7;" horiz-adv-x="536" d="M90 526q0 74 52.5 126.5t125.5 52.5t125.5 -52.5t52.5 -126.5t-52 -126t-126 -52t-126 52t-52 126z" />
<glyph unicode="&#xb8;" horiz-adv-x="700" d="M70 -410l8 11q28 -19 74 -32t88 -13q82 0 126 46.5t44 116.5q0 65 -37 105.5t-101 40.5q-38 0 -77 -17l-7 7l156 143l16 -6l-127 -119q56 16 134 16q128 0 202 -47t74 -131q0 -51 -27.5 -88.5t-73.5 -58.5t-98.5 -31t-111.5 -10q-159 0 -262 67z" />
<glyph unicode="&#xb9;" horiz-adv-x="563" d="M25 1368v6q216 20 387 99l8 -3v-645q0 -83 32 -107t101 -24v-8h-526v8q76 0 112.5 30t36.5 116v458q0 38 -12 54t-47 16h-92z" />
<glyph unicode="&#xba;" horiz-adv-x="1064" d="M111 940q0 163 118.5 265t302.5 102t303 -102t119 -265q0 -160 -119 -261t-303 -101t-302.5 101t-118.5 261zM129 434v19h807v-19h-807zM397 940q0 -177 31 -263.5t104 -86.5t104.5 87t31.5 263q0 178 -31.5 266t-104.5 88t-104 -88t-31 -266z" />
<glyph unicode="&#xbb;" horiz-adv-x="1185" d="M66 55l413 404l-413 403l6 8l592 -407v-8l-592 -408zM543 55l413 404l-413 403l6 8l592 -407v-8l-592 -408z" />
<glyph unicode="&#xbc;" horiz-adv-x="1806" d="M88 1163v6q216 20 387 99l8 -2v-645q0 -83 32 -107.5t101 -24.5v-8h-526v8q76 0 113 30t37 116v459q0 37 -12.5 53t-47.5 16h-92zM444 -8l856 1294l15 -8l-856 -1294zM930 209l110 86q66 53 107 129.5t41 157.5q0 130 -117 219q66 3 133 -5.5t127.5 -28t98.5 -56.5 t38 -86q0 -41 -26.5 -78t-74 -69t-96.5 -59t-111.5 -62t-102.5 -64l-107 -78h416v104l236 201h6v-305q53 0 82 7l30 7q12 0 19.5 -6t7.5 -14q0 -7 -9 -13t-18 -6q-4 0 -14.5 3t-35 6.5t-62.5 3.5v-64q0 -83 32 -107t101 -24v-8h-527v8q77 0 114.5 30t37.5 116v51h-434z" />
<glyph unicode="&#xbd;" horiz-adv-x="1808" d="M74 1163v6q216 20 387 99l8 -2v-645q0 -83 32 -107.5t101 -24.5v-8h-526v8q76 0 112.5 30t36.5 116v459q0 37 -12 53t-47 16h-92zM430 -8l856 1294l14 -8l-856 -1294zM1018 586q0 81 96.5 148t259.5 67q93 0 168 -23t123.5 -73.5t48.5 -122.5q0 -56 -31 -96.5t-80 -63 t-115 -45t-129.5 -41.5t-131 -54t-113.5 -81q-19 -19 -41 -54q58 91 223 91q55 0 149 -14.5t136 -14.5q65 0 100 24t35 84q0 24 -6 48h10q19 -62 19 -140q0 -48 -8 -88t-26.5 -75.5t-53 -55.5t-82.5 -20t-92.5 21t-79.5 50.5t-68 59t-72 50.5t-79 21q-57 0 -88 -36.5 t-31 -92.5q0 -31 8 -59h-12q-15 76 -1 126t66 99q29 27 80 64.5t91 68.5t80 71t62.5 89.5t22.5 106.5q0 75 -39 118t-108 43q-57 0 -97 -27.5t-55 -64.5q41 -8 68.5 -39t27.5 -73q0 -49 -34 -82t-84 -33q-52 0 -84.5 35.5t-32.5 83.5z" />
<glyph unicode="&#xbe;" horiz-adv-x="1927" d="M82 645q0 45 32.5 80t84.5 35q51 0 84.5 -32.5t33.5 -82.5q0 -38 -23.5 -70.5t-60.5 -42.5q35 -51 121 -51q93 0 143 56.5t50 148.5q0 185 -209 191q-43 1 -72 -7l-28 -8q-10 0 -17.5 5.5t-7.5 13.5t7 14t16 6q3 0 34.5 -7t63.5 -7q53 0 91 17.5t58.5 47.5t29.5 63t9 70 q0 86 -43.5 134.5t-116.5 48.5q-79 0 -118 -56q39 -9 63.5 -39t24.5 -71q0 -48 -32.5 -79.5t-84.5 -31.5q-53 0 -83 32.5t-30 78.5q0 79 91 129.5t245 50.5q158 0 251 -54.5t93 -146.5q0 -68 -53 -113.5t-135 -64.5t-188 -18h-15v-6h15q115 0 202.5 -20t143 -66.5 t55.5 -114.5q0 -101 -108 -156t-269 -55q-157 0 -252.5 50.5t-95.5 127.5zM565 -8l856 1294l15 -8l-856 -1294zM1051 209l110 86q66 53 107 129.5t41 157.5q0 130 -117 219q66 3 133 -5.5t127.5 -28t98.5 -56.5t38 -86q0 -41 -26.5 -78t-74 -69t-96.5 -59t-111.5 -62 t-102.5 -64l-107 -78h416v104l235 201h7v-305q53 0 83 7l29 7q12 0 19.5 -6t7.5 -14q0 -7 -9 -13t-18 -6q-4 0 -14.5 3t-35 6.5t-62.5 3.5v-64q0 -83 32 -107t101 -24v-8h-527v8q77 0 114.5 30t37.5 116v51h-434z" />
<glyph unicode="&#xbf;" horiz-adv-x="1146" d="M55 -115q0 51 19.5 94t51 73t76 54.5t89 40t95.5 28t90.5 19.5t80 14t57.5 11l11 189h12l10 -197q-248 -75 -248 -334q0 -139 66.5 -230t193.5 -91q82 0 143.5 37.5t94.5 97.5q-61 11 -100 59t-39 113q0 73 48.5 123.5t119.5 50.5q74 0 120 -54t46 -126 q0 -46 -20.5 -91.5t-63 -87t-102 -73t-144 -50t-182.5 -18.5q-243 0 -384 102.5t-141 245.5zM444 668q0 73 52.5 125.5t126.5 52.5q73 0 125.5 -52t52.5 -126t-52.5 -126.5t-125.5 -52.5t-126 52.5t-53 126.5z" />
<glyph unicode="&#xc0;" horiz-adv-x="1386" d="M-88 0v12q58 0 109.5 26t85.5 57t75 101t60 111t60 133q3 7 5 11l367 827h14l490 -1002q26 -54 50.5 -94.5t57.5 -82.5t73 -64.5t83 -22.5v-12h-770v12q73 0 108 39.5t32.5 98t-34.5 126.5l-61 132h-406l-12 -29q-35 -106 -31 -188t63.5 -130.5t168.5 -48.5v-12h-588z M322 428h385l-199 422zM459.5 1639.5q-10.5 44.5 19.5 82.5q31 38 78 37.5t90 -37.5q26 -21 57 -62.5t92.5 -134t94.5 -139.5l-4 -4q-45 20 -124.5 54t-113.5 49t-74 36t-61 38q-44 36 -54.5 80.5z" />
<glyph unicode="&#xc1;" horiz-adv-x="1386" d="M-88 0v12q58 0 109.5 26t85.5 57t75 101t60 111t60 133q3 7 5 11l367 827h14l490 -1002q26 -54 50.5 -94.5t57.5 -82.5t73 -64.5t83 -22.5v-12h-770v12q73 0 108 39.5t32.5 98t-34.5 126.5l-61 132h-406l-12 -29q-35 -106 -31 -188t63.5 -130.5t168.5 -48.5v-12h-588z M322 428h385l-199 422zM510 1389q28 41 76 111t70.5 102t51 67.5t48.5 52.5q43 37 90 37.5t78 -37.5q30 -38 19.5 -82.5t-54.5 -80.5q-21 -17 -60 -37t-77 -36t-112 -47.5t-126 -54.5z" />
<glyph unicode="&#xc2;" horiz-adv-x="1386" d="M-88 0v12q58 0 109.5 26t85.5 57t75 101t60 111t60 133q3 7 5 11l367 827h14l490 -1002q26 -54 50.5 -94.5t57.5 -82.5t73 -64.5t83 -22.5v-12h-770v12q73 0 108 39.5t32.5 98t-34.5 126.5l-61 132h-406l-12 -29q-35 -106 -31 -188t63.5 -130.5t168.5 -48.5v-12h-588z M322 428h385l-199 422zM367 1360l231 321q39 52 88 52t88 -52l232 -321l-5 -4l-315 170l-315 -170z" />
<glyph unicode="&#xc3;" horiz-adv-x="1386" d="M-88 0v12q58 0 109.5 26t85.5 57t75 101t60 111t60 133q3 7 5 11l367 827h14l490 -1002q26 -54 50.5 -94.5t57.5 -82.5t73 -64.5t83 -22.5v-12h-770v12q73 0 108 39.5t32.5 98t-34.5 126.5l-61 132h-406l-12 -29q-35 -106 -31 -188t63.5 -130.5t168.5 -48.5v-12h-588z M322 428h385l-199 422zM375 1399q13 128 27 179q43 141 153 142q52 0 157.5 -48t161.5 -48q34 0 57.5 11t35 31.5t16.5 37t8 39.5l10 -2q-3 -35 -6 -60.5t-9.5 -61.5t-15 -61.5t-22 -53.5t-31 -45t-42.5 -28.5t-56 -11.5q-51 0 -155 48.5t-162 48.5q-34 0 -57.5 -11 t-35 -31.5t-16.5 -37t-8 -39.5z" />
<glyph unicode="&#xc4;" horiz-adv-x="1386" d="M-88 0v12q58 0 109.5 26t85.5 57t75 101t60 111t60 133q3 7 5 11l367 827h14l490 -1002q26 -54 50.5 -94.5t57.5 -82.5t73 -64.5t83 -22.5v-12h-770v12q73 0 108 39.5t32.5 98t-34.5 126.5l-61 132h-406l-12 -29q-35 -106 -31 -188t63.5 -130.5t168.5 -48.5v-12h-588z M322 428h385l-199 422zM346 1563q0 59 41 101t102 42q60 0 103 -42t43 -103q0 -60 -42 -103t-101 -43t-102.5 43.5t-43.5 104.5zM739 1563q0 59 41.5 101t102.5 42q60 0 102.5 -42t42.5 -103q0 -60 -42 -103t-101 -43t-102.5 43.5t-43.5 104.5z" />
<glyph unicode="&#xc5;" horiz-adv-x="1386" d="M-88 0v12q58 0 109.5 26t85.5 57t75 101t60 111t60 133q3 7 5 11l367 827h14l490 -1002q26 -54 50.5 -94.5t57.5 -82.5t73 -64.5t83 -22.5v-12h-770v12q73 0 108 39.5t32.5 98t-34.5 126.5l-61 132h-406l-12 -29q-35 -106 -31 -188t63.5 -130.5t168.5 -48.5v-12h-588z M322 428h385l-199 422zM416 1575q0 97 74 157t196 60t196 -60t74 -157q0 -96 -74 -155.5t-196 -59.5t-196 59.5t-74 155.5zM616 1575q0 -209 70 -209q68 0 68 209t-68 209q-70 0 -70 -209z" />
<glyph unicode="&#xc6;" horiz-adv-x="2101" d="M-94 0v12q227 0 530 422l537 744q-15 42 -49.5 58.5t-98.5 16.5v13h1131l31 -432l-9 -3q-43 190 -164.5 305t-322.5 115h-148v-612h64q77 0 140.5 26t106 71.5t70 98.5t43.5 115h9v-633h-9q-16 61 -43.5 113.5t-70 97.5t-106 71t-140.5 26h-64v-611h158q363 0 496 451 l8 -2l-39 -463h-1141v12q96 0 130 42t34 167v236h-512l-22 -33q-97 -134 -117.5 -227.5t30 -139t164.5 -45.5v-12h-626zM492 477h497v567q0 77 -10 113z" />
<glyph unicode="&#xc7;" horiz-adv-x="1435" d="M78 623q0 201 95.5 353t265.5 233t390 81q55 0 128 -6t123.5 -11t113 -2.5t115.5 15.5l37 -446l-11 -2q-174 440 -475 440q-75 0 -136.5 -25.5t-104.5 -72t-74.5 -106t-50 -133t-27 -148.5t-8.5 -156q0 -99 12 -188.5t40.5 -175t72.5 -147.5t112.5 -100t155.5 -38 q112 0 211.5 64.5t171.5 167.5t129 243l8 -2l-69 -424q-276 -78 -549 -57l-113 -107q56 16 133 16q129 0 203 -47t74 -131q0 -51 -27.5 -88.5t-74 -58.5t-99 -31t-111.5 -10q-159 0 -262 67l8 11q28 -19 74 -32t88 -13q82 0 126 46.5t44 116.5q0 65 -36.5 105.5t-100.5 40.5 q-39 0 -78 -17l-6 7l137 127q-162 14 -288 68.5t-205.5 140t-120.5 195t-41 237.5z" />
<glyph unicode="&#xc8;" horiz-adv-x="1331" d="M55 0v12q96 0 130 42t34 167v823q0 125 -34 167t-130 42v13h1131l31 -432l-9 -3q-43 190 -164.5 305t-322.5 115h-148v-612h64q77 0 140.5 26t106 71.5t70 98.5t43.5 115h9v-633h-9q-16 61 -43.5 113.5t-70 97.5t-106 71t-140.5 26h-64v-611h158q363 0 496 451l8 -2 l-39 -463h-1141zM439.5 1639.5q-10.5 44.5 19.5 82.5q31 38 78 37.5t90 -37.5q26 -21 57.5 -63t91 -133t94.5 -140l-4 -4q-42 18 -102.5 44.5t-93.5 40.5t-71.5 32t-63 32t-41.5 28q-44 36 -54.5 80.5z" />
<glyph unicode="&#xc9;" horiz-adv-x="1331" d="M55 0v12q96 0 130 42t34 167v823q0 125 -34 167t-130 42v13h1131l31 -432l-9 -3q-43 190 -164.5 305t-322.5 115h-148v-612h64q77 0 140.5 26t106 71.5t70 98.5t43.5 115h9v-633h-9q-16 61 -43.5 113.5t-70 97.5t-106 71t-140.5 26h-64v-611h158q363 0 496 451l8 -2 l-39 -463h-1141zM502 1389q28 41 76 111t70.5 102t51 67.5t48.5 52.5q43 37 89.5 37.5t77.5 -37.5q30 -37 20 -82t-54 -81q-21 -17 -60 -37t-77 -36t-112 -47.5t-126 -54.5z" />
<glyph unicode="&#xca;" horiz-adv-x="1331" d="M55 0v12q96 0 130 42t34 167v823q0 125 -34 167t-130 42v13h1131l31 -432l-9 -3q-43 190 -164.5 305t-322.5 115h-148v-612h64q77 0 140.5 26t106 71.5t70 98.5t43.5 115h9v-633h-9q-16 61 -43.5 113.5t-70 97.5t-106 71t-140.5 26h-64v-611h158q363 0 496 451l8 -2 l-39 -463h-1141zM367 1360l231 321q39 52 88 52t88 -52l232 -321l-5 -4l-315 170l-315 -170z" />
<glyph unicode="&#xcb;" horiz-adv-x="1331" d="M55 0v12q96 0 130 42t34 167v823q0 125 -34 167t-130 42v13h1131l31 -432l-9 -3q-43 190 -164.5 305t-322.5 115h-148v-612h64q77 0 140.5 26t106 71.5t70 98.5t43.5 115h9v-633h-9q-16 61 -43.5 113.5t-70 97.5t-106 71t-140.5 26h-64v-611h158q363 0 496 451l8 -2 l-39 -463h-1141zM358 1563q0 59 41.5 101t102.5 42q60 0 102.5 -42t42.5 -103q0 -60 -42 -103t-101 -43t-102.5 43.5t-43.5 104.5zM752 1563q0 59 41 101t102 42q60 0 102.5 -42t42.5 -103q0 -60 -42 -103t-101 -43t-102 43.5t-43 104.5z" />
<glyph unicode="&#xcc;" horiz-adv-x="792" d="M55 0v12q96 0 130 42t34 167v823q0 125 -34 167t-130 42v13h682v-13q-96 0 -130 -42t-34 -167v-823q0 -125 34 -167t130 -42v-12h-682zM150.5 1639.5q-10.5 44.5 19.5 82.5q31 38 78 37.5t90 -37.5q26 -21 57 -62.5t92.5 -134t94.5 -139.5l-4 -4q-45 20 -124.5 54 t-113.5 49t-74 36t-61 38q-44 36 -54.5 80.5z" />
<glyph unicode="&#xcd;" horiz-adv-x="792" d="M55 0v12q96 0 130 42t34 167v823q0 125 -34 167t-130 42v13h682v-13q-96 0 -130 -42t-34 -167v-823q0 -125 34 -167t130 -42v-12h-682zM199 1389q30 43 76 111t69 101.5t51.5 68.5t48.5 52q43 37 90 37.5t78 -37.5q30 -37 20 -82t-54 -81q-21 -17 -60 -37t-77 -36 t-112 -47.5t-126 -54.5z" />
<glyph unicode="&#xce;" horiz-adv-x="792" d="M55 0v12q96 0 130 42t34 167v823q0 125 -34 167t-130 42v13h682v-13q-96 0 -130 -42t-34 -167v-823q0 -125 34 -167t130 -42v-12h-682zM76 1360l231 321q39 52 88 52t88 -52l232 -321l-4 -4l-316 170l-315 -170z" />
<glyph unicode="&#xcf;" horiz-adv-x="792" d="M55 0v12q96 0 130 42t34 167v823q0 125 -34 167t-130 42v13h682v-13q-96 0 -130 -42t-34 -167v-823q0 -125 34 -167t130 -42v-12h-682zM55 1563q0 59 41.5 101t102.5 42q60 0 102.5 -42t42.5 -103q0 -60 -42 -103t-101 -43t-102.5 43.5t-43.5 104.5zM449 1563 q0 59 41 101t102 42q60 0 102.5 -42t42.5 -103q0 -60 -42 -103t-101 -43t-102 43.5t-43 104.5z" />
<glyph unicode="&#xd0;" horiz-adv-x="1607" d="M55 0v12q96 0 130 42t34 167v406h-162v18h162v399q0 125 -34 167t-130 42v13h717q354 0 555 -169.5t201 -463.5t-201 -463.5t-555 -169.5h-717zM573 14h146q96 0 171.5 36t123 95t79 140.5t44 167t12.5 180.5q0 94 -12.5 179.5t-44 167t-79 140.5t-122.5 95t-170 36h-148 v-606h312v-18h-312v-613z" />
<glyph unicode="&#xd1;" horiz-adv-x="1478" d="M8 0v12q58 0 99.5 10t71.5 34.5t48 58t28.5 87.5t14.5 115t4 150v467q0 163 -55.5 241t-189.5 78v13h479l709 -734v267q0 106 -6 175.5t-22 127t-46 88.5t-77 47t-116 16v13h553v-13q-58 0 -99.5 -10t-71.5 -34.5t-48 -57.5t-28.5 -87.5t-14.5 -115.5t-4 -149v-815 l-10 -2l-932 972v-487q0 -89 4 -150t14.5 -115t28.5 -87.5t48 -58t71.5 -34.5t99.5 -10v-12h-553zM459 1399q13 128 27 179q43 141 153 142q52 0 157.5 -48t161.5 -48q34 0 57.5 11t35 31.5t16.5 37t8 39.5l10 -2q-3 -35 -6 -60.5t-9.5 -61.5t-15 -61.5t-22 -53.5t-31 -45 t-42.5 -28.5t-56 -11.5q-51 0 -155 48.5t-162 48.5q-34 0 -57.5 -11t-35 -31.5t-16.5 -37t-8 -39.5z" />
<glyph unicode="&#xd2;" horiz-adv-x="1601" d="M76 633q0 192 94.5 342.5t259.5 232.5t371 82t371 -82t259.5 -232.5t94.5 -342.5q0 -144 -55.5 -267.5t-151.5 -208.5t-230 -133.5t-288 -48.5t-288 48.5t-230 133.5t-151.5 208.5t-55.5 267.5zM457 633q0 -102 8.5 -189t32.5 -173.5t61.5 -146.5t99 -97t142.5 -37 q344 0 344 643t-344 643q-81 0 -142.5 -37t-99 -97t-61.5 -146.5t-32.5 -173.5t-8.5 -189zM549.5 1660q-10.5 45 19.5 83q31 38 78 37.5t90 -37.5q26 -21 57 -62.5t92.5 -134t94.5 -139.5l-4 -4q-48 21 -125 54t-112.5 48.5t-75 36t-60.5 37.5q-44 36 -54.5 81z" />
<glyph unicode="&#xd3;" horiz-adv-x="1601" d="M76 633q0 192 94.5 342.5t259.5 232.5t371 82t371 -82t259.5 -232.5t94.5 -342.5q0 -144 -55.5 -267.5t-151.5 -208.5t-230 -133.5t-288 -48.5t-288 48.5t-230 133.5t-151.5 208.5t-55.5 267.5zM457 633q0 -102 8.5 -189t32.5 -173.5t61.5 -146.5t99 -97t142.5 -37 q344 0 344 643t-344 643q-81 0 -142.5 -37t-99 -97t-61.5 -146.5t-32.5 -173.5t-8.5 -189zM612 1409q29 42 76 111t70 102t51.5 68.5t48.5 52.5q43 37 90 37.5t78 -37.5q30 -38 19.5 -83t-54.5 -81q-21 -17 -60 -37t-77.5 -36t-111.5 -47t-126 -54z" />
<glyph unicode="&#xd4;" horiz-adv-x="1601" d="M76 633q0 192 94.5 342.5t259.5 232.5t371 82t371 -82t259.5 -232.5t94.5 -342.5q0 -144 -55.5 -267.5t-151.5 -208.5t-230 -133.5t-288 -48.5t-288 48.5t-230 133.5t-151.5 208.5t-55.5 267.5zM457 633q0 -102 8.5 -189t32.5 -173.5t61.5 -146.5t99 -97t142.5 -37 q344 0 344 643t-344 643q-81 0 -142.5 -37t-99 -97t-61.5 -146.5t-32.5 -173.5t-8.5 -189zM481 1380l232 322q38 51 88 51t88 -51l231 -322l-4 -4l-315 170l-316 -170z" />
<glyph unicode="&#xd5;" horiz-adv-x="1601" d="M76 633q0 192 94.5 342.5t259.5 232.5t371 82t371 -82t259.5 -232.5t94.5 -342.5q0 -144 -55.5 -267.5t-151.5 -208.5t-230 -133.5t-288 -48.5t-288 48.5t-230 133.5t-151.5 208.5t-55.5 267.5zM457 633q0 -102 8.5 -189t32.5 -173.5t61.5 -146.5t99 -97t142.5 -37 q344 0 344 643t-344 643q-81 0 -142.5 -37t-99 -97t-61.5 -146.5t-32.5 -173.5t-8.5 -189zM487 1419q13 130 29 183q43 138 152 139q52 0 157.5 -48t161.5 -48q34 0 57.5 11t35 31t16.5 36.5t8 39.5l10 -2q-4 -42 -8 -71.5t-12 -71t-20.5 -69.5t-31 -55t-47 -40.5 t-63.5 -13.5q-51 0 -155.5 48t-162.5 48q-27 0 -48 -8.5t-32.5 -19.5t-19.5 -29t-11 -31t-5 -31z" />
<glyph unicode="&#xd6;" horiz-adv-x="1601" d="M76 633q0 192 94.5 342.5t259.5 232.5t371 82t371 -82t259.5 -232.5t94.5 -342.5q0 -144 -55.5 -267.5t-151.5 -208.5t-230 -133.5t-288 -48.5t-288 48.5t-230 133.5t-151.5 208.5t-55.5 267.5zM457 633q0 -102 8.5 -189t32.5 -173.5t61.5 -146.5t99 -97t142.5 -37 q344 0 344 643t-344 643q-81 0 -142.5 -37t-99 -97t-61.5 -146.5t-32.5 -173.5t-8.5 -189zM461 1583q0 59 41 101t102 42q60 0 103 -42t43 -103q0 -60 -42.5 -102.5t-101.5 -42.5t-102 43t-43 104zM854 1583q0 59 41 101t102 42q60 0 103 -42t43 -103q0 -60 -42.5 -102.5 t-101.5 -42.5t-102 43t-43 104z" />
<glyph unicode="&#xd7;" horiz-adv-x="937" d="M82 127l375 375l-375 372l14 13l375 -373l373 373l12 -13l-373 -372l373 -375l-12 -12l-373 374l-375 -374z" />
<glyph unicode="&#xd8;" horiz-adv-x="1601" d="M76 633q0 192 94.5 342.5t259.5 232.5t371 82q250 0 438 -123l119 142l16 -15l-117 -139q127 -88 198 -223t71 -299q0 -144 -55.5 -267.5t-151.5 -208.5t-230 -133.5t-288 -48.5q-250 0 -436 119l-119 -139l-17 14l117 137q-128 89 -199 225t-71 302zM457 633 q0 -205 37 -350l608 721q-80 272 -301 272q-81 0 -142.5 -37t-99 -97t-61.5 -146.5t-32.5 -173.5t-8.5 -189zM500 256q80 -266 301 -266q344 0 344 643q0 203 -37 346z" />
<glyph unicode="&#xd9;" horiz-adv-x="1452" d="M31 1253v13h682v-13q-93 0 -128.5 -55.5t-35.5 -185.5v-664q0 -336 293 -336q76 0 140 23.5t114.5 71t79 127.5t28.5 186v379q0 88 -4 149t-14.5 115.5t-28.5 87.5t-48 57.5t-71.5 34.5t-99.5 10v13h553v-13q-58 0 -99.5 -10t-71.5 -34.5t-48 -57.5t-28.5 -87.5 t-14.5 -115.5t-4 -149v-379q0 -222 -121.5 -333.5t-360.5 -111.5q-119 0 -216.5 27.5t-173 82t-117 145t-41.5 208.5v574q0 130 -35.5 185.5t-128.5 55.5zM515 1640q-10 45 20 82q31 38 77.5 37.5t89.5 -37.5q26 -21 57 -62.5t92.5 -134t94.5 -139.5l-4 -4q-45 20 -124.5 54 t-113.5 49t-74 36t-61 38q-44 36 -54 81z" />
<glyph unicode="&#xda;" horiz-adv-x="1452" d="M31 1253v13h682v-13q-93 0 -128.5 -55.5t-35.5 -185.5v-664q0 -336 293 -336q76 0 140 23.5t114.5 71t79 127.5t28.5 186v379q0 88 -4 149t-14.5 115.5t-28.5 87.5t-48 57.5t-71.5 34.5t-99.5 10v13h553v-13q-58 0 -99.5 -10t-71.5 -34.5t-48 -57.5t-28.5 -87.5 t-14.5 -115.5t-4 -149v-379q0 -222 -121.5 -333.5t-360.5 -111.5q-119 0 -216.5 27.5t-173 82t-117 145t-41.5 208.5v574q0 130 -35.5 185.5t-128.5 55.5zM608 1389q28 41 76 111t70.5 102t51 67.5t48.5 52.5q43 37 90 37.5t78 -37.5q30 -38 19.5 -82.5t-54.5 -80.5 q-21 -17 -60 -37t-77 -36t-112 -47.5t-126 -54.5z" />
<glyph unicode="&#xdb;" horiz-adv-x="1452" d="M31 1253v13h682v-13q-93 0 -128.5 -55.5t-35.5 -185.5v-664q0 -336 293 -336q76 0 140 23.5t114.5 71t79 127.5t28.5 186v379q0 88 -4 149t-14.5 115.5t-28.5 87.5t-48 57.5t-71.5 34.5t-99.5 10v13h553v-13q-58 0 -99.5 -10t-71.5 -34.5t-48 -57.5t-28.5 -87.5 t-14.5 -115.5t-4 -149v-379q0 -222 -121.5 -333.5t-360.5 -111.5q-119 0 -216.5 27.5t-173 82t-117 145t-41.5 208.5v574q0 130 -35.5 185.5t-128.5 55.5zM451 1360l231 321q39 52 88 52t88 -52l232 -321l-5 -4l-315 170l-315 -170z" />
<glyph unicode="&#xdc;" horiz-adv-x="1452" d="M31 1253v13h682v-13q-93 0 -128.5 -55.5t-35.5 -185.5v-664q0 -336 293 -336q76 0 140 23.5t114.5 71t79 127.5t28.5 186v379q0 88 -4 149t-14.5 115.5t-28.5 87.5t-48 57.5t-71.5 34.5t-99.5 10v13h553v-13q-58 0 -99.5 -10t-71.5 -34.5t-48 -57.5t-28.5 -87.5 t-14.5 -115.5t-4 -149v-379q0 -222 -121.5 -333.5t-360.5 -111.5q-119 0 -216.5 27.5t-173 82t-117 145t-41.5 208.5v574q0 130 -35.5 185.5t-128.5 55.5zM440 1563q0 59 41.5 101t102.5 42q60 0 102.5 -42t42.5 -103q0 -60 -42 -103t-101 -43t-102.5 43.5t-43.5 104.5z M834 1563q0 59 41 101t102 42q60 0 102.5 -42t42.5 -103q0 -60 -42 -103t-101 -43t-102 43.5t-43 104.5z" />
<glyph unicode="&#xdd;" horiz-adv-x="1404" d="M-45 1253v13h752v-13q-92 0 -114 -62.5t32 -148.5l260 -428h2l143 248q88 151 88 250q0 141 -178 141v13h530v-13q-79 0 -140 -35.5t-118 -107.5q-55 -71 -165 -258l-146 -246v-364q0 -71 13.5 -117.5t42 -70.5t63 -33t86.5 -9v-12h-764v12q52 0 86.5 9t63 33t42 70.5 t13.5 117.5v260l-348 555q-123 196 -244 196zM598 1389q28 41 76 111t70.5 102t51 67.5t48.5 52.5q43 37 90 37.5t78 -37.5q30 -38 19.5 -82.5t-54.5 -80.5q-21 -17 -60 -37t-77 -36t-112 -47.5t-126 -54.5z" />
<glyph unicode="&#xde;" horiz-adv-x="1368" d="M55 0v12q96 0 130 42t34 167v823q0 125 -34 167t-130 42v13h682v-13q-96 0 -130 -42t-34 -167v-24h195q120 0 215 -20t158.5 -54.5t105.5 -82.5t60 -102t18 -116t-18 -115t-60 -100.5t-105.5 -81t-158.5 -53t-215 -19.5h-123v13h39q62 0 110 22.5t76 57.5t46 84t24 95 t6 97t-6 97.5t-24 96.5t-46 85.5t-76 58.5t-110 23h-111v-785q0 -125 34 -167t130 -42v-12h-682z" />
<glyph unicode="&#xdf;" horiz-adv-x="1411" d="M27 823v29h170v102q0 183 137 289.5t362 106.5q429 0 525 -418q-182 -30 -229 -44q-106 -41 -113 -102q0 -35 27 -66t70.5 -56.5t96.5 -52.5t105.5 -59.5t96 -70t70.5 -93t27 -120.5q0 -136 -108 -213.5t-295 -77.5q-166 0 -322 39l-8 273l10 2q56 -118 82 -157 q95 -144 236 -144q49 0 84 15.5t51 40.5t22 46.5t6 42.5q0 42 -26.5 78.5t-68.5 65.5t-92.5 57t-101.5 58.5t-93 64.5t-68.5 81.5t-26.5 102.5q0 95 75 151.5t212 90.5q-6 84 -20 155t-41 142.5t-76 113t-115 41.5q-74 0 -120 -51.5t-46 -148.5v-1137h-489v12q84 0 124 43 t40 135v633h-170z" />
<glyph unicode="&#xe0;" horiz-adv-x="1118" d="M66 219q0 123 99.5 181.5t260.5 58.5q117 0 223 -27v215q0 102 -33 159.5t-124 57.5q-108 0 -175 -90q41 -20 66 -60t25 -85q0 -63 -45 -106.5t-111 -43.5q-68 0 -108 47t-40 107q0 103 113.5 172t292.5 69q67 0 131 -10.5t125.5 -35.5t107 -62t73.5 -94.5t28 -128.5 v-439q0 -57 53 -57q64 0 131 100l10 -6q-25 -36 -47 -60.5t-54.5 -49.5t-75 -38t-93.5 -13q-90 0 -148 39t-83 104q-106 -146 -301 -146q-136 0 -218.5 65t-82.5 177zM291.5 1230q-10.5 45 19.5 83q31 38 78 37.5t90 -37.5q26 -21 57 -62.5t92.5 -134t94.5 -139.5l-4 -4 q-48 21 -125 54t-112.5 48.5t-75 36t-60.5 37.5q-44 36 -54.5 81zM399 236q0 -83 28.5 -137t90.5 -54q70 0 131 78v293q-62 16 -98 16q-152 0 -152 -196z" />
<glyph unicode="&#xe1;" horiz-adv-x="1118" d="M66 219q0 123 99.5 181.5t260.5 58.5q117 0 223 -27v215q0 102 -33 159.5t-124 57.5q-108 0 -175 -90q41 -20 66 -60t25 -85q0 -63 -45 -106.5t-111 -43.5q-68 0 -108 47t-40 107q0 103 113.5 172t292.5 69q67 0 131 -10.5t125.5 -35.5t107 -62t73.5 -94.5t28 -128.5 v-439q0 -57 53 -57q64 0 131 100l10 -6q-25 -36 -47 -60.5t-54.5 -49.5t-75 -38t-93.5 -13q-90 0 -148 39t-83 104q-106 -146 -301 -146q-136 0 -218.5 65t-82.5 177zM358 979q29 42 76 111t70 102t51.5 68.5t48.5 52.5q43 37 90 37.5t78 -37.5q30 -38 19.5 -83t-54.5 -81 q-21 -17 -60 -37t-77.5 -36t-111.5 -47t-126 -54zM399 236q0 -83 28.5 -137t90.5 -54q70 0 131 78v293q-62 16 -98 16q-152 0 -152 -196z" />
<glyph unicode="&#xe2;" horiz-adv-x="1118" d="M66 219q0 123 99.5 181.5t260.5 58.5q117 0 223 -27v215q0 102 -33 159.5t-124 57.5q-108 0 -175 -90q41 -20 66 -60t25 -85q0 -63 -45 -106.5t-111 -43.5q-68 0 -108 47t-40 107q0 103 113.5 172t292.5 69q67 0 131 -10.5t125.5 -35.5t107 -62t73.5 -94.5t28 -128.5 v-439q0 -57 53 -57q64 0 131 100l10 -6q-25 -36 -47 -60.5t-54.5 -49.5t-75 -38t-93.5 -13q-90 0 -148 39t-83 104q-106 -146 -301 -146q-136 0 -218.5 65t-82.5 177zM215 950l231 322q38 51 89 51q50 0 88 -51l231 -322l-4 -4l-315 170l-316 -170zM399 236q0 -83 28.5 -137 t90.5 -54q70 0 131 78v293q-62 16 -98 16q-152 0 -152 -196z" />
<glyph unicode="&#xe3;" horiz-adv-x="1118" d="M66 219q0 123 99.5 181.5t260.5 58.5q117 0 223 -27v215q0 102 -33 159.5t-124 57.5q-108 0 -175 -90q41 -20 66 -60t25 -85q0 -63 -45 -106.5t-111 -43.5q-68 0 -108 47t-40 107q0 103 113.5 172t292.5 69q67 0 131 -10.5t125.5 -35.5t107 -62t73.5 -94.5t28 -128.5 v-439q0 -57 53 -57q64 0 131 100l10 -6q-25 -36 -47 -60.5t-54.5 -49.5t-75 -38t-93.5 -13q-90 0 -148 39t-83 104q-106 -146 -301 -146q-136 0 -218.5 65t-82.5 177zM219 989q13 128 27 179q42 143 153 143q52 0 158 -48.5t162 -48.5q34 0 57.5 11t35 31.5t16.5 37t8 39.5 l10 -2q-4 -42 -8 -71.5t-12 -71t-20.5 -69.5t-31 -55t-47 -40.5t-63.5 -13.5q-51 0 -155.5 48t-162.5 48q-34 0 -57.5 -11t-35 -31.5t-16.5 -37t-8 -39.5zM399 236q0 -83 28.5 -137t90.5 -54q70 0 131 78v293q-62 16 -98 16q-152 0 -152 -196z" />
<glyph unicode="&#xe4;" horiz-adv-x="1118" d="M66 219q0 123 99.5 181.5t260.5 58.5q117 0 223 -27v215q0 102 -33 159.5t-124 57.5q-108 0 -175 -90q41 -20 66 -60t25 -85q0 -63 -45 -106.5t-111 -43.5q-68 0 -108 47t-40 107q0 103 113.5 172t292.5 69q67 0 131 -10.5t125.5 -35.5t107 -62t73.5 -94.5t28 -128.5 v-439q0 -57 53 -57q64 0 131 100l10 -6q-25 -36 -47 -60.5t-54.5 -49.5t-75 -38t-93.5 -13q-90 0 -148 39t-83 104q-106 -146 -301 -146q-136 0 -218.5 65t-82.5 177zM186 1153q0 59 41.5 101t102.5 42q60 0 102.5 -42t42.5 -103q0 -60 -42 -102.5t-101 -42.5t-102.5 43 t-43.5 104zM399 236q0 -83 28.5 -137t90.5 -54q70 0 131 78v293q-62 16 -98 16q-152 0 -152 -196zM580 1153q0 59 41 101t102 42q60 0 102.5 -42t42.5 -103q0 -60 -42 -102.5t-101 -42.5t-102 43t-43 104z" />
<glyph unicode="&#xe5;" horiz-adv-x="1118" d="M66 219q0 123 99.5 181.5t260.5 58.5q117 0 223 -27v215q0 102 -33 159.5t-124 57.5q-108 0 -175 -90q41 -20 66 -60t25 -85q0 -63 -45 -106.5t-111 -43.5q-68 0 -108 47t-40 107q0 103 113.5 172t292.5 69q67 0 131 -10.5t125.5 -35.5t107 -62t73.5 -94.5t28 -128.5 v-439q0 -57 53 -57q64 0 131 100l10 -6q-25 -36 -47 -60.5t-54.5 -49.5t-75 -38t-93.5 -13q-90 0 -148 39t-83 104q-106 -146 -301 -146q-136 0 -218.5 65t-82.5 177zM258 1165q0 97 74 157t196 60t196.5 -60t74.5 -157q0 -96 -74.5 -155.5t-196.5 -59.5t-196 59.5 t-74 155.5zM399 236q0 -83 28.5 -137t90.5 -54q70 0 131 78v293q-62 16 -98 16q-152 0 -152 -196zM459 1165q0 -209 69 -209q68 0 68 209t-68 209q-69 0 -69 -209z" />
<glyph unicode="&#xe6;" horiz-adv-x="1617" d="M66 219q0 63 27.5 110.5t77.5 75t113.5 41t141.5 13.5q117 0 223 -27v215q0 102 -33 159.5t-124 57.5q-108 0 -175 -90q41 -20 66 -60t25 -85q0 -63 -45 -106.5t-111 -43.5q-68 0 -108 47t-40 107q0 103 113.5 172t292.5 69q196 0 317 -83q119 83 289 83 q196 0 314 -110.5t126 -298.5h-593q2 -204 78 -320t214 -116q156 0 287 159l10 -8q-33 -40 -66.5 -70.5t-85.5 -63.5t-122.5 -51t-155.5 -18q-254 0 -381 160q-140 -160 -364 -160q-145 0 -228 64t-83 178zM399 248q0 -89 39 -146t111 -57q103 0 182 105q-82 113 -82 266 q-62 16 -98 16q-76 0 -114 -50t-38 -134zM963 481h276q0 383 -129 383q-40 0 -70 -37.5t-46 -97.5t-23.5 -122.5t-7.5 -125.5z" />
<glyph unicode="&#xe7;" horiz-adv-x="1017" d="M63 432q0 134 70 236t184 154t250 52q179 0 282 -85.5t103 -194.5q0 -73 -47 -116.5t-112 -43.5q-69 0 -116.5 48t-47.5 116q0 60 36 105t93 55q-43 106 -150 106q-49 0 -87.5 -25t-61.5 -64.5t-37.5 -93.5t-19.5 -105t-5 -107q0 -210 74.5 -325t204.5 -115 q149 0 280 159l11 -8q-88 -109 -211 -161t-269 -37l-114 -109q56 16 133 16q128 0 202 -47t74 -131q0 -51 -27.5 -88.5t-73.5 -58.5t-98.5 -31t-111.5 -10q-159 0 -262 67l8 11q28 -19 74 -32t88 -13q82 0 126 46.5t44 116.5q0 65 -36.5 105.5t-100.5 40.5q-39 0 -78 -17 l-6 7l137 129q-128 15 -221 82.5t-137 162t-44 203.5z" />
<glyph unicode="&#xe8;" horiz-adv-x="1052" d="M63 424q0 93 35 175t97.5 143t154.5 96.5t201 35.5q196 0 314 -110.5t126 -298.5h-594q2 -204 78.5 -320t214.5 -116q156 0 287 159l10 -8q-33 -40 -66.5 -70.5t-85.5 -63.5t-122.5 -51t-155.5 -18q-118 0 -214 37t-156 99.5t-92 142t-32 168.5zM308 1230.5 q-10 45.5 20 82.5q31 38 78 37.5t90 -37.5q26 -21 57.5 -63t91 -133t94.5 -140l-4 -4q-48 21 -125 54t-112.5 48.5t-75 36t-60.5 37.5q-44 36 -54 81.5zM397 481h277q0 383 -129 383q-40 0 -70.5 -37.5t-46.5 -97.5t-23.5 -122.5t-7.5 -125.5z" />
<glyph unicode="&#xe9;" horiz-adv-x="1052" d="M63 424q0 93 35 175t97.5 143t154.5 96.5t201 35.5q196 0 314 -110.5t126 -298.5h-594q2 -204 78.5 -320t214.5 -116q156 0 287 159l10 -8q-33 -40 -66.5 -70.5t-85.5 -63.5t-122.5 -51t-155.5 -18q-118 0 -214 37t-156 99.5t-92 142t-32 168.5zM360 979q29 42 76 111 t70 102t51.5 68.5t48.5 52.5q43 37 90 37.5t78 -37.5q30 -38 19.5 -83t-54.5 -81q-21 -17 -60 -37t-77 -36t-111.5 -47t-125.5 -54zM397 481h277q0 383 -129 383q-40 0 -70.5 -37.5t-46.5 -97.5t-23.5 -122.5t-7.5 -125.5z" />
<glyph unicode="&#xea;" horiz-adv-x="1052" d="M63 424q0 93 35 175t97.5 143t154.5 96.5t201 35.5q196 0 314 -110.5t126 -298.5h-594q2 -204 78.5 -320t214.5 -116q156 0 287 159l10 -8q-33 -40 -66.5 -70.5t-85.5 -63.5t-122.5 -51t-155.5 -18q-118 0 -214 37t-156 99.5t-92 142t-32 168.5zM223 950l232 322 q38 51 88 51t88 -51l231 -322l-4 -4l-315 170l-316 -170zM397 481h277q0 383 -129 383q-40 0 -70.5 -37.5t-46.5 -97.5t-23.5 -122.5t-7.5 -125.5z" />
<glyph unicode="&#xeb;" horiz-adv-x="1052" d="M63 424q0 93 35 175t97.5 143t154.5 96.5t201 35.5q196 0 314 -110.5t126 -298.5h-594q2 -204 78.5 -320t214.5 -116q156 0 287 159l10 -8q-33 -40 -66.5 -70.5t-85.5 -63.5t-122.5 -51t-155.5 -18q-118 0 -214 37t-156 99.5t-92 142t-32 168.5zM205 1153q0 59 41 101 t102 42q60 0 103 -42t43 -103q0 -60 -42.5 -102.5t-101.5 -42.5t-102 43t-43 104zM397 481h277q0 383 -129 383q-40 0 -70.5 -37.5t-46.5 -97.5t-23.5 -122.5t-7.5 -125.5zM598 1153q0 59 41 101t102 42q60 0 103 -42t43 -103q0 -60 -42.5 -102.5t-101.5 -42.5t-102 43 t-43 104z" />
<glyph unicode="&#xec;" horiz-adv-x="632" d="M37 0v12q76 0 99.5 41.5t23.5 130.5v465q0 89 -23.5 130.5t-99.5 41.5v13l448 40v-690q0 -89 23.5 -130.5t99.5 -41.5v-12h-571zM72.5 1230q-10.5 45 19.5 83q31 38 78 37.5t90 -37.5q26 -21 57 -62.5t92.5 -134t94.5 -139.5l-4 -4q-48 21 -125 54t-112.5 48.5t-75 36 t-60.5 37.5q-44 36 -54.5 81z" />
<glyph unicode="&#xed;" horiz-adv-x="632" d="M37 0v12q76 0 99.5 41.5t23.5 130.5v465q0 89 -23.5 130.5t-99.5 41.5v13l448 40v-690q0 -89 23.5 -130.5t99.5 -41.5v-12h-571zM100 979q29 42 76 111t70 102t51.5 68.5t48.5 52.5q43 37 90 37.5t78 -37.5q30 -38 19.5 -83t-54.5 -81q-21 -17 -60 -37t-77.5 -36 t-111.5 -47t-126 -54z" />
<glyph unicode="&#xee;" horiz-adv-x="632" d="M-14 950l231 322q38 51 88 51t88 -51l232 -322l-4 -4l-316 170l-315 -170zM37 0v12q76 0 99.5 41.5t23.5 130.5v465q0 89 -23.5 130.5t-99.5 41.5v13l448 40v-690q0 -89 23.5 -130.5t99.5 -41.5v-12h-571z" />
<glyph unicode="&#xef;" horiz-adv-x="632" d="M-35 1153q0 59 41.5 101t102.5 42q60 0 102.5 -42t42.5 -103q0 -60 -42 -102.5t-101 -42.5t-102.5 43t-43.5 104zM37 0v12q76 0 99.5 41.5t23.5 130.5v465q0 89 -23.5 130.5t-99.5 41.5v13l448 40v-690q0 -89 23.5 -130.5t99.5 -41.5v-12h-571zM358 1153q0 59 41.5 101 t102.5 42q60 0 102.5 -42t42.5 -103q0 -60 -42 -102.5t-101 -42.5t-102.5 43t-43.5 104z" />
<glyph unicode="&#xf0;" horiz-adv-x="1157" d="M66 408q0 105 41.5 186.5t111.5 129.5t155.5 72.5t180.5 24.5q75 0 143 -14q-59 193 -178 326l-303 -154l-8 14l301 152q-101 110 -258 196l4 9q243 -129 315 -174l260 133l7 -17l-250 -127q84 -52 152.5 -104t136 -119.5t112.5 -137.5t73 -157t28 -180q0 -70 -14.5 -135 t-51.5 -131t-93.5 -114.5t-149 -79t-210.5 -30.5q-243 0 -374 120t-131 311zM406 389q0 -397 169 -397q173 0 173 426q0 202 -46 370q-42 11 -75 11q-62 0 -106 -29t-68.5 -85t-35.5 -128t-11 -168z" />
<glyph unicode="&#xf1;" horiz-adv-x="1218" d="M37 0v12q76 0 99.5 41.5t23.5 130.5v465q0 89 -23.5 130.5t-99.5 41.5v13l438 40v-167q159 167 340 167q113 0 185.5 -69t72.5 -211v-410q0 -89 23.5 -130.5t99.5 -41.5v-12h-551v12q60 0 81.5 43.5t21.5 128.5v447q0 72 -29.5 106.5t-79.5 34.5q-76 0 -154 -74v-514 q0 -85 21.5 -128.5t81.5 -43.5v-12h-551zM299 989q13 128 27 179q42 143 153 143q52 0 158 -48.5t162 -48.5q27 0 48 8.5t32.5 19.5t19.5 29t11 31t5 31l11 -2q-4 -42 -8 -71.5t-12 -71t-21 -69.5t-31.5 -55t-47 -40.5t-63.5 -13.5q-51 0 -155 48t-162 48q-34 0 -57.5 -11 t-35 -31.5t-16.5 -37t-8 -39.5z" />
<glyph unicode="&#xf2;" horiz-adv-x="1159" d="M63 426q0 200 146.5 324t370.5 124t370 -124t146 -324t-146 -324.5t-370 -124.5t-370.5 124.5t-146.5 324.5zM328.5 1230q-10.5 45 19.5 83q31 38 78 37.5t90 -37.5q26 -21 57 -62.5t92.5 -134t94.5 -139.5l-4 -4q-48 21 -125 54t-112.5 48.5t-75 36t-60.5 37.5 q-44 36 -54.5 81zM408 426q0 -219 39.5 -326.5t132.5 -107.5t132.5 107.5t39.5 326.5t-39.5 326.5t-132.5 107.5t-132.5 -107.5t-39.5 -326.5z" />
<glyph unicode="&#xf3;" horiz-adv-x="1159" d="M63 426q0 200 146.5 324t370.5 124t370 -124t146 -324t-146 -324.5t-370 -124.5t-370.5 124.5t-146.5 324.5zM408 426q0 -219 39.5 -326.5t132.5 -107.5t132.5 107.5t39.5 326.5t-39.5 326.5t-132.5 107.5t-132.5 -107.5t-39.5 -326.5zM416 979q29 42 76 111t70 102 t51.5 68.5t48.5 52.5q43 37 89.5 37.5t77.5 -37.5q30 -37 20 -82.5t-54 -81.5q-21 -17 -60 -37t-77.5 -36t-111.5 -47t-126 -54z" />
<glyph unicode="&#xf4;" horiz-adv-x="1159" d="M63 426q0 200 146.5 324t370.5 124t370 -124t146 -324t-146 -324.5t-370 -124.5t-370.5 124.5t-146.5 324.5zM262 950l232 322q38 51 88 51t88 -51l231 -322l-4 -4l-315 170l-316 -170zM408 426q0 -219 39.5 -326.5t132.5 -107.5t132.5 107.5t39.5 326.5t-39.5 326.5 t-132.5 107.5t-132.5 -107.5t-39.5 -326.5z" />
<glyph unicode="&#xf5;" horiz-adv-x="1159" d="M63 426q0 200 146.5 324t370.5 124t370 -124t146 -324t-146 -324.5t-370 -124.5t-370.5 124.5t-146.5 324.5zM270 989q13 130 29 183q43 138 152 139q52 0 157.5 -48.5t161.5 -48.5q34 0 57.5 11t35 31.5t16.5 37t8 39.5l10 -2q-4 -42 -8 -71.5t-12 -71t-20.5 -69.5 t-31 -55t-47 -40.5t-63.5 -13.5q-51 0 -155.5 48t-162.5 48q-27 0 -48 -8.5t-32.5 -19.5t-19.5 -29t-11 -31t-5 -31zM408 426q0 -219 39.5 -326.5t132.5 -107.5t132.5 107.5t39.5 326.5t-39.5 326.5t-132.5 107.5t-132.5 -107.5t-39.5 -326.5z" />
<glyph unicode="&#xf6;" horiz-adv-x="1159" d="M63 426q0 200 146.5 324t370.5 124t370 -124t146 -324t-146 -324.5t-370 -124.5t-370.5 124.5t-146.5 324.5zM240 1153q0 59 41 101t102 42q60 0 102.5 -42t42.5 -103q0 -60 -42 -102.5t-101 -42.5t-102 43t-43 104zM408 426q0 -219 39.5 -326.5t132.5 -107.5 t132.5 107.5t39.5 326.5t-39.5 326.5t-132.5 107.5t-132.5 -107.5t-39.5 -326.5zM633 1153q0 59 41 101t102 42q60 0 103 -42t43 -103q0 -60 -42.5 -102.5t-101.5 -42.5t-102 43t-43 104z" />
<glyph unicode="&#xf7;" horiz-adv-x="1161" d="M125 494v18h911v-18h-911zM479 172q0 43 30 72.5t73 29.5t72.5 -29.5t29.5 -72.5q0 -42 -30 -72t-72 -30t-72.5 30t-30.5 72zM479 834q0 43 30 72.5t73 29.5t72.5 -29.5t29.5 -72.5q0 -42 -30 -72.5t-72 -30.5t-72.5 30.5t-30.5 72.5z" />
<glyph unicode="&#xf8;" horiz-adv-x="1159" d="M63 426q0 200 146.5 324t370.5 124q196 0 333 -98l97 96l12 -12l-94 -94q80 -60 124 -147.5t44 -192.5q0 -200 -146 -324.5t-370 -124.5q-200 0 -338 99l-95 -94l-12 12l92 92q-164 129 -164 340zM408 426q0 -109 4 -154l331 332q-14 128 -52.5 192t-110.5 64 q-93 0 -132.5 -107.5t-39.5 -326.5zM414 250q14 -129 54 -193.5t112 -64.5q93 0 132.5 107.5t39.5 326.5q0 76 -7 158z" />
<glyph unicode="&#xf9;" horiz-adv-x="1204" d="M20 819v12l449 41v-651q0 -72 29.5 -106.5t79.5 -34.5q75 0 153 74v487q0 57 -7 93t-30.5 60.5t-64.5 24.5v12l428 41v-682q0 -44 4 -72t16 -54.5t37.5 -39t65.5 -12.5v-12h-439v145q-161 -168 -340 -168q-113 0 -185.5 69.5t-72.5 211.5v383q0 44 -4 72t-16 54.5 t-37.5 39t-65.5 12.5zM312.5 1230q-10.5 45 19.5 83q31 38 78 37.5t90 -37.5q26 -21 57.5 -63t91 -133t94.5 -140l-4 -4q-47 21 -125 54t-112.5 48.5t-74 36t-60.5 37.5q-44 36 -54.5 81z" />
<glyph unicode="&#xfa;" horiz-adv-x="1204" d="M20 819v12l449 41v-651q0 -72 29.5 -106.5t79.5 -34.5q75 0 153 74v487q0 57 -7 93t-30.5 60.5t-64.5 24.5v12l428 41v-682q0 -44 4 -72t16 -54.5t37.5 -39t65.5 -12.5v-12h-439v145q-161 -168 -340 -168q-113 0 -185.5 69.5t-72.5 211.5v383q0 44 -4 72t-16 54.5 t-37.5 39t-65.5 12.5zM403 979q29 42 76 111t70 102t51.5 68.5t48.5 52.5q43 37 90 37.5t78 -37.5q30 -38 19.5 -83t-54.5 -81q-21 -17 -60 -37t-77 -36t-111.5 -47t-125.5 -54z" />
<glyph unicode="&#xfb;" horiz-adv-x="1204" d="M20 819v12l449 41v-651q0 -72 29.5 -106.5t79.5 -34.5q75 0 153 74v487q0 57 -7 93t-30.5 60.5t-64.5 24.5v12l428 41v-682q0 -44 4 -72t16 -54.5t37.5 -39t65.5 -12.5v-12h-439v145q-161 -168 -340 -168q-113 0 -185.5 69.5t-72.5 211.5v383q0 44 -4 72t-16 54.5 t-37.5 39t-65.5 12.5zM260 950l232 322q38 51 88 51t88 -51l231 -322l-4 -4l-315 170l-316 -170z" />
<glyph unicode="&#xfc;" horiz-adv-x="1204" d="M20 819v12l449 41v-651q0 -72 29.5 -106.5t79.5 -34.5q75 0 153 74v487q0 57 -7 93t-30.5 60.5t-64.5 24.5v12l428 41v-682q0 -44 4 -72t16 -54.5t37.5 -39t65.5 -12.5v-12h-439v145q-161 -168 -340 -168q-113 0 -185.5 69.5t-72.5 211.5v383q0 44 -4 72t-16 54.5 t-37.5 39t-65.5 12.5zM238 1153q0 59 41 101t102 42q60 0 102.5 -42t42.5 -103q0 -60 -42 -102.5t-101 -42.5t-102 43t-43 104zM631 1153q0 59 41 101t102 42q60 0 103 -42t43 -103q0 -60 -42.5 -102.5t-101.5 -42.5t-102 43t-43 104z" />
<glyph unicode="&#xfd;" horiz-adv-x="1036" d="M-14 840v12h608v-12q-74 0 -91.5 -47t21.5 -127l156 -322l68 152q65 149 65 227q0 117 -119 117v12h391v-12q-124 0 -213 -138q-14 -21 -30 -50t-26 -50.5t-28 -60t-26 -56.5l-234 -505q-21 -46 -39 -80.5t-54 -86.5t-72.5 -85.5t-90.5 -58.5t-112 -25q-65 0 -94 26.5 t-29 67.5q0 49 38.5 71t98 26.5t122 8.5t119.5 28.5t81 74.5l24 53l-348 662q-19 36 -36.5 62.5t-41.5 55.5t-51.5 44.5t-56.5 15.5zM406 979q30 44 76 111.5t69.5 101.5t51.5 69t48 52q43 37 90 37.5t78 -37.5q30 -38 19.5 -83t-54.5 -81q-21 -17 -60 -37t-77 -36 t-111.5 -47t-125.5 -54z" />
<glyph unicode="&#xfe;" horiz-adv-x="1150" d="M-4 -322q32 0 55 9.5t36 24t20.5 39t9.5 48t2 58.5v1286q0 89 -23.5 130.5t-99.5 41.5v12l448 41v-614q109 120 267 120q115 0 201 -63.5t128.5 -163t42.5 -217.5q0 -93 -28.5 -174t-81.5 -143.5t-137 -99t-189 -36.5q-124 0 -203 48v-185q0 -80 33.5 -121t110.5 -41v-12 h-592v12zM444 96q21 -44 54.5 -72t76.5 -28q39 0 69.5 28t49 71t30 100.5t15.5 110.5t4 108q0 177 -46 275.5t-134 98.5q-68 0 -119 -55v-637z" />
<glyph unicode="&#xff;" horiz-adv-x="1036" d="M-14 840v12h608v-12q-74 0 -91.5 -47t21.5 -127l156 -322l68 152q65 149 65 227q0 117 -119 117v12h391v-12q-124 0 -213 -138q-14 -21 -30 -50t-26 -50.5t-28 -60t-26 -56.5l-234 -505q-21 -46 -39 -80.5t-54 -86.5t-72.5 -85.5t-90.5 -58.5t-112 -25q-65 0 -94 26.5 t-29 67.5q0 49 38.5 71t98 26.5t122 8.5t119.5 28.5t81 74.5l24 53l-348 662q-19 36 -36.5 62.5t-41.5 55.5t-51.5 44.5t-56.5 15.5zM229 1153q0 59 41.5 101t102.5 42q60 0 102.5 -42t42.5 -103q0 -60 -42 -102.5t-101 -42.5t-102.5 43t-43.5 104zM623 1153q0 59 41 101 t102 42q60 0 102.5 -42t42.5 -103q0 -60 -42 -102.5t-101 -42.5t-102 43t-43 104z" />
<glyph unicode="&#x100;" horiz-adv-x="1386" d="M-88 0v12q58 0 109.5 26t85.5 57t75 101t60 111t60 133q3 7 5 11l367 827h14l490 -1002q26 -54 50.5 -94.5t57.5 -82.5t73 -64.5t83 -22.5v-12h-770v12q73 0 108 39.5t32.5 98t-34.5 126.5l-61 132h-406l-12 -29q-35 -106 -31 -188t63.5 -130.5t168.5 -48.5v-12h-588z M322 428h385l-199 422zM373 1434v82h614v-82h-614z" />
<glyph unicode="&#x101;" horiz-adv-x="1118" d="M66 219q0 123 99.5 181.5t260.5 58.5q117 0 223 -27v215q0 102 -33 159.5t-124 57.5q-108 0 -175 -90q41 -20 66 -60t25 -85q0 -63 -45 -106.5t-111 -43.5q-68 0 -108 47t-40 107q0 103 113.5 172t292.5 69q67 0 131 -10.5t125.5 -35.5t107 -62t73.5 -94.5t28 -128.5 v-439q0 -57 53 -57q64 0 131 100l10 -6q-25 -36 -47 -60.5t-54.5 -49.5t-75 -38t-93.5 -13q-90 0 -148 39t-83 104q-106 -146 -301 -146q-136 0 -218.5 65t-82.5 177zM225 1024v82h615v-82h-615zM399 236q0 -83 28.5 -137t90.5 -54q70 0 131 78v293q-62 16 -98 16 q-152 0 -152 -196z" />
<glyph unicode="&#x102;" horiz-adv-x="1386" d="M-88 0v12q58 0 109.5 26t85.5 57t75 101t60 111t60 133q3 7 5 11l367 827h14l490 -1002q26 -54 50.5 -94.5t57.5 -82.5t73 -64.5t83 -22.5v-12h-770v12q73 0 108 39.5t32.5 98t-34.5 126.5l-61 132h-406l-12 -29q-35 -106 -31 -188t63.5 -130.5t168.5 -48.5v-12h-588z M322 428h385l-199 422zM414 1757h6q16 -70 79 -117t183 -47q121 0 183.5 47t78.5 117h6q0 -45 -7.5 -92.5t-27.5 -98.5t-49 -91t-77 -65.5t-107 -25.5t-107 25.5t-77 65.5t-49 91t-27.5 98.5t-7.5 92.5z" />
<glyph unicode="&#x103;" horiz-adv-x="1118" d="M66 219q0 123 99.5 181.5t260.5 58.5q117 0 223 -27v215q0 102 -33 159.5t-124 57.5q-108 0 -175 -90q41 -20 66 -60t25 -85q0 -63 -45 -106.5t-111 -43.5q-68 0 -108 47t-40 107q0 103 113.5 172t292.5 69q67 0 131 -10.5t125.5 -35.5t107 -62t73.5 -94.5t28 -128.5 v-439q0 -57 53 -57q64 0 131 100l10 -6q-25 -36 -47 -60.5t-54.5 -49.5t-75 -38t-93.5 -13q-90 0 -148 39t-83 104q-106 -146 -301 -146q-136 0 -218.5 65t-82.5 177zM266 1348h6q16 -69 79.5 -116.5t183.5 -47.5q121 0 183.5 47t78.5 117h6q0 -45 -7.5 -92.5t-27.5 -98.5 t-49 -91t-77 -65.5t-107 -25.5q-73 0 -128.5 38t-84.5 97.5t-42.5 119.5t-13.5 118zM399 236q0 -83 28.5 -137t90.5 -54q70 0 131 78v293q-62 16 -98 16q-152 0 -152 -196z" />
<glyph unicode="&#x104;" horiz-adv-x="1386" d="M-88 0v12q58 0 109.5 26t85.5 57t75 101t60 111t60 133q3 7 5 11l367 827h14l490 -1002q26 -54 50.5 -94.5t57.5 -82.5t73 -64.5t83 -22.5v-12h-770v12q73 0 108 39.5t32.5 98t-34.5 126.5l-61 132h-406l-12 -29q-35 -106 -31 -188t63.5 -130.5t168.5 -48.5v-12h-588z M322 428h385l-199 422zM807 -295q0 48 25 89t62.5 68.5t90.5 53t98.5 41.5t98.5 34.5t80 31.5l4 -9q-3 -1 -28.5 -15t-32 -18t-30 -18.5t-32 -23.5t-26.5 -25.5t-26 -32.5t-18 -36.5t-14 -44t-4 -50.5q0 -85 44 -128.5t122 -43.5q47 0 106 19l4 -11q-58 -23 -137 -38 t-147 -15q-118 0 -179 47t-61 125z" />
<glyph unicode="&#x105;" horiz-adv-x="1118" d="M66 219q0 123 99.5 181.5t260.5 58.5q117 0 223 -27v215q0 102 -33 159.5t-124 57.5q-108 0 -175 -90q41 -20 66 -60t25 -85q0 -63 -45 -106.5t-111 -43.5q-68 0 -108 47t-40 107q0 103 113.5 172t292.5 69q67 0 131 -10.5t125.5 -35.5t107 -62t73.5 -94.5t28 -128.5 v-439q0 -57 53 -57q64 0 131 100l10 -6q-45 -64 -93.5 -104t-119.5 -51q-71 -40 -113 -93.5t-42 -142.5q0 -85 44 -128.5t122 -43.5q47 0 106 19l4 -11q-58 -23 -137 -38t-147 -15q-118 0 -179 47t-61 125q0 38 13.5 70.5t42 59t57 46.5t74 40t75.5 31.5t78 27.5 q-88 1 -144 40t-81 103q-106 -146 -301 -146q-136 0 -218.5 65t-82.5 177zM399 236q0 -83 28.5 -137t90.5 -54q70 0 131 78v293q-62 16 -98 16q-152 0 -152 -196z" />
<glyph unicode="&#x106;" horiz-adv-x="1435" d="M78 623q0 201 95.5 353t265.5 233t390 81q55 0 128 -6t123.5 -11t113 -2.5t115.5 15.5l37 -446l-11 -2q-174 440 -475 440q-75 0 -136.5 -25.5t-104.5 -72t-74.5 -106t-50 -133t-27 -148.5t-8.5 -156q0 -99 12 -188.5t40.5 -175t72.5 -147.5t112.5 -100t155.5 -38 q112 0 211.5 64.5t171.5 167.5t129 243l8 -2l-69 -424q-212 -62 -451 -62q-191 0 -340.5 49.5t-243 137.5t-142 205t-48.5 256zM651 1389q28 41 76 111t70.5 102t51 67.5t48.5 52.5q43 37 90 37.5t78 -37.5q30 -38 19.5 -82.5t-54.5 -80.5q-21 -17 -60 -37t-77 -36 t-112 -47.5t-126 -54.5z" />
<glyph unicode="&#x107;" horiz-adv-x="1017" d="M63 432q0 134 70 236t184 154t250 52q179 0 282 -85.5t103 -194.5q0 -73 -47 -116.5t-112 -43.5q-69 0 -116.5 48t-47.5 116q0 60 36 105t93 55q-43 106 -150 106q-49 0 -87.5 -25t-61.5 -64.5t-37.5 -93.5t-19.5 -105t-5 -107q0 -210 74.5 -325t204.5 -115 q149 0 280 159l11 -8q-164 -203 -426 -203q-114 0 -207 38.5t-151 103t-89 145t-31 168.5zM365 979q30 44 76 111.5t69.5 101.5t51.5 69t48 52q43 37 90 37.5t78 -37.5q30 -38 19.5 -83t-54.5 -81q-21 -17 -60 -37t-77 -36t-111.5 -47t-125.5 -54z" />
<glyph unicode="&#x108;" horiz-adv-x="1435" d="M78 623q0 201 95.5 353t265.5 233t390 81q55 0 128 -6t123.5 -11t113 -2.5t115.5 15.5l37 -446l-11 -2q-174 440 -475 440q-75 0 -136.5 -25.5t-104.5 -72t-74.5 -106t-50 -133t-27 -148.5t-8.5 -156q0 -99 12 -188.5t40.5 -175t72.5 -147.5t112.5 -100t155.5 -38 q112 0 211.5 64.5t171.5 167.5t129 243l8 -2l-69 -424q-212 -62 -451 -62q-191 0 -340.5 49.5t-243 137.5t-142 205t-48.5 256zM514 1360l231 321q39 52 89 52q49 0 88 -52l231 -321l-4 -4l-315 170l-316 -170z" />
<glyph unicode="&#x109;" horiz-adv-x="1017" d="M63 432q0 134 70 236t184 154t250 52q179 0 282 -85.5t103 -194.5q0 -73 -47 -116.5t-112 -43.5q-69 0 -116.5 48t-47.5 116q0 60 36 105t93 55q-43 106 -150 106q-49 0 -87.5 -25t-61.5 -64.5t-37.5 -93.5t-19.5 -105t-5 -107q0 -210 74.5 -325t204.5 -115 q149 0 280 159l11 -8q-164 -203 -426 -203q-114 0 -207 38.5t-151 103t-89 145t-31 168.5zM211 950l231 322q38 51 88 51t88 -51l232 -322l-4 -4l-316 170l-315 -170z" />
<glyph unicode="&#x10a;" horiz-adv-x="1435" d="M78 623q0 201 95.5 353t265.5 233t390 81q55 0 128 -6t123.5 -11t113 -2.5t115.5 15.5l37 -446l-11 -2q-174 440 -475 440q-75 0 -136.5 -25.5t-104.5 -72t-74.5 -106t-50 -133t-27 -148.5t-8.5 -156q0 -99 12 -188.5t40.5 -175t72.5 -147.5t112.5 -100t155.5 -38 q112 0 211.5 64.5t171.5 167.5t129 243l8 -2l-69 -424q-212 -62 -451 -62q-191 0 -340.5 49.5t-243 137.5t-142 205t-48.5 256zM674 1565q0 61 44 105t105 44q62 0 106 -44t44 -105t-44.5 -105.5t-105.5 -44.5t-105 44t-44 106z" />
<glyph unicode="&#x10b;" horiz-adv-x="1017" d="M63 432q0 134 70 236t184 154t250 52q179 0 282 -85.5t103 -194.5q0 -73 -47 -116.5t-112 -43.5q-69 0 -116.5 48t-47.5 116q0 60 36 105t93 55q-43 106 -150 106q-49 0 -87.5 -25t-61.5 -64.5t-37.5 -93.5t-19.5 -105t-5 -107q0 -210 74.5 -325t204.5 -115 q149 0 280 159l11 -8q-164 -203 -426 -203q-114 0 -207 38.5t-151 103t-89 145t-31 168.5zM406 1155q0 62 44 106t105 44t105.5 -44.5t44.5 -105.5t-44 -105t-106 -44q-61 0 -105 44t-44 105z" />
<glyph unicode="&#x10c;" horiz-adv-x="1435" d="M78 623q0 201 95.5 353t265.5 233t390 81q55 0 128 -6t123.5 -11t113 -2.5t115.5 15.5l37 -446l-11 -2q-174 440 -475 440q-75 0 -136.5 -25.5t-104.5 -72t-74.5 -106t-50 -133t-27 -148.5t-8.5 -156q0 -99 12 -188.5t40.5 -175t72.5 -147.5t112.5 -100t155.5 -38 q112 0 211.5 64.5t171.5 167.5t129 243l8 -2l-69 -424q-212 -62 -451 -62q-191 0 -340.5 49.5t-243 137.5t-142 205t-48.5 256zM526 1735l4 4l316 -170l315 170l4 -4l-231 -322q-38 -51 -88 -51t-88 51z" />
<glyph unicode="&#x10d;" horiz-adv-x="1017" d="M63 432q0 134 70 236t184 154t250 52q179 0 282 -85.5t103 -194.5q0 -73 -47 -116.5t-112 -43.5q-69 0 -116.5 48t-47.5 116q0 60 36 105t93 55q-43 106 -150 106q-49 0 -87.5 -25t-61.5 -64.5t-37.5 -93.5t-19.5 -105t-5 -107q0 -210 74.5 -325t204.5 -115 q149 0 280 159l11 -8q-164 -203 -426 -203q-114 0 -207 38.5t-151 103t-89 145t-31 168.5zM221 1325l4 4l316 -170l315 170l4 -4l-231 -321q-39 -52 -88 -52t-88 52z" />
<glyph unicode="&#x10e;" horiz-adv-x="1607" d="M55 0v12q96 0 130 42t34 167v823q0 125 -34 167t-130 42v13h717q354 0 555 -169.5t201 -463.5t-201 -463.5t-555 -169.5h-717zM498 1735l4 4l315 -170l316 170l4 -4l-232 -322q-38 -51 -88 -51t-88 51zM573 14h146q96 0 171.5 36t123 95t79 140.5t44 167t12.5 180.5 q0 94 -12.5 179.5t-44 167t-79 140.5t-122.5 95t-170 36h-148v-1237z" />
<glyph unicode="&#x10f;" horiz-adv-x="1208" d="M68 422q0 125 48 225.5t148.5 163.5t239.5 63q115 0 203 -47v316q0 92 -39.5 132t-124.5 40v12l489 41v-1184q0 -89 23.5 -130.5t99.5 -41.5v-12h-438v109q-111 -132 -277 -132q-115 0 -201 63.5t-128.5 163.5t-42.5 218zM408 434q0 -167 47 -269t135 -102q61 0 117 56 v637q-22 44 -55 72t-74 28q-49 0 -84.5 -43t-53 -112t-25 -135t-7.5 -132zM1174 883q2 34 5 107.5t5.5 117t8 91.5t13.5 69q16 46 57.5 72t84.5 8q42 -15 57.5 -57.5t-2.5 -92.5q-11 -31 -39.5 -72.5t-90 -121t-93.5 -123.5z" />
<glyph unicode="&#x110;" horiz-adv-x="1607" d="M55 0v12q96 0 130 42t34 167v406h-162v18h162v399q0 125 -34 167t-130 42v13h717q354 0 555 -169.5t201 -463.5t-201 -463.5t-555 -169.5h-717zM573 14h146q96 0 171.5 36t123 95t79 140.5t44 167t12.5 180.5q0 94 -12.5 179.5t-44 167t-79 140.5t-122.5 95t-170 36h-148 v-606h312v-18h-312v-613z" />
<glyph unicode="&#x111;" horiz-adv-x="1177" d="M68 422q0 125 48 225.5t148.5 163.5t239.5 63q115 0 203 -47v316q0 92 -39.5 132t-124.5 40v12l489 41v-1184q0 -89 23.5 -130.5t99.5 -41.5v-12h-438v109q-111 -132 -277 -132q-115 0 -201 63.5t-128.5 163.5t-42.5 218zM408 434q0 -167 47 -269t135 -102q61 0 117 56 v637q-22 44 -55 72t-74 28q-49 0 -84.5 -43t-53 -112t-25 -135t-7.5 -132zM442 1028v19h727v-19h-727z" />
<glyph unicode="&#x112;" horiz-adv-x="1331" d="M55 0v12q96 0 130 42t34 167v823q0 125 -34 167t-130 42v13h1131l31 -432l-9 -3q-43 190 -164.5 305t-322.5 115h-148v-612h64q77 0 140.5 26t106 71.5t70 98.5t43.5 115h9v-633h-9q-16 61 -43.5 113.5t-70 97.5t-106 71t-140.5 26h-64v-611h158q363 0 496 451l8 -2 l-39 -463h-1141zM367 1434v82h614v-82h-614z" />
<glyph unicode="&#x113;" horiz-adv-x="1052" d="M63 424q0 93 35 175t97.5 143t154.5 96.5t201 35.5q196 0 314 -110.5t126 -298.5h-594q2 -204 78.5 -320t214.5 -116q156 0 287 159l10 -8q-33 -40 -66.5 -70.5t-85.5 -63.5t-122.5 -51t-155.5 -18q-118 0 -214 37t-156 99.5t-92 142t-32 168.5zM236 1024v82h614v-82 h-614zM397 481h277q0 383 -129 383q-40 0 -70.5 -37.5t-46.5 -97.5t-23.5 -122.5t-7.5 -125.5z" />
<glyph unicode="&#x114;" horiz-adv-x="1331" d="M55 0v12q96 0 130 42t34 167v823q0 125 -34 167t-130 42v13h1131l31 -432l-9 -3q-43 190 -164.5 305t-322.5 115h-148v-612h64q77 0 140.5 26t106 71.5t70 98.5t43.5 115h9v-633h-9q-16 61 -43.5 113.5t-70 97.5t-106 71t-140.5 26h-64v-611h158q363 0 496 451l8 -2 l-39 -463h-1141zM430 1757h6q16 -70 79 -117t183 -47q121 0 184 47t79 117h6q0 -58 -13.5 -118t-42.5 -119.5t-84.5 -97.5t-128.5 -38q-59 0 -107 25.5t-77 65.5t-49 91t-27.5 98.5t-7.5 92.5z" />
<glyph unicode="&#x115;" horiz-adv-x="1052" d="M63 424q0 93 35 175t97.5 143t154.5 96.5t201 35.5q196 0 314 -110.5t126 -298.5h-594q2 -204 78.5 -320t214.5 -116q156 0 287 159l10 -8q-33 -40 -66.5 -70.5t-85.5 -63.5t-122.5 -51t-155.5 -18q-118 0 -214 37t-156 99.5t-92 142t-32 168.5zM274 1348h7 q16 -70 79 -117t183 -47q121 0 183.5 47t78.5 117h6q0 -45 -7.5 -92.5t-27.5 -98.5t-49 -91t-77 -65.5t-107 -25.5q-73 0 -128.5 38t-84.5 97.5t-42.5 119.5t-13.5 118zM397 481h277q0 383 -129 383q-40 0 -70.5 -37.5t-46.5 -97.5t-23.5 -122.5t-7.5 -125.5z" />
<glyph unicode="&#x116;" horiz-adv-x="1331" d="M55 0v12q96 0 130 42t34 167v823q0 125 -34 167t-130 42v13h1131l31 -432l-9 -3q-43 190 -164.5 305t-322.5 115h-148v-612h64q77 0 140.5 26t106 71.5t70 98.5t43.5 115h9v-633h-9q-16 61 -43.5 113.5t-70 97.5t-106 71t-140.5 26h-64v-611h158q363 0 496 451l8 -2 l-39 -463h-1141zM543 1565q0 61 43.5 105t105.5 44t106 -44t44 -105t-44 -105.5t-106 -44.5q-61 0 -105 44t-44 106z" />
<glyph unicode="&#x117;" horiz-adv-x="1052" d="M63 424q0 93 35 175t97.5 143t154.5 96.5t201 35.5q196 0 314 -110.5t126 -298.5h-594q2 -204 78.5 -320t214.5 -116q156 0 287 159l10 -8q-33 -40 -66.5 -70.5t-85.5 -63.5t-122.5 -51t-155.5 -18q-118 0 -214 37t-156 99.5t-92 142t-32 168.5zM391 1155 q0 61 44.5 105.5t105.5 44.5t105 -44t44 -106q0 -61 -44 -105t-105 -44q-62 0 -106 44t-44 105zM397 481h277q0 383 -129 383q-40 0 -70.5 -37.5t-46.5 -97.5t-23.5 -122.5t-7.5 -125.5z" />
<glyph unicode="&#x118;" horiz-adv-x="1331" d="M55 0v12q96 0 130 42t34 167v823q0 125 -34 167t-130 42v13h1131l31 -432l-9 -3q-43 190 -164.5 305t-322.5 115h-148v-612h64q77 0 140.5 26t106 71.5t70 98.5t43.5 115h9v-633h-9q-16 61 -43.5 113.5t-70 97.5t-106 71t-140.5 26h-64v-611h158q363 0 496 451l8 -2 l-39 -463h-1141zM664 -295q0 48 25 89t62 68.5t90 53t98.5 41.5t98.5 34.5t80 31.5l4 -9q-3 -1 -28.5 -15t-32 -18t-30 -18.5t-32 -23.5t-26.5 -25.5t-26 -32.5t-18 -36.5t-14 -44t-4 -50.5q0 -85 44 -128.5t122 -43.5q48 0 107 19l4 -11q-57 -23 -137 -38t-148 -15 q-117 0 -178 47t-61 125z" />
<glyph unicode="&#x119;" horiz-adv-x="1052" d="M63 424q0 93 35 175t97.5 143t154.5 96.5t201 35.5q196 0 314 -110.5t126 -298.5h-594q2 -204 78.5 -320t214.5 -116q156 0 287 159l10 -8q-67 -78 -137 -125q-33 -22 -53.5 -36.5t-53 -45.5t-51.5 -60t-34 -72.5t-15 -90.5q0 -85 44 -128.5t122 -43.5q47 0 106 19l5 -11 q-57 -23 -137 -38t-148 -15q-116 0 -178 47t-62 125q0 47 22.5 85t65.5 67.5t86 52t104.5 52.5t100.5 54q-100 -39 -217 -39q-118 0 -214 37t-156 99.5t-92 142t-32 168.5zM397 481h277q0 383 -129 383q-40 0 -70.5 -37.5t-46.5 -97.5t-23.5 -122.5t-7.5 -125.5z" />
<glyph unicode="&#x11a;" horiz-adv-x="1331" d="M55 0v12q96 0 130 42t34 167v823q0 125 -34 167t-130 42v13h1131l31 -432l-9 -3q-43 190 -164.5 305t-322.5 115h-148v-612h64q77 0 140.5 26t106 71.5t70 98.5t43.5 115h9v-633h-9q-16 61 -43.5 113.5t-70 97.5t-106 71t-140.5 26h-64v-611h158q363 0 496 451l8 -2 l-39 -463h-1141zM387 1735l4 4l316 -170l315 170l4 -4l-231 -322q-38 -51 -88 -51q-51 0 -89 51z" />
<glyph unicode="&#x11b;" horiz-adv-x="1052" d="M63 424q0 93 35 175t97.5 143t154.5 96.5t201 35.5q196 0 314 -110.5t126 -298.5h-594q2 -204 78.5 -320t214.5 -116q156 0 287 159l10 -8q-33 -40 -66.5 -70.5t-85.5 -63.5t-122.5 -51t-155.5 -18q-118 0 -214 37t-156 99.5t-92 142t-32 168.5zM225 1325l4 4l316 -170 l315 170l4 -4l-231 -321q-39 -52 -88 -52t-88 52zM397 481h277q0 383 -129 383q-40 0 -70.5 -37.5t-46.5 -97.5t-23.5 -122.5t-7.5 -125.5z" />
<glyph unicode="&#x11c;" horiz-adv-x="1619" d="M78 612q0 128 41.5 238.5t114 190t170.5 136.5t211 85t235 28q52 0 130.5 -6t137.5 -11t129 -2.5t123 15.5l37 -426l-10 -2q-39 111 -99.5 195t-130 131t-139.5 69.5t-141 22.5q-112 0 -197 -55t-134 -150.5t-73 -211.5t-24 -251q0 -97 12 -183.5t41.5 -168t75 -139.5 t117.5 -93.5t163 -35.5q121 0 244 57v334q0 126 -38.5 174.5t-139.5 48.5v12h682v-12q-96 0 -130 -42t-34 -167v-330q-318 -88 -592 -88q-191 0 -341.5 47.5t-246 133.5t-145 201.5t-49.5 254.5zM541 1360l231 321q39 52 88 52t88 -52l232 -321l-4 -4l-316 170l-315 -170z " />
<glyph unicode="&#x11d;" horiz-adv-x="1140" d="M33 -195q0 92 178 127q-113 42 -113 144q0 138 197 213q-107 37 -166 109t-59 167q0 136 119 222.5t317 86.5q131 0 227 -38q39 11 92 26t75 21t50 13t44 9t30 2q49 0 79 -26.5t30 -69.5q0 -41 -27.5 -72.5t-67.5 -31.5q-27 0 -59 17t-60 38.5t-73 41t-94 23.5 q91 -40 140.5 -108t49.5 -154q0 -135 -118 -222t-318 -87q-109 0 -201 29q-47 -23 -47 -60q0 -25 32 -37t84.5 -12.5t119.5 -1.5t137 -1.5t137 -13.5t119.5 -36t84.5 -71.5t32 -117.5q0 -139 -128.5 -214.5t-398.5 -75.5q-198 0 -321 40.5t-123 120.5zM184 -164 q0 -41 14.5 -72t48.5 -57t98 -39.5t155 -13.5q81 0 142.5 11t95 27t53.5 37.5t26 38.5t6 35q0 44 -41.5 67t-112 28t-146 5t-161.5 5t-141 22q-37 -37 -37 -94zM186 971l232 321q38 51 88 51t88 -51l231 -321l-4 -4l-315 170l-316 -170zM387 565q0 -299 119 -299t119 299 t-119 299t-119 -299z" />
<glyph unicode="&#x11e;" horiz-adv-x="1619" d="M78 612q0 128 41.5 238.5t114 190t170.5 136.5t211 85t235 28q52 0 130.5 -6t137.5 -11t129 -2.5t123 15.5l37 -426l-10 -2q-39 111 -99.5 195t-130 131t-139.5 69.5t-141 22.5q-112 0 -197 -55t-134 -150.5t-73 -211.5t-24 -251q0 -97 12 -183.5t41.5 -168t75 -139.5 t117.5 -93.5t163 -35.5q121 0 244 57v334q0 126 -38.5 174.5t-139.5 48.5v12h682v-12q-96 0 -130 -42t-34 -167v-330q-318 -88 -592 -88q-191 0 -341.5 47.5t-246 133.5t-145 201.5t-49.5 254.5zM623 1757h6q16 -70 79 -117t183 -47q121 0 183.5 47t78.5 117h6 q0 -45 -7.5 -92.5t-27.5 -98.5t-49 -91t-77 -65.5t-107 -25.5t-107 25.5t-77 65.5t-49 91t-27.5 98.5t-7.5 92.5z" />
<glyph unicode="&#x11f;" horiz-adv-x="1026" d="M33 -195q0 92 178 127q-113 42 -113 144q0 138 197 213q-107 37 -166 109t-59 167q0 136 119 222.5t317 86.5q129 0 229 -38q24 47 52.5 107t39 80t24.5 42t30 37q31 29 71.5 27.5t69.5 -33.5t28 -72.5t-32 -69.5q-9 -8 -20 -16t-29 -17l-31 -15.5t-40.5 -17.5t-43 -17.5 t-52 -20.5t-54.5 -21q93 -40 143.5 -108.5t50.5 -155.5q0 -135 -118 -222t-318 -87q-109 0 -201 29q-47 -23 -47 -60q0 -25 32 -37t84.5 -12.5t119.5 -1.5t137 -1.5t137 -13.5t119.5 -36t84.5 -71.5t32 -117.5q0 -139 -128.5 -214.5t-398.5 -75.5q-198 0 -321 40.5 t-123 120.5zM184 -164q0 -41 14.5 -72t48.5 -57t98 -39.5t155 -13.5q81 0 142.5 11t95 27t53.5 37.5t26 38.5t6 35q0 44 -41.5 67t-112 28t-146 5t-161.5 5t-141 22q-37 -37 -37 -94zM236 1348h6q16 -70 79 -117t183 -47q121 0 183.5 47t78.5 117h6q0 -45 -7.5 -92.5 t-27.5 -98.5t-49 -91t-77 -65.5t-107 -25.5t-107 25.5t-77 65.5t-49 91t-27.5 98.5t-7.5 92.5zM387 565q0 -299 119 -299t119 299t-119 299t-119 -299z" />
<glyph unicode="&#x120;" horiz-adv-x="1619" d="M78 612q0 128 41.5 238.5t114 190t170.5 136.5t211 85t235 28q52 0 130.5 -6t137.5 -11t129 -2.5t123 15.5l37 -426l-10 -2q-39 111 -99.5 195t-130 131t-139.5 69.5t-141 22.5q-112 0 -197 -55t-134 -150.5t-73 -211.5t-24 -251q0 -97 12 -183.5t41.5 -168t75 -139.5 t117.5 -93.5t163 -35.5q121 0 244 57v334q0 126 -38.5 174.5t-139.5 48.5v12h682v-12q-96 0 -130 -42t-34 -167v-330q-318 -88 -592 -88q-191 0 -341.5 47.5t-246 133.5t-145 201.5t-49.5 254.5zM719 1565q0 61 43.5 105t105.5 44t106 -44t44 -105t-44 -105.5t-106 -44.5 q-61 0 -105 44t-44 106z" />
<glyph unicode="&#x121;" horiz-adv-x="1026" d="M33 -195q0 92 178 127q-113 42 -113 144q0 138 197 213q-107 37 -166 109t-59 167q0 136 119 222.5t317 86.5q129 0 229 -38q24 47 52.5 107t39 80t24.5 42t30 37q31 29 71.5 27.5t69.5 -33.5t28 -72.5t-32 -69.5q-9 -8 -20 -16t-29 -17l-31 -15.5t-40.5 -17.5t-43 -17.5 t-52 -20.5t-54.5 -21q93 -40 143.5 -108.5t50.5 -155.5q0 -135 -118 -222t-318 -87q-109 0 -201 29q-47 -23 -47 -60q0 -25 32 -37t84.5 -12.5t119.5 -1.5t137 -1.5t137 -13.5t119.5 -36t84.5 -71.5t32 -117.5q0 -139 -128.5 -214.5t-398.5 -75.5q-198 0 -321 40.5 t-123 120.5zM184 -164q0 -41 14.5 -72t48.5 -57t98 -39.5t155 -13.5q81 0 142.5 11t95 27t53.5 37.5t26 38.5t6 35q0 44 -41.5 67t-112 28t-146 5t-161.5 5t-141 22q-37 -37 -37 -94zM352 1155q0 61 44 105.5t106 44.5q61 0 105 -44t44 -106q0 -61 -43.5 -105t-105.5 -44 t-106 44t-44 105zM387 565q0 -299 119 -299t119 299t-119 299t-119 -299z" />
<glyph unicode="&#x122;" horiz-adv-x="1619" d="M78 612q0 128 41.5 238.5t114 190t170.5 136.5t211 85t235 28q52 0 130.5 -6t137.5 -11t129 -2.5t123 15.5l37 -426l-10 -2q-39 111 -99.5 195t-130 131t-139.5 69.5t-141 22.5q-112 0 -197 -55t-134 -150.5t-73 -211.5t-24 -251q0 -97 12 -183.5t41.5 -168t75 -139.5 t117.5 -93.5t163 -35.5q121 0 244 57v334q0 126 -38.5 174.5t-139.5 48.5v12h682v-12q-96 0 -130 -42t-34 -167v-330q-318 -88 -592 -88q-191 0 -341.5 47.5t-246 133.5t-145 201.5t-49.5 254.5zM713 -289q0 59 44 101.5t109 42.5q70 0 112 -49t42 -125q0 -107 -81.5 -209 t-221.5 -150l-4 8q85 32 152 106t75 165q-40 -29 -86 -29q-58 0 -99.5 41t-41.5 98z" />
<glyph unicode="&#x123;" horiz-adv-x="1026" d="M33 -195q0 92 178 127q-113 42 -113 144q0 138 197 213q-107 37 -166 109t-59 167q0 136 119 222.5t317 86.5q129 0 229 -38q24 47 52.5 107t39 80t24.5 42t30 37q31 29 71.5 27.5t69.5 -33.5t28 -72.5t-32 -69.5q-9 -8 -20 -16t-29 -17l-31 -15.5t-40.5 -17.5t-43 -17.5 t-52 -20.5t-54.5 -21q93 -40 143.5 -108.5t50.5 -155.5q0 -135 -118 -222t-318 -87q-109 0 -201 29q-47 -23 -47 -60q0 -25 32 -37t84.5 -12.5t119.5 -1.5t137 -1.5t137 -13.5t119.5 -36t84.5 -71.5t32 -117.5q0 -139 -128.5 -214.5t-398.5 -75.5q-198 0 -321 40.5 t-123 120.5zM184 -164q0 -41 14.5 -72t48.5 -57t98 -39.5t155 -13.5q81 0 142.5 11t95 27t53.5 37.5t26 38.5t6 35q0 44 -41.5 67t-112 28t-146 5t-161.5 5t-141 22q-37 -37 -37 -94zM360 1149q0 107 82 208.5t222 149.5l4 -8q-85 -32 -152.5 -105.5t-75.5 -164.5 q39 28 86 28q58 0 100 -41t42 -98q0 -59 -44.5 -101t-109.5 -42q-70 0 -112 49t-42 125zM387 565q0 -299 119 -299t119 299t-119 299t-119 -299z" />
<glyph unicode="&#x124;" horiz-adv-x="1695" d="M55 0v12q96 0 130 42t34 167v823q0 125 -34 167t-130 42v13h682v-13q-96 0 -130 -42t-34 -167v-397h549v397q0 125 -34 167t-130 42v13h682v-13q-96 0 -129.5 -42t-33.5 -167v-823q0 -125 33.5 -167t129.5 -42v-12h-682v12q96 0 130 42t34 167v408h-549v-408 q0 -125 34 -167t130 -42v-12h-682zM528 1360l232 321q39 52 88 52t88 -52l231 -321l-4 -4l-315 170l-316 -170z" />
<glyph unicode="&#x125;" horiz-adv-x="1206" d="M25 0v12q76 0 99 41.5t23 130.5v959q0 89 -23 130.5t-99 41.5v12l448 41v-651q157 157 330 157q113 0 185.5 -69t72.5 -211v-410q0 -89 23.5 -130.5t99.5 -41.5v-12h-551v12q60 0 81 43t21 129v447q0 72 -29 106.5t-79 34.5q-76 0 -154 -74v-514q0 -89 23.5 -130.5 t99.5 -41.5v-12h-571zM260 1432l232 321q38 51 88 51t88 -51l231 -321l-4 -5l-315 170l-316 -170z" />
<glyph unicode="&#x126;" horiz-adv-x="1695" d="M55 0v12q96 0 130 42t34 167v823q0 125 -34 167t-130 42v13h682v-13q-96 0 -130 -42t-34 -167v-397h549v397q0 125 -34 167t-130 42v13h682v-13q-96 0 -129.5 -42t-33.5 -167v-823q0 -125 33.5 -167t129.5 -42v-12h-682v12q96 0 130 42t34 167v408h-549v-408 q0 -125 34 -167t130 -42v-12h-682zM76 918v18h1544v-18h-1544z" />
<glyph unicode="&#x127;" horiz-adv-x="1206" d="M10 1028v19h727v-19h-727zM25 0v12q76 0 99 41.5t23 130.5v959q0 89 -23 130.5t-99 41.5v12l448 41v-651q157 157 330 157q113 0 185.5 -69t72.5 -211v-410q0 -89 23.5 -130.5t99.5 -41.5v-12h-551v12q60 0 81 43t21 129v447q0 72 -29 106.5t-79 34.5q-76 0 -154 -74 v-514q0 -89 23.5 -130.5t99.5 -41.5v-12h-571z" />
<glyph unicode="&#x128;" horiz-adv-x="792" d="M55 0v12q96 0 130 42t34 167v823q0 125 -34 167t-130 42v13h682v-13q-96 0 -130 -42t-34 -167v-823q0 -125 34 -167t130 -42v-12h-682zM94 1399q13 128 27 179q43 141 153 142q52 0 158 -48t162 -48q34 0 57.5 11t35 31.5t16.5 37t8 39.5l10 -2q-3 -35 -6 -60.5 t-9.5 -61.5t-15 -61.5t-22 -53.5t-31 -45t-42.5 -28.5t-56 -11.5q-51 0 -155.5 48.5t-162.5 48.5q-34 0 -57.5 -11t-35 -31.5t-16.5 -37t-8 -39.5z" />
<glyph unicode="&#x129;" horiz-adv-x="632" d="M0 989q13 128 27 179q42 143 153 143q52 0 158 -48.5t162 -48.5q27 0 48 8.5t32.5 19.5t19.5 29t11 31t5 31l11 -2q-4 -42 -8 -71.5t-12 -71t-21 -69.5t-31.5 -55t-47 -40.5t-63.5 -13.5q-51 0 -155 48t-162 48q-34 0 -57.5 -11t-35 -31.5t-16.5 -37t-8 -39.5zM37 0v12 q76 0 99.5 41.5t23.5 130.5v465q0 89 -23.5 130.5t-99.5 41.5v13l448 40v-690q0 -89 23.5 -130.5t99.5 -41.5v-12h-571z" />
<glyph unicode="&#x12a;" horiz-adv-x="792" d="M55 0v12q96 0 130 42t34 167v823q0 125 -34 167t-130 42v13h682v-13q-96 0 -130 -42t-34 -167v-823q0 -125 34 -167t130 -42v-12h-682zM88 1434v82h614v-82h-614z" />
<glyph unicode="&#x12b;" horiz-adv-x="632" d="M6 1024v82h615v-82h-615zM37 0v12q76 0 99.5 41.5t23.5 130.5v465q0 89 -23.5 130.5t-99.5 41.5v13l448 40v-690q0 -89 23.5 -130.5t99.5 -41.5v-12h-571z" />
<glyph unicode="&#x12c;" horiz-adv-x="792" d="M55 0v12q96 0 130 42t34 167v823q0 125 -34 167t-130 42v13h682v-13q-96 0 -130 -42t-34 -167v-823q0 -125 34 -167t130 -42v-12h-682zM127 1757h6q16 -70 79 -117t183 -47q121 0 183.5 47t78.5 117h7q0 -58 -13.5 -118t-42.5 -119.5t-84.5 -97.5t-128.5 -38 q-59 0 -107 25.5t-77 65.5t-49 91t-27.5 98.5t-7.5 92.5z" />
<glyph unicode="&#x12d;" horiz-adv-x="632" d="M37 0v12q76 0 99.5 41.5t23.5 130.5v465q0 89 -23.5 130.5t-99.5 41.5v13l448 40v-690q0 -89 23.5 -130.5t99.5 -41.5v-12h-571zM49 1348h6q16 -70 79 -117t183 -47q121 0 184 47t79 117h6q0 -58 -13.5 -118t-42.5 -119.5t-84.5 -97.5t-128.5 -38q-59 0 -107 25.5 t-77 65.5t-49 91t-27.5 98.5t-7.5 92.5z" />
<glyph unicode="&#x12e;" horiz-adv-x="792" d="M55 0v12q96 0 130 42t34 167v823q0 125 -34 167t-130 42v13h682v-13q-96 0 -130 -42t-34 -167v-823q0 -125 34 -167t130 -42v-12h-682zM115 -295q0 48 25 89t62 68.5t90 53t98.5 41.5t98.5 34.5t80 31.5l4 -9q-3 -1 -28.5 -15t-32 -18t-30 -18.5t-32 -23.5t-26.5 -25.5 t-26 -32.5t-18 -36.5t-14 -44t-4 -50.5q0 -85 44 -128.5t122 -43.5q48 0 107 19l4 -11q-57 -23 -137 -38t-148 -15q-117 0 -178 47t-61 125z" />
<glyph unicode="&#x12f;" horiz-adv-x="632" d="M37 0v12q76 0 99.5 41.5t23.5 130.5v465q0 89 -23.5 130.5t-99.5 41.5v13l448 40v-690q0 -89 23.5 -130.5t99.5 -41.5v-12h-571zM41 -295q0 48 25 89t62.5 68.5t90.5 53t98.5 41.5t98.5 34.5t80 31.5l4 -9q-3 -1 -28.5 -15t-32 -18t-30 -18.5t-32 -23.5t-26.5 -25.5 t-26 -32.5t-18 -36.5t-14 -44t-4 -50.5q0 -85 44 -128.5t122 -43.5q47 0 106 19l4 -11q-58 -23 -137 -38t-147 -15q-118 0 -179 47t-61 125zM131 1157q0 77 54.5 127.5t133.5 50.5t134 -50.5t55 -127.5q0 -78 -55 -129t-134 -51t-133.5 51t-54.5 129z" />
<glyph unicode="&#x130;" horiz-adv-x="792" d="M55 0v12q96 0 130 42t34 167v823q0 125 -34 167t-130 42v13h682v-13q-96 0 -130 -42t-34 -167v-823q0 -125 34 -167t130 -42v-12h-682zM244 1565q0 61 44 105t105 44q62 0 106 -44t44 -105t-44.5 -105.5t-105.5 -44.5t-105 44t-44 106z" />
<glyph unicode="&#x131;" horiz-adv-x="632" d="M37 0v12q76 0 99.5 41.5t23.5 130.5v465q0 89 -23.5 130.5t-99.5 41.5v13l448 40v-690q0 -89 23.5 -130.5t99.5 -41.5v-12h-571z" />
<glyph unicode="&#x134;" horiz-adv-x="768" d="M6 -336q41 22 73 46.5t53 47.5t35.5 53t22.5 52.5t12 57t4.5 57.5t0.5 61v1005q0 125 -34 167t-130 42v13h682v-13q-96 0 -130 -42t-34 -167v-946q0 -83 -47 -156t-128 -126.5t-175 -92.5t-201 -65zM63 1360l232 321q39 52 88 52t88 -52l231 -321l-4 -4l-315 170 l-315 -170z" />
<glyph unicode="&#x135;" horiz-adv-x="616" d="M-14 -352q42 23 72.5 48t49.5 54t30.5 54t16.5 61t6 61t1 68v653q0 85 -32.5 128.5t-111.5 43.5v15l469 40v-823q0 -67 -33.5 -127t-83.5 -102t-120.5 -79.5t-131 -60t-128.5 -42.5zM-4 950l231 322q38 51 88 51t88 -51l232 -322l-4 -4l-316 170l-315 -170z" />
<glyph unicode="&#x136;" horiz-adv-x="1519" d="M55 0v12q96 0 130 42t34 167v823q0 125 -34 167t-130 42v13h682v-13q-96 0 -130 -42t-34 -167v-520l326 322q203 200 203 313q0 94 -154 94v13h584v-13q-147 0 -309 -127q-97 -76 -299 -278l-13 -12l428 -646q62 -94 113 -136t104 -42v-12h-526l-368 588l-89 -86v-281 q0 -125 34 -167t130 -42v-12h-682zM668 -289q0 59 44 101.5t109 42.5q70 0 112 -49t42 -125q0 -107 -81.5 -209t-221.5 -150l-4 8q85 32 152 106t75 165q-40 -29 -86 -29q-58 0 -99.5 41t-41.5 98z" />
<glyph unicode="&#x137;" horiz-adv-x="1169" d="M25 0v12q76 0 99 41.5t23 130.5v959q0 89 -23 130.5t-99 41.5v12l448 41v-995l166 159q143 137 143 224q0 84 -141 84v12h500v-12q-79 0 -147 -27.5t-142 -87.5q-48 -37 -109 -98l-6 -6l312 -482q80 -127 172 -127v-12h-451l-254 393l-43 -41v-168q0 -89 23.5 -130.5 t99.5 -41.5v-12h-571zM473 -289q0 59 44.5 101.5t109.5 42.5q69 0 111 -49t42 -125q0 -107 -81.5 -209t-221.5 -150l-4 8q85 32 152 106t75 165q-40 -29 -86 -29q-58 0 -99.5 41t-41.5 98z" />
<glyph unicode="&#x138;" horiz-adv-x="1181" d="M37 0v12q76 0 99.5 41.5t23.5 130.5v465q0 89 -23.5 130.5t-99.5 41.5v13l448 40v-501l166 159q144 138 144 224q0 84 -142 84v12h500v-12q-79 0 -147 -27.5t-142 -87.5q-44 -34 -108 -98l-6 -6l311 -482q80 -127 172 -127v-12h-451l-254 393l-43 -41v-168 q0 -89 23.5 -130.5t99.5 -41.5v-12h-571z" />
<glyph unicode="&#x139;" horiz-adv-x="1257" d="M55 0v12q96 0 130 42t34 167v823q0 125 -34 167t-130 42v13h723v-13q-52 0 -86.5 -8.5t-63 -32.5t-42 -70.5t-13.5 -117.5v-1010h123q101 0 188.5 37t149 100.5t104 143t62.5 170.5l8 -2l-32 -463h-1121zM348 1389q28 41 76 111t70.5 102t51 67.5t48.5 52.5 q43 37 90 37.5t78 -37.5q30 -38 19.5 -82.5t-54.5 -80.5q-21 -17 -60 -37t-77 -36t-112 -47.5t-126 -54.5z" />
<glyph unicode="&#x13a;" horiz-adv-x="620" d="M25 0v12q76 0 99 41.5t23 130.5v959q0 89 -23 130.5t-99 41.5v12l448 41v-1184q0 -89 23.5 -130.5t99.5 -41.5v-12h-571zM104 1432q28 41 76 111t70.5 102t51 67.5t48.5 52.5q43 37 90 37.5t78 -37.5q30 -38 19.5 -82.5t-54.5 -80.5q-21 -17 -60 -37t-76.5 -36t-112 -48 t-125.5 -54z" />
<glyph unicode="&#x13b;" horiz-adv-x="1257" d="M55 0v12q96 0 130 42t34 167v823q0 125 -34 167t-130 42v13h723v-13q-52 0 -86.5 -8.5t-63 -32.5t-42 -70.5t-13.5 -117.5v-1010h123q101 0 188.5 37t149 100.5t104 143t62.5 170.5l8 -2l-32 -463h-1121zM528 -289q0 59 44.5 101.5t109.5 42.5q70 0 112 -49t42 -125 q0 -107 -82 -209t-222 -150l-4 8q85 32 152.5 106t75.5 165q-40 -29 -86 -29q-58 0 -100 41t-42 98z" />
<glyph unicode="&#x13c;" horiz-adv-x="620" d="M25 0v12q76 0 99 41.5t23 130.5v959q0 89 -23 130.5t-99 41.5v12l448 41v-1184q0 -89 23.5 -130.5t99.5 -41.5v-12h-571zM162 -289q0 59 44 101.5t109 42.5q70 0 112 -49t42 -125q0 -107 -81.5 -209t-221.5 -150l-4 8q85 32 152 106t75 165q-40 -29 -86 -29 q-58 0 -99.5 41t-41.5 98z" />
<glyph unicode="&#x13d;" horiz-adv-x="1261" d="M55 0v12q96 0 130 42t34 167v823q0 125 -34 167t-130 42v13h723v-13q-52 0 -86.5 -8.5t-63 -32.5t-42 -70.5t-13.5 -117.5v-1010h123q101 0 188.5 37t149 100.5t104 143t62.5 170.5l8 -2l-32 -463h-1121zM918 815q2 34 5 107.5t5.5 117t8 91.5t13.5 69q16 46 57.5 72 t84.5 8q42 -15 57.5 -57.5t-2.5 -92.5q-11 -31 -39.5 -72.5t-90 -121t-93.5 -123.5z" />
<glyph unicode="&#x13e;" horiz-adv-x="651" d="M25 0v12q76 0 99 41.5t23 130.5v959q0 89 -23 130.5t-99 41.5v12l448 41v-1184q0 -89 23.5 -130.5t99.5 -41.5v-12h-571zM614 883q2 32 5.5 107t5.5 117.5t8 91t14 69.5q16 46 57 72t84 8q42 -15 58 -57.5t-2 -92.5q-11 -31 -39.5 -72.5t-90 -121t-93.5 -123.5z" />
<glyph unicode="&#x13f;" horiz-adv-x="1257" d="M55 0v12q96 0 130 42t34 167v823q0 125 -34 167t-130 42v13h723v-13q-52 0 -86.5 -8.5t-63 -32.5t-42 -70.5t-13.5 -117.5v-1010h123q101 0 188.5 37t149 100.5t104 143t62.5 170.5l8 -2l-32 -463h-1121zM844 719q0 61 44 105t105 44q62 0 106 -44t44 -105t-44.5 -105.5 t-105.5 -44.5t-105 44t-44 106z" />
<glyph unicode="&#x140;" horiz-adv-x="886" d="M25 0v12q76 0 99 41.5t23 130.5v959q0 89 -23 130.5t-99 41.5v12l448 41v-1184q0 -89 23.5 -130.5t99.5 -41.5v-12h-571zM604 627q0 61 44 105t106 44t105.5 -44t43.5 -105q0 -62 -44 -106t-105 -44q-62 0 -106 44.5t-44 105.5z" />
<glyph unicode="&#x141;" horiz-adv-x="1257" d="M43 535l809 270l6 -19l-809 -270zM55 0v12q96 0 130 42t34 167v823q0 125 -34 167t-130 42v13h723v-13q-52 0 -86.5 -8.5t-63 -32.5t-42 -70.5t-13.5 -117.5v-1010h123q101 0 188.5 37t149 100.5t104 143t62.5 170.5l8 -2l-32 -463h-1121z" />
<glyph unicode="&#x142;" horiz-adv-x="624" d="M10 541l598 247l6 -16l-598 -248zM27 0v12q76 0 99.5 41.5t23.5 130.5v959q0 89 -23.5 130.5t-99.5 41.5v12l448 41v-1184q0 -89 23.5 -130.5t99.5 -41.5v-12h-571z" />
<glyph unicode="&#x143;" horiz-adv-x="1478" d="M8 0v12q58 0 99.5 10t71.5 34.5t48 58t28.5 87.5t14.5 115t4 150v467q0 163 -55.5 241t-189.5 78v13h479l709 -734v267q0 106 -6 175.5t-22 127t-46 88.5t-77 47t-116 16v13h553v-13q-58 0 -99.5 -10t-71.5 -34.5t-48 -57.5t-28.5 -87.5t-14.5 -115.5t-4 -149v-815 l-10 -2l-932 972v-487q0 -89 4 -150t14.5 -115t28.5 -87.5t48 -58t71.5 -34.5t99.5 -10v-12h-553zM641 1389q28 41 76 111t70.5 102t51 67.5t48.5 52.5q43 37 90 37.5t78 -37.5q30 -38 19.5 -82.5t-54.5 -80.5q-21 -17 -60 -37t-77 -36t-112 -47.5t-126 -54.5z" />
<glyph unicode="&#x144;" horiz-adv-x="1218" d="M37 0v12q76 0 99.5 41.5t23.5 130.5v465q0 89 -23.5 130.5t-99.5 41.5v13l438 40v-167q159 167 340 167q113 0 185.5 -69t72.5 -211v-410q0 -89 23.5 -130.5t99.5 -41.5v-12h-551v12q60 0 81.5 43.5t21.5 128.5v447q0 72 -29.5 106.5t-79.5 34.5q-76 0 -154 -74v-514 q0 -85 21.5 -128.5t81.5 -43.5v-12h-551zM430 979q29 42 76 111t70 102t51.5 68.5t48.5 52.5q43 37 90 37.5t78 -37.5q30 -38 19.5 -83t-54.5 -81q-21 -17 -60 -37t-77.5 -36t-111.5 -47t-126 -54z" />
<glyph unicode="&#x145;" horiz-adv-x="1478" d="M8 0v12q58 0 99.5 10t71.5 34.5t48 58t28.5 87.5t14.5 115t4 150v467q0 163 -55.5 241t-189.5 78v13h479l709 -734v267q0 106 -6 175.5t-22 127t-46 88.5t-77 47t-116 16v13h553v-13q-58 0 -99.5 -10t-71.5 -34.5t-48 -57.5t-28.5 -87.5t-14.5 -115.5t-4 -149v-815 l-10 -2l-932 972v-487q0 -89 4 -150t14.5 -115t28.5 -87.5t48 -58t71.5 -34.5t99.5 -10v-12h-553zM616 -289q0 59 44.5 101.5t109.5 42.5q70 0 112 -49t42 -125q0 -107 -81.5 -209t-221.5 -150l-5 8q85 32 152.5 106t75.5 165q-40 -29 -86 -29q-58 0 -100 41t-42 98z" />
<glyph unicode="&#x146;" horiz-adv-x="1218" d="M37 0v12q76 0 99.5 41.5t23.5 130.5v465q0 89 -23.5 130.5t-99.5 41.5v13l438 40v-167q159 167 340 167q113 0 185.5 -69t72.5 -211v-410q0 -89 23.5 -130.5t99.5 -41.5v-12h-551v12q60 0 81.5 43.5t21.5 128.5v447q0 72 -29.5 106.5t-79.5 34.5q-76 0 -154 -74v-514 q0 -85 21.5 -128.5t81.5 -43.5v-12h-551zM469 -289q0 59 44.5 101.5t109.5 42.5q69 0 111 -49t42 -125q0 -107 -81.5 -209t-221.5 -150l-4 8q85 32 152 106t75 165q-40 -29 -86 -29q-58 0 -99.5 41t-41.5 98z" />
<glyph unicode="&#x147;" horiz-adv-x="1478" d="M8 0v12q58 0 99.5 10t71.5 34.5t48 58t28.5 87.5t14.5 115t4 150v467q0 163 -55.5 241t-189.5 78v13h479l709 -734v267q0 106 -6 175.5t-22 127t-46 88.5t-77 47t-116 16v13h553v-13q-58 0 -99.5 -10t-71.5 -34.5t-48 -57.5t-28.5 -87.5t-14.5 -115.5t-4 -149v-815 l-10 -2l-932 972v-487q0 -89 4 -150t14.5 -115t28.5 -87.5t48 -58t71.5 -34.5t99.5 -10v-12h-553zM471 1735l4 4l316 -170l315 170l4 -4l-231 -322q-38 -51 -88 -51q-51 0 -89 51z" />
<glyph unicode="&#x148;" horiz-adv-x="1218" d="M37 0v12q76 0 99.5 41.5t23.5 130.5v465q0 89 -23.5 130.5t-99.5 41.5v13l438 40v-167q159 167 340 167q113 0 185.5 -69t72.5 -211v-410q0 -89 23.5 -130.5t99.5 -41.5v-12h-551v12q60 0 81.5 43.5t21.5 128.5v447q0 72 -29.5 106.5t-79.5 34.5q-76 0 -154 -74v-514 q0 -85 21.5 -128.5t81.5 -43.5v-12h-551zM293 1325l4 4l315 -170l316 170l4 -4l-232 -321q-39 -52 -88 -52t-88 52z" />
<glyph unicode="&#x14a;" horiz-adv-x="1478" d="M8 0v12q58 0 99.5 10t71.5 34.5t48 58t28.5 87.5t14.5 115t4 150v467q0 163 -55.5 241t-189.5 78v13h479l709 -734v267q0 106 -6 175.5t-22 127t-46 88.5t-77 47t-116 16v13h553v-13q-58 0 -99.5 -10t-71.5 -34.5t-48 -57.5t-28.5 -87.5t-14.5 -115.5t-4 -149v-660 q0 -93 -43 -173.5t-119 -140t-174 -101.5t-215 -66l-6 10q103 29 171.5 70t106.5 95.5t53 114.5t15 140v102l-731 764v-487q0 -89 4 -150t14.5 -115t28.5 -87.5t48 -58t71.5 -34.5t99.5 -10v-12h-553z" />
<glyph unicode="&#x14b;" horiz-adv-x="1183" d="M37 0v12q76 0 99.5 41.5t23.5 130.5v465q0 89 -23.5 130.5t-99.5 41.5v13l438 40v-167q159 167 340 167q113 0 185.5 -69t72.5 -211v-543q0 -67 -34 -127t-84 -102t-120.5 -79.5t-131 -60t-128.5 -42.5l-4 8q50 27 84.5 60t52.5 62t27 71.5t11 72t2 80.5v637 q0 72 -29.5 106.5t-79.5 34.5q-76 0 -154 -74v-514q0 -85 21.5 -128.5t81.5 -43.5v-12h-551z" />
<glyph unicode="&#x14c;" horiz-adv-x="1601" d="M76 633q0 192 94.5 342.5t259.5 232.5t371 82t371 -82t259.5 -232.5t94.5 -342.5q0 -144 -55.5 -267.5t-151.5 -208.5t-230 -133.5t-288 -48.5t-288 48.5t-230 133.5t-151.5 208.5t-55.5 267.5zM457 633q0 -102 8.5 -189t32.5 -173.5t61.5 -146.5t99 -97t142.5 -37 q344 0 344 643t-344 643q-81 0 -142.5 -37t-99 -97t-61.5 -146.5t-32.5 -173.5t-8.5 -189zM494 1434v82h614v-82h-614z" />
<glyph unicode="&#x14d;" horiz-adv-x="1159" d="M63 426q0 200 146.5 324t370.5 124t370 -124t146 -324t-146 -324.5t-370 -124.5t-370.5 124.5t-146.5 324.5zM272 1024v82h615v-82h-615zM408 426q0 -219 39.5 -326.5t132.5 -107.5t132.5 107.5t39.5 326.5t-39.5 326.5t-132.5 107.5t-132.5 -107.5t-39.5 -326.5z" />
<glyph unicode="&#x14e;" horiz-adv-x="1601" d="M76 633q0 192 94.5 342.5t259.5 232.5t371 82t371 -82t259.5 -232.5t94.5 -342.5q0 -144 -55.5 -267.5t-151.5 -208.5t-230 -133.5t-288 -48.5t-288 48.5t-230 133.5t-151.5 208.5t-55.5 267.5zM457 633q0 -102 8.5 -189t32.5 -173.5t61.5 -146.5t99 -97t142.5 -37 q344 0 344 643t-344 643q-81 0 -142.5 -37t-99 -97t-61.5 -146.5t-32.5 -173.5t-8.5 -189zM532 1757h7q16 -70 79 -117t183 -47q121 0 183.5 47t78.5 117h6q0 -45 -7.5 -92.5t-27.5 -98.5t-49 -91t-77 -65.5t-107 -25.5q-73 0 -128.5 38t-84.5 97.5t-42.5 119.5t-13.5 118z " />
<glyph unicode="&#x14f;" horiz-adv-x="1159" d="M63 426q0 200 146.5 324t370.5 124t370 -124t146 -324t-146 -324.5t-370 -124.5t-370.5 124.5t-146.5 324.5zM311 1348h6q16 -69 79.5 -116.5t183.5 -47.5q121 0 183.5 47t78.5 117h6q0 -45 -7.5 -92.5t-27.5 -98.5t-49 -91t-77 -65.5t-107 -25.5q-73 0 -128.5 38 t-84.5 97.5t-42.5 119.5t-13.5 118zM408 426q0 -219 39.5 -326.5t132.5 -107.5t132.5 107.5t39.5 326.5t-39.5 326.5t-132.5 107.5t-132.5 -107.5t-39.5 -326.5z" />
<glyph unicode="&#x150;" horiz-adv-x="1601" d="M76 633q0 192 94.5 342.5t259.5 232.5t371 82t371 -82t259.5 -232.5t94.5 -342.5q0 -144 -55.5 -267.5t-151.5 -208.5t-230 -133.5t-288 -48.5t-288 48.5t-230 133.5t-151.5 208.5t-55.5 267.5zM457 633q0 -102 8.5 -189t32.5 -173.5t61.5 -146.5t99 -97t142.5 -37 q344 0 344 643t-344 643q-81 0 -142.5 -37t-99 -97t-61.5 -146.5t-32.5 -173.5t-8.5 -189zM537 1382q9 24 25 68.5t24 67t21 57.5t21.5 55t19 43t19 38t17.5 26q29 40 68 49t73 -14q36 -25 41.5 -64t-26.5 -86q-12 -16 -31 -34.5t-51.5 -44t-58 -45t-76.5 -57.5t-82 -61z M895 1382q9 24 25 68.5t24 67t21 57.5t21.5 55t19 43t19 38t17.5 26q29 39 68.5 49t73.5 -14q35 -24 40.5 -63.5t-26.5 -86.5q-12 -16 -31 -34.5t-51.5 -44t-58 -45t-76.5 -57.5t-82 -61z" />
<glyph unicode="&#x151;" horiz-adv-x="1159" d="M63 426q0 200 146.5 324t370.5 124t370 -124t146 -324t-146 -324.5t-370 -124.5t-370.5 124.5t-146.5 324.5zM315 973q7 18 20 54t19 53t17 47.5t17.5 46.5t16 39.5t16 37t14 30t14.5 27.5t14 19q29 40 68 49t73 -14q35 -24 40.5 -63.5t-26.5 -86.5q-12 -16 -31.5 -34.5 t-51 -43.5t-58 -45t-76.5 -56.5t-82 -61.5zM408 426q0 -219 39.5 -326.5t132.5 -107.5t132.5 107.5t39.5 326.5t-39.5 326.5t-132.5 107.5t-132.5 -107.5t-39.5 -326.5zM674 973q8 23 24.5 69t24.5 67t21 56.5t21.5 54.5t19 42.5t19 38.5t17.5 26q29 39 68.5 49t73.5 -14 q35 -24 40.5 -63.5t-26.5 -86.5q-12 -16 -31.5 -34.5t-51 -43.5t-58 -45t-76.5 -56.5t-82 -61.5z" />
<glyph unicode="&#x152;" horiz-adv-x="2201" d="M78 633q0 201 95 351.5t258.5 228t371.5 77.5q39 0 141.5 -12t136.5 -12h975l31 -432l-8 -3q-20 91 -59 165.5t-98 132.5t-143.5 90t-187.5 32h-147v-612h63q77 0 140.5 26t106.5 71.5t71 98.5t43 115h8v-633h-8q-16 61 -43.5 113.5t-70.5 97.5t-106.5 71t-140.5 26h-63 v-611h158q362 0 495 451l8 -2l-39 -463h-985q-34 0 -136.5 -12.5t-141.5 -12.5q-155 0 -288 45.5t-230 128.5t-152 208t-55 276zM459 633q0 -102 8.5 -189t32.5 -173.5t61.5 -146.5t99 -97t142.5 -37q139 0 213 62t74 169v821q0 108 -74 171t-213 63q-81 0 -142.5 -37 t-99 -97t-61.5 -146.5t-32.5 -173.5t-8.5 -189z" />
<glyph unicode="&#x153;" horiz-adv-x="1738" d="M63 426q0 200 146.5 324t370.5 124q206 0 338 -110q123 110 319 110t314 -110.5t126 -298.5h-594q2 -204 78.5 -320t214.5 -116q156 0 287 159l10 -8q-33 -40 -66.5 -70.5t-85.5 -63.5t-122.5 -51t-155.5 -18q-206 0 -328 109q-131 -109 -335 -109q-224 0 -370.5 124.5 t-146.5 324.5zM408 426q0 -219 39.5 -326.5t132.5 -107.5t132.5 107.5t39.5 326.5t-39.5 326.5t-132.5 107.5t-132.5 -107.5t-39.5 -326.5zM1083 481h277q0 383 -129 383q-40 0 -70.5 -37.5t-46.5 -97.5t-23.5 -122.5t-7.5 -125.5z" />
<glyph unicode="&#x154;" horiz-adv-x="1507" d="M55 0v12q96 0 130 42t34 167v823q0 125 -34 167t-130 42v13h723q295 0 433.5 -90t138.5 -248q0 -66 -23 -117.5t-66 -85t-92.5 -56.5t-116.5 -35.5t-122.5 -18.5t-124.5 -9v-8q83 0 146 -4t111 -14.5t80 -21t56.5 -33t38.5 -41.5t27 -55.5t20 -65.5t20.5 -80.5 t26.5 -92.5q31 -101 70 -139.5t127 -38.5v-12h-498q-37 62 -78 238q-45 197 -58 234q-27 78 -75 103q-43 21 -139 21h-107v-375q0 -125 34 -167t130 -42v-12h-682zM573 608h148q73 0 126.5 28t82 75.5t42 101.5t13.5 115q0 63 -14 117t-44 102t-87 76t-135 28h-132v-643z M594 1389q28 41 76 111t70.5 102t51 67.5t48.5 52.5q43 37 90 37.5t78 -37.5q30 -38 19.5 -82.5t-54.5 -80.5q-21 -17 -60 -37t-77 -36t-112 -47.5t-126 -54.5z" />
<glyph unicode="&#x155;" horiz-adv-x="937" d="M37 0v12q40 0 65.5 12.5t37.5 39t16 54.5t4 72v451q0 44 -4 72t-16 54.5t-37.5 39t-65.5 12.5v12l438 41v-292q21 80 56.5 143.5t93.5 107t127 43.5q82 0 129 -52.5t47 -121.5q0 -71 -48.5 -120.5t-117.5 -49.5q-71 0 -120 51.5t-46 131.5q-76 -42 -111 -135v-388 q0 -91 32 -134.5t112 -43.5v-12h-592zM340 979q29 42 76 111t70 102t51.5 68.5t48.5 52.5q43 37 90 37.5t78 -37.5q30 -38 19.5 -83t-54.5 -81q-21 -17 -60 -37t-77.5 -36t-111.5 -47t-126 -54z" />
<glyph unicode="&#x156;" horiz-adv-x="1507" d="M55 0v12q96 0 130 42t34 167v823q0 125 -34 167t-130 42v13h723q295 0 433.5 -90t138.5 -248q0 -66 -23 -117.5t-66 -85t-92.5 -56.5t-116.5 -35.5t-122.5 -18.5t-124.5 -9v-8q83 0 146 -4t111 -14.5t80 -21t56.5 -33t38.5 -41.5t27 -55.5t20 -65.5t20.5 -80.5 t26.5 -92.5q31 -101 70 -139.5t127 -38.5v-12h-498q-37 62 -78 238q-45 197 -58 234q-27 78 -75 103q-43 21 -139 21h-107v-375q0 -125 34 -167t130 -42v-12h-682zM573 608h148q73 0 126.5 28t82 75.5t42 101.5t13.5 115q0 63 -14 117t-44 102t-87 76t-135 28h-132v-643z M645 -289q0 59 44.5 101.5t109.5 42.5q69 0 111 -49t42 -125q0 -107 -81.5 -209t-221.5 -150l-4 8q85 32 152 106t75 165q-40 -29 -86 -29q-58 0 -99.5 41t-41.5 98z" />
<glyph unicode="&#x157;" horiz-adv-x="937" d="M37 0v12q40 0 65.5 12.5t37.5 39t16 54.5t4 72v451q0 44 -4 72t-16 54.5t-37.5 39t-65.5 12.5v12l438 41v-292q21 80 56.5 143.5t93.5 107t127 43.5q82 0 129 -52.5t47 -121.5q0 -71 -48.5 -120.5t-117.5 -49.5q-71 0 -120 51.5t-46 131.5q-76 -42 -111 -135v-388 q0 -91 32 -134.5t112 -43.5v-12h-592zM172 -289q0 59 44.5 101.5t109.5 42.5q69 0 111 -49t42 -125q0 -107 -81.5 -209t-221.5 -150l-4 8q85 32 152 106t75 165q-40 -29 -86 -29q-58 0 -99.5 41t-41.5 98z" />
<glyph unicode="&#x158;" horiz-adv-x="1507" d="M55 0v12q96 0 130 42t34 167v823q0 125 -34 167t-130 42v13h723q295 0 433.5 -90t138.5 -248q0 -66 -23 -117.5t-66 -85t-92.5 -56.5t-116.5 -35.5t-122.5 -18.5t-124.5 -9v-8q83 0 146 -4t111 -14.5t80 -21t56.5 -33t38.5 -41.5t27 -55.5t20 -65.5t20.5 -80.5 t26.5 -92.5q31 -101 70 -139.5t127 -38.5v-12h-498q-37 62 -78 238q-45 197 -58 234q-27 78 -75 103q-43 21 -139 21h-107v-375q0 -125 34 -167t130 -42v-12h-682zM430 1735l4 4l316 -170l315 170l4 -4l-231 -322q-38 -51 -88 -51t-88 51zM573 608h148q73 0 126.5 28 t82 75.5t42 101.5t13.5 115q0 63 -14 117t-44 102t-87 76t-135 28h-132v-643z" />
<glyph unicode="&#x159;" horiz-adv-x="937" d="M37 0v12q40 0 65.5 12.5t37.5 39t16 54.5t4 72v451q0 44 -4 72t-16 54.5t-37.5 39t-65.5 12.5v12l438 41v-292q21 80 56.5 143.5t93.5 107t127 43.5q82 0 129 -52.5t47 -121.5q0 -71 -48.5 -120.5t-117.5 -49.5q-71 0 -120 51.5t-46 131.5q-76 -42 -111 -135v-388 q0 -91 32 -134.5t112 -43.5v-12h-592zM166 1325l4 4l315 -170l316 170l4 -4l-232 -321q-39 -52 -88 -52t-88 52z" />
<glyph unicode="&#x15a;" horiz-adv-x="1210" d="M104 418l11 2q40 -102 82 -175.5t97.5 -133.5t126.5 -90.5t159 -30.5q128 0 197 61.5t69 155.5q0 55 -25 99.5t-67 75t-97 57t-115 51t-120.5 50t-115.5 60.5t-97 77.5t-67 105t-25 139.5q0 179 128 273.5t365 94.5q55 0 119.5 -5.5t106.5 -10.5t96 -3.5t104 13.5 l21 -420l-8 -2q-33 79 -59.5 134t-65.5 112t-80 91.5t-97 56.5t-122 22q-115 0 -175.5 -57.5t-60.5 -141.5q0 -52 25 -94t67.5 -72t97.5 -56t116 -50.5t121.5 -51t115.5 -62t97.5 -79t67.5 -106t25 -139.5q0 -190 -145 -292t-391 -102q-209 0 -463 54zM475 1389 q28 41 76 111t70.5 102t51 67.5t48.5 52.5q43 37 90 37.5t78 -37.5q30 -38 19.5 -82.5t-54.5 -80.5q-21 -17 -60 -37t-77 -36t-112 -47.5t-126 -54.5z" />
<glyph unicode="&#x15b;" horiz-adv-x="909" d="M88 289l8 2q65 -135 101 -184q83 -113 214 -117h11q50 0 86 13.5t52.5 35.5t23 42t6.5 42q0 40 -21.5 71.5t-57 50.5t-80.5 38t-92 34.5t-92 40t-80.5 54t-57 77.5t-21.5 109q0 134 98 205t273 71q46 0 115.5 -6.5t102 -7.5t101.5 10l10 -295l-8 -2q-29 65 -55.5 110.5 t-63 89.5t-83 66.5t-101.5 22.5q-77 0 -111 -38.5t-34 -88.5q0 -43 28 -74.5t72.5 -52t98.5 -39t108 -42t98.5 -54.5t72.5 -83.5t28 -121.5q0 -142 -109 -216.5t-293 -74.5q-135 0 -340 39zM281 979q30 44 76 111.5t69.5 101.5t51.5 69t48 52q43 37 90 37.5t78 -37.5 q30 -38 19.5 -83t-54.5 -81q-21 -17 -60 -37t-77 -36t-111.5 -47t-125.5 -54z" />
<glyph unicode="&#x15c;" horiz-adv-x="1210" d="M104 418l11 2q40 -102 82 -175.5t97.5 -133.5t126.5 -90.5t159 -30.5q128 0 197 61.5t69 155.5q0 55 -25 99.5t-67 75t-97 57t-115 51t-120.5 50t-115.5 60.5t-97 77.5t-67 105t-25 139.5q0 179 128 273.5t365 94.5q55 0 119.5 -5.5t106.5 -10.5t96 -3.5t104 13.5 l21 -420l-8 -2q-33 79 -59.5 134t-65.5 112t-80 91.5t-97 56.5t-122 22q-115 0 -175.5 -57.5t-60.5 -141.5q0 -52 25 -94t67.5 -72t97.5 -56t116 -50.5t121.5 -51t115.5 -62t97.5 -79t67.5 -106t25 -139.5q0 -190 -145 -292t-391 -102q-209 0 -463 54zM301 1360l231 321 q39 52 89 52q49 0 88 -52l231 -321l-4 -4l-315 170l-316 -170z" />
<glyph unicode="&#x15d;" horiz-adv-x="909" d="M88 289l8 2q65 -135 101 -184q83 -113 214 -117h11q50 0 86 13.5t52.5 35.5t23 42t6.5 42q0 40 -21.5 71.5t-57 50.5t-80.5 38t-92 34.5t-92 40t-80.5 54t-57 77.5t-21.5 109q0 134 98 205t273 71q46 0 115.5 -6.5t102 -7.5t101.5 10l10 -295l-8 -2q-29 65 -55.5 110.5 t-63 89.5t-83 66.5t-101.5 22.5q-77 0 -111 -38.5t-34 -88.5q0 -43 28 -74.5t72.5 -52t98.5 -39t108 -42t98.5 -54.5t72.5 -83.5t28 -121.5q0 -142 -109 -216.5t-293 -74.5q-135 0 -340 39zM135 950l232 322q38 51 88 51t88 -51l231 -322l-4 -4l-315 170l-316 -170z" />
<glyph unicode="&#x15e;" horiz-adv-x="1210" d="M104 418l11 2q40 -102 82 -175.5t97.5 -133.5t126.5 -90.5t159 -30.5q128 0 197 61.5t69 155.5q0 55 -25 99.5t-67 75t-97 57t-115 51t-120.5 50t-115.5 60.5t-97 77.5t-67 105t-25 139.5q0 179 128 273.5t365 94.5q55 0 119.5 -5.5t106.5 -10.5t96 -3.5t104 13.5 l21 -420l-8 -2q-33 79 -59.5 134t-65.5 112t-80 91.5t-97 56.5t-122 22q-115 0 -175.5 -57.5t-60.5 -141.5q0 -52 25 -94t67.5 -72t97.5 -56t116 -50.5t121.5 -51t115.5 -62t97.5 -79t67.5 -106t25 -139.5q0 -192 -145.5 -293t-403.5 -101l-110 -102q56 16 133 16 q128 0 202 -47t74 -131q0 -51 -27.5 -88.5t-73.5 -58.5t-98.5 -31t-111.5 -10q-159 0 -262 67l8 11q28 -19 74 -32t88 -13q82 0 126 46.5t44 116.5q0 65 -36.5 105.5t-100.5 40.5q-39 0 -78 -17l-6 7l131 120q-201 6 -426 54z" />
<glyph unicode="&#x15f;" horiz-adv-x="909" d="M88 289l8 2q65 -135 101 -184q83 -113 214 -117h11q50 0 86 13.5t52.5 35.5t23 42t6.5 42q0 40 -21.5 71.5t-57 50.5t-80.5 38t-92 34.5t-92 40t-80.5 54t-57 77.5t-21.5 109q0 134 98 205t273 71q46 0 115.5 -6.5t102 -7.5t101.5 10l10 -295l-8 -2q-29 65 -55.5 110.5 t-63 89.5t-83 66.5t-101.5 22.5q-77 0 -111 -38.5t-34 -88.5q0 -43 28 -74.5t72.5 -52t98.5 -39t108 -42t98.5 -54.5t72.5 -83.5t28 -121.5q0 -145 -113.5 -220.5t-316.5 -70.5l-113 -104q56 16 133 16q129 0 203 -47t74 -131q0 -51 -27.5 -88.5t-74 -58.5t-99 -31 t-111.5 -10q-159 0 -262 67l8 11q28 -19 74 -32t88 -13q82 0 126 46.5t44 116.5q0 65 -36.5 105.5t-100.5 40.5q-39 0 -78 -17l-6 7l135 125q-129 5 -289 36z" />
<glyph unicode="&#x160;" horiz-adv-x="1210" d="M104 418l11 2q40 -102 82 -175.5t97.5 -133.5t126.5 -90.5t159 -30.5q128 0 197 61.5t69 155.5q0 55 -25 99.5t-67 75t-97 57t-115 51t-120.5 50t-115.5 60.5t-97 77.5t-67 105t-25 139.5q0 179 128 273.5t365 94.5q55 0 119.5 -5.5t106.5 -10.5t96 -3.5t104 13.5 l21 -420l-8 -2q-33 79 -59.5 134t-65.5 112t-80 91.5t-97 56.5t-122 22q-115 0 -175.5 -57.5t-60.5 -141.5q0 -52 25 -94t67.5 -72t97.5 -56t116 -50.5t121.5 -51t115.5 -62t97.5 -79t67.5 -106t25 -139.5q0 -190 -145 -292t-391 -102q-209 0 -463 54zM297 1755l4 4 l315 -170l316 170l4 -4l-231 -321q-39 -52 -89 -52q-49 0 -88 52z" />
<glyph unicode="&#x161;" horiz-adv-x="909" d="M88 289l8 2q65 -135 101 -184q83 -113 214 -117h11q50 0 86 13.5t52.5 35.5t23 42t6.5 42q0 40 -21.5 71.5t-57 50.5t-80.5 38t-92 34.5t-92 40t-80.5 54t-57 77.5t-21.5 109q0 134 98 205t273 71q46 0 115.5 -6.5t102 -7.5t101.5 10l10 -295l-8 -2q-29 65 -55.5 110.5 t-63 89.5t-83 66.5t-101.5 22.5q-77 0 -111 -38.5t-34 -88.5q0 -43 28 -74.5t72.5 -52t98.5 -39t108 -42t98.5 -54.5t72.5 -83.5t28 -121.5q0 -142 -109 -216.5t-293 -74.5q-135 0 -340 39zM131 1325l4 4l316 -170l315 170l4 -4l-231 -321q-39 -52 -88 -52q-50 0 -89 52z " />
<glyph unicode="&#x162;" horiz-adv-x="1398" d="M53 803l33 463h1227l33 -463l-9 -2q-24 77 -50 138t-64.5 121.5t-83.5 100.5t-107.5 65t-136.5 25h-18v-1009q0 -71 13.5 -117.5t41.5 -70.5t62.5 -33t86.5 -9v-12h-764v12q52 0 86.5 9t63 33t42 70.5t13.5 117.5v1009h-18q-74 0 -136.5 -25t-108 -65t-84 -100.5 t-64.5 -121.5t-50 -138zM389 -389l8 10q28 -19 74 -32t88 -13q82 0 126 47t44 117q0 65 -36.5 105t-100.5 40q-41 0 -78 -16l-6 6l156 143l16 -6l-127 -118q56 16 133 16q129 0 203 -47t74 -131q0 -51 -27.5 -89t-74 -59t-99.5 -31t-111 -10q-158 0 -262 68z" />
<glyph unicode="&#x163;" horiz-adv-x="747" d="M27 823v29h125v221l325 64v-285h250v-29h-250v-616q0 -76 25 -110t76 -34q55 0 100.5 33t91.5 86l10 -8q-178 -215 -379 -194l-112 -107q56 16 133 16q128 0 202 -47t74 -131q0 -51 -27.5 -88.5t-73.5 -58.5t-98.5 -31t-111.5 -10q-159 0 -262 67l8 11q28 -19 74 -32 t88 -13q82 0 126 46.5t44 116.5q0 65 -36.5 105.5t-100.5 40.5q-39 0 -78 -17l-6 7l135 127q-105 11 -166 81.5t-61 198.5v561h-125z" />
<glyph unicode="&#x164;" horiz-adv-x="1398" d="M53 803l33 463h1227l33 -463l-9 -2q-24 77 -50 138t-64.5 121.5t-83.5 100.5t-107.5 65t-136.5 25h-18v-1009q0 -71 13.5 -117.5t41.5 -70.5t62.5 -33t86.5 -9v-12h-764v12q52 0 86.5 9t63 33t42 70.5t13.5 117.5v1009h-18q-74 0 -136.5 -25t-108 -65t-84 -100.5 t-64.5 -121.5t-50 -138zM379 1735l4 4l315 -170l316 170l4 -4l-232 -322q-38 -51 -88 -51t-88 51z" />
<glyph unicode="&#x165;" horiz-adv-x="747" d="M27 823v29h125v221l325 64v-285h250v-29h-250v-616q0 -76 25 -110t76 -34q55 0 100.5 33t91.5 86l10 -8q-33 -39 -64 -68.5t-76 -61.5t-100.5 -49.5t-117.5 -17.5q-124 0 -197 72.5t-73 212.5v561h-125zM608 958q2 32 5.5 107t5.5 117.5t8 91t14 69.5q16 46 57 72t84 8 q42 -15 58 -57t-2 -92q-11 -31 -40 -72.5t-90.5 -121.5t-93.5 -124z" />
<glyph unicode="&#x166;" horiz-adv-x="1398" d="M53 803l33 463h1227l33 -463l-9 -2q-24 77 -50 138t-64.5 121.5t-83.5 100.5t-107.5 65t-136.5 25h-18v-1009q0 -71 13.5 -117.5t41.5 -70.5t62.5 -33t86.5 -9v-12h-764v12q52 0 86.5 9t63 33t42 70.5t13.5 117.5v1009h-18q-74 0 -136.5 -25t-108 -65t-84 -100.5 t-64.5 -121.5t-50 -138zM276 612v19h846v-19h-846z" />
<glyph unicode="&#x167;" horiz-adv-x="747" d="M27 823v29h125v221l325 64v-285h250v-29h-250v-616q0 -76 25 -110t76 -34q55 0 100.5 33t91.5 86l10 -8q-33 -39 -64 -68.5t-76 -61.5t-100.5 -49.5t-117.5 -17.5q-124 0 -197 72.5t-73 212.5v561h-125zM37 506v18h665v-18h-665z" />
<glyph unicode="&#x168;" horiz-adv-x="1452" d="M31 1253v13h682v-13q-93 0 -128.5 -55.5t-35.5 -185.5v-664q0 -336 293 -336q76 0 140 23.5t114.5 71t79 127.5t28.5 186v379q0 88 -4 149t-14.5 115.5t-28.5 87.5t-48 57.5t-71.5 34.5t-99.5 10v13h553v-13q-58 0 -99.5 -10t-71.5 -34.5t-48 -57.5t-28.5 -87.5 t-14.5 -115.5t-4 -149v-379q0 -222 -121.5 -333.5t-360.5 -111.5q-119 0 -216.5 27.5t-173 82t-117 145t-41.5 208.5v574q0 130 -35.5 185.5t-128.5 55.5zM477 1399q13 128 27 179q43 141 153 142q52 0 158 -48t162 -48q34 0 57.5 11t35 31.5t16.5 37t8 39.5l10 -2 q-3 -35 -6 -60.5t-9.5 -61.5t-15 -61.5t-22 -53.5t-31 -45t-42.5 -28.5t-56 -11.5q-51 0 -155.5 48.5t-162.5 48.5q-34 0 -57.5 -11t-35 -31.5t-16.5 -37t-8 -39.5z" />
<glyph unicode="&#x169;" horiz-adv-x="1204" d="M20 819v12l449 41v-651q0 -72 29.5 -106.5t79.5 -34.5q75 0 153 74v487q0 57 -7 93t-30.5 60.5t-64.5 24.5v12l428 41v-682q0 -44 4 -72t16 -54.5t37.5 -39t65.5 -12.5v-12h-439v145q-161 -168 -340 -168q-113 0 -185.5 69.5t-72.5 211.5v383q0 44 -4 72t-16 54.5 t-37.5 39t-65.5 12.5zM272 989q13 130 29 183q43 138 152 139q52 0 157.5 -48.5t161.5 -48.5q34 0 57.5 11t35 31.5t16.5 37t8 39.5l10 -2q-4 -42 -8 -71.5t-12 -71t-20.5 -69.5t-31 -55t-47 -40.5t-63.5 -13.5q-51 0 -155.5 48t-162.5 48q-27 0 -48 -8.5t-32.5 -19.5 t-19.5 -29t-11 -31t-5 -31z" />
<glyph unicode="&#x16a;" horiz-adv-x="1452" d="M31 1253v13h682v-13q-93 0 -128.5 -55.5t-35.5 -185.5v-664q0 -336 293 -336q76 0 140 23.5t114.5 71t79 127.5t28.5 186v379q0 88 -4 149t-14.5 115.5t-28.5 87.5t-48 57.5t-71.5 34.5t-99.5 10v13h553v-13q-58 0 -99.5 -10t-71.5 -34.5t-48 -57.5t-28.5 -87.5 t-14.5 -115.5t-4 -149v-379q0 -222 -121.5 -333.5t-360.5 -111.5q-119 0 -216.5 27.5t-173 82t-117 145t-41.5 208.5v574q0 130 -35.5 185.5t-128.5 55.5zM475 1434v82h615v-82h-615z" />
<glyph unicode="&#x16b;" horiz-adv-x="1204" d="M20 819v12l449 41v-651q0 -72 29.5 -106.5t79.5 -34.5q75 0 153 74v487q0 57 -7 93t-30.5 60.5t-64.5 24.5v12l428 41v-682q0 -44 4 -72t16 -54.5t37.5 -39t65.5 -12.5v-12h-439v145q-161 -168 -340 -168q-113 0 -185.5 69.5t-72.5 211.5v383q0 44 -4 72t-16 54.5 t-37.5 39t-65.5 12.5zM262 1024v82h615v-82h-615z" />
<glyph unicode="&#x16c;" horiz-adv-x="1452" d="M31 1253v13h682v-13q-93 0 -128.5 -55.5t-35.5 -185.5v-664q0 -336 293 -336q76 0 140 23.5t114.5 71t79 127.5t28.5 186v379q0 88 -4 149t-14.5 115.5t-28.5 87.5t-48 57.5t-71.5 34.5t-99.5 10v13h553v-13q-58 0 -99.5 -10t-71.5 -34.5t-48 -57.5t-28.5 -87.5 t-14.5 -115.5t-4 -149v-379q0 -222 -121.5 -333.5t-360.5 -111.5q-119 0 -216.5 27.5t-173 82t-117 145t-41.5 208.5v574q0 130 -35.5 185.5t-128.5 55.5zM516 1757h6q16 -70 79 -117t183 -47q121 0 184 47t79 117h6q0 -58 -13.5 -118t-42.5 -119.5t-84.5 -97.5t-128.5 -38 q-59 0 -107 25.5t-77 65.5t-49 91t-27.5 98.5t-7.5 92.5z" />
<glyph unicode="&#x16d;" horiz-adv-x="1204" d="M20 819v12l449 41v-651q0 -72 29.5 -106.5t79.5 -34.5q75 0 153 74v487q0 57 -7 93t-30.5 60.5t-64.5 24.5v12l428 41v-682q0 -44 4 -72t16 -54.5t37.5 -39t65.5 -12.5v-12h-439v145q-161 -168 -340 -168q-113 0 -185.5 69.5t-72.5 211.5v383q0 44 -4 72t-16 54.5 t-37.5 39t-65.5 12.5zM303 1348h6q16 -70 79 -117t183 -47q121 0 184 47t79 117h6q0 -58 -13.5 -118t-42.5 -119.5t-84.5 -97.5t-128.5 -38q-59 0 -107 25.5t-77 65.5t-49 91t-27.5 98.5t-7.5 92.5z" />
<glyph unicode="&#x16e;" horiz-adv-x="1452" d="M31 1253v13h682v-13q-93 0 -128.5 -55.5t-35.5 -185.5v-664q0 -336 293 -336q76 0 140 23.5t114.5 71t79 127.5t28.5 186v379q0 88 -4 149t-14.5 115.5t-28.5 87.5t-48 57.5t-71.5 34.5t-99.5 10v13h553v-13q-58 0 -99.5 -10t-71.5 -34.5t-48 -57.5t-28.5 -87.5 t-14.5 -115.5t-4 -149v-379q0 -222 -121.5 -333.5t-360.5 -111.5q-119 0 -216.5 27.5t-173 82t-117 145t-41.5 208.5v574q0 130 -35.5 185.5t-128.5 55.5zM512 1575q0 97 74 157t196 60t196.5 -60t74.5 -157q0 -96 -74.5 -155.5t-196.5 -59.5t-196 59.5t-74 155.5zM713 1575 q0 -209 69 -209q68 0 68 209t-68 209q-69 0 -69 -209z" />
<glyph unicode="&#x16f;" horiz-adv-x="1204" d="M20 819v12l449 41v-651q0 -72 29.5 -106.5t79.5 -34.5q75 0 153 74v487q0 57 -7 93t-30.5 60.5t-64.5 24.5v12l428 41v-682q0 -44 4 -72t16 -54.5t37.5 -39t65.5 -12.5v-12h-439v145q-161 -168 -340 -168q-113 0 -185.5 69.5t-72.5 211.5v383q0 44 -4 72t-16 54.5 t-37.5 39t-65.5 12.5zM309 1165q0 97 74.5 157t196.5 60t196 -60t74 -157q0 -96 -74 -155.5t-196 -59.5t-196.5 59.5t-74.5 155.5zM510 1165q0 -209 70 -209q67 0 67 209t-67 209q-70 0 -70 -209z" />
<glyph unicode="&#x170;" horiz-adv-x="1452" d="M31 1253v13h682v-13q-93 0 -128.5 -55.5t-35.5 -185.5v-664q0 -336 293 -336q76 0 140 23.5t114.5 71t79 127.5t28.5 186v379q0 88 -4 149t-14.5 115.5t-28.5 87.5t-48 57.5t-71.5 34.5t-99.5 10v13h553v-13q-58 0 -99.5 -10t-71.5 -34.5t-48 -57.5t-28.5 -87.5 t-14.5 -115.5t-4 -149v-379q0 -222 -121.5 -333.5t-360.5 -111.5q-119 0 -216.5 27.5t-173 82t-117 145t-41.5 208.5v574q0 130 -35.5 185.5t-128.5 55.5zM496 1382q9 24 25 68.5t24 67t21 57.5t21.5 55t19 43t19 38t17.5 26q29 40 68 49t73 -14q36 -25 41.5 -64t-26.5 -86 q-12 -16 -31 -34.5t-51.5 -44t-58 -45t-76.5 -57.5t-82 -61zM854 1382q9 24 25 68.5t24 67t21 57.5t21.5 55t19 43t19 38t17.5 26q29 39 68.5 49t73.5 -14q35 -24 40.5 -63.5t-26.5 -86.5q-12 -16 -31 -34.5t-51.5 -44t-58 -45t-76.5 -57.5t-82 -61z" />
<glyph unicode="&#x171;" horiz-adv-x="1204" d="M20 819v12l449 41v-651q0 -72 29.5 -106.5t79.5 -34.5q75 0 153 74v487q0 57 -7 93t-30.5 60.5t-64.5 24.5v12l428 41v-682q0 -44 4 -72t16 -54.5t37.5 -39t65.5 -12.5v-12h-439v145q-161 -168 -340 -168q-113 0 -185.5 69.5t-72.5 211.5v383q0 44 -4 72t-16 54.5 t-37.5 39t-65.5 12.5zM297 973q8 23 24.5 69t24.5 67t21 56.5t21.5 54.5t19 42.5t19 38.5t17.5 26q29 39 68.5 49t73.5 -14q35 -24 40.5 -63.5t-26.5 -86.5q-12 -16 -31.5 -34.5t-51 -43.5t-58 -45t-76.5 -56.5t-82 -61.5zM655 973q7 18 20 54t19 53t17 47.5t17.5 46.5 t16 39.5t16 37t14 30t14.5 27.5t14 19q29 40 68 49t73 -14q35 -24 40.5 -63.5t-26.5 -86.5q-12 -16 -31.5 -34.5t-51 -43.5t-58 -45t-76.5 -56.5t-82 -61.5z" />
<glyph unicode="&#x172;" horiz-adv-x="1452" d="M31 1253v13h682v-13q-93 0 -128.5 -55.5t-35.5 -185.5v-664q0 -336 293 -336q76 0 140 23.5t114.5 71t79 127.5t28.5 186v379q0 88 -4 149t-14.5 115.5t-28.5 87.5t-48 57.5t-71.5 34.5t-99.5 10v13h553v-13q-58 0 -99.5 -10t-71.5 -34.5t-48 -57.5t-28.5 -87.5 t-14.5 -115.5t-4 -149v-379q0 -160 -61.5 -256.5t-176.5 -151.5q-25 -12 -39.5 -19t-40 -22t-40.5 -28t-34 -33.5t-29.5 -42.5t-18 -51.5t-7.5 -63.5q0 -86 44 -130t122 -44q48 0 107 19l4 -11q-57 -23 -137 -38t-148 -15q-118 0 -179 47t-61 125q0 45 22.5 84.5t54 66 t82.5 52t90 40.5t94 34l18 6q-73 -13 -148 -13q-119 0 -216.5 27.5t-173 82t-117 145t-41.5 208.5v574q0 130 -35.5 185.5t-128.5 55.5z" />
<glyph unicode="&#x173;" horiz-adv-x="1204" d="M20 819v12l449 41v-651q0 -72 29.5 -106.5t79.5 -34.5q75 0 153 74v487q0 57 -7 93t-30.5 60.5t-64.5 24.5v12l428 41v-682q0 -44 4 -72t16 -54.5t37.5 -39t65.5 -12.5v-12h-439v145q-161 -168 -340 -168q-113 0 -185.5 69.5t-72.5 211.5v383q0 44 -4 72t-16 54.5 t-37.5 39t-65.5 12.5zM641 -295q0 48 25 89t62.5 68.5t90.5 53t98.5 41.5t98.5 34.5t80 31.5l4 -9q-3 -1 -28.5 -15t-32 -18t-30 -18.5t-32 -23.5t-26.5 -25.5t-26 -32.5t-18 -36.5t-14 -44t-4 -50.5q0 -85 44 -128.5t122 -43.5q47 0 106 19l4 -11q-58 -23 -137 -38 t-147 -15q-118 0 -179 47t-61 125z" />
<glyph unicode="&#x174;" horiz-adv-x="2048" d="M-45 1253v13h709v-13q-40 0 -66.5 -13.5t-37 -35t-11.5 -51.5t6 -60t20 -63l242 -604l201 504l-23 59q-106 264 -256 264v13h744v-13q-56 0 -89.5 -24.5t-43 -64.5t-4.5 -84.5t22 -90.5l209 -551l127 334q63 167 63 283q0 95 -45 146.5t-137 51.5v13h547v-13 q-93 0 -159.5 -49t-117.5 -139q-18 -31 -37.5 -73t-31 -69t-34 -84.5t-30.5 -76.5l-303 -774h-14l-375 913l-368 -913h-15l-430 1001q-49 111 -81 156q-77 108 -181 108zM766 1360l231 321q39 52 88 52q50 0 89 -52l231 -321l-4 -4l-316 170l-315 -170z" />
<glyph unicode="&#x175;" horiz-adv-x="1576" d="M-16 840v12h579v-12q-49 0 -68.5 -22t-13.5 -59.5t33 -92.5l160 -330l119 266l-27 60q-16 34 -21 44t-20.5 39t-24.5 39.5t-24.5 27t-31 22.5t-32.5 6v12h568v-12q-74 0 -90.5 -48t18.5 -126l123 -308l57 138q72 173 72 243q0 101 -109 101v12h371v-12q-124 0 -203 -115 q-12 -17 -24 -38t-20 -36t-21 -44t-17 -38t-18 -44.5t-16 -39.5l-211 -493h-9l-278 588l-273 -588h-8l-354 670q-19 36 -36.5 62.5t-41.5 55.5t-51.5 44.5t-56.5 15.5zM543 950l231 322q38 51 88 51t88 -51l232 -322l-4 -4l-316 170l-315 -170z" />
<glyph unicode="&#x176;" horiz-adv-x="1404" d="M-45 1253v13h752v-13q-92 0 -114 -62.5t32 -148.5l260 -428h2l143 248q88 151 88 250q0 141 -178 141v13h530v-13q-79 0 -140 -35.5t-118 -107.5q-55 -71 -165 -258l-146 -246v-364q0 -71 13.5 -117.5t42 -70.5t63 -33t86.5 -9v-12h-764v12q52 0 86.5 9t63 33t42 70.5 t13.5 117.5v260l-348 555q-123 196 -244 196zM440 1360l232 321q39 52 88 52t88 -52l231 -321l-4 -4l-315 170l-316 -170z" />
<glyph unicode="&#x177;" horiz-adv-x="1036" d="M-14 840v12h608v-12q-74 0 -91.5 -47t21.5 -127l156 -322l68 152q65 149 65 227q0 117 -119 117v12h391v-12q-124 0 -213 -138q-14 -21 -30 -50t-26 -50.5t-28 -60t-26 -56.5l-234 -505q-21 -46 -39 -80.5t-54 -86.5t-72.5 -85.5t-90.5 -58.5t-112 -25q-65 0 -94 26.5 t-29 67.5q0 49 38.5 71t98 26.5t122 8.5t119.5 28.5t81 74.5l24 53l-348 662q-19 36 -36.5 62.5t-41.5 55.5t-51.5 44.5t-56.5 15.5zM244 950l231 322q38 51 88 51t88 -51l232 -322l-4 -4l-316 170l-315 -170z" />
<glyph unicode="&#x178;" horiz-adv-x="1404" d="M-45 1253v13h752v-13q-92 0 -114 -62.5t32 -148.5l260 -428h2l143 248q88 151 88 250q0 141 -178 141v13h530v-13q-79 0 -140 -35.5t-118 -107.5q-55 -71 -165 -258l-146 -246v-364q0 -71 13.5 -117.5t42 -70.5t63 -33t86.5 -9v-12h-764v12q52 0 86.5 9t63 33t42 70.5 t13.5 117.5v260l-348 555q-123 196 -244 196zM420 1563q0 59 41 101t102 42q60 0 103 -42t43 -103q0 -60 -42.5 -103t-101.5 -43t-102 43.5t-43 104.5zM813 1563q0 59 41 101t102 42q60 0 103 -42t43 -103q0 -60 -42.5 -103t-101.5 -43t-102 43.5t-43 104.5z" />
<glyph unicode="&#x179;" d="M53 4l772 1247h-227q-75 0 -144.5 -26.5t-123.5 -70.5t-99.5 -103t-76 -121.5t-50.5 -128.5l-10 2l39 463h1102l4 -4l-778 -1248h270q93 0 177 40t145 106.5t104 143.5t68 161l10 -2l-39 -463h-1141zM557 1389q28 41 76 111t70.5 102t51 67.5t48.5 52.5q43 37 90 37.5 t78 -37.5q30 -38 19.5 -82.5t-54.5 -80.5q-21 -17 -60 -37t-77 -36t-112 -47.5t-126 -54.5z" />
<glyph unicode="&#x17a;" horiz-adv-x="993" d="M59 6l508 832h-92q-67 0 -129.5 -31t-111 -84t-85.5 -114t-63 -130l-10 2l37 371h802l5 -6l-504 -832h108q233 0 391 357l11 -2l-39 -369h-824zM365 979q30 44 76 111.5t69.5 101.5t51.5 69t48 52q43 37 90 37.5t78 -37.5q30 -38 19.5 -83t-54.5 -81q-21 -17 -60 -37 t-77 -36t-111.5 -47t-125.5 -54z" />
<glyph unicode="&#x17b;" d="M53 4l772 1247h-227q-75 0 -144.5 -26.5t-123.5 -70.5t-99.5 -103t-76 -121.5t-50.5 -128.5l-10 2l39 463h1102l4 -4l-778 -1248h270q93 0 177 40t145 106.5t104 143.5t68 161l10 -2l-39 -463h-1141zM551 1565q0 61 43.5 105t105.5 44t106 -44t44 -105t-44 -105.5 t-106 -44.5q-61 0 -105 44t-44 106z" />
<glyph unicode="&#x17c;" horiz-adv-x="993" d="M59 6l508 832h-92q-67 0 -129.5 -31t-111 -84t-85.5 -114t-63 -130l-10 2l37 371h802l5 -6l-504 -832h108q233 0 391 357l11 -2l-39 -369h-824zM379 1155q0 62 44 106t105 44q62 0 106 -44.5t44 -105.5t-44 -105t-106 -44t-105.5 44t-43.5 105z" />
<glyph unicode="&#x17d;" d="M53 4l772 1247h-227q-75 0 -144.5 -26.5t-123.5 -70.5t-99.5 -103t-76 -121.5t-50.5 -128.5l-10 2l39 463h1102l4 -4l-778 -1248h270q93 0 177 40t145 106.5t104 143.5t68 161l10 -2l-39 -463h-1141zM360 1735l5 4l315 -170l315 170l4 -4l-231 -322q-38 -51 -88 -51 t-88 51z" />
<glyph unicode="&#x17e;" horiz-adv-x="993" d="M59 6l508 832h-92q-67 0 -129.5 -31t-111 -84t-85.5 -114t-63 -130l-10 2l37 371h802l5 -6l-504 -832h108q233 0 391 357l11 -2l-39 -369h-824zM201 1325l4 4l315 -170l316 170l4 -4l-232 -321q-39 -52 -88 -52t-88 52z" />
<glyph unicode="&#x1fc;" horiz-adv-x="2101" d="M-94 0v12q227 0 530 422l537 744q-15 42 -49.5 58.5t-98.5 16.5v13h1131l31 -432l-9 -3q-43 190 -164.5 305t-322.5 115h-148v-612h64q77 0 140.5 26t106 71.5t70 98.5t43.5 115h9v-633h-9q-16 61 -43.5 113.5t-70 97.5t-106 71t-140.5 26h-64v-611h158q363 0 496 451 l8 -2l-39 -463h-1141v12q96 0 130 42t34 167v236h-512l-22 -33q-97 -134 -117.5 -227.5t30 -139t164.5 -45.5v-12h-626zM492 477h497v567q0 77 -10 113zM1229 1389q28 41 76 111t70.5 102t51 67.5t48.5 52.5q43 37 89.5 37.5t77.5 -37.5q30 -37 20 -82t-54 -81 q-21 -17 -60 -37t-77 -36t-112 -47.5t-126 -54.5z" />
<glyph unicode="&#x1fd;" horiz-adv-x="1617" d="M66 219q0 63 27.5 110.5t77.5 75t113.5 41t141.5 13.5q117 0 223 -27v215q0 102 -33 159.5t-124 57.5q-108 0 -175 -90q41 -20 66 -60t25 -85q0 -63 -45 -106.5t-111 -43.5q-68 0 -108 47t-40 107q0 103 113.5 172t292.5 69q196 0 317 -83q119 83 289 83 q196 0 314 -110.5t126 -298.5h-593q2 -204 78 -320t214 -116q156 0 287 159l10 -8q-33 -40 -66.5 -70.5t-85.5 -63.5t-122.5 -51t-155.5 -18q-254 0 -381 160q-140 -160 -364 -160q-145 0 -228 64t-83 178zM399 248q0 -89 39 -146t111 -57q103 0 182 105q-82 113 -82 266 q-62 16 -98 16q-76 0 -114 -50t-38 -134zM647 979q29 42 76 111t70 102t51.5 68.5t48.5 52.5q43 37 90 37.5t78 -37.5q30 -38 19.5 -83t-54.5 -81q-21 -17 -60 -37t-77.5 -36t-111.5 -47t-126 -54zM963 481h276q0 383 -129 383q-40 0 -70 -37.5t-46 -97.5t-23.5 -122.5 t-7.5 -125.5z" />
<glyph unicode="&#x1fe;" horiz-adv-x="1601" d="M76 633q0 192 94.5 342.5t259.5 232.5t371 82q250 0 438 -123l119 142l16 -15l-117 -139q127 -88 198 -223t71 -299q0 -144 -55.5 -267.5t-151.5 -208.5t-230 -133.5t-288 -48.5q-250 0 -436 119l-119 -139l-17 14l117 137q-128 89 -199 225t-71 302zM457 633 q0 -205 37 -350l608 721q-80 272 -301 272q-81 0 -142.5 -37t-99 -97t-61.5 -146.5t-32.5 -173.5t-8.5 -189zM500 256q80 -266 301 -266q344 0 344 643q0 203 -37 346zM612 1409q29 42 76 111t70 102t51.5 68.5t48.5 52.5q43 37 90 37.5t78 -37.5q30 -38 19.5 -83t-54.5 -81 q-21 -17 -60 -37t-77.5 -36t-111.5 -47t-126 -54z" />
<glyph unicode="&#x1ff;" horiz-adv-x="1159" d="M63 426q0 200 146.5 324t370.5 124q196 0 333 -98l97 96l12 -12l-94 -94q80 -60 124 -147.5t44 -192.5q0 -200 -146 -324.5t-370 -124.5q-200 0 -338 99l-95 -94l-12 12l92 92q-164 129 -164 340zM408 426q0 -109 4 -154l331 332q-14 128 -52.5 192t-110.5 64 q-93 0 -132.5 -107.5t-39.5 -326.5zM414 250q14 -129 54 -193.5t112 -64.5q93 0 132.5 107.5t39.5 326.5q0 76 -7 158zM416 979q29 42 76 111t70 102t51.5 68.5t48.5 52.5q43 37 89.5 37.5t77.5 -37.5q30 -37 20 -82.5t-54 -81.5q-21 -17 -60 -37t-77.5 -36t-111.5 -47 t-126 -54z" />
<glyph unicode="&#x218;" horiz-adv-x="1210" d="M104 418l11 2q40 -102 82 -175.5t97.5 -133.5t126.5 -90.5t159 -30.5q128 0 197 61.5t69 155.5q0 55 -25 99.5t-67 75t-97 57t-115 51t-120.5 50t-115.5 60.5t-97 77.5t-67 105t-25 139.5q0 179 128 273.5t365 94.5q55 0 119.5 -5.5t106.5 -10.5t96 -3.5t104 13.5 l21 -420l-8 -2q-33 79 -59.5 134t-65.5 112t-80 91.5t-97 56.5t-122 22q-115 0 -175.5 -57.5t-60.5 -141.5q0 -52 25 -94t67.5 -72t97.5 -56t116 -50.5t121.5 -51t115.5 -62t97.5 -79t67.5 -106t25 -139.5q0 -190 -145 -292t-391 -102q-209 0 -463 54zM446 -289 q0 59 44.5 101.5t109.5 42.5q70 0 112 -49t42 -125q0 -107 -81.5 -209t-221.5 -150l-5 8q85 32 152.5 106t75.5 165q-40 -29 -86 -29q-58 0 -100 41t-42 98z" />
<glyph unicode="&#x219;" horiz-adv-x="909" d="M88 289l8 2q65 -135 101 -184q83 -113 214 -117h11q50 0 86 13.5t52.5 35.5t23 42t6.5 42q0 40 -21.5 71.5t-57 50.5t-80.5 38t-92 34.5t-92 40t-80.5 54t-57 77.5t-21.5 109q0 134 98 205t273 71q46 0 115.5 -6.5t102 -7.5t101.5 10l10 -295l-8 -2q-29 65 -55.5 110.5 t-63 89.5t-83 66.5t-101.5 22.5q-77 0 -111 -38.5t-34 -88.5q0 -43 28 -74.5t72.5 -52t98.5 -39t108 -42t98.5 -54.5t72.5 -83.5t28 -121.5q0 -142 -109 -216.5t-293 -74.5q-135 0 -340 39zM315 -289q0 59 44.5 101.5t109.5 42.5q70 0 112 -49t42 -125q0 -107 -82 -209 t-222 -150l-4 8q85 32 152.5 106t75.5 165q-40 -29 -86 -29q-58 0 -100 41t-42 98z" />
<glyph unicode="&#x21a;" horiz-adv-x="1398" d="M53 803l33 463h1227l33 -463l-9 -2q-24 77 -50 138t-64.5 121.5t-83.5 100.5t-107.5 65t-136.5 25h-18v-1009q0 -71 13.5 -117.5t41.5 -70.5t62.5 -33t86.5 -9v-12h-764v12q52 0 86.5 9t63 33t42 70.5t13.5 117.5v1009h-18q-74 0 -136.5 -25t-108 -65t-84 -100.5 t-64.5 -121.5t-50 -138zM565 -289q0 59 44.5 101.5t109.5 42.5q69 0 111 -49t42 -125q0 -107 -81.5 -209t-221.5 -150l-4 8q85 32 152.5 106t75.5 165q-40 -29 -86 -29q-58 0 -100 41t-42 98z" />
<glyph unicode="&#x21b;" horiz-adv-x="747" d="M27 823v29h125v221l325 64v-285h250v-29h-250v-616q0 -76 25 -110t76 -34q55 0 100.5 33t91.5 86l10 -8q-33 -39 -64 -68.5t-76 -61.5t-100.5 -49.5t-117.5 -17.5q-124 0 -197 72.5t-73 212.5v561h-125zM276 -289q0 59 44.5 101.5t109.5 42.5q70 0 112 -49t42 -125 q0 -107 -81.5 -209t-221.5 -150l-5 8q85 32 152.5 106t75.5 165q-40 -29 -86 -29q-58 0 -100 41t-42 98z" />
<glyph unicode="&#x2c6;" horiz-adv-x="952" d="M162 950l231 322q38 51 88 51t88 -51l232 -322l-4 -4l-316 170l-315 -170z" />
<glyph unicode="&#x2c7;" horiz-adv-x="952" d="M162 1325l4 4l315 -170l316 170l4 -4l-232 -321q-39 -52 -88 -52t-88 52z" />
<glyph unicode="&#x2d8;" horiz-adv-x="772" d="M119 1348h6q16 -70 79 -117t183 -47q121 0 183.5 47t78.5 117h6q0 -45 -7.5 -92.5t-27.5 -98.5t-49 -91t-77 -65.5t-107 -25.5t-107 25.5t-77 65.5t-49 91t-27.5 98.5t-7.5 92.5z" />
<glyph unicode="&#x2d9;" horiz-adv-x="626" d="M174 1155q0 61 44 105.5t106 44.5q61 0 105 -44t44 -106q0 -61 -43.5 -105t-105.5 -44t-106 44t-44 105z" />
<glyph unicode="&#x2da;" horiz-adv-x="745" d="M102 1165q0 97 74.5 157t196.5 60t196 -60t74 -157q0 -96 -74 -155.5t-196 -59.5t-196.5 59.5t-74.5 155.5zM303 1165q0 -209 70 -209q67 0 67 209t-67 209q-70 0 -70 -209z" />
<glyph unicode="&#x2db;" horiz-adv-x="749" d="M135 -295q0 48 25 89t62.5 68.5t90.5 53t98.5 41.5t98.5 34.5t80 31.5l4 -9q-3 -1 -28.5 -15t-32 -18t-30 -18.5t-32 -23.5t-26.5 -25.5t-26 -32.5t-18 -36.5t-14 -44t-4 -50.5q0 -85 44 -128.5t122 -43.5q47 0 106 19l4 -11q-58 -23 -137 -38t-147 -15q-118 0 -179 47 t-61 125z" />
<glyph unicode="&#x2dc;" horiz-adv-x="868" d="M123 989q13 128 27 179q42 143 153 143q52 0 158 -48.5t162 -48.5q27 0 48 8.5t32.5 19.5t19.5 29t11 31t5 31l11 -2q-4 -42 -8 -71.5t-12 -71t-21 -69.5t-31.5 -55t-47 -40.5t-63.5 -13.5q-51 0 -155 48t-162 48q-34 0 -57.5 -11t-35 -31.5t-16.5 -37t-8 -39.5z" />
<glyph unicode="&#x2dd;" horiz-adv-x="1021" d="M168 973q8 23 24.5 69t24.5 67t21 56.5t21.5 54.5t19 42.5t19 38.5t17.5 26q29 39 68.5 49t73.5 -14q35 -24 40.5 -63.5t-26.5 -86.5q-12 -16 -31.5 -34.5t-51 -43.5t-58 -45t-76.5 -56.5t-82 -61.5zM526 973q7 18 20 54t19 53t17 47.5t17.5 46.5t16 39.5t16 37t14 30 t14.5 27.5t14 19q29 40 68 49t73 -14q35 -24 40.5 -63.5t-26.5 -86.5q-12 -16 -31.5 -34.5t-51 -43.5t-58 -45t-76.5 -56.5t-82 -61.5z" />
<glyph unicode="&#x1e80;" horiz-adv-x="2048" d="M-45 1253v13h709v-13q-40 0 -66.5 -13.5t-37 -35t-11.5 -51.5t6 -60t20 -63l242 -604l201 504l-23 59q-106 264 -256 264v13h744v-13q-56 0 -89.5 -24.5t-43 -64.5t-4.5 -84.5t22 -90.5l209 -551l127 334q63 167 63 283q0 95 -45 146.5t-137 51.5v13h547v-13 q-93 0 -159.5 -49t-117.5 -139q-18 -31 -37.5 -73t-31 -69t-34 -84.5t-30.5 -76.5l-303 -774h-14l-375 913l-368 -913h-15l-430 1001q-49 111 -81 156q-77 108 -181 108zM807.5 1639.5q-10.5 44.5 19.5 82.5q31 38 78 37.5t90 -37.5q26 -21 57 -62.5t92.5 -134t94.5 -139.5 l-4 -4q-45 20 -124.5 54t-113.5 49t-74 36t-61 38q-44 36 -54.5 80.5z" />
<glyph unicode="&#x1e81;" horiz-adv-x="1576" d="M-16 840v12h579v-12q-49 0 -68.5 -22t-13.5 -59.5t33 -92.5l160 -330l119 266l-27 60q-16 34 -21 44t-20.5 39t-24.5 39.5t-24.5 27t-31 22.5t-32.5 6v12h568v-12q-74 0 -90.5 -48t18.5 -126l123 -308l57 138q72 173 72 243q0 101 -109 101v12h371v-12q-124 0 -203 -115 q-12 -17 -24 -38t-20 -36t-21 -44t-17 -38t-18 -44.5t-16 -39.5l-211 -493h-9l-278 588l-273 -588h-8l-354 670q-19 36 -36.5 62.5t-41.5 55.5t-51.5 44.5t-56.5 15.5zM574.5 1230q-10.5 45 19.5 83q31 38 78 37.5t90 -37.5q26 -21 57 -62.5t92.5 -134t94.5 -139.5l-5 -4 q-47 21 -125 54t-112.5 48.5t-74 36t-60.5 37.5q-44 36 -54.5 81z" />
<glyph unicode="&#x1e82;" horiz-adv-x="2048" d="M-45 1253v13h709v-13q-40 0 -66.5 -13.5t-37 -35t-11.5 -51.5t6 -60t20 -63l242 -604l201 504l-23 59q-106 264 -256 264v13h744v-13q-56 0 -89.5 -24.5t-43 -64.5t-4.5 -84.5t22 -90.5l209 -551l127 334q63 167 63 283q0 95 -45 146.5t-137 51.5v13h547v-13 q-93 0 -159.5 -49t-117.5 -139q-18 -31 -37.5 -73t-31 -69t-34 -84.5t-30.5 -76.5l-303 -774h-14l-375 913l-368 -913h-15l-430 1001q-49 111 -81 156q-77 108 -181 108zM936 1389q28 41 76 111t70.5 102t51 67.5t48.5 52.5q43 37 90 37.5t78 -37.5q30 -38 19.5 -82.5 t-54.5 -80.5q-21 -17 -60 -37t-77 -36t-112 -47.5t-126 -54.5z" />
<glyph unicode="&#x1e83;" horiz-adv-x="1576" d="M-16 840v12h579v-12q-49 0 -68.5 -22t-13.5 -59.5t33 -92.5l160 -330l119 266l-27 60q-16 34 -21 44t-20.5 39t-24.5 39.5t-24.5 27t-31 22.5t-32.5 6v12h568v-12q-74 0 -90.5 -48t18.5 -126l123 -308l57 138q72 173 72 243q0 101 -109 101v12h371v-12q-124 0 -203 -115 q-12 -17 -24 -38t-20 -36t-21 -44t-17 -38t-18 -44.5t-16 -39.5l-211 -493h-9l-278 588l-273 -588h-8l-354 670q-19 36 -36.5 62.5t-41.5 55.5t-51.5 44.5t-56.5 15.5zM725 979q29 42 76 111t70 102t51.5 68.5t48.5 52.5q43 37 90 37.5t78 -37.5q30 -38 19.5 -83t-54.5 -81 q-21 -17 -60 -37t-77.5 -36t-111.5 -47t-126 -54z" />
<glyph unicode="&#x1e84;" horiz-adv-x="2048" d="M-45 1253v13h709v-13q-40 0 -66.5 -13.5t-37 -35t-11.5 -51.5t6 -60t20 -63l242 -604l201 504l-23 59q-106 264 -256 264v13h744v-13q-56 0 -89.5 -24.5t-43 -64.5t-4.5 -84.5t22 -90.5l209 -551l127 334q63 167 63 283q0 95 -45 146.5t-137 51.5v13h547v-13 q-93 0 -159.5 -49t-117.5 -139q-18 -31 -37.5 -73t-31 -69t-34 -84.5t-30.5 -76.5l-303 -774h-14l-375 913l-368 -913h-15l-430 1001q-49 111 -81 156q-77 108 -181 108zM723 1563q0 59 41 101t102 42q60 0 103 -42t43 -103q0 -60 -42.5 -103t-101.5 -43t-102 43.5 t-43 104.5zM1116 1563q0 59 41.5 101t102.5 42q60 0 102.5 -42t42.5 -103q0 -60 -42 -103t-101 -43t-102.5 43.5t-43.5 104.5z" />
<glyph unicode="&#x1e85;" horiz-adv-x="1576" d="M-16 840v12h579v-12q-49 0 -68.5 -22t-13.5 -59.5t33 -92.5l160 -330l119 266l-27 60q-16 34 -21 44t-20.5 39t-24.5 39.5t-24.5 27t-31 22.5t-32.5 6v12h568v-12q-74 0 -90.5 -48t18.5 -126l123 -308l57 138q72 173 72 243q0 101 -109 101v12h371v-12q-124 0 -203 -115 q-12 -17 -24 -38t-20 -36t-21 -44t-17 -38t-18 -44.5t-16 -39.5l-211 -493h-9l-278 588l-273 -588h-8l-354 670q-19 36 -36.5 62.5t-41.5 55.5t-51.5 44.5t-56.5 15.5zM481 1153q0 59 41.5 101t102.5 42q60 0 102.5 -42t42.5 -103q0 -60 -42 -102.5t-101 -42.5t-102.5 43 t-43.5 104zM874 1153q0 59 41.5 101t102.5 42q60 0 102.5 -42t42.5 -103q0 -60 -42 -102.5t-101 -42.5t-102.5 43t-43.5 104z" />
<glyph unicode="&#x1ef2;" horiz-adv-x="1404" d="M-45 1253v13h752v-13q-92 0 -114 -62.5t32 -148.5l260 -428h2l143 248q88 151 88 250q0 141 -178 141v13h530v-13q-79 0 -140 -35.5t-118 -107.5q-55 -71 -165 -258l-146 -246v-364q0 -71 13.5 -117.5t42 -70.5t63 -33t86.5 -9v-12h-764v12q52 0 86.5 9t63 33t42 70.5 t13.5 117.5v260l-348 555q-123 196 -244 196zM476 1640q-10 45 20 82q31 38 78 37.5t90 -37.5q26 -21 57.5 -63t91 -133t94.5 -140l-4 -4q-45 20 -124.5 54t-113.5 49t-74 36t-61 38q-44 36 -54 81z" />
<glyph unicode="&#x1ef3;" horiz-adv-x="1036" d="M-14 840v12h608v-12q-74 0 -91.5 -47t21.5 -127l156 -322l68 152q65 149 65 227q0 117 -119 117v12h391v-12q-124 0 -213 -138q-14 -21 -30 -50t-26 -50.5t-28 -60t-26 -56.5l-234 -505q-21 -46 -39 -80.5t-54 -86.5t-72.5 -85.5t-90.5 -58.5t-112 -25q-65 0 -94 26.5 t-29 67.5q0 49 38.5 71t98 26.5t122 8.5t119.5 28.5t81 74.5l24 53l-348 662q-19 36 -36.5 62.5t-41.5 55.5t-51.5 44.5t-56.5 15.5zM297.5 1230q-10.5 45 19.5 83q31 38 78 37.5t90 -37.5q26 -21 57 -62.5t92.5 -134t94.5 -139.5l-4 -4q-48 21 -125 54t-112.5 48.5t-75 36 t-60.5 37.5q-44 36 -54.5 81z" />
<glyph unicode="&#x2000;" horiz-adv-x="984" />
<glyph unicode="&#x2001;" horiz-adv-x="1968" />
<glyph unicode="&#x2002;" horiz-adv-x="984" />
<glyph unicode="&#x2003;" horiz-adv-x="1968" />
<glyph unicode="&#x2004;" horiz-adv-x="656" />
<glyph unicode="&#x2005;" horiz-adv-x="492" />
<glyph unicode="&#x2006;" horiz-adv-x="328" />
<glyph unicode="&#x2007;" horiz-adv-x="328" />
<glyph unicode="&#x2008;" horiz-adv-x="246" />
<glyph unicode="&#x2009;" horiz-adv-x="393" />
<glyph unicode="&#x200a;" horiz-adv-x="109" />
<glyph unicode="&#x2013;" horiz-adv-x="1163" d="M113 442v84h938v-84h-938z" />
<glyph unicode="&#x2014;" horiz-adv-x="1769" d="M113 442v84h1544v-84h-1544z" />
<glyph unicode="&#x2018;" horiz-adv-x="501" d="M63 1016q0 127 98 248t263 176l4 -8q-102 -38 -181 -125.5t-89 -196.5q44 35 102 35q69 0 118.5 -49t49.5 -117q0 -70 -52.5 -120t-129.5 -50q-82 0 -132.5 58.5t-50.5 148.5z" />
<glyph unicode="&#x2019;" horiz-adv-x="514" d="M96 817q102 38 181.5 125.5t89.5 196.5q-44 -35 -103 -35q-69 0 -118.5 49t-49.5 117q0 70 53 120t130 50q82 0 132 -58t50 -149q0 -127 -98 -248t-263 -176z" />
<glyph unicode="&#x201a;" horiz-adv-x="538" d="M84 168q0 70 52.5 120t129.5 50q82 0 132.5 -58.5t50.5 -148.5q0 -127 -98 -248t-263 -176l-4 8q102 38 181 125.5t89 196.5q-44 -35 -102 -35q-69 0 -118.5 49t-49.5 117z" />
<glyph unicode="&#x201c;" horiz-adv-x="978" d="M63 1016q0 127 98 248t263 176l4 -8q-102 -38 -181 -125.5t-89 -196.5q44 35 102 35q69 0 118.5 -49t49.5 -117q0 -70 -52.5 -120t-129.5 -50q-82 0 -132.5 58.5t-50.5 148.5zM541 1016q0 127 97.5 248t262.5 176l4 -8q-102 -38 -181 -125.5t-89 -196.5q44 35 102 35 q69 0 118.5 -49t49.5 -117q0 -70 -52.5 -120t-129.5 -50q-82 0 -132 58t-50 149z" />
<glyph unicode="&#x201d;" horiz-adv-x="991" d="M96 817q102 38 181.5 125.5t89.5 196.5q-44 -35 -103 -35q-69 0 -118.5 49t-49.5 117q0 70 53 120t130 50q82 0 132 -58t50 -149q0 -127 -98 -248t-263 -176zM573 817q102 38 181.5 125.5t89.5 196.5q-44 -35 -103 -35q-69 0 -118.5 49t-49.5 117q0 70 53 120t130 50 q82 0 132 -58t50 -149q0 -127 -97.5 -248t-262.5 -176z" />
<glyph unicode="&#x201e;" horiz-adv-x="1015" d="M84 168q0 70 52.5 120t129.5 50q82 0 132.5 -58.5t50.5 -148.5q0 -127 -98 -248t-263 -176l-4 8q102 38 181 125.5t89 196.5q-44 -35 -102 -35q-69 0 -118.5 49t-49.5 117zM561 168q0 70 52.5 120t129.5 50q82 0 132.5 -58.5t50.5 -148.5q0 -127 -98 -248t-263 -176l-4 8 q102 38 181 125.5t89 196.5q-44 -35 -102 -35q-69 0 -118.5 49t-49.5 117z" />
<glyph unicode="&#x2020;" horiz-adv-x="1052" d="M88 846q0 52 25 88.5t67 36.5q28 0 68.5 -20.5t77 -45t90 -45.5t104.5 -22q-1 53 -20.5 113.5t-42.5 104.5t-41.5 93.5t-18.5 83.5q0 66 36.5 101.5t92.5 35.5t92.5 -35.5t36.5 -101.5q0 -34 -19 -83.5t-42 -93.5t-42 -104.5t-20 -113.5q50 1 103 22t89.5 45.5t77.5 45 t70 20.5q43 0 68 -36.5t25 -88.5q0 -67 -35 -151.5t-62 -84.5q-10 0 -12 19q-12 80 -28 108q-36 63 -160 80q-56 7 -136 8q0 -202 21 -384.5t47 -287t47 -202t21 -150.5q0 -77 -38.5 -116t-103.5 -39t-103 39t-38 116q0 53 21 150.5t46 202t46 287t22 384.5 q-86 -1 -144.5 -10.5t-90.5 -23t-50.5 -40.5t-24.5 -50t-12 -63q-1 -6 -1 -9q-2 -19 -13 -19q-26 0 -61 84.5t-35 151.5z" />
<glyph unicode="&#x2021;" horiz-adv-x="1052" d="M88 133q0 67 35 151.5t61 84.5q11 0 13 -19q12 -81 28 -109q34 -62 153 -79q58 -8 142 -8q-2 65 -47 176.5t-45 158.5t45 158.5t47 177.5q-86 -1 -144.5 -10.5t-90.5 -23t-50.5 -40.5t-24.5 -50t-12 -63q-1 -6 -1 -9q-2 -19 -13 -19q-26 0 -61 84.5t-35 151.5 q0 52 25 88.5t67 36.5q28 0 68.5 -20.5t77 -45t90 -45.5t104.5 -22q-1 53 -20.5 113.5t-42.5 104.5t-41.5 93.5t-18.5 83.5q0 66 36.5 101.5t92.5 35.5t92.5 -35.5t36.5 -101.5q0 -34 -19 -83.5t-42 -93.5t-42 -104.5t-20 -113.5q50 1 103 22t89.5 45.5t77.5 45t70 20.5 q43 0 68 -36.5t25 -88.5q0 -67 -35 -151.5t-62 -84.5q-10 0 -12 19q-12 80 -28 108q-36 63 -160 80q-56 7 -136 8q1 -43 19 -92.5t39 -86.5t38 -81t17 -76q0 -40 -27.5 -98t-55.5 -121t-30 -116q62 0 109.5 4.5t80 12t55.5 21.5t36 27.5t21.5 35.5t12.5 40.5t8 46.5 q0 3 0.5 4.5t0.5 3.5q2 19 12 19q27 0 62 -84.5t35 -151.5q0 -52 -25 -88.5t-68 -36.5q-29 0 -70 20t-77.5 44.5t-89.5 46t-103 22.5q1 -53 20 -113.5t42 -104.5t42 -93.5t19 -83.5q0 -66 -36.5 -101.5t-92.5 -35.5t-92.5 35.5t-36.5 101.5q0 34 18.5 83.5t41.5 93.5 t42.5 104.5t20.5 113.5q-51 -1 -104.5 -22.5t-90 -46t-77 -44.5t-68.5 -20q-42 0 -67 36.5t-25 88.5z" />
<glyph unicode="&#x2022;" horiz-adv-x="745" d="M143 498q0 95 67.5 162t162.5 67t162 -67t67 -162t-67 -162.5t-162 -67.5t-162.5 67.5t-67.5 162.5z" />
<glyph unicode="&#x2026;" horiz-adv-x="1671" d="M84 160q0 74 52 126t126 52t126 -52t52 -126t-52 -126t-126 -52t-126 52t-52 126zM657 160q0 73 52.5 125.5t126.5 52.5t126 -52t52 -126t-52 -126t-126 -52t-126.5 52.5t-52.5 125.5zM1231 160q0 74 52.5 126t125.5 52t125.5 -52t52.5 -126t-52.5 -126t-125.5 -52 t-125.5 52t-52.5 126z" />
<glyph unicode="&#x202f;" horiz-adv-x="393" />
<glyph unicode="&#x2030;" horiz-adv-x="2396" d="M63 944q0 85 33.5 152.5t88.5 107.5t118.5 61t128.5 21q94 0 181 -41.5t137 -120.5q55 -10 98 -10q74 0 175 22.5t185 59.5q10 14 18.5 43.5t19 47.5t30.5 18q15 0 24 -11t9 -26q0 -30 -26.5 -52.5t-57.5 -35.5l-910 -1198l-16 14l897 1178q-181 -78 -342 -78 q-53 0 -92 8q37 -72 37 -160q0 -84 -33.5 -151t-87.5 -107t-117.5 -61t-128.5 -21q-52 0 -103 12.5t-99.5 40t-85 66.5t-59 96.5t-22.5 124.5zM319 944q0 -79 4.5 -133.5t16 -101.5t34.5 -70t58 -23t58.5 23t35.5 69.5t16.5 102t4.5 133.5q0 196 -35 270q-33 26 -70 58 q-1 0 -4.5 1t-5.5 1q-35 0 -58 -23.5t-34.5 -70.5t-16 -102t-4.5 -134zM778 319q0 85 33.5 152.5t88.5 108t118.5 61.5t128.5 21t128.5 -21t117.5 -61.5t87 -108t33 -152.5q0 -67 -22 -124t-58.5 -96t-84 -66.5t-98.5 -40t-103 -12.5t-103 12.5t-99.5 40t-85 66.5t-59 96 t-22.5 124zM1034 319q0 -79 4.5 -133.5t16 -101t34.5 -69.5t58 -23t58.5 23t35.5 69t16.5 101.5t4.5 133.5q0 79 -4.5 134t-16.5 102t-35.5 70.5t-58.5 23.5t-58 -23.5t-34.5 -70.5t-16 -102t-4.5 -134zM1597 319q0 85 33.5 152.5t88.5 108t118.5 61.5t128.5 21t128.5 -21 t117.5 -61.5t87.5 -108t33.5 -152.5q0 -84 -33.5 -151t-87.5 -106.5t-117.5 -60.5t-128.5 -21q-52 0 -103 12.5t-99.5 40t-85 66.5t-59 96t-22.5 124zM1853 319q0 -79 4.5 -133.5t16 -101t34.5 -69.5t58 -23t58.5 23t35.5 69t16.5 101.5t4.5 133.5q0 79 -4.5 134t-16.5 102 t-35.5 70.5t-58.5 23.5t-58 -23.5t-34.5 -70.5t-16 -102t-4.5 -134z" />
<glyph unicode="&#x2039;" horiz-adv-x="708" d="M45 455v8l592 407l6 -8l-414 -403l414 -404l-6 -8z" />
<glyph unicode="&#x203a;" horiz-adv-x="708" d="M66 55l413 404l-413 403l6 8l592 -407v-8l-592 -408z" />
<glyph unicode="&#x2044;" horiz-adv-x="327" d="M-272 -8l856 1294l14 -8l-856 -1294z" />
<glyph unicode="&#x205f;" horiz-adv-x="492" />
<glyph unicode="&#x2070;" horiz-adv-x="872" d="M55 1079q0 184 103.5 296t277.5 112t277.5 -112t103.5 -296t-103.5 -295.5t-277.5 -111.5t-277.5 111.5t-103.5 295.5zM315 1079q0 -39 0.5 -66t2 -66.5t5 -67.5t9 -61t15 -55t21.5 -42t29.5 -29.5t38.5 -9.5t38.5 9.5t29.5 29.5t21.5 42t15 55t9 61t5 67.5t2 66.5 t0.5 66t-0.5 66t-2 66.5t-5 67.5t-9 61.5t-15 55.5t-21.5 42t-29.5 29.5t-38.5 9.5t-38.5 -9.5t-29.5 -29.5t-21.5 -42t-15 -55.5t-9 -61.5t-5 -67.5t-2 -66.5t-0.5 -66z" />
<glyph unicode="&#x2074;" horiz-adv-x="837" d="M2 895l111 86q66 52 106.5 129t40.5 158q0 130 -117 219q66 3 133 -5.5t127.5 -28t99 -56.5t38.5 -86q0 -41 -26.5 -78t-74 -69t-97 -59t-112 -62t-102.5 -64l-106 -78h415v105l236 200h6v-305q53 0 83 7l30 7q11 0 18.5 -6t7.5 -14q0 -7 -8.5 -12.5t-17.5 -5.5 q-4 0 -14.5 3t-35.5 6t-63 3v-64q0 -83 32 -107t101 -24v-8h-526v8q77 0 114 30t37 116v51h-434z" />
<glyph unicode="&#x2075;" horiz-adv-x="798" d="M37 850q0 46 34 80.5t87 34.5q52 0 83 -32t31 -79q0 -44 -25 -74.5t-59 -38.5q40 -57 107 -57q87 0 140.5 72t53.5 172q0 89 -46.5 148t-139.5 59q-77 0 -174 -50q-10 -43 -33 -43q-18 0 -18 19q0 21 43 35l33 374q9 -1 75 -6t105 -7.5t107.5 -2t113.5 6.5t90.5 22.5 t67.5 42.5q16 -62 16 -103q0 -47 -19.5 -82t-52.5 -53t-68.5 -26.5t-74.5 -8.5q-17 0 -34 2t-30.5 4t-32.5 8.5t-30 9.5t-33.5 14t-32 15t-37 19.5t-37 21t-44 24.5t-45.5 26l-29 -299q125 61 256 61q95 0 175 -24.5t135 -81.5t55 -138q0 -79 -52 -135t-136 -82t-191 -26 q-150 0 -242 50t-92 128z" />
<glyph unicode="&#x2076;" horiz-adv-x="862" d="M55 1059q0 192 114.5 310t313.5 118q134 0 215.5 -51.5t81.5 -128.5q0 -46 -29.5 -78.5t-82.5 -32.5q-52 0 -85.5 31.5t-33.5 79.5q0 37 20 65t52 39q-32 66 -107 66q-72 0 -126 -65.5t-79 -168t-20 -219.5q45 164 229 164q124 0 206.5 -68t82.5 -180q0 -120 -95.5 -194 t-262.5 -74q-105 0 -183 31t-123 86t-66.5 122.5t-21.5 147.5zM291 915q0 -106 38 -170.5t107 -64.5q42 0 71 25t42.5 67.5t18.5 81t5 82.5q0 227 -118 227q-27 0 -54 -12.5t-52.5 -38.5t-41.5 -77t-16 -120z" />
<glyph unicode="&#x2077;" horiz-adv-x="702" d="M49 1116v354h12l11 -227h2q5 46 9.5 74t15.5 65t25.5 57t40.5 35t60 15q46 0 95 -26.5t84 -57.5t79.5 -57.5t83.5 -26.5q56 0 87.5 45.5t31.5 79.5q0 10 -1 17l-1 7h12q2 -8 2 -22q0 -46 -21.5 -94.5t-60.5 -108.5t-53 -88q-52 -107 -83 -216t-38 -255h-243q4 41 17 83.5 t25 73.5t42 75t43 63.5t54.5 65.5t50 55t55.5 57q17 18 26 27q14 14 51 49.5t62 63t43 57.5l-4 4q-31 -43 -51.5 -65.5t-59.5 -42t-88 -19.5q-27 0 -122.5 12t-147.5 12q-66 0 -98 -27t-38 -114h-10z" />
<glyph unicode="&#x2078;" horiz-adv-x="901" d="M53 889q0 82 76.5 140.5t255.5 68.5q-153 9 -230 58.5t-77 131.5q0 90 94 144.5t279 54.5t278.5 -54.5t93.5 -144.5q0 -82 -77 -131.5t-230 -58.5q179 -10 255.5 -68.5t76.5 -140.5q0 -41 -19 -77t-61.5 -68.5t-123.5 -52t-193 -19.5t-193.5 19.5t-124 52t-61.5 68.5 t-19 77zM313 889q0 -107 40 -157t98 -50t97.5 50t39.5 157q0 106 -39.5 155.5t-97.5 49.5t-98 -49.5t-40 -155.5zM338 1288q0 -186 113 -186q112 0 112 186q0 189 -112 189q-113 0 -113 -189z" />
<glyph unicode="&#x2079;" horiz-adv-x="864" d="M55 1221q0 117 96.5 191.5t260.5 74.5q103 0 181 -31.5t124 -86.5t69 -124t23 -149q0 -186 -112 -305t-314 -119q-133 0 -216 51t-83 127q0 46 30.5 78.5t84.5 32.5q52 0 85 -30.5t33 -78.5q0 -37 -20.5 -66.5t-52.5 -40.5q31 -63 108 -63q47 0 84.5 22t60.5 60t38.5 83 t22.5 98t9 97t0 88q-43 -147 -223 -147q-124 0 -206.5 64.5t-82.5 173.5zM289 1237q0 -121 41.5 -171t95.5 -50q57 0 100 53.5t43 177.5q0 107 -36.5 168.5t-104.5 61.5q-43 0 -72.5 -24t-43 -64t-18.5 -76t-5 -76z" />
<glyph unicode="&#x2080;" horiz-adv-x="872" d="M55 188q0 184 103.5 296t277.5 112t277.5 -112t103.5 -296t-103.5 -295.5t-277.5 -111.5t-277.5 111.5t-103.5 295.5zM315 188q0 -39 0.5 -66t2 -66.5t5 -67.5t9 -61t15 -55t21.5 -42t29.5 -29.5t38.5 -9.5t38.5 9.5t29.5 29.5t21.5 42t15 55t9 61t5 67.5t2 66.5t0.5 66 t-0.5 66t-2 66.5t-5 67.5t-9 61.5t-15 55.5t-21.5 42t-29.5 29.5t-38.5 9.5t-38.5 -9.5t-29.5 -29.5t-21.5 -42t-15 -55.5t-9 -61.5t-5 -67.5t-2 -66.5t-0.5 -66z" />
<glyph unicode="&#x2081;" horiz-adv-x="563" d="M29 477v6q216 20 387 99l8 -2v-646q0 -83 32 -107t101 -24v-8h-526v8q76 0 112.5 30t36.5 116v459q0 37 -12 53t-47 16h-92z" />
<glyph unicode="&#x2082;" horiz-adv-x="827" d="M45 381q0 81 96.5 148t259.5 67q93 0 168 -23t123.5 -73.5t48.5 -122.5q0 -56 -31 -96.5t-80 -63t-115 -45t-129.5 -41.5t-131 -54t-113.5 -81q-28 -28 -45 -62q55 99 228 99q55 0 148.5 -14.5t135.5 -14.5q64 0 99.5 24.5t35.5 84.5q0 23 -6 47h11q18 -58 18 -140 q0 -48 -8 -88t-26.5 -75.5t-53 -55.5t-82.5 -20t-92.5 21t-79.5 50.5t-68 59.5t-72 51t-79 21q-57 0 -88 -36.5t-31 -92.5q0 -32 8 -60h-12q-15 76 -1 126t66 99q29 27 80 64.5t91 68.5t80 71t62.5 89.5t22.5 106.5q0 75 -39 118.5t-108 43.5q-57 0 -96.5 -28t-55.5 -65 q41 -8 69 -39t28 -73q0 -49 -34.5 -82t-84.5 -33q-52 0 -84.5 35.5t-32.5 83.5z" />
<glyph unicode="&#x2083;" horiz-adv-x="825" d="M47 -41q0 45 32.5 80t84.5 35q51 0 85 -33t34 -82q0 -38 -23.5 -70.5t-60.5 -42.5q35 -51 120 -51q93 0 143 56.5t50 148.5q0 184 -209 190q-43 1 -71 -6l-29 -8q-10 0 -17.5 5.5t-7.5 13.5t7 14t16 6q3 0 34.5 -7t63.5 -7q53 0 91 17.5t58.5 47.5t29.5 63t9 70 q0 87 -43 135t-116 48q-80 0 -119 -56q39 -9 63.5 -39t24.5 -71q0 -48 -32.5 -79.5t-84.5 -31.5q-53 0 -82.5 32.5t-29.5 78.5q0 80 90.5 130t244.5 50q158 0 251.5 -54.5t93.5 -146.5q0 -68 -53 -113.5t-135.5 -64.5t-188.5 -18h-15v-6h15q115 0 202.5 -20t143 -66.5 t55.5 -114.5q0 -101 -108 -156t-269 -55q-157 0 -252.5 50.5t-95.5 127.5z" />
<glyph unicode="&#x2084;" horiz-adv-x="837" d="M2 4l111 86q66 52 106.5 129t40.5 158q0 130 -117 219q66 3 133 -5.5t127.5 -28t99 -56.5t38.5 -86q0 -41 -26.5 -78t-74 -69t-97 -59t-112 -62t-102.5 -64l-106 -78h415v105l236 200h6v-305q53 0 83 8l30 7q11 0 18.5 -6.5t7.5 -14.5q0 -7 -8.5 -12.5t-17.5 -5.5 q-4 0 -14.5 3t-35.5 6t-63 3v-64q0 -83 32 -107t101 -24v-8h-526v8q77 0 114 30t37 116v51h-434z" />
<glyph unicode="&#x2085;" horiz-adv-x="798" d="M37 -41q0 46 34 80.5t87 34.5q52 0 83 -32t31 -79q0 -44 -25 -74.5t-59 -38.5q40 -57 107 -57q87 0 140.5 72t53.5 172q0 89 -46.5 148t-139.5 59q-79 0 -174 -49q-10 -43 -33 -43q-18 0 -18 18q0 21 43 35l33 375q10 -1 75 -6t105 -7.5t108 -2.5t113 6.5t90.5 22.5 t67.5 42q16 -62 16 -103q0 -47 -19.5 -82t-52.5 -53t-68.5 -26.5t-74.5 -8.5q-17 0 -34 2t-30.5 4t-32.5 8.5t-30 9.5t-33.5 14t-32 15t-37 19.5t-37 21t-44 24.5t-45.5 26l-29 -299q125 61 256 61q70 0 133.5 -14.5t116 -43t84 -76.5t31.5 -109q0 -118 -107 -181t-272 -63 q-150 0 -242 50t-92 128z" />
<glyph unicode="&#x2086;" horiz-adv-x="862" d="M55 168q0 192 114.5 310t313.5 118q134 0 215.5 -51.5t81.5 -128.5q0 -46 -29.5 -78.5t-82.5 -32.5q-52 0 -85.5 31.5t-33.5 79.5q0 37 20 65t52 39q-32 66 -107 66q-72 0 -126 -65.5t-79 -168t-20 -219.5q45 164 229 164q124 0 206.5 -68t82.5 -180q0 -120 -95.5 -194 t-262.5 -74q-105 0 -183 31t-123 86t-66.5 122.5t-21.5 147.5zM291 25q0 -106 38 -171t107 -65q42 0 71 25t42.5 67.5t18.5 81t5 82.5q0 227 -118 227q-27 0 -53.5 -12t-52.5 -38.5t-42 -77t-16 -119.5z" />
<glyph unicode="&#x2087;" horiz-adv-x="702" d="M49 225v355h12l11 -228h2q5 46 9.5 74t15.5 65t25.5 57t40.5 35t60 15q38 0 76.5 -17.5t70.5 -42t63 -49t65.5 -42t66.5 -17.5q56 0 87.5 45.5t31.5 79.5q0 9 -1 17l-1 8h12q2 -8 2 -23q0 -46 -21.5 -94.5t-60.5 -108.5t-53 -88q-52 -107 -83 -216t-38 -255h-243 q4 41 17 83.5t25 73.5t42 75t43 63.5t54.5 65.5t50 55t55.5 57q17 18 26 27q14 14 51 49.5t62 63t43 57.5l-4 4q-31 -43 -51.5 -65.5t-59.5 -42t-88 -19.5q-27 0 -122.5 12.5t-147.5 12.5q-66 0 -98 -27.5t-38 -114.5h-10z" />
<glyph unicode="&#x2088;" horiz-adv-x="901" d="M53 -2q0 82 76.5 140.5t255.5 68.5q-153 9 -230 58.5t-77 131.5q0 90 94 144.5t279 54.5t278.5 -54.5t93.5 -144.5q0 -82 -77 -131.5t-230 -58.5q179 -10 255.5 -68.5t76.5 -140.5q0 -41 -19 -77t-61.5 -68.5t-123.5 -52t-193 -19.5t-193.5 19.5t-124 52t-61.5 68.5 t-19 77zM313 -2q0 -107 40 -157t98 -50t97.5 50t39.5 157q0 106 -39.5 155.5t-97.5 49.5t-98 -49.5t-40 -155.5zM338 397q0 -186 113 -186q112 0 112 186q0 189 -112 189q-113 0 -113 -189z" />
<glyph unicode="&#x2089;" horiz-adv-x="864" d="M55 330q0 117 96.5 191.5t260.5 74.5q103 0 181 -31.5t124 -86.5t69 -124t23 -149q0 -186 -112 -305t-314 -119q-133 0 -216 51t-83 127q0 46 30.5 78.5t84.5 32.5q52 0 85 -30.5t33 -78.5q0 -37 -20.5 -66t-52.5 -40q31 -64 108 -64q69 0 116.5 46.5t67.5 121.5t27 143 t4 138q-43 -148 -223 -148q-124 0 -206.5 64.5t-82.5 173.5zM289 346q0 -121 41.5 -171t95.5 -50q57 0 100 53.5t43 177.5q0 107 -36.5 168.5t-104.5 61.5q-43 0 -72.5 -24t-43 -64t-18.5 -76t-5 -76z" />
<glyph unicode="&#x20ac;" horiz-adv-x="1441" d="M68 496v18h133q-6 52 -6 107q0 83 14 149h-141v18h143q51 229 227.5 365.5t423.5 136.5q116 0 210.5 -31.5t151.5 -82t87 -109t30 -117.5q0 -77 -47.5 -132.5t-122.5 -55.5q-72 0 -122 51.5t-50 126.5q0 67 41 116t103 60q-66 158 -232 158q-87 0 -155 -41.5 t-110.5 -113.5t-67.5 -153.5t-37 -177.5h366v-18h-368q-7 -82 -7 -135q0 -65 5 -121h370v-18h-368q8 -70 21.5 -132.5t42 -130.5t68 -116t101.5 -79.5t139 -31.5q139 0 250 95.5t182 271.5l15 -6q-38 -92 -83 -159.5t-108 -122t-148.5 -82.5t-193.5 -28q-252 0 -418.5 143 t-203.5 378h-135z" />
<glyph unicode="&#x2116;" horiz-adv-x="2349" d="M59 49q85 -57 185 -57q142 0 197 87t55 271v584q0 163 -56 241t-190 78v13h459l585 -736v461q0 110 12 200t39 166.5t76 119.5t117 43q97 0 155 -83t58 -216q-42 28 -83.5 42.5t-100.5 14.5q-142 0 -197 -87t-55 -271v-936l-10 -2l-789 972v-675q0 -110 -12 -200 t-39 -166.5t-76 -119.5t-117 -43q-97 0 -155 83t-58 216zM1442 74v18h809v-18h-809zM1442 217v19h809v-19h-809zM1450 698q0 106 53.5 186.5t143 122.5t198.5 42q167 0 281.5 -96.5t114.5 -254.5q0 -104 -54.5 -184.5t-144 -122t-197.5 -41.5q-168 0 -281.5 95.5 t-113.5 252.5zM1735 698q0 -175 26 -255.5t84 -80.5t84.5 81.5t26.5 256.5q0 174 -26.5 254t-84.5 80t-84 -80t-26 -256z" />
<glyph unicode="&#x2117;" horiz-adv-x="1486" d="M86 633q0 134 52 256t140 210t210 139.5t255 51.5q135 0 256.5 -51.5t209.5 -139.5t140 -210t52 -256q0 -133 -52 -255t-140 -210t-210 -140.5t-256 -52.5q-178 0 -329.5 88.5t-239.5 240t-88 329.5zM104 633q0 -130 50.5 -248t136.5 -204t204 -136.5t248 -50.5 q174 0 321.5 85.5t233.5 233t86 320.5q0 174 -86 321.5t-233.5 233.5t-321.5 86q-173 0 -320.5 -86t-233 -233.5t-85.5 -321.5zM365 264v6q56 0 77 25t21 94v485q0 70 -21 95.5t-77 25.5v6h460q181 0 265 -60t84 -155q0 -97 -83.5 -156t-265.5 -59h-80v9h23q156 0 156 206 q0 207 -156 207h-63v-604q0 -69 21 -94t77 -25v-6h-438z" />
<glyph unicode="&#x2122;" horiz-adv-x="1769" d="M88 1038l16 228h601l16 -228h-4q-15 48 -32.5 83.5t-42.5 68.5t-61 50t-81 17h-8v-493q0 -67 24 -90t76 -23v-6h-375v6q51 0 75.5 23t24.5 90v493h-10q-85 0 -134.5 -59.5t-80.5 -159.5h-4zM739 645v6q76 0 108.5 51.5t43.5 186.5l14 194q7 92 -17.5 134.5t-101.5 42.5v6 h281l188 -394l170 394h224v-6q-48 0 -64.5 -32.5t-13.5 -99.5l16 -342q3 -73 22.5 -104t69.5 -31v-6h-344v6q48 0 65.5 30.5t14.5 94.5l-22 387l-222 -510h-4l-245 500l-23 -264q-12 -136 11.5 -187t99.5 -51v-6h-271z" />
<glyph unicode="&#x2212;" horiz-adv-x="1161" d="M125 494v18h911v-18h-911z" />
<glyph unicode="&#x2260;" horiz-adv-x="1161" d="M119 330v18h317l256 432h-573v19h586l200 338l17 -11l-195 -327h303v-19h-315l-256 -432h571v-18h-581l-197 -332l-16 10l190 322h-307z" />
<glyph unicode="&#x25fc;" horiz-adv-x="849" d="M0 0v850h850v-850h-850z" />
<glyph unicode="&#xfb06;" horiz-adv-x="1609" d="M88 289l8 2q65 -135 101 -184q83 -113 214 -117h11q50 0 86 13.5t52.5 35.5t23 42t6.5 42q0 40 -21.5 71.5t-57 50.5t-80.5 38t-92 34.5t-92 40t-80.5 54t-57 77.5t-21.5 109q0 134 98 205t273 71q18 0 159 -12q-86 103 -86 242q0 168 118.5 286.5t289.5 118.5 q165 0 282 -109.5t117 -273.5v-274h250v-29h-250v-616q0 -76 25 -110t76 -34q55 0 100.5 33t91.5 86l10 -8q-33 -39 -64 -68.5t-76 -61.5t-100.5 -49.5t-117.5 -17.5q-124 0 -197 72.5t-73 212.5v559h-113v21q76 0 131 5t113 22t94 46.5t59 82.5t23 126q0 155 -114 262 t-267 107q-158 0 -273.5 -116.5t-115.5 -270.5q0 -135 96 -246q69 -3 131 10l10 -295l-8 -2q-29 65 -55.5 110.5t-63 89.5t-83 66.5t-101.5 22.5q-77 0 -111 -38.5t-34 -88.5q0 -43 28 -74.5t72.5 -52t98.5 -39t108 -42t98.5 -54.5t72.5 -83.5t28 -121.5q0 -142 -109 -216.5 t-293 -74.5q-135 0 -340 39z" />
<glyph horiz-adv-x="2154" d="M63 432q0 134 70 236t184 154t250 52q63 0 119 -12q-57 65 -57 127q0 27 9 51.5t30 45.5t42.5 38.5t59.5 36t65.5 30.5t77.5 29t79.5 26t84.5 26q265 79 314 100q35 16 61 35l6 -4v-1030l166 159q143 137 143 224q0 84 -141 84v12h500v-12q-84 0 -148.5 -27.5 t-140.5 -87.5q-46 -36 -108 -98l-7 -6l312 -482q80 -127 172 -127v-12h-451l-254 393l-43 -41v-168q0 -89 23.5 -130.5t99.5 -41.5v-12h-571v12q76 0 99.5 41.5t23.5 130.5v1086q-14 -5 -48 -15q-207 -64 -277 -95q-155 -76 -159 -171q0 -60 68 -135q111 -31 173 -104.5 t62 -155.5q0 -73 -47 -116.5t-112 -43.5q-69 0 -116.5 48t-47.5 116q0 60 36 105t93 55q-43 106 -150 106q-49 0 -87.5 -25t-61.5 -64.5t-37.5 -93.5t-19.5 -105t-5 -107q0 -210 74.5 -325t204.5 -115q149 0 280 159l11 -8q-164 -203 -426 -203q-114 0 -207 38.5t-151 103 t-89 145t-31 168.5z" />
<glyph horiz-adv-x="1726" d="M63 432q0 134 70 236t184 154t250 52q104 0 189 -32q-107 104 -107 262q0 168 118.5 286.5t289.5 118.5q165 0 282 -109.5t117 -273.5v-274h250v-29h-250v-616q0 -76 24.5 -110t75.5 -34q91 0 193 119l10 -8q-33 -39 -64 -68.5t-76 -61.5t-100.5 -49.5t-117.5 -17.5 q-124 0 -197.5 72.5t-73.5 212.5v559h-112v21q76 0 131 5t113 22t94 46.5t59 82.5t23 126q0 155 -114 262t-267 107q-158 0 -273.5 -116.5t-115.5 -270.5q0 -86 40 -163t109 -132q64 -40 99.5 -98.5t35.5 -118.5q0 -73 -47 -116.5t-112 -43.5q-69 0 -116.5 48t-47.5 116 q0 60 36 105t93 55q-43 106 -150 106q-49 0 -87.5 -25t-61.5 -64.5t-37.5 -93.5t-19.5 -105t-5 -107q0 -210 74.5 -325t204.5 -115q149 0 280 159l11 -8q-164 -203 -426 -203q-114 0 -207 38.5t-151 103t-89 145t-31 168.5z" />
<glyph horiz-adv-x="2058" d="M37 0v12q40 0 65.5 12.5t37.5 39t16 54.5t4 72v451q0 44 -4 72t-16 54.5t-37.5 39t-65.5 12.5v12l438 41v-292q23 93 70 166.5t112 105.5q-63 73 -63 147q0 41 20.5 75.5t52 60.5t85.5 52t104 44t125 41q35 11 113.5 34.5t113 34.5t79 29.5t69.5 36.5l6 -4v-1030l166 159 q143 137 143 224q0 84 -141 84v12h500v-12q-84 0 -148.5 -27.5t-140.5 -87.5q-51 -40 -109 -98l-6 -6l311 -482q80 -127 172 -127v-12h-450l-254 393l-43 -41v-168q0 -89 23.5 -130.5t99.5 -41.5v-12h-572v12q76 0 99.5 41.5t23.5 130.5v1086q-18 -7 -47 -15 q-73 -23 -122 -40.5t-101 -41.5t-82.5 -48.5t-50 -57t-19.5 -70.5q0 -66 64 -137q40 14 74 14q82 0 129 -52.5t47 -121.5q0 -71 -48.5 -120.5t-117.5 -49.5q-71 0 -120 51.5t-46 131.5q-76 -42 -111 -135v-388q0 -91 32 -134.5t112 -43.5v-12h-592z" />
<glyph horiz-adv-x="1464" d="M27 823v29h125v221l325 64v-285h391v221l326 64v-285h250v-29h-250v-616q0 -76 24.5 -110t75.5 -34q91 0 193 119l10 -8q-33 -39 -64 -68.5t-76 -61.5t-100.5 -49.5t-117.5 -17.5q-124 0 -197.5 72.5t-73.5 212.5v561h-391v-616q0 -76 25 -110t76 -34q55 0 100.5 33 t91.5 86l10 -8q-33 -39 -64 -68.5t-76 -61.5t-100.5 -49.5t-117.5 -17.5q-124 0 -197 72.5t-73 212.5v561h-125z" />
<glyph horiz-adv-x="2181" d="M16 1004q0 233 516 233q133 0 279 -16.5t249.5 -37t219.5 -37t197 -16.5q96 0 165 21t105 57.5t52 78t16 91.5q0 116 -99 215q62 -7 119 -24.5t111.5 -46.5t87 -76.5t32.5 -106.5q0 -229 -491 -229q-44 0 -86.5 1.5t-90.5 6.5t-76 7.5t-84 11.5t-71 11.5t-79 13.5t-70 12 v-556h53q77 0 140.5 26t106.5 72t70.5 99t43.5 115h8v-633h-8q-15 61 -43 113.5t-71 97.5t-106.5 70.5t-140.5 25.5h-53v-362q0 -71 13.5 -117.5t42 -70.5t63 -33t86.5 -9v-12h-723v12q96 0 130 42t34 167v998h-31q-105 0 -178.5 -18t-113 -52t-56.5 -75.5t-17 -96.5 q0 -131 99 -227q-62 7 -120 24.5t-112 47t-86.5 77t-32.5 105.5zM1585 0v12q76 0 99.5 41.5t23.5 130.5v465q0 89 -23.5 130.5t-99.5 41.5v13l449 40v-690q0 -89 23.5 -130.5t99.5 -41.5v-12h-572z" />
<glyph horiz-adv-x="2529" d="M14 1049q0 119 130 176t368 57q143 0 310 -21.5t314 -43t240 -21.5q99 0 168 20t103.5 56.5t48.5 76t14 89.5q0 127 -98 225q62 -7 119 -24.5t111.5 -46.5t87 -76.5t32.5 -106.5q0 -129 -166 -188v-504q157 157 330 157q113 0 185.5 -69t72.5 -211v-410 q0 -89 23.5 -130.5t99.5 -41.5v-12h-551v12q60 0 81 43t21 129v447q0 72 -29 106.5t-79 34.5q-76 0 -154 -74v-514q0 -89 23.5 -130.5t99.5 -41.5v-12h-571v12q76 0 99 41.5t23 130.5v996q-12 -2 -47 -2q-136 0 -407 39v-975q0 -71 13.5 -117.5t42 -70.5t63 -33t86.5 -9v-12 h-764v12q52 0 86.5 9t63 33t42 70.5t13.5 117.5v1022q-20 2 -60 2q-80 0 -140.5 -14t-97 -36.5t-59.5 -55.5t-31 -66.5t-8 -73.5q0 -129 99 -225q-62 7 -119 24.5t-111.5 46.5t-87.5 76.5t-33 106.5z" />
<glyph horiz-adv-x="2363" d="M78 623q0 201 95.5 353t265.5 233t390 81q55 0 128 -6t123.5 -11t113 -2.5t115.5 15.5l37 -446l-11 -2q-174 440 -475 440q-75 0 -136.5 -25.5t-104.5 -72t-74.5 -106t-50 -133t-27 -148.5t-8.5 -156q0 -99 12 -188.5t40.5 -175t72.5 -147.5t112.5 -100t155.5 -38 q112 0 211.5 64.5t171.5 167.5t129 243l8 -2l-69 -424q-212 -62 -451 -62q-191 0 -340.5 49.5t-243 137.5t-142 205t-48.5 256zM1481 74v18h809v-18h-809zM1481 217v19h809v-19h-809zM1489 698q0 106 53.5 186.5t143 122.5t198.5 42q167 0 281 -96.5t114 -254.5 q0 -157 -114 -252.5t-281 -95.5q-168 0 -281.5 95.5t-113.5 252.5zM1774 698q0 -175 26 -255.5t84 -80.5t84.5 81.5t26.5 256.5q0 174 -26.5 254t-84.5 80t-84 -80t-26 -256z" />
<glyph horiz-adv-x="1282" d="M94 508q0 97 32.5 188.5t96.5 169.5t172 125t246 47t246 -47t172 -125t96.5 -169.5t32.5 -188.5q0 -77 -19.5 -151.5t-63 -143.5t-106 -121t-155 -83.5t-203.5 -31.5t-203.5 31.5t-155 83.5t-106 121t-63 143.5t-19.5 151.5zM455 508q0 -58 1 -102.5t5.5 -101t12.5 -98 t22 -84t33 -69.5t47.5 -44t64.5 -17t64.5 17t47.5 44t33 69.5t22 84t12.5 98t5.5 101t1 102.5t-1 102.5t-5.5 101t-12.5 98t-22 84t-33 69.5t-47.5 44t-64.5 17t-64.5 -17t-47.5 -44t-33 -69.5t-22 -84t-12.5 -98t-5.5 -101t-1 -102.5z" />
<glyph horiz-adv-x="903" d="M88 852v10q322 30 569 156l11 -4v-793q0 -69 13 -112t42.5 -63.5t62 -27t86.5 -6.5v-12h-778v12q59 0 98.5 9.5t71 34t46 70t14.5 114.5v501q0 59 -20 85t-75 26h-141z" />
<glyph horiz-adv-x="1183" d="M94 748q0 52 31 102.5t89 93t154 68.5t214 26q130 0 233 -30t167.5 -95t64.5 -157q0 -75 -44.5 -129t-113.5 -84t-161.5 -60t-180.5 -55t-177.5 -70t-146.5 -104q-16 -16 -30 -37q79 85 272 88q84 1 213 -19t184 -20q91 0 140 33.5t49 112.5q0 22 -7 57h13 q22 -90 22 -178q0 -62 -11.5 -114.5t-36.5 -99.5t-72.5 -73.5t-112.5 -26.5q-64 0 -124.5 27t-108 65.5t-94.5 77.5t-102 66t-112 27q-59 0 -97 -27t-52 -74q-15 -63 4 -139h-17q-20 75 -5 141.5t71 126.5q36 40 104 90t129.5 94t121 97t95 120.5t35.5 143.5q0 97 -55 152 t-152 55q-143 0 -200 -117q54 -12 90.5 -55t36.5 -103q0 -68 -46.5 -113.5t-113.5 -45.5q-70 0 -115 48.5t-45 113.5z" />
<glyph horiz-adv-x="1253" d="M80 8q0 72 47.5 127t122.5 55q72 0 122 -51.5t50 -126.5q0 -63 -35.5 -111t-91.5 -63q60 -92 201 -92q144 0 219.5 90.5t75.5 241.5q0 298 -318 307q-68 1 -112.5 -11t-45.5 -12q-13 0 -24.5 9t-11.5 22t10 23t26 10q7 0 22 -6.5t48.5 -12.5t87.5 -4q76 3 132 31t87 75 t45.5 100.5t14.5 115.5q0 134 -66 212.5t-182 78.5q-126 0 -193 -94q59 -12 97 -60t38 -112q0 -74 -48.5 -123t-123.5 -49q-77 0 -122.5 51t-45.5 123q0 124 136 205t366 81q234 0 374 -86t140 -235q0 -81 -43.5 -143.5t-120.5 -100t-175.5 -56t-215.5 -18.5h-20v-10h20 q125 0 230 -18.5t188 -56t129.5 -101t46.5 -147.5q0 -83 -45.5 -149.5t-123.5 -108t-178.5 -63t-215.5 -21.5q-234 0 -376 81t-142 203z" />
<glyph horiz-adv-x="1269" d="M31 84l176 152q97 83 159 206.5t62 251.5q0 212 -172 342q100 4 198.5 -10t185 -45t140.5 -88.5t54 -132.5q0 -64 -38.5 -122.5t-107 -109.5t-140.5 -95t-163 -100.5t-149 -103.5l-173 -137h627v178l334 308h10v-486q59 1 96 7t52.5 12t23.5 6q18 0 28.5 -10t10.5 -23 t-12.5 -22t-26.5 -9q-7 0 -24 5.5t-54.5 10.5t-93.5 5v-107q0 -55 9.5 -93.5t25.5 -61t43.5 -35t55.5 -16t71 -3.5v-12h-778v12q59 0 98.5 9.5t70.5 34t45.5 70t14.5 114.5v90h-655z" />
<glyph horiz-adv-x="1222" d="M70 12q0 75 48.5 128t125.5 53q76 0 122 -50.5t46 -124.5q0 -65 -35 -113t-90 -63q59 -94 176 -94q95 0 165 55.5t103 141.5t33 188q0 148 -73.5 244t-217.5 96q-122 0 -266 -78q-6 -27 -10 -38.5t-13.5 -21t-25.5 -9.5q-29 0 -29 28q0 34 64 56l53 606q26 -1 100 -5.5 t119 -7t121 -4t127.5 0.5t115.5 8t107 17t81.5 30t57.5 45q29 -98 29 -160q0 -72 -27.5 -124.5t-74.5 -80.5t-98.5 -40.5t-110.5 -12.5q-118 0 -230.5 49t-310.5 170l-45 -487q97 47 185.5 71.5t199.5 24.5q106 0 201 -23.5t172.5 -69.5t123.5 -122.5t46 -173.5 q0 -127 -77.5 -218t-204 -134t-286.5 -43q-224 0 -360.5 81t-136.5 205z" />
<glyph d="M92 604q0 150 43.5 276t124.5 217t202 142t271 51q199 0 322 -81.5t123 -202.5q0 -74 -45.5 -125.5t-122.5 -51.5q-75 0 -123.5 49t-48.5 123q0 58 30 102.5t80 63.5q-58 107 -174 107t-197 -99t-115 -256.5t-26 -349.5q27 111 114.5 175.5t229.5 64.5q191 0 316 -111.5 t125 -289.5q0 -190 -145.5 -311.5t-393.5 -121.5q-126 0 -227.5 34.5t-168 93t-111 139.5t-64 171t-19.5 191zM432 377q0 -172 61.5 -280.5t172.5 -108.5q52 0 92.5 27.5t64 69.5t38.5 100t20.5 111t5.5 110q0 165 -48 263.5t-149 98.5q-43 0 -85.5 -19.5t-82.5 -62 t-65 -122.5t-25 -187z" />
<glyph horiz-adv-x="1105" d="M92 461v551h21l12 -350h4q7 68 14.5 114.5t24 99.5t39 85t60 53.5t87.5 21.5q57 0 114.5 -27t105.5 -66t95 -78t99.5 -66t101.5 -27q45 0 81.5 24t56 58.5t29.5 65.5t10 51q0 23 -3 41h21q2 -10 2 -33q-1 -72 -27.5 -142t-87 -173.5t-75.5 -133.5q-89 -179 -139.5 -360 t-61.5 -424h-350q11 114 48 218.5t116 217.5t122.5 166t153.5 176q27 32 41 47q15 17 54.5 59t60 65t49 61t47.5 73l-6 5q-33 -49 -54 -75.5t-56 -58t-77 -45.5t-96 -14q-47 0 -192.5 21.5t-221.5 21.5q-51 0 -84.5 -8.5t-61 -31.5t-42 -68t-18.5 -115h-17z" />
<glyph horiz-adv-x="1366" d="M92 328q0 49 14.5 92.5t50.5 85.5t91.5 74t142 54.5t197.5 29.5q-227 15 -343 95.5t-116 211.5q0 145 141.5 232t413.5 87q271 0 412 -87t141 -232q0 -131 -116 -211.5t-343 -95.5q110 -7 196.5 -29.5t142 -54.5t91.5 -74t51 -86t15 -92q0 -53 -17 -101t-60 -95t-108 -81 t-169 -55t-236 -21t-236.5 21t-170 55t-108.5 81t-60 95t-17 101zM463 326q0 -170 61 -253t160 -83q97 0 158 83.5t61 252.5t-60.5 250t-158.5 81q-99 0 -160 -81t-61 -250zM500 973q0 -301 184 -301q182 0 182 301q0 303 -182 303q-184 0 -184 -303z" />
<glyph d="M92 612q0 187 144.5 306.5t390.5 119.5q155 0 272.5 -51.5t186 -141t102 -199.5t33.5 -238q0 -144 -41.5 -267t-120 -216.5t-201.5 -147t-276 -53.5q-200 0 -323.5 81.5t-123.5 202.5q0 74 45.5 125t122.5 51q75 0 123.5 -49t48.5 -123q0 -57 -31 -102t-82 -64 q56 -106 181 -106q63 0 115.5 27.5t86.5 73.5t61 107.5t39.5 129t22 137.5t8.5 134t-2 118q-28 -111 -114.5 -175.5t-231.5 -64.5q-187 0 -311.5 104t-124.5 281zM426 631q0 -78 13 -140.5t34.5 -101.5t50.5 -65.5t59 -37t62 -10.5q33 0 64 11t61.5 38t53 68.5t36.5 107 t14 148.5q0 171 -58 273t-167 102q-65 0 -111.5 -38t-69.5 -101t-32.5 -125t-9.5 -129z" />
<glyph horiz-adv-x="2295" d="M-4 45q0 92 48.5 167t126 120t174 65t192.5 9q-126 -38 -188 -132.5t-62 -220.5q0 -146 77 -241t220 -95q55 0 106 16.5t91.5 42t81 69t69.5 83.5t63 100.5t56 105t53 110.5l465 1007h-236q-138 0 -214.5 -79.5t-76.5 -192.5q0 -59 22.5 -119.5t59.5 -103.5 q-133 10 -216 79t-83 169q0 121 121.5 191.5t325.5 70.5h330l483 -990q26 -54 50.5 -94.5t57.5 -82.5t73 -64.5t83 -22.5v-12h-770v12q73 0 108 39.5t33 98t-34 126.5l-64 132h-416l-76 -164q-96 -207 -147 -289q-111 -175 -262 -237q-99 -40 -227 -40q-141 0 -254 45 t-178.5 129.5t-65.5 192.5zM1214 428h400l-201 426z" />
<glyph horiz-adv-x="1851" d="M18 1004q0 121 121.5 191.5t325.5 70.5h704q560 0 560 -301q0 -144 -131 -223.5t-408 -79.5v-9q582 0 582 -315q0 -154 -137.5 -246t-415.5 -92h-762v12q96 0 130 42t34 167v1030h-95q-138 0 -214 -79.5t-76 -192.5q0 -60 22 -120t59 -103q-133 10 -216 79t-83 169z M975 14h147q72 0 127 28.5t85.5 77t45.5 104.5t15 118q0 61 -14.5 113t-46 96.5t-88.5 70t-134 25.5h-137v-633zM975 662h88q147 0 218 80.5t71 220.5q0 54 -11 101.5t-35.5 91.5t-72 69.5t-113.5 25.5h-145v-589z" />
<glyph horiz-adv-x="1433" d="M76 627q0 196 98 348t268.5 233.5t384.5 81.5q131 0 237.5 -31.5t171 -82.5t98.5 -110.5t34 -119.5q0 -74 -47.5 -129t-122.5 -55q-72 0 -122 51.5t-50 126.5q0 64 36.5 112t94.5 62q-41 73 -116.5 118.5t-178.5 45.5q-88 0 -158 -37t-115.5 -98.5t-76 -147t-43 -178 t-12.5 -196.5q0 -94 10.5 -178t38 -169.5t70.5 -147t114.5 -100t163.5 -38.5q106 0 185 46t122 118q-58 15 -93.5 62.5t-35.5 111.5q0 75 50 126.5t122 51.5q76 0 123 -55.5t47 -133.5q0 -47 -18.5 -93.5t-60.5 -91.5t-103.5 -79t-155.5 -55t-207 -21q-176 0 -319.5 50 t-238 138t-145 206.5t-50.5 257.5z" />
<glyph horiz-adv-x="2009" d="M18 1004q0 121 121.5 191.5t325.5 70.5h709q354 0 554.5 -169.5t200.5 -463.5t-200.5 -463.5t-554.5 -169.5h-717v12q96 0 130 42t34 167v1030h-95q-138 0 -214 -79.5t-76 -192.5q0 -60 22 -120t59 -103q-133 10 -216 79t-83 169zM975 14h145q96 0 171.5 36t123 95 t79 140.5t44 167t12.5 180.5q0 94 -12.5 179.5t-44 167t-79 140.5t-122.5 95t-170 36h-147v-1237z" />
<glyph horiz-adv-x="1732" d="M18 1004q0 121 121.5 191.5t325.5 70.5h1122l31 -432l-8 -3q-20 91 -59 165.5t-98 132.5t-143.5 90t-187.5 32h-147v-612h63q77 0 140.5 26t106.5 71.5t71 98.5t43 115h8v-633h-8q-16 61 -43.5 113.5t-70.5 97.5t-106.5 71t-140.5 26h-63v-611h158q362 0 495 451l8 -2 l-39 -463h-1140v12q96 0 130 42t34 167v1030h-95q-138 0 -214 -79.5t-76 -192.5q0 -60 22 -120t59 -103q-133 10 -216 79t-83 169z" />
<glyph horiz-adv-x="1654" d="M18 1004q0 121 121.5 191.5t325.5 70.5h1112l31 -432l-9 -3q-42 186 -168.5 303t-318.5 117h-137v-633h53q77 0 140.5 26t106.5 72t70.5 99t43.5 115h8v-633h-8q-15 61 -43 113.5t-71 97.5t-106.5 70.5t-140.5 25.5h-53v-362q0 -71 13.5 -117.5t42 -70.5t63 -33t86.5 -9 v-12h-723v12q96 0 130 42t34 167v1030h-95q-138 0 -214 -79.5t-76 -192.5q0 -60 22 -120t59 -103q-133 10 -216 79t-83 169z" />
<glyph horiz-adv-x="1622" d="M76 610q0 129 43 239.5t119 190.5t178 137t220.5 85t246.5 28q130 0 239 -29t179.5 -76.5t109.5 -107t39 -121.5q0 -71 -44.5 -128.5t-123.5 -57.5q-73 0 -123.5 51.5t-50.5 126.5q0 63 34.5 110t90.5 62q-45 70 -129 113t-193 43q-117 0 -206 -53t-142 -147 t-79.5 -212.5t-26.5 -259.5q0 -96 12 -181.5t41.5 -166.5t75 -139.5t117.5 -93.5t163 -35q121 0 244 57v334q0 126 -38.5 174.5t-139.5 48.5v12h682v-12q-96 0 -130 -42t-34 -167v-524q0 -83 -45 -156t-123 -126.5t-170 -92.5t-199 -65l-4 6q41 22 73 46.5t53 47.5t35.5 53 t22.5 52.5t12 57t4.5 57.5t0.5 61v184q-130 -19 -252 -19q-192 0 -342.5 48t-245.5 134t-144.5 201t-49.5 252z" />
<glyph horiz-adv-x="2473" d="M6 61q0 90 47 161t124.5 112.5t173 60t196.5 11.5q-250 -78 -250 -355q0 -75 18 -137.5t54.5 -112.5t99 -78t145.5 -28q186 0 284.5 142.5t98.5 424.5v989h-94q-138 0 -214.5 -79.5t-76.5 -192.5q0 -59 22.5 -119.5t59.5 -103.5q-133 10 -216 79t-83 169 q0 121 121.5 191.5t325.5 70.5h674v-13q-96 0 -130 -42t-34 -167v-397h549v397q0 125 -34 167t-130 42v13h682v-13q-96 0 -130 -42t-34 -167v-823q0 -125 34 -167t130 -42v-12h-682v12q96 0 130 42t34 167v408h-549v-367q0 -143 -54 -255t-151.5 -183.5t-232 -108.5 t-298.5 -37q-290 0 -450 106.5t-160 276.5z" />
<glyph horiz-adv-x="1193" d="M18 1004q0 121 121.5 191.5t325.5 70.5h674v-13q-96 0 -130 -42t-34 -167v-823q0 -125 34 -167t130 -42v-12h-682v12q96 0 130 42t34 167v1030h-95q-138 0 -214 -79.5t-76 -192.5q0 -60 22 -120t59 -103q-133 10 -216 79t-83 169z" />
<glyph horiz-adv-x="1556" d="M6 61q0 90 47 161t124.5 112.5t173 60t196.5 11.5q-250 -78 -250 -355q0 -75 18 -137.5t54.5 -112.5t99 -78t145.5 -28q186 0 284.5 142.5t98.5 424.5v989h-94q-138 0 -214.5 -79.5t-76.5 -192.5q0 -59 22.5 -119.5t59.5 -103.5q-133 10 -216 79t-83 169 q0 121 121.5 191.5t325.5 70.5h674v-13q-96 0 -130 -42t-34 -167v-782q0 -143 -54 -255t-151.5 -183.5t-232 -108.5t-298.5 -37q-290 0 -450 106.5t-160 276.5z" />
<glyph horiz-adv-x="1886" d="M18 1004q0 121 121.5 191.5t325.5 70.5h674v-13q-96 0 -130 -42t-34 -167v-520l325 322q203 200 203 313q0 94 -153 94v13h583v-13q-147 0 -309 -127q-94 -74 -299 -278l-12 -12l377 -570q8 -12 43.5 -66t53 -80.5t57 -83t66 -89.5t69.5 -84t76.5 -81.5t78.5 -67.5 t84.5 -57t85 -34t88.5 -14q54 0 129 31l4 -11q-175 -84 -364 -84q-127 0 -236 35.5t-201.5 107t-169 160.5t-155.5 213l-336 527l-88 -86v-281q0 -125 34 -167t130 -42v-12h-682v12q96 0 130 42t34 167v1030h-95q-138 0 -214 -79.5t-76 -192.5q0 -60 22 -120t59 -103 q-133 10 -216 79t-83 169z" />
<glyph horiz-adv-x="1267" d="M16 1004q0 121 121.5 191.5t325.5 70.5h715v-13q-52 0 -86.5 -8.5t-63 -32.5t-42 -70.5t-13.5 -117.5v-1255q148 -52 360 -185q27 -17 89 -57.5t93.5 -60t87 -50t95 -45.5t90.5 -27t98 -12q154 0 247 103.5t93 267.5q0 114 -47 203q152 -52 229.5 -145t77.5 -201 q0 -134 -110.5 -227t-296.5 -93q-68 0 -139 15.5t-123.5 34t-129.5 60t-116 65.5t-126.5 80.5t-119.5 76.5q-197 123 -383.5 193.5t-388.5 70.5q-36 0 -98 -4v14q98 0 130.5 38t32.5 161v1206h-94q-138 0 -214.5 -79.5t-76.5 -192.5q0 -59 22.5 -119.5t59.5 -103.5 q-133 10 -216 79t-83 169z" />
<glyph horiz-adv-x="2744" d="M2 47q0 94 48.5 170t127 119.5t174 62t191.5 7.5q-250 -81 -250 -347q0 -146 76.5 -235.5t226.5 -89.5q98 0 185 41.5t153.5 116.5t109.5 186.5t52 245.5l63 927h-239q-138 0 -214.5 -79.5t-76.5 -192.5q0 -59 22.5 -119.5t59.5 -103.5q-133 10 -216 79t-83 169 q0 121 121 191.5t325 70.5h608l387 -801l345 801h458v-13q-100 0 -134 -66t-28 -202l37 -698q8 -149 46.5 -212t140.5 -63v-12h-703v12q98 0 134 61.5t28 192.5l-45 793l-451 -1043h-8l-508 1031l-49 -723q-21 -302 -175.5 -474t-436.5 -172q-220 0 -361 101.5t-141 267.5z " />
<glyph horiz-adv-x="2287" d="M2 49q0 93 48.5 168t126.5 118.5t173.5 62.5t192.5 8q-250 -81 -250 -345q0 -146 79 -236.5t230 -90.5q98 0 185.5 41.5t153 116t104 187t38.5 245.5v927h-143q-138 0 -214.5 -79.5t-76.5 -192.5q0 -59 22.5 -119.5t59.5 -103.5q-133 10 -216 79t-83 169 q0 121 121.5 191.5t325.5 70.5h438l708 -734v267q0 88 -4 149t-14.5 115.5t-28.5 87.5t-48 57.5t-71.5 34.5t-99.5 10v13h553v-13q-58 0 -99.5 -10t-71.5 -34.5t-48 -57.5t-28.5 -87.5t-14.5 -115.5t-4 -149v-815l-10 -2l-932 972v-630q0 -298 -154.5 -472t-439.5 -174 q-222 0 -365 102t-143 269z" />
<glyph horiz-adv-x="1605" d="M78 635q0 151 57 275t157 207t236 128t293 45q93 0 174 -16t146 -47.5t103 -85t38 -123.5q0 -82 -52.5 -141.5t-129.5 -86t-166 -26.5q-50 0 -105 10q98 32 152.5 101.5t54.5 171.5q0 98 -53 163.5t-172 65.5q-352 0 -352 -639q0 -647 344 -647q80 0 141.5 36.5t99 95 t61.5 141t33 164.5t9 175q0 50 -4 94t-4 54q194 87 194 270q0 48 -20 100q102 -88 158.5 -211t56.5 -274t-58 -277t-157 -209t-230.5 -128.5t-279.5 -45.5t-279.5 45.5t-230.5 128.5t-157 209t-58 277z" />
<glyph horiz-adv-x="1761" d="M18 1004q0 121 121.5 191.5t325.5 70.5h704q120 0 215 -20t158.5 -54.5t105.5 -82.5t60 -102t18 -116t-18 -115t-60 -100.5t-105.5 -81t-158.5 -53t-215 -19.5h-122v13h38q62 0 110 22.5t76.5 57.5t46 84t24 95t6.5 97t-6 97.5t-24 96t-46.5 85t-76.5 58.5t-110 23h-110 v-1030q0 -125 34 -167t130 -42v-12h-682v12q96 0 130 42t34 167v1030h-95q-138 0 -214 -79.5t-76 -192.5q0 -60 22 -120t59 -103q-133 10 -216 79t-83 169z" />
<glyph horiz-adv-x="1581" d="M57 688q0 171 90 308t256 215.5t379 78.5q164 0 302 -48t229.5 -130.5t142.5 -193t51 -234.5q0 -76 -20 -145.5t-52.5 -125.5t-85 -107t-105.5 -90.5t-126.5 -77t-136 -63.5t-145.5 -53.5t-143.5 -45.5t-141.5 -39q128 36 287 36q156 0 260.5 -50t253.5 -183 q91 -81 138.5 -121.5t118 -94t118.5 -78t108 -42.5t119 -18q72 0 130.5 26t123.5 86l8 -6q-39 -45 -76 -78t-97.5 -73t-141.5 -62t-175 -22q-93 0 -180.5 22t-166.5 64t-142 86.5t-135 105.5q-53 46 -130.5 118t-120 108.5t-100 78t-110 59t-109.5 17.5t-104.5 -19 t-78.5 -38t-46 -19q-14 0 -23.5 9t-9.5 22q0 20 23.5 27t76.5 12.5t89 15.5q30 8 116 39q93 34 164.5 71t147.5 98.5t125.5 136.5t81.5 186.5t32 247.5q0 61 -6 120.5t-20 126.5t-40.5 123t-63.5 102t-93 72.5t-125 26.5q-78 0 -140 -35t-101 -89.5t-64.5 -127.5t-36 -143.5 t-10.5 -141.5q0 -231 105.5 -369.5t273.5 -138.5q48 0 104 17q-115 -92 -297 -92q-125 0 -230.5 42t-176 114t-109.5 169t-39 207z" />
<glyph horiz-adv-x="1933" d="M18 1004q0 121 121.5 191.5t325.5 70.5h715q294 0 432.5 -90t138.5 -248q0 -66 -23 -117.5t-66 -85t-92.5 -56.5t-116.5 -35.5t-122.5 -18.5t-124.5 -9v-8h82q87 0 146 -9t104 -26.5t83 -56t68.5 -84.5t73.5 -125q25 -47 65 -124.5t65 -126t63.5 -115t69 -108.5t74 -88.5 t86 -72.5t96 -43.5t112.5 -17.5q40 0 105 14l2 -8q-149 -62 -332 -62q-82 0 -156 17.5t-131 44.5t-110.5 71t-90 84t-75 97t-61.5 97.5t-52 96.5q-52 100 -184 379q-46 96 -66 119q-33 39 -100 44q-14 1 -31 1h-137v-375q0 -125 34 -167t130 -42v-12h-682v12q96 0 130 42 t34 167v1030h-95q-138 0 -214 -79.5t-76 -192.5q0 -60 22 -120t59 -103q-133 10 -216 79t-83 169zM975 608h153q68 0 120 29t81 76.5t43 102t14 112.5q0 63 -14 117t-44 102t-87 76t-135 28h-131v-643z" />
<glyph horiz-adv-x="1222" d="M82 266q0 74 49.5 128.5t124.5 54.5q73 0 122.5 -51.5t49.5 -125.5q0 -65 -38.5 -112.5t-98.5 -59.5q47 -48 122.5 -79t170.5 -31q133 0 202.5 61t69.5 156q0 61 -31.5 110t-82.5 80t-116.5 62t-134 56t-134 61.5t-116.5 79t-82.5 109t-31.5 150.5q0 181 137 278t365 97 q212 0 342.5 -78.5t130.5 -199.5q0 -72 -45 -124t-121 -52q-73 0 -120.5 48t-47.5 120q0 63 35 109t92 61q-93 104 -254 104q-120 0 -181 -56.5t-61 -140.5q0 -53 25 -95.5t67.5 -72.5t97.5 -56.5t116 -51t122 -51t116 -62t97.5 -78.5t67.5 -105.5t25 -139.5 q0 -190 -145 -292t-388 -102q-228 0 -373 82.5t-145 208.5z" />
<glyph horiz-adv-x="1646" d="M14 1049q0 78 58.5 131.5t152.5 77.5t217 24q142 0 426 -43t361 -43q78 0 134 21.5t86 59t43 78t13 87.5q0 123 -98 221q65 -8 123 -26t111 -47.5t84.5 -76t31.5 -104.5q0 -116 -119.5 -175.5t-308.5 -59.5q-141 0 -313 26v-958q0 -71 13.5 -117.5t42 -70.5t63 -33 t86.5 -9v-12h-764v12q52 0 86.5 9t63 33t42 70.5t13.5 117.5v1011q-101 9 -119 9q-78 0 -134.5 -21.5t-86 -59t-43 -78t-13.5 -87.5q0 -126 99 -221q-65 8 -123.5 26t-111.5 47.5t-84.5 76t-31.5 104.5z" />
<glyph horiz-adv-x="1839" d="M16 1004q0 121 121.5 191.5t325.5 70.5h637v-13q-93 0 -128.5 -55.5t-35.5 -185.5v-664q0 -336 293 -336q76 0 140 23.5t114.5 71t79 127.5t28.5 186v379q0 88 -4 149t-14.5 115.5t-28.5 87.5t-48 57.5t-71.5 34.5t-99.5 10v13h553v-13q-58 0 -99.5 -10t-71.5 -34.5 t-48 -57.5t-28.5 -87.5t-14.5 -115.5t-4 -149v-379q0 -222 -121.5 -333.5t-360.5 -111.5q-119 0 -216.5 27.5t-173 82t-117 145t-41.5 208.5v813h-58q-138 0 -214.5 -79.5t-76.5 -192.5q0 -59 22.5 -119.5t59.5 -103.5q-133 10 -216 79t-83 169z" />
<glyph horiz-adv-x="1329" d="M-49 1253v13h770v-13q-73 -2 -107.5 -43.5t-32 -99t30.5 -121.5l295 -661q65 108 113 199t95.5 198t73 208.5t25.5 188.5q0 164 -97 246.5t-298 58.5q97 203 271 203q111 0 176 -80.5t65 -226.5q0 -76 -20 -167t-49.5 -174.5t-79 -186.5t-92 -181t-105 -181.5 t-102 -164.5t-99.5 -153.5t-82 -126.5h-18l-469 1001q-18 38 -25 52.5t-26 50t-31.5 51.5t-34.5 41.5t-42 37.5t-47.5 21.5t-57.5 9.5z" />
<glyph horiz-adv-x="2031" d="M-45 1253v13h709v-13q-40 0 -66.5 -13.5t-37 -35t-11.5 -51.5t6 -60t20 -63l242 -604l201 504l-23 59q-44 116 -109 190t-147 74v13h744v-13q-56 0 -89.5 -24.5t-43 -64.5t-4.5 -84.5t22 -90.5l250 -661q276 490 276 788q0 174 -98.5 254t-296.5 57q97 203 270 203 q111 0 176.5 -81t65.5 -230q0 -84 -23.5 -188t-56.5 -197.5t-89 -211.5t-99.5 -200.5t-110.5 -195.5t-99.5 -165t-88.5 -140q-14 -23 -21 -33h-18l-375 913l-368 -913h-15l-430 1001q-49 111 -81 156q-77 108 -181 108z" />
<glyph horiz-adv-x="2314" d="M14 131q0 93 48.5 168t126.5 118.5t173.5 62t192.5 7.5q-126 -38 -188 -132t-62 -220q0 -141 75.5 -227t217.5 -86q46 0 92.5 10.5t86 26t83 42.5t76.5 51t72.5 61t64.5 63t60 66.5t51.5 61t46 58t37.5 47.5l172 213l-301 463q-81 125 -157.5 196.5t-164.5 71.5v13h797 v-13q-71 0 -101.5 -35.5t-23.5 -83.5t39 -98l168 -258l59 76q129 165 129 270q0 62 -40.5 95.5t-112.5 33.5v13h608v-13q-148 0 -326 -153q-107 -91 -248 -262l-61 -74l315 -485q174 -267 332 -267v-12h-795v12q88 0 112 59t-36 156l-182 279l-164 -205q-149 -185 -203 -244 q-179 -194 -358 -259q-106 -38 -225 -38q-206 0 -346 103t-140 268z" />
<glyph horiz-adv-x="1302" d="M-45 1253v13h752v-13q-92 0 -114 -62.5t32 -148.5l270 -448q155 182 226 305.5t71 243.5q0 148 -103.5 228.5t-291.5 55.5q97 203 268 203q111 0 177.5 -80.5t66.5 -216.5q0 -329 -408 -751v-340q0 -71 13.5 -117.5t42 -70.5t63 -33t86.5 -9v-12h-764v12q52 0 86.5 9 t63 33t42 70.5t13.5 117.5v260l-348 555q-123 196 -244 196z" />
<glyph horiz-adv-x="1239" d="M10 -164l791 1415h-228q-75 0 -144.5 -26.5t-123.5 -70.5t-99 -103t-75.5 -121.5t-50.5 -128.5l-10 2l39 463h1101l4 -4l-815 -1448q217 -61 492 -230q33 -20 112 -70.5t118 -72.5t101 -53t115 -43.5t107 -12.5q154 0 247 103.5t93 267.5q0 114 -47 203 q152 -52 229.5 -145t77.5 -201q0 -134 -111 -227t-297 -93q-68 0 -138.5 15.5t-125.5 35.5t-128.5 59t-118.5 66.5t-127 80t-124 77.5q-97 59 -175.5 100t-177 81t-201.5 60.5t-209 20.5q-71 0 -99 -4z" />
<glyph horiz-adv-x="1177" d="M-233 1608q0 89 58.5 163.5t151.5 123t211 73.5q-131 -137 -131 -344q0 -111 36.5 -201t96.5 -151.5t145.5 -107t176 -70.5t195.5 -39v14q7 127 56 226.5t127 159.5t173.5 91t200.5 31q72 0 127 -15t88 -38.5t53.5 -57t27.5 -65.5t7 -68q0 -296 -535 -313v-836 q0 -89 23.5 -130.5t99.5 -41.5v-12h-438v109q-111 -132 -277 -132q-115 0 -201 63.5t-128.5 163.5t-42.5 218q0 125 48 225.5t148.5 163.5t239.5 63q115 0 203 -47v207q-261 30 -476 114.5t-339.5 205.5t-124.5 254zM408 434q0 -167 47 -269t135 -102q61 0 117 56v637 q-22 44 -55 72t-74 28q-49 0 -84.5 -43t-53 -112t-25 -135t-7.5 -132zM1032 1038q514 16 514 295q0 102 -65 162.5t-172 60.5q-277 0 -277 -434v-84z" />
<glyph horiz-adv-x="1177" d="M-1053 1481q0 72 33.5 137t96 115.5t160.5 80t218 29.5q130 0 271 -34t280.5 -95.5t257 -122t264 -139t238.5 -121.5q65 109 183.5 167t250.5 58q121 0 178.5 -47.5t57.5 -128.5q0 -88 -64.5 -137t-185.5 -49q-78 0 -154 18v-1028q0 -89 23.5 -130.5t99.5 -41.5v-12h-438 v109q-111 -132 -277 -132q-115 0 -201 63.5t-128.5 163.5t-42.5 218q0 125 48 225.5t148.5 163.5t239.5 63q115 0 203 -47v269q0 122 49 215q-89 41 -220 111.5t-235 125.5t-222.5 109.5t-234 84.5t-219.5 30q-175 0 -281 -86t-106 -240q0 -79 34 -166t118 -162 q-192 14 -317.5 116t-125.5 247zM408 434q0 -167 47 -269t135 -102q61 0 117 56v637q-22 44 -55 72t-74 28q-49 0 -84.5 -43t-53 -112t-25 -135t-7.5 -132zM1032 1231q80 -21 154 -21q113 0 171 48t58 122q0 68 -47 113t-131 45q-58 0 -97.5 -22t-62 -65t-33 -95.5 t-12.5 -124.5z" />
<glyph horiz-adv-x="1206" d="M-1778 1548q0 67 29 129.5t84.5 114t146 82.5t203.5 31q144 0 300 -51t306.5 -137t288 -176t300.5 -192.5t288 -162.5q45 183 186 276.5t336 93.5q90 0 156.5 -20t103 -55t53.5 -76t17 -90q0 -127 -106 -197.5t-281 -70.5q-67 0 -160 14v-344q157 157 330 157 q113 0 185.5 -69t72.5 -211v-410q0 -89 23.5 -130.5t99.5 -41.5v-12h-551v12q60 0 81 43t21 129v447q0 72 -29 106.5t-79 34.5q-76 0 -154 -74v-514q0 -89 23.5 -130.5t99.5 -41.5v-12h-571v12q76 0 99 41.5t23 130.5v830q0 82 15 149q-125 58 -277.5 152.5t-278.5 179 t-257.5 164t-260.5 127t-241 47.5q-88 0 -154.5 -28t-104.5 -76t-56.5 -105.5t-18.5 -122.5q0 -190 131 -321q-194 43 -308 138t-114 230zM473 1079q85 -16 162 -16q166 0 265 68.5t99 183.5q0 99 -73 160t-189 61q-69 0 -118 -24t-77 -61.5t-44 -98t-20.5 -116.5t-4.5 -134 v-23z" />
<glyph horiz-adv-x="1171" d="M-1190 -655q0 135 114 230t308 138q-131 -131 -131 -321q0 -65 18.5 -122.5t56.5 -105.5t104.5 -76t154.5 -28q112 0 241 47.5t260.5 127t257.5 164t278.5 179t277.5 152.5q-15 68 -15 149v752q0 72 -29 106.5t-79 34.5q-76 0 -154 -74v-514q0 -89 23.5 -130.5 t99.5 -41.5v-12h-571v12q76 0 99 41.5t23 130.5v959q0 89 -23 130.5t-99 41.5v12l448 41v-651q157 157 330 157q113 0 185.5 -69t72.5 -211v-762q93 14 160 14q175 0 281 -70.5t106 -197.5q0 -49 -17 -90.5t-53.5 -76.5t-103 -55t-156.5 -20q-195 0 -335.5 94t-186.5 277 q-125 -60 -288 -162.5t-300.5 -192.5t-288 -176t-306.5 -137t-300 -51q-113 0 -203.5 31t-146 82.5t-84.5 114t-29 129.5zM1061 -186v-23q0 -78 4.5 -134t20.5 -116.5t44 -98t77 -61.5t118 -24q116 0 189 61t73 160q0 115 -99 183.5t-265 68.5q-77 0 -162 -16z" />
<glyph horiz-adv-x="620" d="M-1778 1548q0 67 29 129.5t84.5 114t146 82.5t203.5 31q144 0 300 -51t306.5 -137t288 -176t300.5 -192.5t288 -162.5q45 183 186 276.5t336 93.5q90 0 156.5 -20t103 -55t53.5 -76t17 -90q0 -127 -106 -197.5t-281 -70.5q-67 0 -160 14v-877q0 -89 23.5 -130.5 t99.5 -41.5v-12h-571v12q76 0 99 41.5t23 130.5v830q0 82 15 149q-125 58 -277.5 152.5t-278.5 179t-257.5 164t-260.5 127t-241 47.5q-88 0 -154.5 -28t-104.5 -76t-56.5 -105.5t-18.5 -122.5q0 -190 131 -321q-194 43 -308 138t-114 230zM473 1079q85 -16 162 -16 q166 0 265 68.5t99 183.5q0 99 -73 160t-189 61q-69 0 -118 -24t-77 -61.5t-44 -98t-20.5 -116.5t-4.5 -134v-23z" />
<glyph horiz-adv-x="620" d="M-399 1303q0 103 88 178t262 75q96 0 177 -21t148 -64.5t113.5 -114t67.5 -164.5q124 61 287.5 164t300.5 191.5t287.5 173.5t305 134.5t297.5 49.5q113 0 203.5 -31t146 -82.5t84.5 -114t29 -129.5q0 -135 -114 -230t-308 -138q131 131 131 321q0 65 -18.5 122.5 t-56 105.5t-104 76t-154.5 28q-111 0 -239.5 -46.5t-260 -125t-257.5 -162t-279 -178t-277 -152.5q12 -65 12 -141v-844q0 -89 23.5 -130.5t99.5 -41.5v-12h-571v12q76 0 99 41.5t23 130.5v881q-85 -18 -174 -18q-176 0 -274 65t-98 191zM-379 1303q0 -115 92 -177.5 t258 -62.5q88 0 176 18v35q0 46 -0.5 75t-3 69.5t-7 66.5t-13 58t-21 52t-30.5 40.5t-42 32t-55.5 19t-70.5 7.5q-117 0 -200 -67t-83 -166z" />
<glyph horiz-adv-x="1038" d="M-240 -369q0 50 23.5 90t61.5 63t80.5 34.5t86.5 11.5q138 0 348 -133q65 104 158 299l-348 666q-93 178 -186 178v12h608v-12q-74 0 -91.5 -47t21.5 -127l156 -322l67 152q66 151 66 229q0 115 -119 115v12h391v-12q-70 0 -120 -37t-93 -101q-11 -16 -20.5 -32.5 t-21 -39t-19 -38.5t-23.5 -51t-26 -56l-221 -481q-88 -193 -164 -315q68 -44 179.5 -125.5t197 -140.5t189 -120.5t207 -94.5t200.5 -33q94 0 166 31.5t112 83.5t60 111.5t20 123.5q0 177 -131 282q117 -15 212.5 -62.5t152.5 -125.5t57 -172q0 -49 -15 -96t-50.5 -92.5 t-88.5 -79.5t-134 -55t-181 -21q-114 0 -231.5 29t-211.5 71t-201.5 107t-182.5 119.5t-175.5 128t-160.5 112.5q-77 -116 -161.5 -174.5t-197.5 -58.5t-179.5 53.5t-66.5 140.5zM-219 -369q0 -79 61.5 -128.5t165.5 -49.5t184.5 57.5t155.5 170.5q-201 133 -336 133 q-92 0 -161.5 -48.5t-69.5 -134.5z" />
<glyph horiz-adv-x="1290" d="M-66 0v10q29 0 56.5 7t50.5 17t46 30.5t40 37t37.5 47t33.5 51t32.5 58t30 59t30.5 62.5l336 706h12l448 -847q24 -46 46.5 -81.5t52.5 -71.5t65 -55.5t72 -19.5v-10h-715v10q66 0 97 32t28 81t-31 110l-53 117h-352l-4 -8q-32 -63 -36.5 -122.5t16.5 -106.5t73 -75 t129 -28v-10h-541zM303 367h336l-166 358z" />
<glyph horiz-adv-x="1353" d="M63 0v10q83 0 113.5 36t30.5 138v707q0 102 -30.5 138t-113.5 36v10h658q256 0 384 -66t128 -192q0 -121 -122 -187.5t-380 -66.5v-8q541 -3 541 -268q0 -131 -127 -209t-379 -78h-703zM547 12h123q64 0 112 24t74.5 65.5t39.5 89.5t13 102q0 53 -12 96.5t-38.5 81 t-77 59t-119.5 21.5h-115v-539zM547 563h67q129 0 192.5 68.5t63.5 189.5q0 36 -5 67.5t-18.5 64.5t-34.5 56.5t-57 38.5t-83 15h-125v-500z" />
<glyph horiz-adv-x="1325" d="M82 528q0 258 189 413t495 155q50 0 116 -5t112.5 -8.5t103.5 -1.5t104 13l33 -375h-8q-163 366 -430 366q-78 0 -140 -31t-100.5 -82.5t-64 -123.5t-36 -147t-10.5 -160q0 -108 17.5 -201t55.5 -174.5t107.5 -128.5t164.5 -47q149 0 266 107.5t196 287.5l7 -2l-64 -352 q-192 -51 -408 -51q-177 0 -313.5 41.5t-221.5 116t-128 173t-43 217.5z" />
<glyph horiz-adv-x="1490" d="M63 0v10q83 0 113.5 36t30.5 138v707q0 102 -30.5 138t-113.5 36v10h658q322 0 505 -143.5t183 -392.5q0 -250 -182.5 -394.5t-505.5 -144.5h-658zM547 12h123q105 0 181 44.5t116.5 122t58.5 166t18 194.5q0 82 -10.5 154t-37 141.5t-67.5 119t-107 79.5t-150 30h-125 v-1051z" />
<glyph horiz-adv-x="1232" d="M63 0v10q83 0 113.5 36t30.5 138v707q0 102 -30.5 138t-113.5 36v10h1031l28 -360l-8 -2q-37 158 -148 254t-286 96h-133v-520h59q131 0 211 72.5t111 187.5h6v-529h-6q-30 113 -110.5 184.5t-211.5 71.5h-59v-518h139q93 0 169.5 32t129 88.5t87 118.5t58.5 136l7 -2 l-35 -385h-1039z" />
<glyph horiz-adv-x="1165" d="M63 0v10q83 0 113.5 36t30.5 138v707q0 102 -30.5 138t-113.5 36v10h1020l29 -362h-8q-36 154 -153 252t-281 98h-123v-537h51q129 0 209 73t111 187h6v-530h-6q-31 113 -111 185.5t-209 72.5h-51v-313q0 -111 47 -151t137 -40v-10h-668z" />
<glyph horiz-adv-x="1495" d="M80 522q0 133 58 243.5t156 181.5t224 110t266 39q46 0 117.5 -5t125.5 -8.5t118.5 -1.5t111.5 13l33 -359l-8 -2q-45 118 -124 200t-164.5 117t-174.5 35q-99 0 -173 -46t-117 -126.5t-64 -179.5t-21 -215q0 -105 17.5 -194.5t56 -167t109.5 -122t168 -44.5 q101 0 213 53v279q0 104 -34.5 145t-121.5 41v10h627v-10q-83 0 -114.5 -35.5t-31.5 -136.5v-283q-281 -73 -538 -73q-175 0 -312.5 41.5t-224.5 115t-132.5 171.5t-45.5 214z" />
<glyph horiz-adv-x="1572" d="M63 0v10q83 0 113.5 36t30.5 138v707q0 102 -30.5 138t-113.5 36v10h627v-10q-82 0 -112.5 -36t-30.5 -138v-340h479v340q0 101 -31 137.5t-112 36.5v10h626v-10q-82 0 -112.5 -36t-30.5 -138v-707q0 -102 30.5 -138t112.5 -36v-10h-626v10q81 0 112 36.5t31 137.5v351 h-479v-351q0 -102 30.5 -138t112.5 -36v-10h-627z" />
<glyph horiz-adv-x="753" d="M63 0v10q83 0 113.5 36t30.5 138v707q0 102 -30.5 138t-113.5 36v10h627v-10q-82 0 -112.5 -36t-30.5 -138v-707q0 -102 30.5 -138t112.5 -36v-10h-627z" />
<glyph horiz-adv-x="737" d="M20 -285q44 21 76 44t51 50.5t30 49t15.5 57t5.5 55t1 60.5v860q0 101 -31 137.5t-111 36.5v10h627v-10q-83 0 -114 -36t-31 -138v-813q0 -56 -30 -107t-79 -90.5t-117 -73.5t-139.5 -57.5t-150.5 -40.5z" />
</font>
</defs>
</svg>
