<?xml version="1.0" standalone="no"?>
<!DOCTYPE svg PUBLIC "-//W3C//DTD SVG 1.1//EN" "http://www.w3.org/Graphics/SVG/1.1/DTD/svg11.dtd" >
<svg xmlns="http://www.w3.org/2000/svg" xmlns:xlink="http://www.w3.org/1999/xlink" version="1.1">
<metadata></metadata>
<defs>
<font id="majesti_banner_boldregular" horiz-adv-x="1271" >
<font-face units-per-em="2048" ascent="1536" descent="-512" />
<missing-glyph horiz-adv-x="454" />
<glyph unicode="fi" horiz-adv-x="1302" d="M29 817v27h172v90q0 187 133.5 301.5t359.5 114.5q188 0 296 -74t108 -170q0 -65 -43.5 -111.5t-108.5 -46.5q-61 0 -104 45.5t-43 110.5q0 50 27 90t71 55q-28 41 -78 64.5t-110 23.5q-109 0 -168.5 -71t-59.5 -183v-239h418l244 22v-696q0 -83 27 -120.5t106 -37.5v-12 h-545v12q79 0 106 37.5t27 120.5v492q0 79 -25 117t-94 38h-264v-643q0 -97 46.5 -129.5t140.5 -32.5v-12h-631v12q85 0 124.5 37.5t39.5 124.5v643h-172z" />
<glyph unicode="fl" horiz-adv-x="1302" d="M29 817v27h172v112q0 184 125 289t338 105q205 0 317 -97l154 115h8v-1198q0 -83 27 -120.5t106 -37.5v-12h-545v12q79 0 106 37.5t27 120.5v797q-43 14 -69.5 52t-26.5 89q0 49 27 87.5t71 53.5q-59 88 -178 88q-101 0 -154 -70.5t-53 -183.5v-239h234v-27h-234v-643 q0 -97 46.5 -129.5t140.5 -32.5v-12h-631v12q85 0 124.5 37.5t39.5 124.5v643h-172z" />
<glyph unicode="fj" horiz-adv-x="1280" d="M29 817v27h172v90q0 187 133.5 301.5t359.5 114.5q188 0 296 -74t108 -170q0 -65 -43.5 -111.5t-108.5 -46.5q-61 0 -104 45.5t-43 110.5q0 50 27 90t71 55q-28 41 -78 64.5t-110 23.5q-109 0 -168.5 -71t-59.5 -183v-239h418l244 22v-825q0 -65 -28.5 -122.5t-72.5 -99 t-106.5 -77.5t-120 -59t-123.5 -43l-6 8q51 27 85.5 59.5t52.5 61t27.5 71t11 71t1.5 79.5v672q0 79 -25 117t-94 38h-264v-643q0 -97 46.5 -129.5t140.5 -32.5v-12h-631v12q85 0 124.5 37.5t39.5 124.5v643h-172z" />
<glyph unicode="fy" horiz-adv-x="1683" d="M29 817v27h172v135q0 178 113 274.5t286 96.5q83 0 149 -23t104 -59.5t57.5 -77.5t19.5 -82q0 -61 -40.5 -101t-96.5 -40q-59 0 -98.5 40.5t-39.5 100.5q0 51 28.5 89t74.5 50q-34 90 -123 90q-73 0 -113.5 -59t-40.5 -164v-270h750v-13q-170 0 -88 -176l164 -360l69 162 q82 191 82 264q0 110 -125 110v13h391v-13q-126 0 -211 -131q-13 -20 -29 -51t-25.5 -52.5t-33 -75.5t-32.5 -75l-222 -489q-144 -313 -342 -313q-110 0 -110 86q0 46 36 68t91.5 28.5t113.5 13t111.5 33t77.5 76.5l20 45l-325 651q-23 46 -37 69.5t-38.5 51.5t-55 39.5 t-72.5 11.5h-160v-643q0 -97 46.5 -129.5t140.5 -32.5v-12h-631v12q85 0 124.5 37.5t39.5 124.5v643h-172z" />
<glyph unicode=" "  horiz-adv-x="454" />
<glyph unicode="&#x09;" horiz-adv-x="454" />
<glyph unicode="&#xa0;" horiz-adv-x="454" />
<glyph unicode="!" horiz-adv-x="526" d="M94 1118q0 77 48.5 124.5t119.5 47.5q72 0 122 -46.5t50 -125.5q0 -44 -20.5 -109.5t-47 -134t-55 -196t-41.5 -275.5h-14q-13 148 -41.5 275.5t-54.5 196t-46 134t-20 109.5zM104 141q0 66 47 113t113 47t113 -47t47 -113t-47 -112.5t-113 -46.5t-113 46.5t-47 112.5z " />
<glyph unicode="&#x22;" horiz-adv-x="788" d="M74 1161q0 55 35 92t100 37q62 0 97.5 -36t35.5 -91q0 -40 -20.5 -99.5t-53 -150.5t-51.5 -178h-16q-20 87 -53 178t-53.5 150t-20.5 98zM446 1161q0 55 35.5 92t98.5 37q62 0 98.5 -36t36.5 -91q0 -40 -21 -100t-54 -150.5t-52 -177.5h-17q-24 102 -74.5 240t-50.5 186z " />
<glyph unicode="#" horiz-adv-x="1093" d="M68 369v20h190l109 492h-203v18h207l82 367h22l-82 -367h430l82 367h23l-82 -367h180v-18h-184l-109 -492h197v-20h-203l-82 -369h-22l82 369h-431l-81 -369h-23l82 369h-184zM281 389h430l108 492h-430z" />
<glyph unicode="$" horiz-adv-x="1155" d="M82 266q0 65 41 111.5t108 46.5t111.5 -44.5t44.5 -109.5q0 -58 -34.5 -101t-86.5 -54q81 -123 299 -123v520q-168 67 -208 87q-159 78 -211 186q-31 65 -31 147q0 165 118 260t332 98v135h21v-135q201 -3 321.5 -82.5t120.5 -195.5q0 -68 -41 -113t-108 -45t-111.5 44 t-44.5 110q0 54 31.5 95.5t81.5 55.5q-79 115 -250 115v-469q19 -8 58 -23q82 -31 124.5 -49.5t110 -58t101.5 -78.5t61.5 -101t27.5 -137q0 -173 -126 -277.5t-357 -105.5v-190h-21v190q-216 3 -349.5 88t-133.5 203zM332 1061q0 -91 59 -145.5t174 -102.5v461 q-116 -6 -174.5 -67t-58.5 -146zM586 -8q133 10 197.5 78.5t64.5 162.5q0 54 -20 96.5t-60.5 74.5t-80.5 53.5t-101 46.5v-512z" />
<glyph unicode="%" horiz-adv-x="1531" d="M66 946q0 81 30 147.5t80 107.5t111.5 63t126.5 22q90 0 170.5 -41.5t126.5 -118.5q57 -14 118 -14q74 0 169.5 22.5t175.5 59.5q11 16 20 45t19 45t28 16q15 0 24 -9.5t9 -24.5q0 -29 -26 -51.5t-56 -34.5l-889 -1198l-16 14l874 1173q-170 -75 -327 -75q-67 0 -111 12 q37 -72 37 -160q0 -80 -30 -145.5t-80 -106.5t-111 -63.5t-125 -22.5q-65 0 -126.5 22t-111 63.5t-80 107t-30.5 145.5zM285 946q0 -74 5.5 -129t19.5 -100.5t40 -69.5t64 -24q37 0 63 24t40 69.5t20 101t6 128.5q0 185 -39 262q-37 29 -68 60q-18 6 -22 6q-38 0 -64 -24.5 t-40 -71t-19.5 -102t-5.5 -130.5zM770 317q0 81 30.5 146.5t80 106.5t111 63t126.5 22q64 0 125 -22t111 -63t80 -107t30 -146t-30 -146t-80 -106.5t-111 -62.5t-125 -22q-65 0 -126.5 22t-111.5 62.5t-80 106t-30 146.5zM989 317q0 -74 5.5 -129.5t19.5 -101.5t40 -70 t64 -24q71 0 100 86t29 239t-29 239.5t-100 86.5q-38 0 -64 -24t-40 -70.5t-19.5 -102t-5.5 -129.5z" />
<glyph unicode="&#x26;" horiz-adv-x="1599" d="M84 295q0 52 20.5 96.5t53 76.5t85 61t102.5 49t120 43l-47 47q-83 82 -127.5 156.5t-44.5 156.5q0 144 132.5 226.5t336.5 82.5q196 0 305.5 -73.5t109.5 -184.5q0 -39 -14 -72.5t-41.5 -58.5t-56.5 -44.5t-71.5 -36t-73 -26.5t-74 -22.5t-62.5 -19.5l418 -406 q40 99 51 182q3 37 -0.5 59t-22 43.5t-62.5 31.5t-115 10v14h473v-14q-54 0 -91 -7t-61 -18.5t-40.5 -34.5t-27.5 -47t-26 -63q-4 -11 -6 -17q-27 -81 -60 -151l201 -193q77 -75 124 -101t112 -26v-14h-494l-109 104q-152 -129 -407 -129q-225 0 -367.5 87.5t-142.5 232.5z M369 338q0 -150 85.5 -240t241.5 -90q165 0 293 109l-514 495q-106 -91 -106 -274zM526 1073q0 -67 33.5 -124t116.5 -136l53 -53q170 105 170 295q0 61 -17 109t-60 80t-107 32q-89 0 -139 -56.5t-50 -146.5z" />
<glyph unicode="'" horiz-adv-x="415" d="M74 1161q0 55 35 92t100 37q62 0 97.5 -36t35.5 -91q0 -40 -20.5 -99.5t-53 -150.5t-51.5 -178h-16q-20 87 -53 178t-53.5 150t-20.5 98z" />
<glyph unicode="(" horiz-adv-x="692" d="M66 537q0 94 20 182t51 157t79 136.5t93 115t106 99.5t104.5 83.5t101 73t84.5 62.5l6 -8q-52 -39 -101 -91t-100 -134t-88.5 -177t-61.5 -225t-24 -274t24 -274.5t61.5 -226t88.5 -177t100 -133.5t101 -91l-6 -8q-26 20 -84.5 61.5t-101 72.5t-104 83.5t-106 100 t-93.5 115.5t-79.5 136.5t-50.5 157t-20 183.5z" />
<glyph unicode=")" horiz-adv-x="692" d="M-18 -365q52 39 101 91t100 133.5t89 177t62 226t24 274.5t-24 274t-62 225t-89 177t-100 134t-101 91l6 8q27 -21 84.5 -62.5t101 -73t104.5 -83.5t106 -99.5t93 -115t79 -136.5t51 -157t20 -182q0 -95 -20 -183.5t-50.5 -157t-79.5 -136.5t-93.5 -115.5t-106 -100 t-104 -83.5t-101 -72.5t-84.5 -61.5z" />
<glyph unicode="*" horiz-adv-x="866" d="M110 826.5q9 35.5 44 54.5q17 11 49 15.5t89.5 10t113.5 19.5l6 -8q-40 -42 -74 -88t-53.5 -72t-38.5 -37q-28 -20 -65.5 -11.5t-59.5 46.5q-20 35 -11 70.5zM111 1042.5q-10 32.5 12 75.5q19 35 54 45t69 -10q18 -11 38 -37t54 -72t74 -88l-6 -10q-56 14 -113 20t-89 10 t-50 15q-33 19 -43 51.5zM340 666q0 22 13 51.5t36.5 81.5t40.5 108h8q17 -56 40.5 -108t36.5 -82t13 -51q0 -39 -26.5 -65t-67.5 -26q-44 0 -69 27t-25 64zM340 1208q0 37 25 63.5t69 26.5q41 0 67.5 -25.5t26.5 -64.5q0 -22 -13 -51.5t-36.5 -81.5t-40.5 -108h-8 q-17 56 -40.5 108t-36.5 81.5t-13 51.5zM459 918l4 8q56 -14 113.5 -19.5t90 -10t50.5 -15.5q33 -19 42 -54.5t-11 -70.5q-22 -38 -58.5 -46.5t-66.5 11.5q-19 11 -38.5 37t-53 72t-72.5 88zM459 956q39 42 73 88t53.5 72t37.5 37q32 20 67.5 10t54.5 -45q22 -43 12.5 -75.5 t-42.5 -51.5q-18 -11 -50 -15t-89 -10t-113 -20z" />
<glyph unicode="+" horiz-adv-x="1060" d="M76 494v18h444v446h21v-446h444v-18h-444v-447h-21v447h-444z" />
<glyph unicode="," horiz-adv-x="520" d="M78 -274q101 37 175.5 121t80.5 184q-43 -31 -90 -31q-62 0 -106 44t-44 106t47 106.5t115 44.5q74 0 119 -53.5t45 -136.5q0 -117 -89.5 -229t-246.5 -165z" />
<glyph unicode="-" horiz-adv-x="774" d="M117 442v78h540v-78h-540z" />
<glyph unicode="." horiz-adv-x="505" d="M94 141q0 66 47 113t113 47t112 -47t46 -113t-46 -112.5t-112 -46.5t-113 46.5t-47 112.5z" />
<glyph unicode="/" horiz-adv-x="897" d="M47 -328l784 1760l19 -9l-787 -1759z" />
<glyph unicode="0" horiz-adv-x="1284" d="M96 633q0 191 64 339t189.5 233t293.5 85t292.5 -85t188.5 -233t64 -339t-64 -339t-189 -233.5t-292 -85.5q-168 0 -293.5 85.5t-189.5 233.5t-64 339zM414 633q0 -97 5.5 -181t20.5 -172t40 -149.5t66.5 -101t96.5 -39.5q67 0 114.5 57t71 156t33.5 203t10 227 q0 96 -5.5 180.5t-21 172t-40.5 149.5t-66.5 101.5t-95.5 39.5q-55 0 -96.5 -39.5t-66 -101.5t-40 -150t-21 -172t-5.5 -180z" />
<glyph unicode="1" horiz-adv-x="833" d="M66 1114v10q302 27 520 146l10 -4v-1053q0 -64 12 -104t39.5 -61t62.5 -28.5t91 -7.5v-12h-723v12q121 0 172 45t51 170v779q0 57 -19 82.5t-73 25.5h-143z" />
<glyph unicode="2" horiz-adv-x="1202" d="M86 958q0 57 33 114.5t93 106.5t157.5 80t214.5 31q133 0 240.5 -38t174 -117t66.5 -187q0 -75 -33.5 -134t-92 -99t-130.5 -73.5t-156 -66t-162.5 -66.5t-155.5 -86t-128 -114q-45 -58 -60 -108q63 151 291 151q86 0 229 -36.5t210 -36.5q194 0 194 172q0 31 -10 79h14 q25 -115 25 -204q0 -67 -12.5 -125.5t-38.5 -109.5t-74 -81t-113 -30q-67 0 -128 32t-109 77.5t-94.5 91.5t-102.5 78t-115 32q-85 0 -130.5 -56.5t-43.5 -146.5q0 -44 13 -88h-21q-24 105 -7.5 183t79.5 151q45 56 123 118.5t146.5 114.5t134 115t104.5 144.5t39 177.5 q0 120 -60.5 193t-179.5 73q-174 0 -248 -160q59 -9 97 -54t38 -108q0 -68 -44.5 -114t-110.5 -46q-69 0 -112.5 50.5t-43.5 119.5z" />
<glyph unicode="3" horiz-adv-x="1208" d="M84 256q0 68 44.5 118t111.5 50q65 0 110 -47.5t45 -114.5q0 -58 -34 -103t-87 -57q60 -106 220 -106q149 0 225 92.5t76 241.5q0 150 -81.5 228t-238.5 81q-66 1 -110.5 -10t-45.5 -11q-13 0 -24.5 9t-11.5 22t10 23t26 10q8 0 22.5 -6.5t47.5 -13t86 -5.5 q143 6 212 96.5t69 225.5q0 132 -66 211.5t-186 79.5q-140 0 -209 -109q55 -11 90 -54.5t35 -102.5q0 -66 -45.5 -111t-112.5 -45q-68 0 -109.5 45.5t-41.5 114.5q0 120 130 201t345 81q217 0 352 -84.5t135 -234.5q0 -152 -143.5 -234t-370.5 -84h-14v-8h14q115 0 212 -18 t175.5 -55.5t123 -101.5t44.5 -148q0 -111 -77 -191.5t-196.5 -118t-265.5 -37.5q-219 0 -355 82t-136 199z" />
<glyph unicode="4" horiz-adv-x="1220" d="M29 340l188 180q87 79 149 202.5t62 250.5q0 206 -162 315q129 4 244 -22t193.5 -87.5t78.5 -148.5q0 -58 -34 -112.5t-95 -104.5t-125 -94t-147 -101t-137 -104l-185 -166h611v199l282 268h11v-467q58 1 94.5 7t52 12t23.5 6q18 0 28 -10t10 -23t-12 -22t-26 -9 q-7 0 -24 5.5t-54 10.5t-92 5v-117q0 -64 12 -104t39.5 -61t62 -28.5t90.5 -7.5v-12h-721v12q121 0 172.5 45.5t51.5 169.5v105h-637z" />
<glyph unicode="5" horiz-adv-x="1175" d="M72 258q0 69 44 117.5t113 48.5t111.5 -46t42.5 -114q0 -61 -34 -105t-87 -55q63 -108 203 -108q77 0 137.5 32.5t96.5 87t54.5 121.5t18.5 140q0 156 -78 250t-225 94q-121 0 -262 -74q-7 -36 -16.5 -52.5t-32.5 -16.5q-29 0 -29 28q0 34 64 56l55 604q26 -1 110 -5.5 t132.5 -6t129.5 -3t134.5 3.5t112.5 14.5t98 28t59 45.5q33 -87 33 -149q0 -61 -23.5 -106t-64 -69t-87 -35t-100.5 -11q-115 0 -237.5 45.5t-290.5 138.5l-47 -491q89 42 172.5 64t187.5 22q143 0 259.5 -42t190 -131t73.5 -210q0 -122 -73.5 -213t-195.5 -136t-274 -45 q-212 0 -343.5 81.5t-131.5 201.5z" />
<glyph unicode="6" horiz-adv-x="1269" d="M96 606q0 196 71 349.5t211 244t329 90.5q187 0 303 -81.5t116 -198.5q0 -69 -42 -116.5t-111 -47.5q-67 0 -111.5 45.5t-44.5 112.5q0 55 30.5 97t80.5 56q-56 117 -187 117q-78 0 -140.5 -42t-102.5 -112t-65.5 -164t-34 -195t-3.5 -208q27 116 117.5 184t232.5 68 q186 0 307.5 -114.5t121.5 -287.5q0 -186 -140.5 -307t-374.5 -121q-122 0 -219.5 36t-160.5 96t-105 142.5t-60 171t-18 185.5zM395 381q0 -106 27 -193.5t85 -143.5t138 -56q64 0 112.5 37.5t74.5 100t38.5 131.5t12.5 144q0 106 -21 185.5t-70.5 129.5t-123.5 50 q-50 0 -96.5 -21t-87.5 -64.5t-65.5 -121t-23.5 -178.5z" />
<glyph unicode="7" horiz-adv-x="1038" d="M80 762v504h20l11 -330h2q7 64 14.5 108t23 93.5t37.5 79.5t57.5 49.5t82.5 19.5q56 0 111.5 -26t100.5 -63.5t89 -75t94.5 -63.5t99.5 -26q44 0 79 22t53.5 54.5t28 63t9.5 53.5q0 29 -2 41h21q2 -10 2 -35q-1 -49 -18.5 -103.5t-37 -92.5t-55 -100.5t-51.5 -94.5 q-106 -206 -160 -396.5t-67 -443.5h-310q5 56 16.5 109.5t33 108t40 97.5t53.5 99.5t56.5 91t67.5 95t67.5 88.5t75 94.5t72.5 90.5q13 16 43.5 49.5t48 53t40 50.5t38.5 60l-6 3q-20 -31 -35 -50.5t-38.5 -43t-47 -37t-57 -22.5t-72.5 -9q-53 0 -196 26.5t-218 26.5 q-102 0 -148.5 -48.5t-50.5 -170.5h-18z" />
<glyph unicode="8" horiz-adv-x="1306" d="M96 326q0 64 25.5 119t78.5 102t146.5 78t218.5 39q-212 15 -322 96t-110 211q0 144 135 231.5t385 87.5q249 0 385 -87.5t136 -231.5q0 -130 -111 -211t-322 -96q124 -8 217 -39t146.5 -77.5t79.5 -102t26 -119.5q0 -55 -18 -104.5t-60.5 -95t-105 -78.5t-158.5 -53 t-215 -20t-215 20t-158.5 53t-105 78.5t-60.5 95t-18 104.5zM414 324q0 -160 62 -247t177 -87q114 0 177 87.5t63 246.5q0 158 -63 245.5t-177 87.5q-115 0 -177 -87t-62 -246zM449 973q0 -141 50 -221t154 -80q102 0 153.5 80.5t51.5 220.5q0 142 -51 222.5t-154 80.5 q-104 0 -154 -80.5t-50 -222.5z" />
<glyph unicode="9" horiz-adv-x="1269" d="M96 866q0 185 140 304.5t372 119.5q120 0 217.5 -35.5t161 -95t107 -141.5t62 -170.5t18.5 -185.5q0 -141 -40 -265t-115.5 -218.5t-193.5 -149t-264 -54.5q-190 0 -307 81.5t-117 197.5q0 69 42.5 116.5t111.5 47.5q67 0 111 -45t44 -111q0 -55 -31 -97t-81 -56 q59 -119 196 -119q67 0 121 28t89.5 75t63 109t40.5 131t22 140t7.5 136t-1.5 120q-27 -117 -116 -184.5t-234 -67.5q-184 0 -305 108t-121 281zM387 879q0 -177 64.5 -267t166.5 -90q48 0 91 20.5t80 62t59 115.5t22 171q0 166 -62.5 275.5t-180.5 109.5q-64 0 -112.5 -36 t-75.5 -96.5t-39.5 -127t-12.5 -137.5z" />
<glyph unicode=":" horiz-adv-x="534" d="M109 141q0 66 45.5 113t111.5 47t113 -47t47 -113t-47 -112.5t-113 -46.5t-111.5 46.5t-45.5 112.5zM109 684q0 66 45.5 112t111.5 46t113 -46t47 -112t-47 -113t-113 -47t-111.5 47t-45.5 113z" />
<glyph unicode=";" horiz-adv-x="552" d="M98 -274q101 37 175.5 121t80.5 184q-43 -31 -90 -31q-61 0 -105 44t-44 106t46.5 106.5t114.5 44.5q74 0 119 -53.5t45 -136.5q0 -117 -89.5 -229t-246.5 -165zM115 684q0 66 46.5 112t112.5 46t112 -46t46 -112t-46 -113t-112 -47t-112.5 47t-46.5 113z" />
<glyph unicode="&#x3c;" horiz-adv-x="958" d="M59 496v12l795 405v-22l-768 -389l768 -389v-23z" />
<glyph unicode="=" horiz-adv-x="1167" d="M129 270v21h911v-21h-911zM129 715v18h911v-18h-911z" />
<glyph unicode="&#x3e;" horiz-adv-x="958" d="M104 90v23l768 389l-768 389v22l795 -405v-12z" />
<glyph unicode="?" horiz-adv-x="1112" d="M66 985q0 120 132.5 212.5t348.5 92.5q224 0 360.5 -100.5t136.5 -247.5q0 -46 -17 -86t-41 -69t-66.5 -55.5t-76 -42t-88 -32.5t-84.5 -24.5t-83.5 -19.5t-67.5 -15l-8 -195h-12l-11 205q256 70 256 338q0 142 -66.5 235t-195.5 93q-85 0 -146 -38t-95 -99 q55 -9 91 -53.5t36 -104.5q0 -66 -44.5 -112t-107.5 -46q-66 0 -108.5 48t-42.5 116zM352 141q0 66 47 113t113 47t112 -47t46 -113t-46 -112.5t-112 -46.5t-113 46.5t-47 112.5z" />
<glyph unicode="@" horiz-adv-x="1642" d="M88 416q0 131 44 253.5t121 217t177 166t217.5 109.5t237.5 38q188 0 340 -91t235.5 -243t83.5 -331q0 -187 -91.5 -308t-248.5 -121q-217 0 -260 144q-135 -146 -289 -146q-114 0 -172.5 74t-58.5 193q0 87 32 168t89 143t141 99.5t182 37.5q128 0 179 -67l219 59l10 -8 l-111 -457q-16 -67 -16 -106q0 -107 86 -107q112 0 196.5 113t84.5 291q0 171 -81 315.5t-226 230.5t-322 86q-144 0 -275 -59.5t-225.5 -160t-150.5 -240.5t-56 -295q0 -133 42 -252t116.5 -207.5t185.5 -140.5t242 -52q120 0 239 40.5t216 113.5l8 -12 q-203 -164 -465 -164q-139 0 -263.5 51t-215.5 139.5t-144 215t-53 270.5zM662 352q0 -79 29 -127.5t87 -48.5q79 0 164 92q-4 12 -4 41q0 53 12 99l74 317q-32 70 -104 70q-58 0 -109 -46.5t-82 -115.5t-49 -144t-18 -137z" />
<glyph unicode="A" horiz-adv-x="1374" d="M-82 0v12q59 0 109.5 24t83.5 53t70 91.5t55 100.5t53 118q12 27 18 41l363 836h14l471 -995q26 -56 50 -97.5t57 -84t74.5 -65t88.5 -22.5v-12h-723v12q73 0 111 36q37 34 37 89q0 59 -33 137l-65 144h-433l-14 -37q-28 -77 -35 -141q-2 -20 -2 -38q0 -41 10 -78 q16 -53 67.5 -82.5t135.5 -29.5v-12h-563zM330 438h411l-211 465z" />
<glyph unicode="B" horiz-adv-x="1402" d="M57 0v12q106 0 140 41t34 160v840q0 119 -34 159.5t-140 40.5v13h678q539 0 539 -305q0 -294 -496 -302v-6q281 -4 409 -85t128 -232q0 -154 -130.5 -245t-404.5 -91h-723zM537 14h172q97 0 163 49t93.5 120.5t27.5 158.5q0 63 -16.5 116t-50.5 96.5t-93.5 68 t-138.5 24.5h-157v-633zM537 662h116q152 0 224.5 79t72.5 217q0 56 -12.5 104.5t-39.5 92.5t-79 70t-123 26h-159v-589z" />
<glyph unicode="C" horiz-adv-x="1413" d="M82 625q0 198 93.5 349.5t260.5 233.5t381 82q53 0 124 -6t120 -11q33 -3 71 -3h39q61 2 113 16l37 -432h-12q-89 221 -205 322.5t-266 101.5q-92 0 -165.5 -36.5t-121.5 -97t-80 -144.5t-45.5 -174.5t-13.5 -190.5q0 -101 13 -191.5t44 -175t77.5 -146t118.5 -98 t162 -36.5q170 0 297 122.5t213 331.5l11 -2l-70 -403q-84 -26 -208 -44t-239 -18q-179 0 -322.5 49t-236 137t-141.5 206t-49 258z" />
<glyph unicode="D" horiz-adv-x="1572" d="M57 0v12q106 0 140 41t34 160v840q0 119 -34 159.5t-140 40.5v13h686q346 0 545 -170t199 -463t-199 -463t-545 -170h-686zM537 14h168q98 0 176.5 34.5t129.5 93t85 139t48.5 167.5t14.5 185t-14.5 185t-48.5 167.5t-84.5 138.5t-128.5 92.5t-176 34.5h-170v-1237z" />
<glyph unicode="E" horiz-adv-x="1310" d="M57 0v12q106 0 140 41t34 160v840q0 119 -34 159.5t-140 40.5v13h1104l29 -414l-8 -2q-21 92 -57 162.5t-94.5 125.5t-145.5 84t-201 29h-147v-612h55q309 0 373 297h10v-606h-10q-63 295 -373 295h-55v-611h161q96 0 173.5 25t129 64t92.5 98.5t65 115.5t44 127l10 -2 l-38 -442h-1117z" />
<glyph unicode="F" horiz-adv-x="1232" d="M57 0v12q106 0 140 41t34 160v840q0 119 -34 159.5t-140 40.5v13h1096l31 -422l-10 -2q-43 191 -164 300t-334 109h-139v-630h47q166 0 254 80t120 221h9v-615h-9q-32 140 -120 219.5t-254 79.5h-47v-377q0 -129 46 -173t158 -44v-12h-684z" />
<glyph unicode="G" horiz-adv-x="1597" d="M82 616q0 155 61.5 283.5t166 213t241 131t287.5 46.5q50 0 126 -6t132 -11q37 -3 80 -3h44q67 3 119 16l37 -416l-10 -2q-52 141 -136 235t-175.5 133.5t-192.5 39.5q-93 0 -169 -36t-127.5 -97.5t-86.5 -146.5t-51 -181t-16 -203q0 -99 13.5 -187t46 -169.5 t81.5 -139.5t124.5 -93t170.5 -35q134 0 276 71v322q0 120 -38.5 166.5t-149.5 46.5v12h651v-12q-103 0 -136.5 -40t-33.5 -159v-332q-298 -88 -565 -88q-190 0 -339.5 50t-242 138t-140.5 203t-48 250z" />
<glyph unicode="H" horiz-adv-x="1660" d="M57 0v12q106 0 140 41t34 160v840q0 119 -34 159.5t-140 40.5v13h654v-13q-106 0 -140 -40.5t-34 -159.5v-404h587v404q0 119 -34 159.5t-140 40.5v13h652v-13q-106 0 -140.5 -40.5t-34.5 -159.5v-840q0 -119 34.5 -160t140.5 -41v-12h-652v12q106 0 140 41t34 160v418 h-587v-418q0 -119 34 -160t140 -41v-12h-654z" />
<glyph unicode="I" horiz-adv-x="768" d="M57 0v12q106 0 140 41t34 160v840q0 119 -34 159.5t-140 40.5v13h654v-13q-106 0 -140 -40.5t-34 -159.5v-840q0 -119 34 -160t140 -41v-12h-654z" />
<glyph unicode="J" horiz-adv-x="743" d="M14 -336q54 29 92.5 63t60 67t33.5 76t15.5 78.5t3.5 84.5v1020q0 119 -34 159.5t-140 40.5v13h653v-13q-106 0 -140 -40.5t-34 -159.5v-967q0 -81 -42.5 -151.5t-117 -122.5t-160.5 -90t-186 -64z" />
<glyph unicode="K" horiz-adv-x="1484" d="M57 0v12q106 0 140 41t34 160v840q0 119 -34 159.5t-140 40.5v13h654v-13q-106 0 -140 -40.5t-34 -159.5v-527l344 342q190 190 190 293q0 92 -158 92v13h580v-13q-152 0 -305 -120q-100 -77 -287 -267l-45 -45l430 -631q65 -95 121 -136.5t115 -41.5v-12h-480l-399 608 l-106 -106v-289q0 -119 34 -160t140 -41v-12h-654z" />
<glyph unicode="L" horiz-adv-x="1234" d="M57 0v12q106 0 140 41t34 160v840q0 119 -34 159.5t-140 40.5v13h684v-13q-112 0 -158 -45t-46 -172v-1022h127q111 0 201 34.5t150 96t99 137.5t60 169l8 -2l-31 -449h-1094z" />
<glyph unicode="M" horiz-adv-x="1890" d="M-10 0v12q68 0 113 15.5t79.5 51t56 104.5t35 164.5t23.5 242.5l25 317q3 36 3 68q0 129 -42 195q-52 84 -205 83v13h518l412 -856l362 856h432v-13q-109 1 -144 -61q-31 -54 -31 -161q0 -15 1 -32l37 -735q8 -138 47 -195t148 -57v-12h-670v12q106 0 142 57 q31 49 31 147q0 16 -1 34l-47 837l-451 -1060h-8l-504 1026l-37 -463q-9 -124 -11 -208v-39q0 -61 4 -113q6 -68 21.5 -107.5t43 -65.5t65 -35.5t92.5 -9.5v-12h-540z" />
<glyph unicode="N" horiz-adv-x="1480" d="M20 0v12q45 0 79 5.5t61.5 20.5t46 34.5t32.5 54.5t22 73t12.5 97.5t6 120.5t1.5 149v371q0 165 -53.5 240t-192.5 75v13h446l727 -801v233q0 89 -1.5 149t-6 120t-12.5 97.5t-21.5 73t-32.5 55t-46 34.5t-61 20.5t-79 5.5v13h543v-13q-60 0 -101.5 -10t-71.5 -38.5 t-47 -65.5t-26.5 -105.5t-12.5 -143t-3 -192.5v-712l-10 -2l-918 1009v-426q0 -118 3 -192.5t12.5 -143t26.5 -105.5t47 -65.5t71.5 -38.5t101.5 -10v-12h-543z" />
<glyph unicode="O" horiz-adv-x="1574" d="M82 633q0 189 91 339t252 234t363 84q150 0 281.5 -49t225 -135.5t147 -209t53.5 -263.5q0 -189 -91.5 -339.5t-253 -234.5t-362.5 -84q-202 0 -363 84t-252 234.5t-91 339.5zM410 633q0 -102 10.5 -190.5t37.5 -173.5t68.5 -144.5t108.5 -96t153 -36.5q72 0 130.5 24.5 t99 70t70 104t46 132.5t24 149.5t7.5 160.5t-7.5 160.5t-24 149.5t-46 132.5t-70 104t-99 70t-130.5 24.5q-87 0 -154 -36.5t-108.5 -96.5t-68 -145t-37 -173t-10.5 -190z" />
<glyph unicode="P" horiz-adv-x="1312" d="M57 0v12q106 0 140 41t34 160v840q0 119 -34 159.5t-140 40.5v13h672q144 0 251.5 -29t170.5 -81t93 -117t30 -144q0 -78 -30 -142t-93 -115t-170.5 -79.5t-251.5 -28.5h-108v15h43q64 0 114 20.5t81.5 54.5t52 80.5t28.5 94t8 100.5t-8 101.5t-28.5 96t-52 82 t-81.5 55.5t-114 21h-127v-1038q0 -119 34 -160t140 -41v-12h-654z" />
<glyph unicode="Q" horiz-adv-x="1574" d="M82 633q0 189 91 339t252 234t363 84q150 0 281.5 -49t225 -135.5t147 -209t53.5 -263.5q0 -181 -84.5 -327.5t-233.5 -232.5t-337 -96q61 -5 122.5 -28.5t113.5 -53t103.5 -58.5t110 -48.5t115.5 -19.5q126 0 199 102l8 -4q-34 -59 -64 -101.5t-72.5 -87.5t-94 -68.5 t-109.5 -23.5q-56 0 -122 23.5t-128.5 57.5t-125.5 68t-132.5 57.5t-130.5 23.5q-119 0 -223 -99l-9 7q12 12 51 54.5t55 58t52 47t62 45.5t64.5 28t78.5 18q-196 5 -351.5 90t-243 233.5t-87.5 334.5zM410 633q0 -102 10.5 -190.5t37.5 -173.5t68.5 -144.5t108.5 -96 t153 -36.5q72 0 130.5 24.5t99 70t70 104t46 132.5t24 149.5t7.5 160.5t-7.5 160.5t-24 149.5t-46 132.5t-70 104t-99 70t-130.5 24.5q-87 0 -154 -36.5t-108.5 -96.5t-68 -145t-37 -173t-10.5 -190z" />
<glyph unicode="R" horiz-adv-x="1466" d="M57 0v12q106 0 140 41t34 160v840q0 119 -34 159.5t-140 40.5v13h678q285 0 425 -88t140 -246q0 -77 -33.5 -134.5t-84 -91t-125 -55t-140 -30t-145.5 -11.5v-8q78 -1 137.5 -5.5t104.5 -15.5t76.5 -23t55 -35t37 -43t26.5 -56t20.5 -65t20.5 -79.5t26 -89.5 q32 -102 72 -140t129 -38v-12h-449q-33 54 -78 225q-47 195 -56 225q-30 91 -81 121q-48 29 -151 29h-125v-387q0 -119 34 -160t140 -41v-12h-654zM537 614h153q78 0 137.5 26.5t93 72t50 101t16.5 118.5q0 65 -17 120.5t-52 101t-96.5 71.5t-143.5 26h-141v-637z" />
<glyph unicode="S" horiz-adv-x="1187" d="M109 416l12 2q30 -78 56 -133.5t66 -115t84 -96t107 -60t139 -23.5q136 0 208.5 65t72.5 164q0 57 -25 102.5t-67.5 77t-97 58.5t-115.5 50.5t-121.5 49t-115 59t-97 75t-67.5 102.5t-25 137q0 170 121.5 265t351.5 95q53 0 115 -6q61 -4 103 -10q33 -4 73 -5q11 1 21 1 q52 2 102 12l22 -408l-10 -2q-25 61 -43.5 101.5t-47 93t-59 86t-69.5 64.5t-89 46t-108 15q-121 0 -184.5 -61t-63.5 -152q0 -54 25 -97.5t68 -74t98 -56.5t116 -50t122 -50t116 -60.5t98 -77t68 -105t25 -138.5q0 -181 -137 -281t-382 -100q-185 0 -446 54z" />
<glyph unicode="T" horiz-adv-x="1368" d="M57 813l33 453h1186l35 -453l-11 -2q-23 78 -45.5 134.5t-59.5 118t-82 99.5t-111.5 63t-149.5 25h-16v-1022q0 -129 46 -173t158 -44v-12h-714v12q112 0 158 44t46 173v1022h-16q-82 0 -148.5 -25t-111 -63t-82 -99.5t-60 -118t-46.5 -134.5z" />
<glyph unicode="U" horiz-adv-x="1441" d="M33 1253v13h653v-13q-103 0 -138.5 -51t-35.5 -174v-663q0 -357 305 -357q165 0 267 104t102 306v293q0 115 -3 189t-13.5 140t-27.5 102.5t-47.5 63.5t-71 37t-99.5 10v13h542v-13q-45 0 -79 -5.5t-61 -20.5t-46 -34t-32.5 -53.5t-21.5 -71t-12.5 -95t-6 -117.5 t-1.5 -145v-293q0 -219 -121 -331t-352 -112q-88 0 -165 16t-144 51t-114.5 87.5t-75 129.5t-27.5 173v596q0 123 -35.5 174t-138.5 51z" />
<glyph unicode="V" horiz-adv-x="1345" d="M-43 1253v13h719v-13q-76 -1 -113 -39q-36 -37 -36 -92q0 -57 32 -129l270 -628l164 409q76 194 76 299q0 84 -44 132t-136 48v13h532v-13q-90 0 -152 -43.5t-112 -130.5q-52 -87 -145 -313l-322 -776h-14l-451 997q-22 49 -36 77t-40.5 69.5t-51.5 63.5t-61.5 39 t-78.5 17z" />
<glyph unicode="W" horiz-adv-x="2023" d="M-41 1253v13h672v-13q-52 0 -83 -18q-32 -18 -40 -51q-5 -20 -5 -42q1 -14 3 -30q6 -39 24 -88l263 -655l217 551l-25 67q-49 125 -112 195.5t-150 70.5v13h698v-13q-57 0 -92 -22q-35 -21 -45 -59q-7 -26 -8 -56q0 -12 2 -26q4 -44 22 -97l228 -612l147 395 q70 189 70 299q0 178 -178 178v13h532v-13q-164 0 -266 -170q-46 -74 -129 -291q-7 -17 -10 -26l-301 -776h-13l-358 899l-360 -899h-15l-422 997q-15 34 -21.5 48.5t-24 49t-30 52t-35 43.5t-44 39.5t-50.5 23.5t-61 10z" />
<glyph unicode="X" horiz-adv-x="1454" d="M-55 0v12q152 0 325 160q115 106 250 287l82 106l-258 400q-42 66 -74 108.5t-76 88t-91 68.5t-97 23v13h739v-13q-58 0 -90 -21t-36 -55q-1 -8 -1 -17q0 -26 9 -56q12 -39 39 -80l172 -266l55 73q145 194 145 299q0 58 -39.5 90.5t-113.5 32.5v13h598v-13 q-154 0 -320 -147q-117 -102 -260 -291l-57 -72l291 -448q179 -283 344 -283v-12h-738v12q99 0 118 66q4 15 4 31q0 56 -50 131l-203 309l-77 -100q-136 -191 -136 -295q0 -67 47 -104.5t127 -37.5v-12h-628z" />
<glyph unicode="Y" horiz-adv-x="1386" d="M-33 1253v13h707v-13q-100 0 -123 -62q-6 -17 -6 -37q0 -51 43 -120l258 -428h2l125 215q123 209 123 301q0 131 -178 131v13h534v-13q-85 0 -147.5 -35t-118.5 -104q-67 -83 -197 -305l-127 -211v-354q0 -130 46.5 -181t158.5 -51v-12h-715v12q114 0 159.5 50.5 t45.5 181.5v264l-326 526q-65 107 -128.5 163t-135.5 56z" />
<glyph unicode="Z" horiz-adv-x="1282" d="M57 4l785 1245h-283q-88 0 -164 -36.5t-131 -99t-93.5 -136t-61.5 -156.5l-13 2l37 443h1063l4 -4l-790 -1246h329q72 0 136.5 26t112.5 68t89 99.5t67.5 116.5t45.5 123h12l-39 -449h-1104z" />
<glyph unicode="[" horiz-adv-x="659" d="M129 -344v1761h535v-12h-193q-96 0 -96 -88v-1563q0 -88 96 -88h193v-10h-535z" />
<glyph unicode="\" horiz-adv-x="897" d="M49 1423l17 9l784 -1760l-14 -8z" />
<glyph unicode="]" horiz-adv-x="659" d="M-2 -334h192q97 0 97 88v1563q0 88 -97 88h-192v12h532v-1761h-532v10z" />
<glyph unicode="^" horiz-adv-x="954" d="M80 690l391 610h12l391 -610l-8 -4l-389 358l-389 -358z" />
<glyph unicode="_" horiz-adv-x="1056" d="M0 -100h1057v-19h-1057v19z" />
<glyph unicode="`" horiz-adv-x="710" d="M164.5 1230q-8.5 43 19.5 75q28 34 72 33.5t84 -35.5q19 -16 46 -50.5t50.5 -69.5t67 -99.5t74.5 -108.5l-5 -4q-47 23 -119 56.5t-108.5 51t-75 38.5t-57.5 36q-40 34 -48.5 77z" />
<glyph unicode="a" horiz-adv-x="1083" d="M72 215q0 62 27 108.5t76 74.5t110.5 41.5t136.5 13.5q116 0 225 -31v211q0 50 -7 87t-24.5 69t-51 48.5t-83.5 16.5q-115 0 -182 -94q39 -17 62.5 -54t23.5 -79q0 -57 -40.5 -97.5t-98.5 -40.5q-62 0 -98.5 43.5t-36.5 100.5q0 98 108 165.5t277 67.5q64 0 123.5 -10 t116 -34.5t99 -60t68 -91t25.5 -123.5v-445q0 -63 55 -63q65 0 135 108l10 -6q-46 -74 -104.5 -117.5t-149.5 -43.5q-83 0 -137 38.5t-75 104.5q-106 -146 -297 -146q-132 0 -212.5 64.5t-80.5 173.5zM358 227q0 -86 34 -139t100 -53q83 0 155 94v277q-74 20 -121 20 q-168 0 -168 -199z" />
<glyph unicode="b" horiz-adv-x="1132" d="M4 1315v12l412 41v-639q114 137 282 137q115 0 199 -64t123 -161t39 -211q0 -94 -29.5 -175.5t-85 -144t-143 -98t-197.5 -35.5q-148 0 -242 70l-219 -67l-6 2v1177q0 83 -27 119.5t-106 36.5zM416 106q9 -44 44 -79t95 -35q58 0 101 38t66 101.5t33.5 133.5t10.5 147 q0 108 -19 190.5t-64.5 135.5t-113.5 53q-84 0 -153 -80v-605z" />
<glyph unicode="c" horiz-adv-x="989" d="M70 422q0 102 39 186.5t105.5 140.5t154 86.5t184.5 30.5q165 0 266 -82.5t101 -187.5q0 -66 -42.5 -106.5t-103.5 -40.5t-103 42.5t-42 102.5q0 55 33 95.5t86 49.5q-49 115 -162 115q-62 0 -108 -36t-71 -96t-37 -128t-12 -143q0 -202 74 -314t205 -112q89 0 161.5 50 t123.5 126l12 -8q-145 -216 -410 -216q-107 0 -194.5 36.5t-143.5 98.5t-86 142t-30 168z" />
<glyph unicode="d" horiz-adv-x="1150" d="M74 418q0 192 116 320t314 128q133 0 211 -61v354q0 87 -39 121.5t-125 34.5v12l442 41v-1198q0 -83 27 -120.5t106 -37.5v-12h-403v113q-111 -136 -279 -136q-112 0 -198 62.5t-129 162t-43 216.5zM367 430q0 -107 21.5 -190.5t68.5 -135t114 -51.5q81 0 144 74v596 q-16 53 -56.5 89t-93.5 36q-52 0 -92.5 -40.5t-62.5 -105t-32.5 -134t-10.5 -138.5z" />
<glyph unicode="e" horiz-adv-x="1026" d="M70 422q0 191 131 317.5t336 126.5q184 0 299.5 -107.5t119.5 -293.5h-598q0 -205 76 -322.5t215 -117.5q172 0 293 176l12 -8q-30 -42 -62.5 -74.5t-82.5 -67.5t-119 -54.5t-151 -19.5q-111 0 -202 37t-148.5 99t-88 141.5t-30.5 167.5zM360 481h320q-8 373 -150 373 q-42 0 -75.5 -34.5t-53 -91t-29.5 -119t-12 -128.5z" />
<glyph unicode="f" horiz-adv-x="737" d="M29 817v27h172v135q0 178 113 274.5t286 96.5q83 0 149 -23t104 -59.5t57.5 -77.5t19.5 -82q0 -61 -40.5 -101t-96.5 -40q-59 0 -98.5 40.5t-39.5 100.5q0 51 28.5 89t74.5 50q-34 90 -123 90q-73 0 -113.5 -59t-40.5 -164v-270h234v-27h-234v-643q0 -97 46.5 -129.5 t140.5 -32.5v-12h-631v12q85 0 124.5 37.5t39.5 124.5v643h-172z" />
<glyph unicode="g" horiz-adv-x="991" d="M31 -186q0 103 202 141q-60 19 -91 50t-31 85q0 126 182 195q-103 35 -161 107t-58 167q0 135 113 221t300 86q126 0 222 -41q24 47 51.5 104.5t38.5 79.5t26.5 43.5t32.5 32.5q23 17 50 17q7 0 15 -1q36 -6 58 -38q21 -25 21 -55v-6q-3 -33 -29 -58q-12 -11 -29 -22 t-45.5 -24.5t-48.5 -22.5t-63.5 -27.5t-65.5 -28.5q87 -40 134.5 -107t47.5 -153q0 -133 -113.5 -219t-302.5 -86q-93 0 -182 27q-51 -23 -51 -62q0 -28 39.5 -40.5t102 -14t138.5 -2t152.5 -9.5t139 -30.5t102 -71.5t39.5 -125q0 -134 -125 -208t-379 -74q-192 0 -312 43.5 t-120 126.5zM172 -164q0 -182 309 -182q78 0 138 11.5t94 29t56 40.5t29 43t7 40q0 43 -37.5 67t-102.5 31.5t-134 9t-150 6.5t-133 19q-76 -40 -76 -115zM350 559q0 -293 137 -293q138 0 138 293q0 295 -138 295q-137 0 -137 -295z" />
<glyph unicode="h" horiz-adv-x="1173" d="M25 0v12q79 0 106 37.5t27 120.5v989q0 83 -27 119.5t-106 36.5v12l413 41v-666q164 164 330 164q110 0 180 -68t70 -208v-420q0 -83 27 -120.5t106 -37.5v-12h-530v12q66 0 92 38.5t26 119.5v448q0 154 -123 154q-88 0 -178 -90v-512q0 -83 27 -120.5t106 -37.5v-12 h-546z" />
<glyph unicode="i" horiz-adv-x="612" d="M41 0v12q79 0 106 37.5t27 120.5v485q0 83 -27 120.5t-106 37.5v12l412 41v-696q0 -83 27 -120.5t106 -37.5v-12h-545zM139 1149q0 68 49 113t119 45t118 -45t48 -113q0 -70 -48 -115t-118 -45t-119 45.5t-49 114.5z" />
<glyph unicode="j" horiz-adv-x="585" d="M-8 -352q51 27 85.5 59.5t52.5 61t27.5 71t11 71t1.5 79.5v663q0 82 -34.5 120t-115.5 38v14l429 41v-825q0 -65 -28.5 -122.5t-72.5 -99t-106.5 -77.5t-120 -59t-123.5 -43zM137 1149q0 68 48 113t118 45t118 -45t48 -113q0 -70 -48 -115t-118 -45t-118 45t-48 115z" />
<glyph unicode="k" horiz-adv-x="1130" d="M25 0v12q79 0 106 37.5t27 120.5v989q0 83 -27 119.5t-106 36.5v12l413 41v-1001l178 176q136 133 136 207q0 81 -138 81v13h488v-13q-139 0 -268 -102q-70 -53 -136 -119l-14 -14l301 -455q83 -129 186 -129v-12h-411l-266 399l-56 -53v-176q0 -83 27 -120.5t106 -37.5 v-12h-546z" />
<glyph unicode="l" horiz-adv-x="598" d="M27 0v12q79 0 106 37.5t27 120.5v989q0 83 -27 119.5t-106 36.5v12l411 41v-1198q0 -83 27 -120.5t106 -37.5v-12h-544z" />
<glyph unicode="m" horiz-adv-x="1705" d="M39 0v12q79 0 106 37.5t27 120.5v485q0 83 -27 120.5t-106 37.5v12l397 41v-170q162 170 322 170q83 0 144 -43t83 -131q162 174 326 174q106 0 172.5 -68t66.5 -208v-420q0 -83 27 -120.5t106 -37.5v-12h-522v12q66 0 92.5 38.5t26.5 119.5v448q0 77 -31.5 115.5 t-87.5 38.5q-82 0 -172 -94q8 -54 8 -88v-420q0 -83 25.5 -120.5t99.5 -37.5v-12h-514v12q66 0 91.5 38.5t25.5 119.5v448q0 154 -119 154q-76 0 -162 -86v-516q0 -81 25.5 -119.5t91.5 -38.5v-12h-522z" />
<glyph unicode="n" horiz-adv-x="1187" d="M39 0v12q79 0 106 37.5t27 120.5v485q0 83 -27 120.5t-106 37.5v12l405 41v-172q164 172 338 172q109 0 179.5 -68.5t70.5 -207.5v-420q0 -83 27 -120.5t106 -37.5v-12h-530v12q66 0 92.5 38.5t26.5 119.5v448q0 154 -123 154q-88 0 -178 -90v-512q0 -81 25 -119.5 t91 -38.5v-12h-530z" />
<glyph unicode="o" horiz-adv-x="1122" d="M70 422q0 133 67 235.5t178 155.5t246 53q136 0 247 -53t178 -155.5t67 -235.5q0 -134 -67 -236.5t-178 -155.5t-247 -53q-135 0 -246 53t-178 155.5t-67 236.5zM367 422q0 -210 46 -320t148 -110q103 0 149 110t46 320t-46 319t-149 109q-102 0 -148 -109.5t-46 -318.5z " />
<glyph unicode="p" horiz-adv-x="1150" d="M25 -322q78 0 105.5 39t27.5 123v809q0 84 -27.5 123t-105.5 39v12l405 41v-135q112 137 277 137q113 0 199 -62.5t129.5 -162t43.5 -217.5q0 -124 -49 -224t-148 -161.5t-233 -61.5q-135 0 -213 60v-209q0 -78 35 -114t115 -36v-12h-561v12zM436 172q0 -83 44.5 -129.5 t107.5 -46.5q52 0 92 38.5t61.5 102t32 132.5t10.5 141q0 174 -51 277.5t-151 103.5q-83 0 -146 -74v-545z" />
<glyph unicode="q" horiz-adv-x="1132" d="M74 410q0 129 52 231t156.5 163.5t245.5 61.5q143 0 244 -73l215 71l8 -2v-1022q0 -84 27.5 -123t105.5 -39v-12h-561v12q81 0 114.5 38.5t33.5 123.5v273q-113 -136 -281 -136q-87 0 -157 37t-113.5 99t-66.5 138.5t-23 158.5zM367 432q0 -109 19 -191.5t64 -135 t113 -52.5q81 0 152 78v612q-13 44 -46.5 76.5t-90.5 32.5q-58 0 -101 -38t-66 -101.5t-33.5 -133.5t-10.5 -147z" />
<glyph unicode="r" horiz-adv-x="894" d="M39 0v12q78 0 105.5 39t27.5 123v475q0 84 -27.5 123t-105.5 39v12l405 41v-278q35 118 107.5 199t167.5 81q75 0 117.5 -46.5t42.5 -108.5q0 -64 -44 -109t-106 -45q-65 -1 -109 47q-41 44 -40 107v12q-87 -40 -127 -145v-404q0 -87 32.5 -124.5t114.5 -37.5v-12h-561z " />
<glyph unicode="s" horiz-adv-x="890" d="M90 283l10 2q61 -131 98 -180q86 -115 222 -115q95 0 136.5 43.5t41.5 97.5q0 41 -21.5 72.5t-57 51t-80.5 38.5t-92 34.5t-92 40t-80.5 53t-57 75.5t-21.5 106q0 126 92 195t261 69q44 0 110.5 -6.5t98.5 -7.5h5q32 0 93 10l12 -287l-10 -2q-21 47 -38.5 81t-45.5 74.5 t-57 66t-69.5 42.5t-86.5 17q-78 0 -117 -41t-39 -94q0 -44 28 -76.5t73 -53t99 -39.5t108 -42.5t99 -53.5t73 -81.5t28 -118.5q0 -132 -103 -204.5t-282 -72.5q-128 0 -328 39z" />
<glyph unicode="t" horiz-adv-x="720" d="M29 817v27h133v219l280 53v-272h252v-27h-252v-614q0 -150 107 -150q92 0 188 117l11 -8q-32 -38 -60 -65.5t-69 -57.5t-92 -46t-109 -16q-118 0 -187 69t-69 200v571h-133z" />
<glyph unicode="u" horiz-adv-x="1171" d="M20 811v12l412 41v-639q0 -78 32 -116.5t91 -38.5q86 0 178 92v487q0 82 -25.5 122t-91.5 40v12l398 41v-690q0 -84 27.5 -123t105.5 -39v-12h-406v150q-165 -173 -338 -173q-109 0 -179 68t-70 207v397q0 83 -28 122.5t-106 39.5z" />
<glyph unicode="v" horiz-adv-x="1009" d="M-29 831v13h588v-13q-115 0 -115 -82q0 -38 25 -94l166 -360l74 170q75 180 75 258q0 108 -125 108v13h394v-13q-123 0 -205 -122q-49 -73 -125 -254l-211 -465h-10l-330 655q-43 87 -90.5 136.5t-110.5 49.5z" />
<glyph unicode="w" horiz-adv-x="1546" d="M-18 831v13h561v-13q-81 0 -95 -47q-4 -13 -4 -27q0 -41 29 -102l168 -364l135 313l-20 47q-21 47 -34 71.5t-34 54t-44 42t-52 12.5v13h547v-13q-87 0 -107 -47q-7 -17 -8 -39q0 -38 23 -90l137 -348l65 166q76 184 76 260q0 98 -117 98v13h377v-13q-129 0 -203 -114 q-12 -18 -23.5 -38t-25 -51.5t-20 -46.5t-24.5 -61t-23 -57l-201 -473h-10l-267 590l-266 -590h-10l-330 655q-44 87 -90.5 136.5t-109.5 49.5z" />
<glyph unicode="x" horiz-adv-x="1042" d="M-35 0v12q113 0 238 109q70 63 170 196l43 60l-148 244q-66 105 -122.5 157.5t-129.5 52.5v13h562v-13q-47 0 -66.5 -22t-14.5 -54t29 -69l103 -166l33 43q90 122 90 189q0 79 -117 79v13h407v-13q-109 0 -219 -104q-58 -56 -153 -180l-33 -41l176 -285 q63 -98 123.5 -153.5t130.5 -55.5v-12h-575v12q49 0 69 23.5t14.5 58t-30.5 74.5l-121 197l-43 -64q-90 -128 -90 -203q0 -86 123 -86v-12h-449z" />
<glyph unicode="y" horiz-adv-x="1024" d="M-16 831v13h587v-13q-115 0 -115 -80q0 -39 27 -96l164 -360l70 162q82 191 82 264q0 110 -125 110v13h391v-13q-126 0 -211 -131q-11 -16 -21.5 -35.5t-24 -48.5t-21.5 -47t-27 -61.5t-27 -61.5l-221 -489q-144 -313 -342 -313q-58 0 -84.5 23.5t-26.5 62.5q0 46 36 68 t91.5 28.5t113.5 13t111.5 33t77.5 76.5l21 45l-326 651q-44 88 -90 137t-110 49z" />
<glyph unicode="z" horiz-adv-x="964" d="M66 6l512 823h-134q-64 0 -121.5 -30t-101 -80.5t-75.5 -108t-54 -121.5l-10 3l35 352h764l4 -6l-510 -824h149q216 0 359 336h10l-37 -350h-786z" />
<glyph unicode="{" horiz-adv-x="722" d="M-25 530v13q162 0 242 73.5t80 243.5q0 76 -20.5 182t-20.5 150q0 128 111 183t342 55v-11q-97 -2 -150.5 -23.5t-72.5 -58t-19 -98.5q0 -86 45 -247t45 -218q0 -63 -31.5 -107.5t-95 -70.5t-144 -38.5t-192.5 -16.5v-11q93 -8 157.5 -17t126.5 -25.5t98.5 -40.5 t58.5 -61t22 -87q0 -57 -45 -218t-45 -247q0 -94 50.5 -136.5t191.5 -43.5v-10q-233 0 -343 54t-110 183q0 43 20.5 149t20.5 183q0 170 -80 243.5t-242 73.5z" />
<glyph unicode="|" horiz-adv-x="278" d="M129 -344v1761h21v-1761h-21z" />
<glyph unicode="}" horiz-adv-x="722" d="M14 -346q141 1 191.5 43.5t50.5 136.5q0 86 -45 247t-45 218q0 50 22 87t58.5 61t98.5 40.5t126.5 25.5t157.5 17v11q-112 4 -192.5 16.5t-144 38.5t-95 70.5t-31.5 107.5q0 57 45 218t45 247q0 62 -19 98.5t-72.5 58t-150.5 23.5v11q231 0 342 -55t111 -183 q0 -44 -20.5 -150t-20.5 -182q0 -170 80 -243.5t242 -73.5v-13q-162 0 -242 -73.5t-80 -243.5q0 -77 20.5 -183t20.5 -149q0 -129 -110 -183t-343 -54v10z" />
<glyph unicode="~" horiz-adv-x="948" d="M125 371q13 61 24.5 103t29.5 83.5t39 66t52 39.5t70 15q60 0 173 -52.5t169 -52.5q106 0 141 117l6 -2q-10 -48 -17.5 -79.5t-20 -71t-28 -64.5t-36 -48t-48.5 -33.5t-63 -10.5q-60 0 -173.5 52t-170.5 52q-105 0 -137 -118z" />
<glyph unicode="&#xa1;" horiz-adv-x="503" d="M82 -293q0 44 20 109t46 133t54.5 195.5t41.5 275.5h16q13 -148 41.5 -275.5t54.5 -195.5t46 -133t20 -109q0 -77 -48.5 -124.5t-119.5 -47.5q-72 0 -122 46.5t-50 125.5zM92 684q0 66 47 112t113 46t112 -46t46 -112t-46 -113t-112 -47t-113 47t-47 113z" />
<glyph unicode="&#xa2;" horiz-adv-x="1024" d="M86 659q0 130 63.5 231t167 155t228.5 59v170h18v-170q171 1 272 -81.5t101 -188.5q0 -66 -42.5 -107t-102.5 -41q-61 0 -103.5 42.5t-42.5 102.5q0 55 33 96t86 50q-49 115 -162 115q-62 0 -107.5 -36t-70.5 -96.5t-37 -128.5t-12 -143q0 -202 73.5 -314t204.5 -112 q89 0 161.5 50t123.5 126l12 -8q-141 -206 -391 -215v-195h-16v195q-109 1 -197 37.5t-144 98t-86 141t-30 167.5z" />
<glyph unicode="&#xa3;" horiz-adv-x="1288" d="M80 657v19h180q-67 127 -67 242q0 172 141 272t360 100q114 0 208 -28.5t152 -75t89 -101.5t31 -112q0 -70 -43.5 -119t-110.5 -49q-64 0 -110 47t-46 113q0 61 37 105t92 52q-66 150 -239 150q-262 0 -262 -359q0 -83 22 -237h348v-19h-344q25 -187 25 -258 q0 -65 -8 -120q35 -5 118 -17.5t140 -19t100 -6.5q133 0 198 64t68 202h12q3 -48 4 -91.5t-2.5 -98t-12.5 -100t-28 -90.5t-45.5 -76t-68 -50t-94.5 -19q-52 0 -96.5 18t-80.5 48t-67.5 62t-72.5 68t-81 58q-53 -245 -239 -245q-79 0 -124.5 40t-45.5 105q0 76 63.5 120 t177.5 44q57 0 109 -8q-13 57 -43.5 116t-82 138.5t-71.5 115.5h-190zM135 133q0 -58 37.5 -95.5t108.5 -37.5q97 0 149.5 76t40.5 180q-61 23 -127 23q-97 0 -153 -39t-56 -107z" />
<glyph unicode="&#xa5;" horiz-adv-x="1548" d="M53 1253v13h680v-13q-99 0 -122.5 -61t34.5 -158l250 -428h4l137 238q105 179 105 276q0 133 -176 133v13h526v-13q-88 0 -152 -39.5t-122 -117.5q-10 -13 -19.5 -26.5t-21 -31.5t-19.5 -31t-23.5 -38.5t-23.5 -39t-28 -48t-29 -50.5l-80 -135h260v-18h-272l-50 -84v-170 h322v-18h-322v-162q0 -131 45.5 -181.5t159.5 -50.5v-12h-686v12q114 0 159.5 50.5t45.5 181.5v162h-332v18h332v88l-103 166h-229v18h219l-207 338q-65 108 -126.5 163.5t-135.5 55.5z" />
<glyph unicode="&#xa6;" horiz-adv-x="294" d="M137 -344v819h21v-819h-21zM137 700v717h21v-717h-21z" />
<glyph unicode="&#xa7;" horiz-adv-x="991" d="M104 74q0 50 34 81t83 31q50 0 83.5 -33.5t33.5 -82.5q0 -41 -24 -73.5t-62 -41.5q61 -92 211 -92q110 0 162.5 48.5t52.5 113.5q0 48 -31.5 85t-81.5 61t-111 45.5t-121.5 45.5t-110.5 53.5t-81.5 77t-31.5 109.5q0 86 58.5 144t178.5 118q-94 42 -146.5 100t-52.5 150 q0 126 101.5 201t267.5 75q157 0 248.5 -65.5t91.5 -149.5q0 -53 -35 -85t-82 -32q-49 0 -82.5 34.5t-33.5 82.5q0 43 25.5 76.5t64.5 40.5q-55 88 -185 88q-96 0 -150 -45.5t-54 -112.5q0 -49 31.5 -87t81.5 -62t111 -46t121.5 -46.5t110.5 -55t81.5 -79.5t31.5 -113 q0 -83 -53 -138t-176 -118q91 -42 142.5 -99.5t51.5 -146.5q0 -126 -102 -201t-279 -75q-170 0 -271.5 66.5t-101.5 152.5zM268 625q0 -40 22 -71.5t65.5 -55t85.5 -39.5t106.5 -38.5t103.5 -39.5q26 19 39.5 31t28 39t14.5 59q0 35 -17 64t-42 48.5t-66 39t-77 32t-86.5 31 t-84.5 33.5q-92 -49 -92 -133z" />
<glyph unicode="&#xa8;" horiz-adv-x="987" d="M174 1143q0 55 38.5 94t94.5 39q57 0 96 -39t39 -96q0 -56 -39 -95.5t-94 -39.5t-95 40t-40 97zM553 1143q0 55 38.5 94t94.5 39q57 0 96 -39t39 -96q0 -56 -39 -95.5t-94 -39.5q-54 0 -94.5 40t-40.5 97z" />
<glyph unicode="&#xa9;" horiz-adv-x="1492" d="M90 633q0 179 88.5 330.5t240 239t329.5 87.5q133 0 255 -51.5t210 -139.5t140 -210t52 -256q0 -178 -88 -329.5t-239.5 -240t-329.5 -88.5t-329.5 88.5t-240 240t-88.5 329.5zM109 633q0 -130 50.5 -248t136.5 -204t204 -136.5t248 -50.5t248 50.5t203.5 136.5t136 204 t50.5 248q0 174 -85.5 321t-232.5 232.5t-320 85.5q-130 0 -248 -50.5t-204 -136t-136.5 -204t-50.5 -248.5zM338 627q0 173 123 276t321 103q39 0 102.5 -5.5t93 -6t89.5 9.5l20 -256l-6 -3q-103 252 -278 252q-62 0 -108 -31.5t-70.5 -85t-35.5 -114.5t-11 -131t11 -131.5 t35.5 -116.5t69.5 -87t107 -32q96 0 171 75t126 202l8 -4l-45 -246q-129 -35 -262 -35q-227 0 -344 101.5t-117 265.5z" />
<glyph unicode="&#xaa;" horiz-adv-x="1077" d="M115 434v19h846v-19h-846zM135 770q0 99 79 147t208 48q93 0 184 -25v172q0 85 -30 132.5t-107 47.5q-96 0 -147 -78q33 -12 52 -42.5t19 -65.5q0 -47 -33.5 -79t-83.5 -32q-51 0 -80.5 35t-29.5 80q0 81 89 137t226 56q52 0 101 -8.5t95.5 -28.5t81.5 -49.5t56 -74.5 t21 -100v-362q0 -51 45 -51q49 0 110 86l8 -4q-39 -62 -86 -96.5t-122 -34.5q-69 0 -114.5 31t-60.5 85q-87 -118 -241 -118q-107 0 -173.5 52t-66.5 140zM373 782q0 -71 26 -114t80 -43q68 0 127 75v226q-50 16 -98 16q-135 0 -135 -160z" />
<glyph unicode="&#xab;" horiz-adv-x="1191" d="M47 455v8l592 407l6 -8l-424 -403l424 -404l-6 -8zM526 455v8l592 407l6 -8l-426 -403l426 -404l-6 -8z" />
<glyph unicode="&#xad;" horiz-adv-x="753" d="M109 446v68h534v-68h-534z" />
<glyph unicode="&#xae;" horiz-adv-x="825" d="M92 1014q0 132 94 225.5t226 93.5q133 0 226 -93.5t93 -225.5t-93 -226t-226 -94q-132 0 -226 94t-94 226zM109 1014q0 -126 89 -214.5t214 -88.5q126 0 214.5 88.5t88.5 214.5t-88.5 214.5t-214.5 88.5q-125 0 -214 -88.5t-89 -214.5zM246 856v4q25 0 33 9.5t8 39.5v209 q0 30 -8 39.5t-33 9.5v4h178q72 0 107.5 -22.5t35.5 -61.5q0 -24 -12 -40.5t-34 -24t-42 -10.5t-47 -4v-2q31 0 51 -3t31.5 -6.5t19 -14.5t10 -18t8 -27.5t9.5 -33.5q8 -25 17.5 -34t31.5 -9v-4h-121q-6 9 -18 59q-14 60 -24.5 74.5t-47.5 14.5h-26v-95q0 -30 8.5 -39.5 t32.5 -9.5v-4h-168zM373 1010h37q36 0 52.5 22t16.5 55t-17 55.5t-54 22.5h-35v-155z" />
<glyph unicode="&#xaf;" horiz-adv-x="886" d="M150 1024v76h591v-76h-591z" />
<glyph unicode="&#xb0;" horiz-adv-x="770" d="M74 1051q0 65 28 117t73.5 82.5t98.5 46.5t109 16q57 0 111 -15.5t100 -46t74 -82.5t28 -118t-28 -118.5t-74 -83.5t-100 -47t-111 -16q-56 0 -109 16t-98.5 47t-73.5 83.5t-28 118.5zM262 1051q0 -252 121 -252q125 0 125 252t-125 252q-121 0 -121 -252z" />
<glyph unicode="&#xb1;" horiz-adv-x="1157" d="M123 0v18h911v-18h-911zM123 657v19h446v446h19v-446h446v-19h-446v-446h-19v446h-446z" />
<glyph unicode="&#xb2;" horiz-adv-x="794" d="M51 1278q0 78 91.5 143.5t244.5 65.5q88 0 159.5 -23.5t116 -73t44.5 -118.5q0 -54 -30 -95t-76.5 -65t-109.5 -48.5t-123.5 -44.5t-123.5 -55t-105 -79q-26 -30 -41 -64q51 90 203 90q54 0 146 -19.5t135 -19.5q127 0 127 107q0 21 -7 49h11q16 -59 16 -129 q0 -45 -7.5 -82.5t-25 -71t-49.5 -52.5t-76 -19q-45 0 -86.5 20t-74 48.5t-63.5 57t-68 48.5t-76 20q-55 0 -85 -35.5t-30 -89.5q0 -33 8 -57h-12q-14 68 -2.5 117t55.5 96q29 32 78.5 70t92 70t84 71t65.5 89.5t24 109.5q0 74 -38.5 119t-110.5 45q-59 0 -99.5 -29 t-56.5 -68q39 -6 64.5 -35.5t25.5 -68.5q0 -44 -31 -74.5t-77 -30.5q-48 0 -77.5 33t-29.5 78z" />
<glyph unicode="&#xb3;" horiz-adv-x="796" d="M53 848q0 42 29.5 74t75.5 32t77 -30t31 -76q0 -36 -22.5 -66t-57.5 -39q38 -59 131 -59q94 0 143.5 57.5t49.5 149.5q0 186 -207 192q-41 0 -69 -7t-29 -7q-9 0 -17 5.5t-8 12.5q0 8 7.5 14.5t17.5 6.5q2 0 32.5 -7t63.5 -7q96 0 140 57t44 141t-42 132.5t-117 48.5 q-87 0 -127 -62q36 -9 59 -37t23 -65q0 -45 -30 -74t-77 -29q-48 0 -75 30t-27 73q0 77 86.5 127.5t230.5 50.5q145 0 234.5 -53.5t89.5 -145.5q0 -97 -97.5 -147.5t-250.5 -48.5h-13v-7h13q164 0 268 -50t104 -150q0 -102 -102 -157.5t-254 -55.5q-148 0 -238 50.5 t-90 125.5z" />
<glyph unicode="&#xb4;" horiz-adv-x="710" d="M145 975q29 41 75.5 109t69.5 100.5t50.5 67.5t46.5 51q40 35 83 35.5t71 -33.5q28 -32 19.5 -75t-48.5 -77q-25 -19 -70.5 -42.5t-140.5 -68t-151 -71.5z" />
<glyph unicode="&#xb5;" horiz-adv-x="1234" d="M129 47v787l281 28v-637q0 -78 31.5 -116.5t88.5 -38.5q89 0 181 92v669l278 31v-719q0 -112 90 -112q8 0 15.5 0.5t15 3t12.5 4t13.5 5.5t11 5.5t12.5 7t12 6.5l7 -10q-114 -73 -244 -73q-111 0 -163 45.5t-52 124.5q-165 -173 -338 -173q-87 0 -150.5 41.5t-87.5 128.5 v-77q0 -54 25 -103t60.5 -85t71 -68.5t60.5 -68t25 -69.5q0 -35 -22.5 -58.5t-65.5 -23.5q-34 0 -61 17t-44 42t-29.5 66t-19 76.5t-10 87t-4 84t-0.5 80.5z" />
<glyph unicode="&#xb6;" horiz-adv-x="1013" d="M63 909q0 152 124 254.5t317 102.5h434v-15h-123v-1372h-16v1372h-264v-1372h-19v680q-213 0 -333 100t-120 250z" />
<glyph unicode="&#xb7;" horiz-adv-x="518" d="M100 508q0 66 46 113t112 47t113 -47t47 -113t-47 -113t-113 -47t-112 47t-46 113z" />
<glyph unicode="&#xb8;" horiz-adv-x="686" d="M70 -397l8 10q28 -19 73 -32t87 -13q79 0 122 44t43 112q0 61 -34.5 99t-98.5 38q-41 0 -75 -17l-7 6l144 144l18 -4l-119 -119q54 14 123 14q118 0 187 -44t69 -124q0 -48 -25.5 -84.5t-69 -56.5t-92.5 -29.5t-104 -9.5q-146 0 -249 66z" />
<glyph unicode="&#xb9;" horiz-adv-x="534" d="M29 1372v8q203 17 354 93l8 -3v-649q0 -79 30.5 -103t100.5 -24v-8h-487v8q76 0 110.5 28.5t34.5 108.5v474q0 36 -12 51.5t-47 15.5h-92z" />
<glyph unicode="&#xba;" horiz-adv-x="1050" d="M121 938q0 165 116 265t289 100q172 0 288 -100t116 -265q0 -162 -116 -261t-288 -99q-173 0 -289 99t-116 261zM131 434v19h789v-19h-789zM373 938q0 -172 35.5 -260t117.5 -88q80 0 116 88.5t36 259.5q0 173 -36 262.5t-116 89.5q-82 0 -117.5 -89.5t-35.5 -262.5z" />
<glyph unicode="&#xbb;" horiz-adv-x="1191" d="M68 55l426 404l-426 403l6 8l592 -407v-8l-592 -408zM547 55l424 404l-424 403l6 8l592 -407v-8l-592 -408z" />
<glyph unicode="&#xbc;" horiz-adv-x="1738" d="M88 1167v9q205 17 354 92l9 -2v-650q0 -79 30.5 -103t100.5 -24v-8h-488v8q76 0 111 29t35 109v473q0 36 -12.5 51.5t-47.5 15.5h-92zM408 -8l876 1292l14 -8l-876 -1294zM911 211l115 100q61 50 101 127t40 158q0 130 -110 203q63 3 125 -5.5t114.5 -28t85.5 -54 t33 -78.5q0 -46 -39.5 -91.5t-89.5 -76.5t-125.5 -77t-118.5 -79l-112 -94h401v117l205 178h6v-295q50 0 79 7t30 7q11 0 18.5 -6t7.5 -14q0 -7 -8.5 -13t-17.5 -6q-4 0 -14.5 3t-34.5 6.5t-60 3.5v-68q0 -79 30.5 -103t100.5 -24v-8h-487v8q76 0 110.5 28.5t34.5 108.5v60 h-418z" />
<glyph unicode="&#xbd;" horiz-adv-x="1757" d="M76 1167v9q205 17 354 92l8 -2v-650q0 -79 30.5 -103t100.5 -24v-8h-487v8q76 0 110.5 29t34.5 109v473q0 36 -12 51.5t-47 15.5h-92zM395 -8l877 1292l14 -8l-876 -1294zM1006 592q0 78 90.5 143.5t242.5 65.5q137 0 229.5 -56.5t92.5 -158.5q0 -54 -30 -95t-76.5 -65 t-109.5 -48.5t-123.5 -44.5t-123.5 -55t-104 -79q-26 -30 -41 -64q51 90 200 90q55 0 147.5 -19.5t135.5 -19.5q127 0 127 107q0 25 -6 49h10q16 -59 16 -129q0 -45 -7.5 -82.5t-24.5 -71t-49.5 -52.5t-77.5 -19t-86 20t-73.5 48.5t-63.5 57t-68 48.5t-76 20 q-55 0 -85 -35.5t-30 -89.5q0 -30 9 -57h-13q-15 69 -2.5 117.5t56.5 95.5q29 32 78.5 70t92 70t84 71t65.5 89.5t24 109.5q0 74 -39 118.5t-111 44.5q-59 0 -100 -28.5t-58 -67.5q39 -6 66 -35.5t27 -68.5q0 -44 -32 -74.5t-77 -30.5q-48 0 -77 33t-29 78z" />
<glyph unicode="&#xbe;" horiz-adv-x="1857" d="M84 643q0 42 30 74.5t76 32.5t77.5 -30.5t31.5 -76.5q0 -35 -23 -65t-57 -39q35 -60 131 -60q93 0 143 57.5t50 149.5q0 187 -207 193q-41 0 -70 -7l-28 -8q-10 0 -17.5 5.5t-7.5 13.5t7 14t16 6q3 0 33.5 -7t62.5 -7q96 0 141 57.5t45 140.5q0 84 -42.5 132.5 t-117.5 48.5q-87 0 -127 -62q36 -9 59 -37t23 -65q0 -44 -30 -73.5t-76 -29.5q-48 0 -76.5 30t-28.5 73q0 77 87.5 127.5t230.5 50.5q147 0 236 -53t89 -146q0 -65 -48 -110.5t-125 -66t-175 -19.5h-12v-6h12q162 0 267.5 -50.5t105.5 -150.5q0 -102 -103 -157.5t-255 -55.5 q-146 0 -237 50.5t-91 125.5zM526 -8l877 1292l14 -8l-876 -1294zM1030 211l115 100q61 50 101 127t40 158q0 130 -110 203q63 3 125 -5.5t114.5 -28t85.5 -54t33 -78.5q0 -46 -39.5 -91.5t-89.5 -76.5t-125.5 -77t-118.5 -79l-112 -94h401v117l205 178h6v-295q50 0 78.5 7 t29.5 7q12 0 19.5 -6t7.5 -14q0 -7 -9 -13t-18 -6q-4 0 -14.5 3t-34 6.5t-59.5 3.5v-68q0 -79 30.5 -103t100.5 -24v-8h-487v8q76 0 110.5 28.5t34.5 108.5v60h-418z" />
<glyph unicode="&#xbf;" horiz-adv-x="1093" d="M57 -117q0 37 11 70.5t27.5 59t44.5 49.5t54.5 40.5t65 33t67.5 26.5t71 21t67 16.5t63.5 14t53.5 11.5l10 195h12l8 -203q-256 -70 -256 -340q0 -91 26.5 -163t87.5 -117.5t148 -45.5q85 0 146.5 38.5t95.5 99.5q-55 9 -91 52.5t-36 102.5q0 67 44.5 113.5t109.5 46.5 q66 0 108.5 -48t42.5 -116q0 -120 -132.5 -212.5t-350.5 -92.5q-224 0 -361 100t-137 248zM432 684q0 66 47 112t113 46t112 -46t46 -112t-46 -113t-112 -47t-113 47t-47 113z" />
<glyph unicode="&#xc0;" horiz-adv-x="1374" d="M-82 0v12q59 0 109.5 24t83.5 53t70 91.5t55 100.5t53 118q12 27 18 41l363 836h14l471 -995q26 -56 50 -97.5t57 -84t74.5 -65t88.5 -22.5v-12h-723v12q73 0 111 35.5t36.5 93.5t-32.5 133l-65 144h-433l-14 -37q-28 -77 -35 -140.5t8.5 -116.5t67 -82.5t135.5 -29.5 v-12h-563zM330 438h411l-211 465zM461.5 1639.5q-8.5 42.5 19.5 74.5q28 34 72 33.5t84 -35.5q24 -20 55 -61.5t90 -130.5t92 -136l-4 -4q-44 21 -118.5 56.5t-109.5 52t-74 38t-58 36.5q-40 34 -48.5 76.5z" />
<glyph unicode="&#xc1;" horiz-adv-x="1374" d="M-82 0v12q59 0 109.5 24t83.5 53t70 91.5t55 100.5t53 118q12 27 18 41l363 836h14l471 -995q26 -56 50 -97.5t57 -84t74.5 -65t88.5 -22.5v-12h-723v12q73 0 111 35.5t36.5 93.5t-32.5 133l-65 144h-433l-14 -37q-28 -77 -35 -140.5t8.5 -116.5t67 -82.5t135.5 -29.5 v-12h-563zM330 438h411l-211 465zM510 1384q31 44 75.5 109t68 99.5t50.5 69t46 50.5q40 35 83.5 35.5t71.5 -33.5q28 -32 20 -74.5t-48 -76.5q-25 -19 -70.5 -42.5t-142 -68.5t-150.5 -72z" />
<glyph unicode="&#xc2;" horiz-adv-x="1374" d="M-82 0v12q59 0 109.5 24t83.5 53t70 91.5t55 100.5t53 118q12 27 18 41l363 836h14l471 -995q26 -56 50 -97.5t57 -84t74.5 -65t88.5 -22.5v-12h-723v12q73 0 111 35.5t36.5 93.5t-32.5 133l-65 144h-433l-14 -37q-28 -77 -35 -140.5t8.5 -116.5t67 -82.5t135.5 -29.5 v-12h-563zM330 438h411l-211 465zM369 1364l229 309q38 45 82 45q47 0 80 -45l231 -309l-4 -4l-307 166l-307 -166z" />
<glyph unicode="&#xc3;" horiz-adv-x="1374" d="M-82 0v12q59 0 109.5 24t83.5 53t70 91.5t55 100.5t53 118q12 27 18 41l363 836h14l471 -995q26 -56 50 -97.5t57 -84t74.5 -65t88.5 -22.5v-12h-723v12q73 0 111 35.5t36.5 93.5t-32.5 133l-65 144h-433l-14 -37q-28 -77 -35 -140.5t8.5 -116.5t67 -82.5t135.5 -29.5 v-12h-563zM330 438h411l-211 465zM371 1403q13 138 37 197q43 106 137 106q52 0 158.5 -51t162.5 -51q33 0 55.5 11t33.5 31t16 37t8 41h10q-4 -48 -9.5 -83t-18 -80t-30 -73.5t-48 -48.5t-70.5 -20q-51 0 -156 51.5t-163 51.5q-33 0 -55.5 -11t-33.5 -31t-16 -37.5 t-8 -41.5z" />
<glyph unicode="&#xc4;" horiz-adv-x="1374" d="M-82 0v12q59 0 109.5 24t83.5 53t70 91.5t55 100.5t53 118q12 27 18 41l363 836h14l471 -995q26 -56 50 -97.5t57 -84t74.5 -65t88.5 -22.5v-12h-723v12q73 0 111 35.5t36.5 93.5t-32.5 133l-65 144h-433l-14 -37q-28 -77 -35 -140.5t8.5 -116.5t67 -82.5t135.5 -29.5 v-12h-563zM330 438h411l-211 465zM354 1552q0 55 38.5 94.5t94.5 39.5q57 0 96.5 -39.5t39.5 -96.5q0 -56 -39.5 -95.5t-94.5 -39.5t-95 40.5t-40 96.5zM733 1552q0 55 38.5 94.5t94.5 39.5q57 0 96 -39.5t39 -96.5q0 -56 -39 -95.5t-94 -39.5q-54 0 -94.5 40.5t-40.5 96.5z " />
<glyph unicode="&#xc5;" horiz-adv-x="1374" d="M-82 0v12q59 0 109.5 24t83.5 53t70 91.5t55 100.5t53 118q12 27 18 41l363 836h14l471 -995q26 -56 50 -97.5t57 -84t74.5 -65t88.5 -22.5v-12h-723v12q73 0 111 35.5t36.5 93.5t-32.5 133l-65 144h-433l-14 -37q-28 -77 -35 -140.5t8.5 -116.5t67 -82.5t135.5 -29.5 v-12h-563zM330 438h411l-211 465zM426 1567q0 94 70 152.5t182 58.5q113 0 183.5 -58.5t70.5 -152.5q0 -92 -70.5 -149.5t-183.5 -57.5q-112 0 -182 57.5t-70 149.5zM602 1567q0 -201 76 -201t76 201q0 202 -76 202t-76 -202z" />
<glyph unicode="&#xc6;" horiz-adv-x="2070" d="M-90 0v12q69 0 139 33.5t137 96.5t122 129.5t118 156.5l543 760q-18 36 -53.5 50.5t-98.5 14.5v13h1104l29 -414l-8 -2q-21 92 -57 162.5t-94.5 125.5t-145.5 84t-201 29h-148v-612h56q308 0 372 297h11v-606h-11q-63 295 -372 295h-56v-611h162q96 0 173.5 25t129 64 t92.5 98.5t65 115.5t44 127l10 -2l-39 -442h-1116v12q106 0 140 41t34 160v242h-520l-27 -39q-88 -124 -112.5 -214t19 -140t157.5 -50v-12h-598zM485 475h506v578q0 82 -14 116z" />
<glyph unicode="&#xc7;" horiz-adv-x="1413" d="M82 625q0 198 93.5 349.5t260.5 233.5t381 82q53 0 124 -6t120 -11t110 -2.5t113 15.5l37 -432h-12q-89 221 -205 322.5t-266 101.5q-92 0 -165.5 -36.5t-121.5 -97t-80 -144.5t-45.5 -174.5t-13.5 -190.5q0 -101 13 -191.5t44 -175t77.5 -146t118.5 -98t162 -36.5 q170 0 297 122.5t213 331.5l11 -2l-70 -403q-263 -74 -524 -60l-107 -106q54 14 123 14q118 0 187 -44t69 -124q0 -48 -25.5 -84.5t-69 -56.5t-92.5 -29.5t-104 -9.5q-150 0 -250 66l9 10q28 -19 72.5 -32t86.5 -13q79 0 122.5 44t43.5 112q0 60 -35 98.5t-98 38.5 q-39 0 -78 -17l-4 6l129 130q-312 26 -481.5 202t-169.5 443z" />
<glyph unicode="&#xc8;" horiz-adv-x="1310" d="M57 0v12q106 0 140 41t34 160v840q0 119 -34 159.5t-140 40.5v13h1104l29 -414l-8 -2q-21 92 -57 162.5t-94.5 125.5t-145.5 84t-201 29h-147v-612h55q309 0 373 297h10v-606h-10q-63 295 -373 295h-55v-611h161q96 0 173.5 25t129 64t92.5 98.5t65 115.5t44 127l10 -2 l-38 -442h-1117zM437.5 1639.5q-8.5 42.5 19.5 74.5q29 34 72 33.5t83 -35.5q24 -20 55.5 -62t90.5 -129.5t94 -136.5l-4 -4q-40 19 -98.5 46.5t-91 43t-70.5 34t-62 33t-39 26.5q-41 34 -49.5 76.5z" />
<glyph unicode="&#xc9;" horiz-adv-x="1310" d="M57 0v12q106 0 140 41t34 160v840q0 119 -34 159.5t-140 40.5v13h1104l29 -414l-8 -2q-21 92 -57 162.5t-94.5 125.5t-145.5 84t-201 29h-147v-612h55q309 0 373 297h10v-606h-10q-63 295 -373 295h-55v-611h161q96 0 173.5 25t129 64t92.5 98.5t65 115.5t44 127l10 -2 l-38 -442h-1117zM510 1384q29 41 75.5 109t69.5 100.5t50.5 67.5t46.5 51q40 35 82.5 35.5t70.5 -33.5q28 -32 20 -74.5t-48 -76.5q-25 -19 -70.5 -42.5t-142 -68.5t-150.5 -72z" />
<glyph unicode="&#xca;" horiz-adv-x="1310" d="M57 0v12q106 0 140 41t34 160v840q0 119 -34 159.5t-140 40.5v13h1104l29 -414l-8 -2q-21 92 -57 162.5t-94.5 125.5t-145.5 84t-201 29h-147v-612h55q309 0 373 297h10v-606h-10q-63 295 -373 295h-55v-611h161q96 0 173.5 25t129 64t92.5 98.5t65 115.5t44 127l10 -2 l-38 -442h-1117zM365 1364l229 309q33 45 80 45q49 0 82 -45l229 -309l-4 -4l-307 166l-305 -166z" />
<glyph unicode="&#xcb;" horiz-adv-x="1310" d="M57 0v12q106 0 140 41t34 160v840q0 119 -34 159.5t-140 40.5v13h1104l29 -414l-8 -2q-21 92 -57 162.5t-94.5 125.5t-145.5 84t-201 29h-147v-612h55q309 0 373 297h10v-606h-10q-63 295 -373 295h-55v-611h161q96 0 173.5 25t129 64t92.5 98.5t65 115.5t44 127l10 -2 l-38 -442h-1117zM365 1552q0 55 38.5 94.5t94.5 39.5t95.5 -39.5t39.5 -96.5q0 -55 -39.5 -95t-93.5 -40t-94.5 40.5t-40.5 96.5zM743 1552q0 55 39 94.5t95 39.5t95.5 -39.5t39.5 -96.5q0 -55 -39.5 -95t-93.5 -40q-56 0 -96 40t-40 97z" />
<glyph unicode="&#xcc;" horiz-adv-x="768" d="M57 0v12q106 0 140 41t34 160v840q0 119 -34 159.5t-140 40.5v13h654v-13q-106 0 -140 -40.5t-34 -159.5v-840q0 -119 34 -160t140 -41v-12h-654zM152.5 1639.5q-8.5 42.5 19.5 74.5q28 34 71 33.5t83 -35.5q24 -20 55.5 -62.5t89.5 -128.5t94 -137l-4 -4 q-37 18 -97.5 46.5t-91.5 43t-69.5 33.5t-62 33.5t-39.5 26.5q-40 34 -48.5 76.5z" />
<glyph unicode="&#xcd;" horiz-adv-x="768" d="M57 0v12q106 0 140 41t34 160v840q0 119 -34 159.5t-140 40.5v13h654v-13q-106 0 -140 -40.5t-34 -159.5v-840q0 -119 34 -160t140 -41v-12h-654zM193 1384q30 42 75.5 108.5t68.5 100.5t50.5 68.5t46.5 50.5q40 35 83 35.5t71 -33.5q28 -32 19.5 -74.5t-48.5 -76.5 q-19 -15 -57 -35.5t-76 -38.5t-108 -51t-121 -58z" />
<glyph unicode="&#xce;" horiz-adv-x="768" d="M57 0v12q106 0 140 41t34 160v840q0 119 -34 159.5t-140 40.5v13h654v-13q-106 0 -140 -40.5t-34 -159.5v-840q0 -119 34 -160t140 -41v-12h-654zM72 1364l231 309q33 45 80 45q44 0 82 -45l229 -309l-4 -4l-307 166l-307 -166z" />
<glyph unicode="&#xcf;" horiz-adv-x="768" d="M57 0v12q106 0 140 41t34 160v840q0 119 -34 159.5t-140 40.5v13h654v-13q-106 0 -140 -40.5t-34 -159.5v-840q0 -119 34 -160t140 -41v-12h-654zM61 1552q0 55 39 94.5t95 39.5t95.5 -39.5t39.5 -96.5q0 -55 -39.5 -95t-93.5 -40q-56 0 -96 40t-40 97zM440 1552 q0 55 38.5 94.5t94.5 39.5t96 -39.5t40 -96.5q0 -55 -40 -95t-96 -40q-54 0 -93.5 40t-39.5 97z" />
<glyph unicode="&#xd0;" horiz-adv-x="1572" d="M57 0v12q106 0 140 41t34 160v414h-159v18h159v408q0 119 -34 159.5t-140 40.5v13h688q345 0 543.5 -170t198.5 -463t-198.5 -463t-543.5 -170h-688zM537 14h168q98 0 176.5 34.5t129.5 93t85 139t48.5 167.5t14.5 185t-14.5 185t-48.5 167.5t-84.5 138.5t-128.5 92.5 t-176 34.5h-170v-606h333v-18h-333v-613z" />
<glyph unicode="&#xd1;" horiz-adv-x="1480" d="M20 0v12q45 0 79 5.5t61.5 20.5t46 34.5t32.5 54.5t22 73t12.5 97.5t6 120.5t1.5 149v371q0 165 -53.5 240t-192.5 75v13h446l727 -801v233q0 89 -1.5 149t-6 120t-12.5 97.5t-21.5 73t-32.5 55t-46 34.5t-61 20.5t-79 5.5v13h543v-13q-60 0 -101.5 -10t-71.5 -38.5 t-47 -65.5t-26.5 -105.5t-12.5 -143t-3 -192.5v-712l-10 -2l-918 1009v-426q0 -118 3 -192.5t12.5 -143t26.5 -105.5t47 -65.5t71.5 -38.5t101.5 -10v-12h-543zM463 1403q14 141 39 202q43 101 133 101q53 0 159.5 -51t161.5 -51q26 0 46.5 8t31.5 19t19.5 29t11.5 31.5 t6 32.5h10q-6 -61 -14 -105t-26.5 -94.5t-52.5 -78t-83 -27.5q-51 0 -157 51.5t-162 51.5q-33 0 -55.5 -11t-33.5 -31t-16 -37.5t-8 -41.5z" />
<glyph unicode="&#xd2;" horiz-adv-x="1574" d="M82 633q0 189 91 339t252 234t363 84q150 0 281.5 -49t225 -135.5t147 -209t53.5 -263.5q0 -189 -91.5 -339.5t-253 -234.5t-362.5 -84q-202 0 -363 84t-252 234.5t-91 339.5zM410 633q0 -102 10.5 -190.5t37.5 -173.5t68.5 -144.5t108.5 -96t153 -36.5q72 0 130.5 24.5 t99 70t70 104t46 132.5t24 149.5t7.5 160.5t-7.5 160.5t-24 149.5t-46 132.5t-70 104t-99 70t-130.5 24.5q-87 0 -154 -36.5t-108.5 -96.5t-68 -145t-37 -173t-10.5 -190zM549.5 1660q-8.5 43 19.5 75q28 34 71 33.5t83 -35.5q24 -20 55.5 -62t90.5 -129.5t94 -136.5l-5 -4 q-40 19 -98 46t-90.5 42.5t-70 34t-61.5 33t-40 26.5q-40 34 -48.5 77z" />
<glyph unicode="&#xd3;" horiz-adv-x="1574" d="M82 633q0 189 91 339t252 234t363 84q150 0 281.5 -49t225 -135.5t147 -209t53.5 -263.5q0 -189 -91.5 -339.5t-253 -234.5t-362.5 -84q-202 0 -363 84t-252 234.5t-91 339.5zM410 633q0 -102 10.5 -190.5t37.5 -173.5t68.5 -144.5t108.5 -96t153 -36.5q72 0 130.5 24.5 t99 70t70 104t46 132.5t24 149.5t7.5 160.5t-7.5 160.5t-24 149.5t-46 132.5t-70 104t-99 70t-130.5 24.5q-87 0 -154 -36.5t-108.5 -96.5t-68 -145t-37 -173t-10.5 -190zM602 1405q29 41 75.5 109t69.5 100.5t50.5 67.5t46.5 51q40 35 82.5 35.5t70.5 -33.5q28 -32 20 -75 t-48 -77q-25 -19 -71 -43t-140.5 -67.5t-151.5 -71.5z" />
<glyph unicode="&#xd4;" horiz-adv-x="1574" d="M82 633q0 189 91 339t252 234t363 84q150 0 281.5 -49t225 -135.5t147 -209t53.5 -263.5q0 -189 -91.5 -339.5t-253 -234.5t-362.5 -84q-202 0 -363 84t-252 234.5t-91 339.5zM410 633q0 -102 10.5 -190.5t37.5 -173.5t68.5 -144.5t108.5 -96t153 -36.5q72 0 130.5 24.5 t99 70t70 104t46 132.5t24 149.5t7.5 160.5t-7.5 160.5t-24 149.5t-46 132.5t-70 104t-99 70t-130.5 24.5q-87 0 -154 -36.5t-108.5 -96.5t-68 -145t-37 -173t-10.5 -190zM477 1384l230 310q33 45 79 45q49 0 82 -45l230 -310l-4 -4l-308 166l-305 -166z" />
<glyph unicode="&#xd5;" horiz-adv-x="1574" d="M82 633q0 189 91 339t252 234t363 84q150 0 281.5 -49t225 -135.5t147 -209t53.5 -263.5q0 -189 -91.5 -339.5t-253 -234.5t-362.5 -84q-202 0 -363 84t-252 234.5t-91 339.5zM410 633q0 -102 10.5 -190.5t37.5 -173.5t68.5 -144.5t108.5 -96t153 -36.5q72 0 130.5 24.5 t99 70t70 104t46 132.5t24 149.5t7.5 160.5t-7.5 160.5t-24 149.5t-46 132.5t-70 104t-99 70t-130.5 24.5q-87 0 -154 -36.5t-108.5 -96.5t-68 -145t-37 -173t-10.5 -190zM473 1423q3 27 4 38.5t5 41t8 46t11.5 43.5t16 42.5t21.5 35.5t28 30.5t35.5 18t44.5 7.5 q52 0 159 -51t163 -51q33 0 55.5 11t33.5 31.5t15.5 37.5t7.5 41h11q-4 -48 -9.5 -83t-18 -80t-29.5 -73.5t-47.5 -48.5t-69.5 -20q-52 0 -158.5 51t-163.5 51q-33 0 -55.5 -11t-33.5 -31t-16 -37.5t-8 -41.5z" />
<glyph unicode="&#xd6;" horiz-adv-x="1574" d="M82 633q0 189 91 339t252 234t363 84q150 0 281.5 -49t225 -135.5t147 -209t53.5 -263.5q0 -189 -91.5 -339.5t-253 -234.5t-362.5 -84q-202 0 -363 84t-252 234.5t-91 339.5zM410 633q0 -102 10.5 -190.5t37.5 -173.5t68.5 -144.5t108.5 -96t153 -36.5q72 0 130.5 24.5 t99 70t70 104t46 132.5t24 149.5t7.5 160.5t-7.5 160.5t-24 149.5t-46 132.5t-70 104t-99 70t-130.5 24.5q-87 0 -154 -36.5t-108.5 -96.5t-68 -145t-37 -173t-10.5 -190zM465 1573q0 55 38.5 94t94.5 39t95.5 -39t39.5 -96q0 -55 -39.5 -95t-93.5 -40q-56 0 -95.5 40 t-39.5 97zM844 1573q0 55 38.5 94t94.5 39t95.5 -39t39.5 -96q0 -55 -39.5 -95t-93.5 -40q-56 0 -95.5 40t-39.5 97z" />
<glyph unicode="&#xd7;" horiz-adv-x="942" d="M88 131l371 371l-371 368l14 13l371 -369l369 369l12 -13l-369 -368l369 -371l-12 -14l-369 370l-371 -370z" />
<glyph unicode="&#xd8;" horiz-adv-x="1576" d="M82 633q0 189 91 339t252 234t363 84q251 0 435 -129l125 148l14 -15l-123 -145q122 -89 189 -222t67 -294q0 -189 -91.5 -339.5t-253 -234.5t-362.5 -84q-249 0 -432 125l-125 -145l-16 14l123 144q-122 91 -189 224.5t-67 295.5zM412 633q0 -221 51 -371l643 760 q-89 252 -318 252q-73 0 -131.5 -25t-99 -71t-69.5 -104.5t-45 -133t-23.5 -149t-7.5 -158.5zM471 238q90 -246 317 -246q72 0 130.5 24.5t99 70t70 104t46 132.5t24 149.5t7.5 160.5q0 220 -51 366z" />
<glyph unicode="&#xd9;" horiz-adv-x="1441" d="M33 1253v13h653v-13q-103 0 -138.5 -51t-35.5 -174v-663q0 -357 305 -357q165 0 267 104t102 306v293q0 115 -3 189t-13.5 140t-27.5 102.5t-47.5 63.5t-71 37t-99.5 10v13h542v-13q-45 0 -79 -5.5t-61 -20.5t-46 -34t-32.5 -53.5t-21.5 -71t-12.5 -95t-6 -117.5 t-1.5 -145v-293q0 -219 -121 -331t-352 -112q-88 0 -165 16t-144 51t-114.5 87.5t-75 129.5t-27.5 173v596q0 123 -35.5 174t-138.5 51zM515 1639.5q-8 42.5 20 74.5q28 34 70.5 33.5t82.5 -35.5q24 -20 55.5 -62t90.5 -129.5t94 -136.5l-4 -4q-39 18 -98 46t-91 43t-70 34 t-62 33.5t-40 26.5q-40 34 -48 76.5z" />
<glyph unicode="&#xda;" horiz-adv-x="1441" d="M33 1253v13h653v-13q-103 0 -138.5 -51t-35.5 -174v-663q0 -357 305 -357q165 0 267 104t102 306v293q0 115 -3 189t-13.5 140t-27.5 102.5t-47.5 63.5t-71 37t-99.5 10v13h542v-13q-45 0 -79 -5.5t-61 -20.5t-46 -34t-32.5 -53.5t-21.5 -71t-12.5 -95t-6 -117.5 t-1.5 -145v-293q0 -219 -121 -331t-352 -112q-88 0 -165 16t-144 51t-114.5 87.5t-75 129.5t-27.5 173v596q0 123 -35.5 174t-138.5 51zM610 1384q24 35 60.5 89t57 83.5t45.5 64.5t43.5 56.5t33.5 34.5q40 35 83.5 35.5t72.5 -33.5q28 -32 19 -74.5t-50 -76.5 q-24 -19 -70 -43t-140 -68t-151 -72z" />
<glyph unicode="&#xdb;" horiz-adv-x="1441" d="M33 1253v13h653v-13q-103 0 -138.5 -51t-35.5 -174v-663q0 -357 305 -357q165 0 267 104t102 306v293q0 115 -3 189t-13.5 140t-27.5 102.5t-47.5 63.5t-71 37t-99.5 10v13h542v-13q-45 0 -79 -5.5t-61 -20.5t-46 -34t-32.5 -53.5t-21.5 -71t-12.5 -95t-6 -117.5 t-1.5 -145v-293q0 -219 -121 -331t-352 -112q-88 0 -165 16t-144 51t-114.5 87.5t-75 129.5t-27.5 173v596q0 123 -35.5 174t-138.5 51zM451 1364l229 309q33 45 82 45q47 0 80 -45l229 -309l-4 -4l-305 166l-307 -166z" />
<glyph unicode="&#xdc;" horiz-adv-x="1441" d="M33 1253v13h653v-13q-103 0 -138.5 -51t-35.5 -174v-663q0 -357 305 -357q165 0 267 104t102 306v293q0 115 -3 189t-13.5 140t-27.5 102.5t-47.5 63.5t-71 37t-99.5 10v13h542v-13q-45 0 -79 -5.5t-61 -20.5t-46 -34t-32.5 -53.5t-21.5 -71t-12.5 -95t-6 -117.5 t-1.5 -145v-293q0 -219 -121 -331t-352 -112q-88 0 -165 16t-144 51t-114.5 87.5t-75 129.5t-27.5 173v596q0 123 -35.5 174t-138.5 51zM446 1552q0 55 39 94.5t95 39.5t95.5 -39.5t39.5 -96.5q0 -55 -39.5 -95t-93.5 -40q-56 0 -96 40t-40 97zM825 1552q0 55 38.5 94.5 t94.5 39.5t96 -39.5t40 -96.5q0 -55 -39.5 -95t-93.5 -40q-56 0 -96 40t-40 97z" />
<glyph unicode="&#xdd;" horiz-adv-x="1386" d="M-33 1253v13h707v-13q-100 0 -123 -62t37 -157l258 -428h2l125 215q123 209 123 301q0 131 -178 131v13h534v-13q-85 0 -147.5 -35t-118.5 -104q-67 -83 -197 -305l-127 -211v-354q0 -130 46.5 -181t158.5 -51v-12h-715v12q114 0 159.5 50.5t45.5 181.5v264l-326 526 q-65 107 -128.5 163t-135.5 56zM586 1384q30 42 75.5 108.5t68.5 100.5t50.5 68.5t46.5 50.5q40 35 83 35.5t71 -33.5q28 -32 19.5 -74.5t-48.5 -76.5q-19 -15 -57 -35.5t-76 -38.5t-108 -51t-121 -58z" />
<glyph unicode="&#xde;" horiz-adv-x="1320" d="M57 0v12q106 0 140 41t34 160v840q0 119 -34 159.5t-140 40.5v13h654v-13q-106 0 -140 -40.5t-34 -159.5v-39h192q144 0 251.5 -28.5t170.5 -80t93 -116.5t30 -144t-30 -143t-93 -114.5t-170 -78.5t-252 -28h-108v12h43q64 0 114 21t81.5 55t52 81t28.5 94.5t8 100.5 t-8 101t-28.5 95t-52 81.5t-81.5 55.5t-114 21h-127v-786q0 -119 34 -160t140 -41v-12h-654z" />
<glyph unicode="&#xdf;" horiz-adv-x="1341" d="M29 817v27h172v121q0 181 127 283t331 102q111 0 198.5 -33.5t144.5 -94t92 -132t53 -158.5q-160 -25 -204 -37q-122 -44 -128 -121q0 -39 26.5 -73t69 -60.5t94 -53.5t103.5 -59t94.5 -68.5t69 -89.5t26.5 -116q0 -126 -99 -201.5t-281 -75.5q-161 0 -310 39l-10 267 l12 2q51 -113 74 -150q90 -145 234 -145q50 0 85 15.5t51.5 40.5t23.5 47.5t7 45.5q0 43 -26 80.5t-67 66.5t-91 57t-100.5 58.5t-91.5 64.5t-67 81.5t-26 103.5q0 96 75 153t212 91q-36 442 -250 442q-80 0 -126 -59.5t-46 -163.5v-1114h-444v12q85 0 124.5 37.5 t39.5 124.5v643h-172z" />
<glyph unicode="&#xe0;" horiz-adv-x="1083" d="M72 215q0 62 27 108.5t76 74.5t110.5 41.5t136.5 13.5q116 0 225 -31v211q0 50 -7 87t-24.5 69t-51 48.5t-83.5 16.5q-115 0 -182 -94q39 -17 62.5 -54t23.5 -79q0 -57 -40.5 -97.5t-98.5 -40.5q-62 0 -98.5 43.5t-36.5 100.5q0 98 108 165.5t277 67.5q64 0 123.5 -10 t116 -34.5t99 -60t68 -91t25.5 -123.5v-445q0 -63 55 -63q65 0 135 108l10 -6q-46 -74 -104.5 -117.5t-149.5 -43.5q-83 0 -137 38.5t-75 104.5q-106 -146 -297 -146q-132 0 -212.5 64.5t-80.5 173.5zM285.5 1230q-8.5 43 19.5 75q28 34 72 33.5t84 -35.5q24 -20 55 -61.5 t90 -130.5t92 -136l-4 -4q-47 23 -119 56.5t-108.5 51t-75 38.5t-57.5 36q-40 34 -48.5 77zM358 227q0 -86 34 -139t100 -53q83 0 155 94v277q-74 20 -121 20q-168 0 -168 -199z" />
<glyph unicode="&#xe1;" horiz-adv-x="1083" d="M72 215q0 62 27 108.5t76 74.5t110.5 41.5t136.5 13.5q116 0 225 -31v211q0 50 -7 87t-24.5 69t-51 48.5t-83.5 16.5q-115 0 -182 -94q39 -17 62.5 -54t23.5 -79q0 -57 -40.5 -97.5t-98.5 -40.5q-62 0 -98.5 43.5t-36.5 100.5q0 98 108 165.5t277 67.5q64 0 123.5 -10 t116 -34.5t99 -60t68 -91t25.5 -123.5v-445q0 -63 55 -63q65 0 135 108l10 -6q-46 -74 -104.5 -117.5t-149.5 -43.5q-83 0 -137 38.5t-75 104.5q-106 -146 -297 -146q-132 0 -212.5 64.5t-80.5 173.5zM346 975q29 41 75.5 109t69.5 100.5t50.5 67.5t46.5 51q40 35 82.5 35.5 t70.5 -33.5q28 -32 20 -75t-48 -77q-25 -19 -71 -43t-140.5 -67.5t-151.5 -71.5zM358 227q0 -86 34 -139t100 -53q83 0 155 94v277q-74 20 -121 20q-168 0 -168 -199z" />
<glyph unicode="&#xe2;" horiz-adv-x="1083" d="M72 215q0 62 27 108.5t76 74.5t110.5 41.5t136.5 13.5q116 0 225 -31v211q0 50 -7 87t-24.5 69t-51 48.5t-83.5 16.5q-115 0 -182 -94q39 -17 62.5 -54t23.5 -79q0 -57 -40.5 -97.5t-98.5 -40.5q-62 0 -98.5 43.5t-36.5 100.5q0 98 108 165.5t277 67.5q64 0 123.5 -10 t116 -34.5t99 -60t68 -91t25.5 -123.5v-445q0 -63 55 -63q65 0 135 108l10 -6q-46 -74 -104.5 -117.5t-149.5 -43.5q-83 0 -137 38.5t-75 104.5q-106 -146 -297 -146q-132 0 -212.5 64.5t-80.5 173.5zM207 954l229 310q33 45 82 45q47 0 80 -45l229 -310l-4 -4l-305 166 l-307 -166zM358 227q0 -86 34 -139t100 -53q83 0 155 94v277q-74 20 -121 20q-168 0 -168 -199z" />
<glyph unicode="&#xe3;" horiz-adv-x="1083" d="M72 215q0 62 27 108.5t76 74.5t110.5 41.5t136.5 13.5q116 0 225 -31v211q0 50 -7 87t-24.5 69t-51 48.5t-83.5 16.5q-115 0 -182 -94q39 -17 62.5 -54t23.5 -79q0 -57 -40.5 -97.5t-98.5 -40.5q-62 0 -98.5 43.5t-36.5 100.5q0 98 108 165.5t277 67.5q64 0 123.5 -10 t116 -34.5t99 -60t68 -91t25.5 -123.5v-445q0 -63 55 -63q65 0 135 108l10 -6q-46 -74 -104.5 -117.5t-149.5 -43.5q-83 0 -137 38.5t-75 104.5q-106 -146 -297 -146q-132 0 -212.5 64.5t-80.5 173.5zM207 993q13 138 37 197q43 106 137 106q52 0 158.5 -51t162.5 -51 q33 0 55.5 11t33.5 31t16 37.5t8 41.5h10q-4 -48 -9.5 -83t-18 -80t-30 -73.5t-48 -48.5t-70.5 -20q-51 0 -156 51t-163 51q-33 0 -55.5 -11t-33.5 -31t-16 -37.5t-8 -41.5zM358 227q0 -86 34 -139t100 -53q83 0 155 94v277q-74 20 -121 20q-168 0 -168 -199z" />
<glyph unicode="&#xe4;" horiz-adv-x="1083" d="M72 215q0 62 27 108.5t76 74.5t110.5 41.5t136.5 13.5q116 0 225 -31v211q0 50 -7 87t-24.5 69t-51 48.5t-83.5 16.5q-115 0 -182 -94q39 -17 62.5 -54t23.5 -79q0 -57 -40.5 -97.5t-98.5 -40.5q-62 0 -98.5 43.5t-36.5 100.5q0 98 108 165.5t277 67.5q64 0 123.5 -10 t116 -34.5t99 -60t68 -91t25.5 -123.5v-445q0 -63 55 -63q65 0 135 108l10 -6q-46 -74 -104.5 -117.5t-149.5 -43.5q-83 0 -137 38.5t-75 104.5q-106 -146 -297 -146q-132 0 -212.5 64.5t-80.5 173.5zM188 1143q0 55 39 94t95 39q57 0 96 -39t39 -96q0 -56 -39 -95.5 t-94 -39.5t-95.5 40.5t-40.5 96.5zM358 227q0 -86 34 -139t100 -53q83 0 155 94v277q-74 20 -121 20q-168 0 -168 -199zM567 1143q0 55 38.5 94t94.5 39q57 0 96.5 -39t39.5 -96q0 -56 -39.5 -95.5t-94.5 -39.5q-54 0 -94.5 40t-40.5 97z" />
<glyph unicode="&#xe5;" horiz-adv-x="1083" d="M72 215q0 62 27 108.5t76 74.5t110.5 41.5t136.5 13.5q116 0 225 -31v211q0 50 -7 87t-24.5 69t-51 48.5t-83.5 16.5q-115 0 -182 -94q39 -17 62.5 -54t23.5 -79q0 -57 -40.5 -97.5t-98.5 -40.5q-62 0 -98.5 43.5t-36.5 100.5q0 98 108 165.5t277 67.5q64 0 123.5 -10 t116 -34.5t99 -60t68 -91t25.5 -123.5v-445q0 -63 55 -63q65 0 135 108l10 -6q-46 -74 -104.5 -117.5t-149.5 -43.5q-83 0 -137 38.5t-75 104.5q-106 -146 -297 -146q-132 0 -212.5 64.5t-80.5 173.5zM258 1157q0 94 70 152.5t182 58.5t182 -58.5t70 -152.5 q0 -92 -70 -149.5t-182 -57.5t-182 57.5t-70 149.5zM358 227q0 -86 34 -139t100 -53q83 0 155 94v277q-74 20 -121 20q-168 0 -168 -199zM434 1157q0 -201 76 -201q74 0 74 201q0 203 -74 203q-76 0 -76 -203z" />
<glyph unicode="&#xe6;" horiz-adv-x="1585" d="M72 215q0 121 96.5 179.5t253.5 58.5q116 0 225 -31v211q0 104 -36 162.5t-130 58.5q-115 0 -182 -94q38 -17 62 -54.5t24 -78.5q0 -57 -40.5 -97.5t-100.5 -40.5q-61 0 -98 44t-37 100q0 98 109 165.5t278 67.5q201 0 309 -100q121 100 293 100q183 0 298.5 -107.5 t121.5 -293.5h-598q-2 -205 73.5 -322.5t214.5 -117.5q170 0 295 176l10 -8q-152 -216 -415 -216q-126 0 -220.5 45t-150.5 125q-134 -170 -354 -170q-139 0 -220 64t-81 174zM358 238q0 -91 41 -146t115 -55q115 0 203 125q-70 109 -70 244q-74 20 -121 20 q-82 0 -125 -49.5t-43 -138.5zM920 481h321q0 40 -1.5 77t-10.5 94.5t-23.5 99t-44 72t-69.5 30.5q-57 0 -97 -61t-56.5 -141.5t-18.5 -170.5z" />
<glyph unicode="&#xe7;" horiz-adv-x="989" d="M70 422q0 102 39 186.5t105.5 140.5t154 86.5t184.5 30.5q165 0 266 -82.5t101 -187.5q0 -66 -42.5 -106.5t-103.5 -40.5t-103 42.5t-42 102.5q0 55 33 95.5t86 49.5q-49 115 -162 115q-62 0 -108 -36t-71 -96t-37 -128t-12 -143q0 -202 74 -314t205 -112q89 0 161.5 50 t123.5 126l12 -8q-77 -108 -192 -165.5t-259 -47.5l-108 -109q54 14 123 14q118 0 187 -44t69 -124q0 -48 -25.5 -84.5t-69 -56.5t-92.5 -29.5t-104 -9.5q-147 0 -250 66l8 10q28 -19 73 -32t87 -13q79 0 122.5 44t43.5 112q0 61 -34.5 99t-98.5 38q-42 0 -76 -17l-6 6 l129 132q-183 20 -287 145t-104 295z" />
<glyph unicode="&#xe8;" horiz-adv-x="1026" d="M70 422q0 191 131 317.5t336 126.5q184 0 299.5 -107.5t119.5 -293.5h-598q0 -205 76 -322.5t215 -117.5q172 0 293 176l12 -8q-30 -42 -62.5 -74.5t-82.5 -67.5t-119 -54.5t-151 -19.5q-111 0 -202 37t-148.5 99t-88 141.5t-30.5 167.5zM302 1230q-8 43 20 75 q28 34 70.5 33.5t82.5 -35.5q24 -20 55.5 -62t90.5 -129.5t94 -136.5l-4 -4q-43 21 -119 56.5t-110.5 51.5t-73 37.5t-58.5 36.5q-40 34 -48 77zM360 481h320q-8 373 -150 373q-42 0 -75.5 -34.5t-53 -91t-29.5 -119t-12 -128.5z" />
<glyph unicode="&#xe9;" horiz-adv-x="1026" d="M70 422q0 191 131 317.5t336 126.5q184 0 299.5 -107.5t119.5 -293.5h-598q0 -205 76 -322.5t215 -117.5q172 0 293 176l12 -8q-30 -42 -62.5 -74.5t-82.5 -67.5t-119 -54.5t-151 -19.5q-111 0 -202 37t-148.5 99t-88 141.5t-30.5 167.5zM352 975q24 35 60.5 89t57 83.5 t45.5 64.5t43.5 56.5t33.5 34.5q40 35 83.5 35.5t72.5 -33.5q28 -32 19 -75t-50 -77q-24 -19 -71 -43t-139 -67t-151 -72zM360 481h320q-8 373 -150 373q-42 0 -75.5 -34.5t-53 -91t-29.5 -119t-12 -128.5z" />
<glyph unicode="&#xea;" horiz-adv-x="1026" d="M70 422q0 191 131 317.5t336 126.5q184 0 299.5 -107.5t119.5 -293.5h-598q0 -205 76 -322.5t215 -117.5q172 0 293 176l12 -8q-30 -42 -62.5 -74.5t-82.5 -67.5t-119 -54.5t-151 -19.5q-111 0 -202 37t-148.5 99t-88 141.5t-30.5 167.5zM217 954l229 310q38 45 82 45 q47 0 80 -45l232 -310l-4 -4l-308 166l-307 -166zM360 481h320q-8 373 -150 373q-42 0 -75.5 -34.5t-53 -91t-29.5 -119t-12 -128.5z" />
<glyph unicode="&#xeb;" horiz-adv-x="1026" d="M70 422q0 191 131 317.5t336 126.5q184 0 299.5 -107.5t119.5 -293.5h-598q0 -205 76 -322.5t215 -117.5q172 0 293 176l12 -8q-30 -42 -62.5 -74.5t-82.5 -67.5t-119 -54.5t-151 -19.5q-111 0 -202 37t-148.5 99t-88 141.5t-30.5 167.5zM207 1143q0 55 38.5 94t94.5 39 q57 0 96 -39t39 -96q0 -56 -39 -95.5t-94 -39.5q-54 0 -94.5 40t-40.5 97zM360 481h320q-8 373 -150 373q-42 0 -75.5 -34.5t-53 -91t-29.5 -119t-12 -128.5zM586 1143q0 55 38.5 94t94.5 39q57 0 96 -39t39 -96q0 -56 -39 -95.5t-94 -39.5t-95 40t-40 97z" />
<glyph unicode="&#xec;" horiz-adv-x="612" d="M41 0v12q79 0 106 37.5t27 120.5v485q0 83 -27 120.5t-106 37.5v12l412 41v-696q0 -83 27 -120.5t106 -37.5v-12h-545zM70.5 1230q-8.5 43 19.5 75q28 34 71 33.5t83 -35.5q24 -20 55.5 -62.5t89.5 -128.5t94 -137l-4 -4q-40 19 -98 46t-90.5 42.5t-70 34t-61.5 33 t-40 26.5q-40 34 -48.5 77z" />
<glyph unicode="&#xed;" horiz-adv-x="612" d="M41 0v12q79 0 106 37.5t27 120.5v485q0 83 -27 120.5t-106 37.5v12l412 41v-696q0 -83 27 -120.5t106 -37.5v-12h-545zM102 975q24 35 60.5 89t57 83.5t45.5 64.5t43.5 56.5t33.5 34.5q40 35 83.5 35.5t72.5 -33.5q28 -32 19 -75t-50 -77q-24 -19 -71 -43t-139 -67 t-151 -72z" />
<glyph unicode="&#xee;" horiz-adv-x="612" d="M-14 954l229 310q33 45 82 45q47 0 80 -45l229 -310l-4 -4l-305 166l-307 -166zM41 0v12q79 0 106 37.5t27 120.5v485q0 83 -27 120.5t-106 37.5v12l412 41v-696q0 -83 27 -120.5t106 -37.5v-12h-545z" />
<glyph unicode="&#xef;" horiz-adv-x="612" d="M-29 1143q0 55 38.5 94t94.5 39q57 0 96.5 -39t39.5 -96q0 -56 -39.5 -95.5t-94.5 -39.5q-54 0 -94.5 40t-40.5 97zM41 0v12q79 0 106 37.5t27 120.5v485q0 83 -27 120.5t-106 37.5v12l412 41v-696q0 -83 27 -120.5t106 -37.5v-12h-545zM350 1143q0 55 38.5 94t94.5 39 q57 0 96 -39t39 -96q0 -56 -39 -95.5t-94 -39.5t-95 40t-40 97z" />
<glyph unicode="&#xf0;" horiz-adv-x="1130" d="M72 401q0 101 38.5 182.5t104.5 132t149.5 77t178.5 26.5q92 0 170 -31q-55 201 -187 347l-307 -162l-8 14l305 160q-101 110 -258 196l4 9q216 -115 307 -176l246 129l8 -17l-237 -125q467 -311 467 -694q0 -73 -15 -140.5t-52 -132.5t-92.5 -112.5t-143 -77 t-197.5 -29.5q-228 0 -354.5 118t-126.5 306zM365 385q0 -78 9 -143t29 -124t59.5 -92.5t94.5 -33.5q48 0 84.5 27.5t58 70t35 103t18.5 117.5t5 122q0 186 -39 336q-64 27 -111 27q-243 0 -243 -410z" />
<glyph unicode="&#xf1;" horiz-adv-x="1187" d="M39 0v12q79 0 106 37.5t27 120.5v485q0 83 -27 120.5t-106 37.5v12l405 41v-172q164 172 338 172q109 0 179.5 -68.5t70.5 -207.5v-420q0 -83 27 -120.5t106 -37.5v-12h-530v12q66 0 92.5 38.5t26.5 119.5v448q0 154 -123 154q-88 0 -178 -90v-512q0 -81 25 -119.5 t91 -38.5v-12h-530zM293 993q14 141 39 202q43 101 133 101q53 0 159.5 -51t161.5 -51q33 0 55.5 11t34 31.5t16.5 37t9 41.5h10q-6 -61 -14 -105t-26.5 -94.5t-52.5 -78t-83 -27.5q-51 0 -157 51t-162 51q-33 0 -55.5 -11t-33.5 -31t-16 -37.5t-8 -41.5z" />
<glyph unicode="&#xf2;" horiz-adv-x="1122" d="M70 422q0 133 67 235.5t178 155.5t246 53q136 0 247 -53t178 -155.5t67 -235.5q0 -134 -67 -236.5t-178 -155.5t-247 -53q-135 0 -246 53t-178 155.5t-67 236.5zM323 1230q-9 43 19 75q29 34 72.5 33.5t83.5 -35.5q24 -20 55.5 -62.5t89.5 -128.5t94 -137l-4 -4 q-44 21 -119.5 56.5t-110 51.5t-73 37.5t-57.5 36.5q-41 34 -50 77zM367 422q0 -210 46 -320t148 -110q103 0 149 110t46 320t-46 319t-149 109q-102 0 -148 -109.5t-46 -318.5z" />
<glyph unicode="&#xf3;" horiz-adv-x="1122" d="M70 422q0 133 67 235.5t178 155.5t246 53q136 0 247 -53t178 -155.5t67 -235.5q0 -134 -67 -236.5t-178 -155.5t-247 -53q-135 0 -246 53t-178 155.5t-67 236.5zM367 422q0 -210 46 -320t148 -110q103 0 149 110t46 320t-46 319t-149 109q-102 0 -148 -109.5t-46 -318.5z M397 975q31 44 75.5 109t68 99.5t50.5 69t46 50.5q40 35 84 35.5t72 -33.5q28 -32 19.5 -75t-48.5 -77q-25 -19 -71 -43t-140.5 -67.5t-151.5 -71.5z" />
<glyph unicode="&#xf4;" horiz-adv-x="1122" d="M70 422q0 133 67 235.5t178 155.5t246 53q136 0 247 -53t178 -155.5t67 -235.5q0 -134 -67 -236.5t-178 -155.5t-247 -53q-135 0 -246 53t-178 155.5t-67 236.5zM252 954l229 310q38 45 82 45q47 0 80 -45l231 -310l-4 -4l-307 166l-307 -166zM367 422q0 -210 46 -320 t148 -110q103 0 149 110t46 320t-46 319t-149 109q-102 0 -148 -109.5t-46 -318.5z" />
<glyph unicode="&#xf5;" horiz-adv-x="1122" d="M70 422q0 133 67 235.5t178 155.5t246 53q136 0 247 -53t178 -155.5t67 -235.5q0 -134 -67 -236.5t-178 -155.5t-247 -53q-135 0 -246 53t-178 155.5t-67 236.5zM254 993q3 27 4 38.5t5 41t8 46t11.5 43.5t16 42.5t21.5 35.5t28 30.5t35.5 18t44.5 7.5q52 0 159 -51 t163 -51q33 0 55.5 11t33.5 31.5t15.5 37.5t7.5 41h10q-4 -48 -9.5 -83t-18 -80t-29.5 -73.5t-47.5 -48.5t-69.5 -20q-52 0 -158 51t-163 51q-33 0 -55.5 -11t-33.5 -31t-16 -37.5t-8 -41.5zM367 422q0 -210 46 -320t148 -110q103 0 149 110t46 320t-46 319t-149 109 q-102 0 -148 -109.5t-46 -318.5z" />
<glyph unicode="&#xf6;" horiz-adv-x="1122" d="M70 422q0 133 67 235.5t178 155.5t246 53q136 0 247 -53t178 -155.5t67 -235.5q0 -134 -67 -236.5t-178 -155.5t-247 -53q-135 0 -246 53t-178 155.5t-67 236.5zM240 1143q0 55 38.5 94t94.5 39t95.5 -39t39.5 -96q0 -55 -39.5 -95t-93.5 -40q-56 0 -95.5 40t-39.5 97z M367 422q0 -210 46 -320t148 -110q103 0 149 110t46 320t-46 319t-149 109q-102 0 -148 -109.5t-46 -318.5zM618 1143q0 55 39 94t95 39t95.5 -39t39.5 -96q0 -55 -39.5 -95t-95.5 -40q-54 0 -94 40t-40 97z" />
<glyph unicode="&#xf7;" horiz-adv-x="1175" d="M131 494v18h911v-18h-911zM489 168q0 41 29 70.5t70 29.5t69.5 -29.5t28.5 -70.5q0 -40 -28.5 -69t-69.5 -29t-70 29t-29 69zM489 838q0 41 29 69.5t70 28.5t69.5 -28.5t28.5 -69.5q0 -40 -28.5 -70.5t-69.5 -30.5t-70 30.5t-29 70.5z" />
<glyph unicode="&#xf8;" horiz-adv-x="1122" d="M70 422q0 133 67 235.5t178 155.5t246 53q184 0 313 -94l97 102l12 -12l-94 -100q164 -128 164 -340q0 -134 -67 -236.5t-178 -155.5t-247 -53q-183 0 -317 95l-92 -101l-15 13l92 98q-159 127 -159 340zM367 422q0 -114 16 -182l352 387q-19 111 -61 167t-113 56 q-102 0 -148 -109.5t-46 -318.5zM385 219q19 -113 61.5 -170t114.5 -57q103 0 149 110t46 320q0 94 -17 184z" />
<glyph unicode="&#xf9;" horiz-adv-x="1171" d="M20 811v12l412 41v-639q0 -78 32 -116.5t91 -38.5q86 0 178 92v487q0 82 -25.5 122t-91.5 40v12l398 41v-690q0 -84 27.5 -123t105.5 -39v-12h-406v150q-165 -173 -338 -173q-109 0 -179 68t-70 207v397q0 83 -28 122.5t-106 39.5zM306 1230q-8 43 20 75q28 34 70.5 33.5 t82.5 -35.5q24 -20 55.5 -62t90.5 -129.5t94 -136.5l-4 -4q-43 21 -119 56.5t-110.5 51.5t-73 37.5t-58.5 36.5q-40 34 -48 77z" />
<glyph unicode="&#xfa;" horiz-adv-x="1171" d="M20 811v12l412 41v-639q0 -78 32 -116.5t91 -38.5q86 0 178 92v487q0 82 -25.5 122t-91.5 40v12l398 41v-690q0 -84 27.5 -123t105.5 -39v-12h-406v150q-165 -173 -338 -173q-109 0 -179 68t-70 207v397q0 83 -28 122.5t-106 39.5zM399 975q29 41 75.5 109t69.5 100.5 t50.5 67.5t46.5 51q40 35 83 35.5t71 -33.5q28 -32 19.5 -75t-48.5 -77q-25 -19 -71 -43t-140.5 -67.5t-151.5 -71.5z" />
<glyph unicode="&#xfb;" horiz-adv-x="1171" d="M20 811v12l412 41v-639q0 -78 32 -116.5t91 -38.5q86 0 178 92v487q0 82 -25.5 122t-91.5 40v12l398 41v-690q0 -84 27.5 -123t105.5 -39v-12h-406v150q-165 -173 -338 -173q-109 0 -179 68t-70 207v397q0 83 -28 122.5t-106 39.5zM254 954l229 310q38 45 82 45 q47 0 80 -45l232 -310l-5 -4l-307 166l-307 -166z" />
<glyph unicode="&#xfc;" horiz-adv-x="1171" d="M20 811v12l412 41v-639q0 -78 32 -116.5t91 -38.5q86 0 178 92v487q0 82 -25.5 122t-91.5 40v12l398 41v-690q0 -84 27.5 -123t105.5 -39v-12h-406v150q-165 -173 -338 -173q-109 0 -179 68t-70 207v397q0 83 -28 122.5t-106 39.5zM242 1143q0 55 38.5 94t94.5 39 t95.5 -39t39.5 -96q0 -55 -39.5 -95t-93.5 -40q-56 0 -95.5 40t-39.5 97zM621 1143q0 55 38.5 94t94.5 39t95.5 -39t39.5 -96q0 -55 -39.5 -95t-93.5 -40q-56 0 -95.5 40t-39.5 97z" />
<glyph unicode="&#xfd;" horiz-adv-x="1024" d="M-16 831v13h587v-13q-170 0 -88 -176l164 -360l70 162q82 191 82 264q0 110 -125 110v13h391v-13q-126 0 -211 -131q-11 -16 -21.5 -35.5t-24 -48.5t-21.5 -47t-27 -61.5t-27 -61.5l-221 -489q-144 -313 -342 -313q-58 0 -84.5 23.5t-26.5 62.5q0 46 36 68t91.5 28.5 t113.5 13t111.5 33t77.5 76.5l21 45l-326 651q-44 88 -90 137t-110 49zM403 975q24 35 60.5 89t57 83.5t45.5 64.5t43.5 56.5t33.5 34.5q40 35 83.5 35.5t72.5 -33.5q28 -32 19 -75t-50 -77q-24 -19 -70.5 -43t-139 -67t-150.5 -72z" />
<glyph unicode="&#xfe;" horiz-adv-x="1120" d="M-6 -322q78 0 105.5 39t27.5 123v1319q0 83 -27 119.5t-106 36.5v12l412 41v-631q108 129 270 129q112 0 198 -62.5t129.5 -162t43.5 -217.5q0 -124 -49 -224t-148 -161.5t-232 -61.5q-134 0 -212 60v-209q0 -78 34.5 -114t114.5 -36v-12h-561v12zM406 121 q14 -53 54.5 -89t96.5 -36q52 0 91.5 38.5t61.5 101.5t33 132.5t11 141.5q0 173 -51 277t-152 104q-82 0 -145 -74v-596z" />
<glyph unicode="&#xff;" horiz-adv-x="1024" d="M-16 831v13h587v-13q-170 0 -88 -176l164 -360l70 162q82 191 82 264q0 110 -125 110v13h391v-13q-126 0 -211 -131q-11 -16 -21.5 -35.5t-24 -48.5t-21.5 -47t-27 -61.5t-27 -61.5l-221 -489q-144 -313 -342 -313q-58 0 -84.5 23.5t-26.5 62.5q0 46 36 68t91.5 28.5 t113.5 13t111.5 33t77.5 76.5l21 45l-326 651q-44 88 -90 137t-110 49zM238 1143q0 55 38.5 94t94.5 39t95.5 -39t39.5 -96q0 -55 -39.5 -95t-93.5 -40q-56 0 -95.5 40t-39.5 97zM616 1143q0 55 39 94t95 39t95.5 -39t39.5 -96q0 -55 -39.5 -95t-93.5 -40q-56 0 -96 40 t-40 97z" />
<glyph unicode="&#x100;" horiz-adv-x="1374" d="M-82 0v12q59 0 109.5 24t83.5 53t70 91.5t55 100.5t53 118q12 27 18 41l363 836h14l471 -995q26 -56 50 -97.5t57 -84t74.5 -65t88.5 -22.5v-12h-723v12q73 0 111 35.5t36.5 93.5t-32.5 133l-65 144h-433l-14 -37q-28 -77 -35 -140.5t8.5 -116.5t67 -82.5t135.5 -29.5 v-12h-563zM330 438h411l-211 465zM379 1434v75h592v-75h-592z" />
<glyph unicode="&#x101;" horiz-adv-x="1083" d="M72 215q0 62 27 108.5t76 74.5t110.5 41.5t136.5 13.5q116 0 225 -31v211q0 50 -7 87t-24.5 69t-51 48.5t-83.5 16.5q-115 0 -182 -94q39 -17 62.5 -54t23.5 -79q0 -57 -40.5 -97.5t-98.5 -40.5q-62 0 -98.5 43.5t-36.5 100.5q0 98 108 165.5t277 67.5q64 0 123.5 -10 t116 -34.5t99 -60t68 -91t25.5 -123.5v-445q0 -63 55 -63q65 0 135 108l10 -6q-46 -74 -104.5 -117.5t-149.5 -43.5q-83 0 -137 38.5t-75 104.5q-106 -146 -297 -146q-132 0 -212.5 64.5t-80.5 173.5zM217 1024v76h594v-76h-594zM358 227q0 -86 34 -139t100 -53q83 0 155 94 v277q-74 20 -121 20q-168 0 -168 -199z" />
<glyph unicode="&#x102;" horiz-adv-x="1374" d="M-82 0v12q59 0 109.5 24t83.5 53t70 91.5t55 100.5t53 118q12 27 18 41l363 836h14l471 -995q26 -56 50 -97.5t57 -84t74.5 -65t88.5 -22.5v-12h-723v12q73 0 111 35.5t36.5 93.5t-32.5 133l-65 144h-433l-14 -37q-28 -77 -35 -140.5t8.5 -116.5t67 -82.5t135.5 -29.5 v-12h-563zM330 438h411l-211 465zM420 1739h6q16 -71 75.5 -118.5t176.5 -47.5q116 0 175 47.5t75 118.5h6q0 -56 -12.5 -112.5t-39.5 -113.5t-80 -93t-124 -36q-58 0 -104.5 24.5t-74.5 62t-46.5 86.5t-25.5 94t-7 88z" />
<glyph unicode="&#x103;" horiz-adv-x="1083" d="M72 215q0 62 27 108.5t76 74.5t110.5 41.5t136.5 13.5q116 0 225 -31v211q0 50 -7 87t-24.5 69t-51 48.5t-83.5 16.5q-115 0 -182 -94q39 -17 62.5 -54t23.5 -79q0 -57 -40.5 -97.5t-98.5 -40.5q-62 0 -98.5 43.5t-36.5 100.5q0 98 108 165.5t277 67.5q64 0 123.5 -10 t116 -34.5t99 -60t68 -91t25.5 -123.5v-445q0 -63 55 -63q65 0 135 108l10 -6q-46 -74 -104.5 -117.5t-149.5 -43.5q-83 0 -137 38.5t-75 104.5q-106 -146 -297 -146q-132 0 -212.5 64.5t-80.5 173.5zM258 1329h6q16 -71 75.5 -118.5t174.5 -47.5q118 0 177 47.5t75 118.5h6 q0 -43 -7 -88t-25.5 -94t-46.5 -86t-74.5 -61.5t-104.5 -24.5t-103.5 24.5t-73.5 61.5t-46.5 86t-25.5 94t-7 88zM358 227q0 -86 34 -139t100 -53q83 0 155 94v277q-74 20 -121 20q-168 0 -168 -199z" />
<glyph unicode="&#x104;" horiz-adv-x="1374" d="M-82 0v12q59 0 109.5 24t83.5 53t70 91.5t55 100.5t53 118q12 27 18 41l363 836h14l471 -995q26 -56 50 -97.5t57 -84t74.5 -65t88.5 -22.5v-12h-200q-38 -19 -65 -37.5t-56 -47.5t-44.5 -70t-15.5 -91q0 -82 42.5 -124t119.5 -42q46 0 105 19l4 -10q-131 -52 -260 -52 q-109 0 -168.5 45t-59.5 123q0 31 11 59t25 48.5t43 43t49 35.5t60 31t58.5 25.5t63 24t55.5 20.5h-490v12q73 0 111 35.5t36.5 93.5t-32.5 133l-65 144h-433l-14 -37q-28 -77 -35 -140.5t8.5 -116.5t67 -82.5t135.5 -29.5v-12h-563zM330 438h411l-211 465z" />
<glyph unicode="&#x105;" horiz-adv-x="1083" d="M72 215q0 62 27 108.5t76 74.5t110.5 41.5t136.5 13.5q116 0 225 -31v211q0 50 -7 87t-24.5 69t-51 48.5t-83.5 16.5q-115 0 -182 -94q39 -17 62.5 -54t23.5 -79q0 -57 -40.5 -97.5t-98.5 -40.5q-62 0 -98.5 43.5t-36.5 100.5q0 98 108 165.5t277 67.5q64 0 123.5 -10 t116 -34.5t99 -60t68 -91t25.5 -123.5v-445q0 -63 55 -63q65 0 135 108l10 -6q-27 -42 -52 -71t-68.5 -54.5t-94.5 -29.5q-70 -38 -110.5 -91.5t-40.5 -140.5q0 -82 42.5 -124t119.5 -42q45 0 104 19l4 -10q-131 -52 -262 -52q-107 0 -167 45.5t-60 122.5q0 36 12.5 68 t39 57.5t53 45.5t68 39.5t69.5 31t73 27.5q-77 4 -126.5 42t-69.5 99q-106 -146 -297 -146q-132 0 -212.5 64.5t-80.5 173.5zM358 227q0 -86 34 -139t100 -53q83 0 155 94v277q-74 20 -121 20q-168 0 -168 -199z" />
<glyph unicode="&#x106;" horiz-adv-x="1413" d="M82 625q0 198 93.5 349.5t260.5 233.5t381 82q53 0 124 -6t120 -11t110 -2.5t113 15.5l37 -432h-12q-89 221 -205 322.5t-266 101.5q-92 0 -165.5 -36.5t-121.5 -97t-80 -144.5t-45.5 -174.5t-13.5 -190.5q0 -101 13 -191.5t44 -175t77.5 -146t118.5 -98t162 -36.5 q170 0 297 122.5t213 331.5l11 -2l-70 -403q-84 -26 -208 -44t-239 -18q-179 0 -322.5 49t-236 137t-141.5 206t-49 258zM641 1384q24 35 60.5 89t57 83.5t45.5 64.5t43.5 56.5t33.5 34.5q40 35 83 35.5t72 -33.5q28 -32 19.5 -74.5t-49.5 -76.5q-24 -19 -70 -43t-140 -68 t-151 -72z" />
<glyph unicode="&#x107;" horiz-adv-x="989" d="M70 422q0 102 39 186.5t105.5 140.5t154 86.5t184.5 30.5q165 0 266 -82.5t101 -187.5q0 -66 -42.5 -106.5t-103.5 -40.5t-103 42.5t-42 102.5q0 55 33 95.5t86 49.5q-49 115 -162 115q-62 0 -108 -36t-71 -96t-37 -128t-12 -143q0 -202 74 -314t205 -112q89 0 161.5 50 t123.5 126l12 -8q-145 -216 -410 -216q-107 0 -194.5 36.5t-143.5 98.5t-86 142t-30 168zM367 975q30 42 75.5 108.5t68.5 100.5t50.5 68.5t46.5 50.5q40 35 83 35.5t71 -33.5q28 -32 19.5 -75t-48.5 -77q-25 -19 -70.5 -42.5t-140.5 -68t-151 -71.5z" />
<glyph unicode="&#x108;" horiz-adv-x="1413" d="M82 625q0 198 93.5 349.5t260.5 233.5t381 82q53 0 124 -6t120 -11t110 -2.5t113 15.5l37 -432h-12q-89 221 -205 322.5t-266 101.5q-92 0 -165.5 -36.5t-121.5 -97t-80 -144.5t-45.5 -174.5t-13.5 -190.5q0 -101 13 -191.5t44 -175t77.5 -146t118.5 -98t162 -36.5 q170 0 297 122.5t213 331.5l11 -2l-70 -403q-84 -26 -208 -44t-239 -18q-179 0 -322.5 49t-236 137t-141.5 206t-49 258zM504 1364l229 309q38 45 82 45q47 0 80 -45l231 -309l-4 -4l-307 166l-307 -166z" />
<glyph unicode="&#x109;" horiz-adv-x="989" d="M70 422q0 102 39 186.5t105.5 140.5t154 86.5t184.5 30.5q165 0 266 -82.5t101 -187.5q0 -66 -42.5 -106.5t-103.5 -40.5t-103 42.5t-42 102.5q0 55 33 95.5t86 49.5q-49 115 -162 115q-62 0 -108 -36t-71 -96t-37 -128t-12 -143q0 -202 74 -314t205 -112q89 0 161.5 50 t123.5 126l12 -8q-145 -216 -410 -216q-107 0 -194.5 36.5t-143.5 98.5t-86 142t-30 168zM205 954l231 310q33 45 80 45q44 0 82 -45l229 -310l-4 -4l-307 166l-307 -166z" />
<glyph unicode="&#x10a;" horiz-adv-x="1413" d="M82 625q0 198 93.5 349.5t260.5 233.5t381 82q53 0 124 -6t120 -11t110 -2.5t113 15.5l37 -432h-12q-89 221 -205 322.5t-266 101.5q-92 0 -165.5 -36.5t-121.5 -97t-80 -144.5t-45.5 -174.5t-13.5 -190.5q0 -101 13 -191.5t44 -175t77.5 -146t118.5 -98t162 -36.5 q170 0 297 122.5t213 331.5l11 -2l-70 -403q-84 -26 -208 -44t-239 -18q-179 0 -322.5 49t-236 137t-141.5 206t-49 258zM672 1556q0 57 40.5 98.5t98.5 41.5t99.5 -41.5t41.5 -98.5q0 -58 -41 -99.5t-100 -41.5q-58 0 -98.5 41t-40.5 100z" />
<glyph unicode="&#x10b;" horiz-adv-x="989" d="M70 422q0 102 39 186.5t105.5 140.5t154 86.5t184.5 30.5q165 0 266 -82.5t101 -187.5q0 -66 -42.5 -106.5t-103.5 -40.5t-103 42.5t-42 102.5q0 55 33 95.5t86 49.5q-49 115 -162 115q-62 0 -108 -36t-71 -96t-37 -128t-12 -143q0 -202 74 -314t205 -112q89 0 161.5 50 t123.5 126l12 -8q-145 -216 -410 -216q-107 0 -194.5 36.5t-143.5 98.5t-86 142t-30 168zM399 1147q0 57 41 98t99 41t99.5 -41t41.5 -98q0 -59 -41 -100t-100 -41q-58 0 -99 41t-41 100z" />
<glyph unicode="&#x10c;" horiz-adv-x="1413" d="M82 625q0 198 93.5 349.5t260.5 233.5t381 82q53 0 124 -6t120 -11t110 -2.5t113 15.5l37 -432h-12q-89 221 -205 322.5t-266 101.5q-92 0 -165.5 -36.5t-121.5 -97t-80 -144.5t-45.5 -174.5t-13.5 -190.5q0 -101 13 -191.5t44 -175t77.5 -146t118.5 -98t162 -36.5 q170 0 297 122.5t213 331.5l11 -2l-70 -403q-84 -26 -208 -44t-239 -18q-179 0 -322.5 49t-236 137t-141.5 206t-49 258zM516 1716l4 4l307 -166l308 166l4 -4l-232 -309q-33 -45 -80 -45q-44 0 -82 45z" />
<glyph unicode="&#x10d;" horiz-adv-x="989" d="M70 422q0 102 39 186.5t105.5 140.5t154 86.5t184.5 30.5q165 0 266 -82.5t101 -187.5q0 -66 -42.5 -106.5t-103.5 -40.5t-103 42.5t-42 102.5q0 55 33 95.5t86 49.5q-49 115 -162 115q-62 0 -108 -36t-71 -96t-37 -128t-12 -143q0 -202 74 -314t205 -112q89 0 161.5 50 t123.5 126l12 -8q-145 -216 -410 -216q-107 0 -194.5 36.5t-143.5 98.5t-86 142t-30 168zM215 1307l4 4l307 -166l308 166l4 -4l-232 -310q-33 -45 -80 -45q-44 0 -82 45z" />
<glyph unicode="&#x10e;" horiz-adv-x="1572" d="M57 0v12q106 0 140 41t34 160v840q0 119 -34 159.5t-140 40.5v13h686q346 0 545 -170t199 -463t-199 -463t-545 -170h-686zM487 1716l5 4l307 -166l307 166l4 -4l-231 -309q-33 -45 -80 -45q-44 0 -82 45zM537 14h168q98 0 176.5 34.5t129.5 93t85 139t48.5 167.5 t14.5 185t-14.5 185t-48.5 167.5t-84.5 138.5t-128.5 92.5t-176 34.5h-170v-1237z" />
<glyph unicode="&#x10f;" horiz-adv-x="1181" d="M74 418q0 192 116 320t314 128q133 0 211 -61v354q0 87 -39 121.5t-125 34.5v12l442 41v-1198q0 -83 27 -120.5t106 -37.5v-12h-403v113q-111 -136 -279 -136q-112 0 -198 62.5t-129 162t-43 216.5zM367 430q0 -107 21.5 -190.5t68.5 -135t114 -51.5q81 0 144 74v596 q-16 53 -56.5 89t-93.5 36q-52 0 -92.5 -40.5t-62.5 -105t-32.5 -134t-10.5 -138.5zM1135 905q3 44 7 140t9 150.5t14 80.5q16 42 53.5 65t77.5 9t55.5 -54t-1.5 -86q-8 -21 -30.5 -56.5t-44 -65.5t-65.5 -90.5t-69 -94.5z" />
<glyph unicode="&#x110;" horiz-adv-x="1572" d="M57 0v12q106 0 140 41t34 160v414h-159v18h159v408q0 119 -34 159.5t-140 40.5v13h688q345 0 543.5 -170t198.5 -463t-198.5 -463t-543.5 -170h-688zM537 14h168q98 0 176.5 34.5t129.5 93t85 139t48.5 167.5t14.5 185t-14.5 185t-48.5 167.5t-84.5 138.5t-128.5 92.5 t-176 34.5h-170v-606h333v-18h-333v-613z" />
<glyph unicode="&#x111;" horiz-adv-x="1150" d="M74 418q0 192 116 320t314 128q133 0 211 -61v221h-283v18h283v115q0 87 -39 121.5t-125 34.5v12l442 41v-324h140v-18h-140v-856q0 -83 27 -120.5t106 -37.5v-12h-403v113q-111 -136 -279 -136q-112 0 -198 62.5t-129 162t-43 216.5zM367 430q0 -107 21.5 -190.5 t68.5 -135t114 -51.5q81 0 144 74v596q-16 53 -56.5 89t-93.5 36q-52 0 -92.5 -40.5t-62.5 -105t-32.5 -134t-10.5 -138.5z" />
<glyph unicode="&#x112;" horiz-adv-x="1310" d="M57 0v12q106 0 140 41t34 160v840q0 119 -34 159.5t-140 40.5v13h1104l29 -414l-8 -2q-21 92 -57 162.5t-94.5 125.5t-145.5 84t-201 29h-147v-612h55q309 0 373 297h10v-606h-10q-63 295 -373 295h-55v-611h161q96 0 173.5 25t129 64t92.5 98.5t65 115.5t44 127l10 -2 l-38 -442h-1117zM371 1434v75h592v-75h-592z" />
<glyph unicode="&#x113;" horiz-adv-x="1026" d="M70 422q0 191 131 317.5t336 126.5q184 0 299.5 -107.5t119.5 -293.5h-598q0 -205 76 -322.5t215 -117.5q172 0 293 176l12 -8q-30 -42 -62.5 -74.5t-82.5 -67.5t-119 -54.5t-151 -19.5q-111 0 -202 37t-148.5 99t-88 141.5t-30.5 167.5zM231 1024v76h594v-76h-594z M360 481h320q-8 373 -150 373q-42 0 -75.5 -34.5t-53 -91t-29.5 -119t-12 -128.5z" />
<glyph unicode="&#x114;" horiz-adv-x="1310" d="M57 0v12q106 0 140 41t34 160v840q0 119 -34 159.5t-140 40.5v13h1104l29 -414l-8 -2q-21 92 -57 162.5t-94.5 125.5t-145.5 84t-201 29h-147v-612h55q309 0 373 297h10v-606h-10q-63 295 -373 295h-55v-611h161q96 0 173.5 25t129 64t92.5 98.5t65 115.5t44 127l10 -2 l-38 -442h-1117zM426 1739h6q16 -71 75.5 -118.5t176.5 -47.5q116 0 175 47.5t75 118.5h6q0 -56 -12.5 -112.5t-39.5 -113.5t-80 -93t-124 -36q-58 0 -104.5 24.5t-74.5 62t-46.5 86.5t-25.5 94t-7 88z" />
<glyph unicode="&#x115;" horiz-adv-x="1026" d="M70 422q0 191 131 317.5t336 126.5q184 0 299.5 -107.5t119.5 -293.5h-598q0 -205 76 -322.5t215 -117.5q172 0 293 176l12 -8q-30 -42 -62.5 -74.5t-82.5 -67.5t-119 -54.5t-151 -19.5q-111 0 -202 37t-148.5 99t-88 141.5t-30.5 167.5zM274 1329h5q16 -71 75.5 -118.5 t175.5 -47.5t175 47.5t75 118.5h6q0 -43 -7 -88t-25.5 -94t-46.5 -86t-73.5 -61.5t-103.5 -24.5t-104 24.5t-74 61.5t-46 86t-25 93.5t-7 88.5zM360 481h320q-8 373 -150 373q-42 0 -75.5 -34.5t-53 -91t-29.5 -119t-12 -128.5z" />
<glyph unicode="&#x116;" horiz-adv-x="1310" d="M57 0v12q106 0 140 41t34 160v840q0 119 -34 159.5t-140 40.5v13h1104l29 -414l-8 -2q-21 92 -57 162.5t-94.5 125.5t-145.5 84t-201 29h-147v-612h55q309 0 373 297h10v-606h-10q-63 295 -373 295h-55v-611h161q96 0 173.5 25t129 64t92.5 98.5t65 115.5t44 127l10 -2 l-38 -442h-1117zM543 1556q0 57 41 98.5t98 41.5q58 0 99.5 -41.5t41.5 -98.5q0 -58 -41.5 -99.5t-99.5 -41.5q-57 0 -98 41.5t-41 99.5z" />
<glyph unicode="&#x117;" horiz-adv-x="1026" d="M70 422q0 191 131 317.5t336 126.5q184 0 299.5 -107.5t119.5 -293.5h-598q0 -205 76 -322.5t215 -117.5q172 0 293 176l12 -8q-30 -42 -62.5 -74.5t-82.5 -67.5t-119 -54.5t-151 -19.5q-111 0 -202 37t-148.5 99t-88 141.5t-30.5 167.5zM360 481h320q-8 373 -150 373 q-42 0 -75.5 -34.5t-53 -91t-29.5 -119t-12 -128.5zM387 1147q0 57 41.5 98t99.5 41q57 0 98.5 -41t41.5 -98q0 -58 -41.5 -99.5t-98.5 -41.5q-58 0 -99.5 41t-41.5 100z" />
<glyph unicode="&#x118;" horiz-adv-x="1310" d="M57 0v12q106 0 140 41t34 160v840q0 119 -34 159.5t-140 40.5v13h1104l29 -414l-8 -2q-21 92 -57 162.5t-94.5 125.5t-145.5 84t-201 29h-147v-612h55q309 0 373 297h10v-606h-10q-63 295 -373 295h-55v-611h161q96 0 173.5 25t129 64t92.5 98.5t65 115.5t44 127l10 -2 l-38 -442h-111q-38 -19 -64.5 -37.5t-55.5 -47.5t-44.5 -70t-15.5 -91q0 -82 43 -124t121 -42q45 0 104 19l4 -10q-131 -52 -262 -52q-107 0 -167 45.5t-60 122.5q0 31 11 59t25.5 49t42.5 42.5t49 35t60 31t59 25.5t62 24t55 21h-973z" />
<glyph unicode="&#x119;" horiz-adv-x="1026" d="M70 422q0 191 131 317.5t336 126.5q184 0 299.5 -107.5t119.5 -293.5h-598q0 -205 76 -322.5t215 -117.5q172 0 293 176l12 -8q-40 -56 -74 -88t-89 -64q-39 -24 -64.5 -43.5t-60 -55t-52.5 -83t-18 -103.5q0 -83 42.5 -125.5t119.5 -42.5q45 0 104 19l4 -10 q-131 -52 -260 -52q-107 0 -167 45.5t-60 122.5q0 44 19.5 80.5t59 66t75.5 50t94 50t90 48.5q-84 -31 -178 -31q-111 0 -202 37t-148.5 99t-88 141.5t-30.5 167.5zM360 481h320q-8 373 -150 373q-42 0 -75.5 -34.5t-53 -91t-29.5 -119t-12 -128.5z" />
<glyph unicode="&#x11a;" horiz-adv-x="1310" d="M57 0v12q106 0 140 41t34 160v840q0 119 -34 159.5t-140 40.5v13h1104l29 -414l-8 -2q-21 92 -57 162.5t-94.5 125.5t-145.5 84t-201 29h-147v-612h55q309 0 373 297h10v-606h-10q-63 295 -373 295h-55v-611h161q96 0 173.5 25t129 64t92.5 98.5t65 115.5t44 127l10 -2 l-38 -442h-1117zM385 1716l4 4l305 -166l307 166l5 -4l-230 -309q-33 -45 -82 -45q-47 0 -80 45z" />
<glyph unicode="&#x11b;" horiz-adv-x="1026" d="M70 422q0 191 131 317.5t336 126.5q184 0 299.5 -107.5t119.5 -293.5h-598q0 -205 76 -322.5t215 -117.5q172 0 293 176l12 -8q-30 -42 -62.5 -74.5t-82.5 -67.5t-119 -54.5t-151 -19.5q-111 0 -202 37t-148.5 99t-88 141.5t-30.5 167.5zM219 1307l4 4l307 -166l308 166 l4 -4l-232 -310q-33 -45 -80 -45q-43 0 -81 45zM360 481h320q-8 373 -150 373q-42 0 -75.5 -34.5t-53 -91t-29.5 -119t-12 -128.5z" />
<glyph unicode="&#x11c;" horiz-adv-x="1597" d="M82 616q0 155 61.5 283.5t166 213t241 131t287.5 46.5q50 0 126 -6t132 -11t123.5 -2.5t119.5 15.5l37 -416l-10 -2q-52 141 -136 235t-175.5 133.5t-192.5 39.5q-93 0 -169 -36t-127.5 -97.5t-86.5 -146.5t-51 -181t-16 -203q0 -99 13.5 -187t46 -169.5t81.5 -139.5 t124.5 -93t170.5 -35q134 0 276 71v322q0 120 -38.5 166.5t-149.5 46.5v12h651v-12q-103 0 -136.5 -40t-33.5 -159v-332q-298 -88 -565 -88q-190 0 -339.5 50t-242 138t-140.5 203t-48 250zM530 1364l230 309q33 45 80 45q49 0 82 -45l229 -309l-4 -4l-307 166l-305 -166z " />
<glyph unicode="&#x11d;" horiz-adv-x="1093" d="M31 -186q0 103 202 141q-60 19 -91 50t-31 85q0 126 182 195q-103 35 -161 107t-58 167q0 135 113 221t300 86q116 0 211 -37q37 10 84 22.5t70.5 18.5t50 12t43.5 8.5t31 2.5q45 0 72.5 -23.5t27.5 -62.5t-25.5 -66.5t-64.5 -27.5q-25 0 -56.5 14.5t-58.5 33t-68.5 37 t-84.5 23.5q88 -40 136 -108t48 -154q0 -133 -113.5 -219t-302.5 -86q-93 0 -182 27q-51 -23 -51 -62q0 -28 39.5 -40.5t102 -14t138.5 -2t152.5 -9.5t139 -30.5t102 -71.5t39.5 -125q0 -134 -125 -208t-379 -74q-192 0 -312 43.5t-120 126.5zM172 -164q0 -182 309 -182 q78 0 138 11.5t94 29t56 40.5t29 43t7 40q0 43 -37.5 67t-102.5 31.5t-134 9t-150 6.5t-133 19q-76 -40 -76 -115zM178 969l230 309q32 47 79 47q50 0 82 -47l230 -309l-4 -4l-308 168l-305 -168zM350 559q0 -293 137 -293q138 0 138 293q0 295 -138 295q-137 0 -137 -295z " />
<glyph unicode="&#x11e;" horiz-adv-x="1597" d="M82 616q0 155 61.5 283.5t166 213t241 131t287.5 46.5q50 0 126 -6t132 -11t123.5 -2.5t119.5 15.5l37 -416l-10 -2q-52 141 -136 235t-175.5 133.5t-192.5 39.5q-93 0 -169 -36t-127.5 -97.5t-86.5 -146.5t-51 -181t-16 -203q0 -99 13.5 -187t46 -169.5t81.5 -139.5 t124.5 -93t170.5 -35q134 0 276 71v322q0 120 -38.5 166.5t-149.5 46.5v12h651v-12q-103 0 -136.5 -40t-33.5 -159v-332q-298 -88 -565 -88q-190 0 -339.5 50t-242 138t-140.5 203t-48 250zM612 1739h6q16 -71 75.5 -118.5t174.5 -47.5q118 0 177 47.5t75 118.5h4 q0 -44 -7 -88.5t-25 -93.5t-46 -86.5t-74 -62t-104 -24.5q-71 0 -124 36t-80 93t-39.5 113.5t-12.5 112.5z" />
<glyph unicode="&#x11f;" horiz-adv-x="991" d="M31 -186q0 103 202 141q-60 19 -91 50t-31 85q0 126 182 195q-103 35 -161 107t-58 167q0 135 113 221t300 86q126 0 222 -41q24 47 51.5 104.5t38.5 79.5t26.5 43.5t32.5 32.5q29 22 65 16t58 -38q23 -28 20.5 -61t-28.5 -58q-12 -11 -29 -22t-45.5 -24.5t-48.5 -22.5 t-63.5 -27.5t-65.5 -28.5q87 -40 134.5 -107t47.5 -153q0 -133 -113.5 -219t-302.5 -86q-93 0 -182 27q-51 -23 -51 -62q0 -28 39.5 -40.5t102 -14t138.5 -2t152.5 -9.5t139 -30.5t102 -71.5t39.5 -125q0 -134 -125 -208t-379 -74q-192 0 -312 43.5t-120 126.5zM172 -164 q0 -182 309 -182q78 0 138 11.5t94 29t56 40.5t29 43t7 40q0 43 -37.5 67t-102.5 31.5t-134 9t-150 6.5t-133 19q-76 -40 -76 -115zM229 1329h7q16 -71 75.5 -118.5t175.5 -47.5t175 47.5t75 118.5h6q0 -43 -7 -88t-25.5 -94t-46.5 -86t-73.5 -61.5t-103.5 -24.5 t-104.5 24.5t-74.5 61.5t-46.5 86t-25.5 94t-7 88zM350 559q0 -293 137 -293q138 0 138 293q0 295 -138 295q-137 0 -137 -295z" />
<glyph unicode="&#x120;" horiz-adv-x="1597" d="M82 616q0 155 61.5 283.5t166 213t241 131t287.5 46.5q50 0 126 -6t132 -11t123.5 -2.5t119.5 15.5l37 -416l-10 -2q-52 141 -136 235t-175.5 133.5t-192.5 39.5q-93 0 -169 -36t-127.5 -97.5t-86.5 -146.5t-51 -181t-16 -203q0 -99 13.5 -187t46 -169.5t81.5 -139.5 t124.5 -93t170.5 -35q134 0 276 71v322q0 120 -38.5 166.5t-149.5 46.5v12h651v-12q-103 0 -136.5 -40t-33.5 -159v-332q-298 -88 -565 -88q-190 0 -339.5 50t-242 138t-140.5 203t-48 250zM715 1556q0 57 41 98.5t98 41.5q58 0 99.5 -41.5t41.5 -98.5q0 -58 -41.5 -99.5 t-99.5 -41.5q-57 0 -98 41.5t-41 99.5z" />
<glyph unicode="&#x121;" horiz-adv-x="991" d="M31 -186q0 103 202 141q-60 19 -91 50t-31 85q0 126 182 195q-103 35 -161 107t-58 167q0 135 113 221t300 86q126 0 222 -41q24 47 51.5 104.5t38.5 79.5t26.5 43.5t32.5 32.5q29 22 65 16t58 -38q23 -28 20.5 -61t-28.5 -58q-12 -11 -29 -22t-45.5 -24.5t-48.5 -22.5 t-63.5 -27.5t-65.5 -28.5q87 -40 134.5 -107t47.5 -153q0 -133 -113.5 -219t-302.5 -86q-93 0 -182 27q-51 -23 -51 -62q0 -28 39.5 -40.5t102 -14t138.5 -2t152.5 -9.5t139 -30.5t102 -71.5t39.5 -125q0 -134 -125 -208t-379 -74q-192 0 -312 43.5t-120 126.5zM172 -164 q0 -182 309 -182q78 0 138 11.5t94 29t56 40.5t29 43t7 40q0 43 -37.5 67t-102.5 31.5t-134 9t-150 6.5t-133 19q-76 -40 -76 -115zM344 1147q0 57 41.5 98t99.5 41q57 0 98.5 -41t41.5 -98q0 -58 -41.5 -99.5t-98.5 -41.5q-59 0 -100 41t-41 100zM350 559q0 -293 137 -293 q138 0 138 293q0 295 -138 295q-137 0 -137 -295z" />
<glyph unicode="&#x122;" horiz-adv-x="1597" d="M82 616q0 155 61.5 283.5t166 213t241 131t287.5 46.5q50 0 126 -6t132 -11t123.5 -2.5t119.5 15.5l37 -416l-10 -2q-52 141 -136 235t-175.5 133.5t-192.5 39.5q-93 0 -169 -36t-127.5 -97.5t-86.5 -146.5t-51 -181t-16 -203q0 -99 13.5 -187t46 -169.5t81.5 -139.5 t124.5 -93t170.5 -35q134 0 276 71v322q0 120 -38.5 166.5t-149.5 46.5v12h651v-12q-103 0 -136.5 -40t-33.5 -159v-332q-298 -88 -565 -88q-190 0 -339.5 50t-242 138t-140.5 203t-48 250zM694 -657q88 32 153 105.5t71 160.5q-36 -25 -78 -25q-54 0 -91.5 37.5t-37.5 91.5 q0 55 40 93t99 38q66 0 104.5 -47t38.5 -119q0 -102 -77 -198.5t-216 -145.5z" />
<glyph unicode="&#x123;" horiz-adv-x="991" d="M31 -186q0 103 202 141q-60 19 -91 50t-31 85q0 126 182 195q-103 35 -161 107t-58 167q0 135 113 221t300 86q126 0 222 -41q24 47 51.5 104.5t38.5 79.5t26.5 43.5t32.5 32.5q29 22 65 16t58 -38q23 -28 20.5 -61t-28.5 -58q-12 -11 -29 -22t-45.5 -24.5t-48.5 -22.5 t-63.5 -27.5t-65.5 -28.5q87 -40 134.5 -107t47.5 -153q0 -133 -113.5 -219t-302.5 -86q-93 0 -182 27q-51 -23 -51 -62q0 -28 39.5 -40.5t102 -14t138.5 -2t152.5 -9.5t139 -30.5t102 -71.5t39.5 -125q0 -134 -125 -208t-379 -74q-192 0 -312 43.5t-120 126.5zM172 -164 q0 -182 309 -182q78 0 138 11.5t94 29t56 40.5t29 43t7 40q0 43 -37.5 67t-102.5 31.5t-134 9t-150 6.5t-133 19q-76 -40 -76 -115zM350 559q0 -293 137 -293q138 0 138 293q0 295 -138 295q-137 0 -137 -295zM352 1147q0 103 77.5 200t215.5 144l4 -8 q-88 -32 -152.5 -105.5t-70.5 -160.5q34 24 78 24q54 0 92.5 -37.5t38.5 -89.5q0 -55 -40 -93t-101 -38q-65 0 -103.5 46t-38.5 118z" />
<glyph unicode="&#x124;" horiz-adv-x="1660" d="M57 0v12q106 0 140 41t34 160v840q0 119 -34 159.5t-140 40.5v13h654v-13q-106 0 -140 -40.5t-34 -159.5v-404h587v404q0 119 -34 159.5t-140 40.5v13h652v-13q-106 0 -140.5 -40.5t-34.5 -159.5v-840q0 -119 34.5 -160t140.5 -41v-12h-652v12q106 0 140 41t34 160v418 h-587v-418q0 -119 34 -160t140 -41v-12h-654zM518 1364l232 309q33 45 79 45q44 0 82 -45l230 -309l-4 -4l-308 166l-307 -166z" />
<glyph unicode="&#x125;" horiz-adv-x="1173" d="M25 0v12q79 0 106 37.5t27 120.5v989q0 83 -27 119.5t-106 36.5v12l413 41v-666q164 164 330 164q110 0 180 -68t70 -208v-420q0 -83 27 -120.5t106 -37.5v-12h-530v12q66 0 92 38.5t26 119.5v448q0 154 -123 154q-88 0 -178 -90v-512q0 -83 27 -120.5t106 -37.5v-12 h-546zM252 1438l229 309q36 45 82 45q49 0 80 -45l231 -309l-4 -4l-307 168l-307 -168z" />
<glyph unicode="&#x126;" horiz-adv-x="1660" d="M57 0v12q106 0 140 41t34 160v709h-147v18h147v113q0 119 -34 159.5t-140 40.5v13h654v-13q-106 0 -140 -40.5t-34 -159.5v-113h587v113q0 119 -34 159.5t-140 40.5v13h652v-13q-106 0 -140.5 -40.5t-34.5 -159.5v-113h150v-18h-150v-709q0 -119 34.5 -160t140.5 -41v-12 h-652v12q106 0 140 41t34 160v418h-587v-418q0 -119 34 -160t140 -41v-12h-654zM537 649h587v273h-587v-273z" />
<glyph unicode="&#x127;" horiz-adv-x="1173" d="M18 1026v18h140v115q0 83 -27 119.5t-106 36.5v12l413 41v-324h283v-18h-283v-324q164 164 330 164q110 0 180 -68t70 -208v-420q0 -83 27 -120.5t106 -37.5v-12h-530v12q66 0 92 38.5t26 119.5v448q0 154 -123 154q-88 0 -178 -90v-512q0 -83 27 -120.5t106 -37.5v-12 h-546v12q79 0 106 37.5t27 120.5v856h-140z" />
<glyph unicode="&#x128;" horiz-adv-x="768" d="M57 0v12q106 0 140 41t34 160v840q0 119 -34 159.5t-140 40.5v13h654v-13q-106 0 -140 -40.5t-34 -159.5v-840q0 -119 34 -160t140 -41v-12h-654zM84 1403q13 138 37 197q43 106 137 106q52 0 159 -51t163 -51q26 0 46 8t31.5 19t19 29t10.5 31.5t5 32.5h10 q-4 -48 -9.5 -83t-18 -80t-30 -73.5t-48 -48.5t-70.5 -20q-51 0 -156 51.5t-163 51.5q-33 0 -55.5 -11t-33.5 -31t-16 -37.5t-8 -41.5z" />
<glyph unicode="&#x129;" horiz-adv-x="612" d="M-8 993q3 27 4 38.5t5 41t8 46t11.5 43.5t16 42.5t21.5 35.5t28 30.5t35.5 18t44.5 7.5q52 0 158.5 -51t162.5 -51q33 0 55.5 11t33.5 31t16 37.5t8 41.5h10q-4 -48 -9.5 -83t-18 -80t-29.5 -73.5t-47.5 -48.5t-69.5 -20q-52 0 -158 51t-163 51q-33 0 -55.5 -11 t-33.5 -31t-16 -37.5t-8 -41.5zM41 0v12q79 0 106 37.5t27 120.5v485q0 83 -27 120.5t-106 37.5v12l412 41v-696q0 -83 27 -120.5t106 -37.5v-12h-545z" />
<glyph unicode="&#x12a;" horiz-adv-x="768" d="M57 0v12q106 0 140 41t34 160v840q0 119 -34 159.5t-140 40.5v13h654v-13q-106 0 -140 -40.5t-34 -159.5v-840q0 -119 34 -160t140 -41v-12h-654zM88 1434v75h592v-75h-592z" />
<glyph unicode="&#x12b;" horiz-adv-x="612" d="M6 1024v76h592v-76h-592zM41 0v12q79 0 106 37.5t27 120.5v485q0 83 -27 120.5t-106 37.5v12l412 41v-696q0 -83 27 -120.5t106 -37.5v-12h-545z" />
<glyph unicode="&#x12c;" horiz-adv-x="768" d="M57 0v12q106 0 140 41t34 160v840q0 119 -34 159.5t-140 40.5v13h654v-13q-106 0 -140 -40.5t-34 -159.5v-840q0 -119 34 -160t140 -41v-12h-654zM127 1739h6q16 -71 75.5 -118.5t174.5 -47.5q118 0 177 47.5t75 118.5h4q0 -44 -7 -88.5t-25 -93.5t-46 -86.5t-74 -62 t-104 -24.5q-71 0 -124 36t-80 93t-39.5 113.5t-12.5 112.5z" />
<glyph unicode="&#x12d;" horiz-adv-x="612" d="M41 0v12q79 0 106 37.5t27 120.5v485q0 83 -27 120.5t-106 37.5v12l412 41v-696q0 -83 27 -120.5t106 -37.5v-12h-545zM49 1329h6q16 -71 75.5 -118.5t176.5 -47.5q116 0 175 47.5t75 118.5h6q0 -43 -7 -88t-25.5 -94t-46.5 -86t-73.5 -61.5t-103.5 -24.5t-104.5 24.5 t-74.5 61.5t-46.5 86t-25.5 94t-7 88z" />
<glyph unicode="&#x12e;" horiz-adv-x="768" d="M57 0v12q106 0 140 41t34 160v840q0 119 -34 159.5t-140 40.5v13h654v-13q-106 0 -140 -40.5t-34 -159.5v-840q0 -119 34 -160t140 -41v-12h-187q-38 -19 -64.5 -37.5t-55.5 -47.5t-44.5 -70t-15.5 -91q0 -82 42.5 -124t119.5 -42q45 0 104 19l4 -10q-131 -52 -260 -52 q-109 0 -168 45t-59 123q0 31 11 59t25 48.5t43 43t49 35.5t60 31t58.5 25.5t63 24t55.5 20.5h-435z" />
<glyph unicode="&#x12f;" horiz-adv-x="612" d="M41 0v12q79 0 106 37.5t27 120.5v485q0 83 -27 120.5t-106 37.5v12l412 41v-696q0 -83 27 -120.5t106 -37.5v-12h-133q-38 -19 -65 -37.5t-56 -47.5t-44.5 -70t-15.5 -91q0 -82 43 -124t121 -42q46 0 105 19l4 -10q-131 -52 -262 -52q-108 0 -168 45.5t-60 122.5 q0 31 11 59t25.5 49t43 42.5t49.5 35t59.5 31t59 25.5t62 24t55.5 21h-379zM141 1149q0 68 48 113t118 45t118 -45t48 -113q0 -70 -48 -115t-118 -45t-118 45t-48 115z" />
<glyph unicode="&#x130;" horiz-adv-x="768" d="M57 0v12q106 0 140 41t34 160v840q0 119 -34 159.5t-140 40.5v13h654v-13q-106 0 -140 -40.5t-34 -159.5v-840q0 -119 34 -160t140 -41v-12h-654zM242 1556q0 57 41 98.5t98 41.5q58 0 99.5 -41.5t41.5 -98.5q0 -58 -41 -99.5t-100 -41.5q-57 0 -98 41.5t-41 99.5z" />
<glyph unicode="&#x131;" horiz-adv-x="612" d="M41 0v12q79 0 106 37.5t27 120.5v485q0 83 -27 120.5t-106 37.5v12l412 41v-696q0 -83 27 -120.5t106 -37.5v-12h-545z" />
<glyph unicode="&#x134;" horiz-adv-x="743" d="M14 -336q54 29 92.5 63t60 67t33.5 76t15.5 78.5t3.5 84.5v1020q0 119 -34 159.5t-140 40.5v13h653v-13q-106 0 -140 -40.5t-34 -159.5v-967q0 -81 -42.5 -151.5t-117 -122.5t-160.5 -90t-186 -64zM59 1364l230 309q38 45 82 45q47 0 80 -45l231 -309l-4 -4l-307 166 l-308 -166z" />
<glyph unicode="&#x135;" horiz-adv-x="585" d="M-12 954l229 310q33 45 82 45q47 0 80 -45l229 -310l-4 -4l-305 166l-307 -166zM-8 -352q51 27 85.5 59.5t52.5 61t27.5 71t11 71t1.5 79.5v663q0 82 -34.5 120t-115.5 38v14l429 41v-825q0 -65 -28.5 -122.5t-72.5 -99t-106.5 -77.5t-120 -59t-123.5 -43z" />
<glyph unicode="&#x136;" horiz-adv-x="1484" d="M57 0v12q106 0 140 41t34 160v840q0 119 -34 159.5t-140 40.5v13h654v-13q-106 0 -140 -40.5t-34 -159.5v-527l344 342q190 190 190 293q0 92 -158 92v13h580v-13q-152 0 -305 -120q-100 -77 -287 -267l-45 -45l430 -631q65 -95 121 -136.5t115 -41.5v-12h-480l-399 608 l-106 -106v-289q0 -119 34 -160t140 -41v-12h-654zM653 -657q88 32 153 105.5t71 160.5q-36 -25 -78 -25q-54 0 -92.5 37.5t-38.5 91.5q0 55 40 93t101 38q65 0 103 -47t38 -119q0 -102 -77 -198.5t-216 -145.5z" />
<glyph unicode="&#x137;" horiz-adv-x="1130" d="M25 0v12q79 0 106 37.5t27 120.5v989q0 83 -27 119.5t-106 36.5v12l413 41v-1001l178 176q136 133 136 207q0 81 -138 81v13h488v-13q-139 0 -268 -102q-70 -53 -136 -119l-14 -14l301 -455q83 -129 186 -129v-12h-411l-266 399l-56 -53v-176q0 -83 27 -120.5t106 -37.5 v-12h-546zM457 -657q88 32 152.5 105.5t70.5 160.5q-36 -25 -78 -25q-54 0 -92.5 37.5t-38.5 91.5t40.5 92.5t100.5 38.5q65 0 104.5 -47t39.5 -119q0 -102 -78 -198.5t-217 -145.5z" />
<glyph unicode="&#x138;" horiz-adv-x="1144" d="M39 0v12q79 0 106 37.5t27 120.5v485q0 83 -27 120.5t-106 37.5v12l414 41v-499l178 176q135 132 135 207q0 81 -139 81v13h489v-13q-76 0 -139 -24.5t-131 -77.5q-68 -54 -133 -119l-15 -14l301 -455q83 -129 187 -129v-12h-412l-266 399l-55 -53v-176q0 -83 27 -120.5 t106 -37.5v-12h-547z" />
<glyph unicode="&#x139;" horiz-adv-x="1234" d="M57 0v12q106 0 140 41t34 160v840q0 119 -34 159.5t-140 40.5v13h684v-13q-112 0 -158 -45t-46 -172v-1022h127q111 0 201 34.5t150 96t99 137.5t60 169l8 -2l-31 -449h-1094zM334 1384q32 45 75.5 109.5t67.5 99t50.5 69t45.5 50.5q40 35 84 35.5t72 -33.5 q28 -32 19.5 -74.5t-48.5 -76.5q-19 -15 -57 -35.5t-76 -38.5t-108 -51t-121 -58z" />
<glyph unicode="&#x13a;" horiz-adv-x="598" d="M27 0v12q79 0 106 37.5t27 120.5v989q0 83 -27 119.5t-106 36.5v12l411 41v-1198q0 -83 27 -120.5t106 -37.5v-12h-544zM104 1438q28 40 74 107.5t69 100.5t50.5 68t46.5 51q40 35 83.5 35.5t72.5 -33.5q28 -34 19 -75.5t-50 -75.5q-19 -16 -57 -37t-75.5 -38.5t-108 -50 t-119.5 -56.5z" />
<glyph unicode="&#x13b;" horiz-adv-x="1234" d="M57 0v12q106 0 140 41t34 160v840q0 119 -34 159.5t-140 40.5v13h684v-13q-112 0 -158 -45t-46 -172v-1022h127q111 0 201 34.5t150 96t99 137.5t60 169l8 -2l-31 -449h-1094zM524 -657q88 32 153 105.5t71 160.5q-36 -25 -78 -25q-54 0 -91.5 37.5t-37.5 91.5 q0 55 40 93t99 38q66 0 104.5 -47t38.5 -119q0 -102 -77 -198.5t-216 -145.5z" />
<glyph unicode="&#x13c;" horiz-adv-x="598" d="M27 0v12q79 0 106 37.5t27 120.5v989q0 83 -27 119.5t-106 36.5v12l411 41v-1198q0 -83 27 -120.5t106 -37.5v-12h-544zM147 -657q88 33 154 106t70 160q-31 -25 -78 -25q-54 0 -91.5 37.5t-37.5 91.5q0 55 40 93t101 38q65 0 103 -47t38 -119q0 -102 -77 -198.5 t-215 -145.5z" />
<glyph unicode="&#x13d;" horiz-adv-x="1239" d="M57 0v12q106 0 140 41t34 160v840q0 119 -34 159.5t-140 40.5v13h684v-13q-112 0 -158 -45t-46 -172v-1022h127q111 0 201 34.5t150 96t99 137.5t60 169l8 -2l-31 -449h-1094zM897 836q3 40 7.5 139t9.5 152t14 79q16 42 53.5 65t77.5 9t55 -53.5t-2 -85.5 q-8 -21 -30.5 -56.5t-44 -65.5t-65.5 -90.5t-69 -94.5z" />
<glyph unicode="&#x13e;" horiz-adv-x="628" d="M27 0v12q79 0 106 37.5t27 120.5v989q0 83 -27 119.5t-106 36.5v12l411 41v-1198q0 -83 27 -120.5t106 -37.5v-12h-544zM580 905q3 44 7 140t9 150.5t14 80.5q16 42 53.5 65t77.5 9t55.5 -54t-1.5 -86q-8 -21 -30.5 -56.5t-44 -65.5t-65.5 -90.5t-69 -94.5z" />
<glyph unicode="&#x13f;" horiz-adv-x="1234" d="M57 0v12q106 0 140 41t34 160v840q0 119 -34 159.5t-140 40.5v13h684v-13q-112 0 -158 -45t-46 -172v-1022h127q111 0 201 34.5t150 96t99 137.5t60 169l8 -2l-31 -449h-1094zM825 727q0 57 41.5 98t98.5 41q58 0 99.5 -41t41.5 -98q0 -59 -41 -100t-100 -41 q-57 0 -98.5 41.5t-41.5 99.5z" />
<glyph unicode="&#x140;" horiz-adv-x="815" d="M27 0v12q79 0 106 37.5t27 120.5v989q0 83 -27 119.5t-106 36.5v12l411 41v-1198q0 -83 27 -120.5t106 -37.5v-12h-544zM567 618q0 59 41 100.5t99 41.5t99.5 -41.5t41.5 -100.5q0 -58 -41 -99.5t-100 -41.5q-58 0 -99 41t-41 100z" />
<glyph unicode="&#x141;" horiz-adv-x="1236" d="M49 535l184 63v455q0 119 -34 159.5t-140 40.5v13h682v-13q-112 0 -158 -45t-46 -172v-334l290 103l7 -19l-297 -104v-668h127q112 0 202 34.5t150 96.5t98.5 137.5t59.5 168.5l10 -2l-31 -449h-1094v12q106 0 140 41t34 160v365l-178 -62z" />
<glyph unicode="&#x142;" horiz-adv-x="608" d="M14 539l150 65v555q0 83 -27 119.5t-106 36.5v12l413 41v-645l148 65l6 -16l-154 -67v-535q0 -83 27.5 -120.5t106.5 -37.5v-12h-547v12q79 0 106 37.5t27 120.5v416l-144 -64z" />
<glyph unicode="&#x143;" horiz-adv-x="1480" d="M20 0v12q45 0 79 5.5t61.5 20.5t46 34.5t32.5 54.5t22 73t12.5 97.5t6 120.5t1.5 149v371q0 165 -53.5 240t-192.5 75v13h446l727 -801v233q0 89 -1.5 149t-6 120t-12.5 97.5t-21.5 73t-32.5 55t-46 34.5t-61 20.5t-79 5.5v13h543v-13q-60 0 -101.5 -10t-71.5 -38.5 t-47 -65.5t-26.5 -105.5t-12.5 -143t-3 -192.5v-712l-10 -2l-918 1009v-426q0 -118 3 -192.5t12.5 -143t26.5 -105.5t47 -65.5t71.5 -38.5t101.5 -10v-12h-543zM649 1384q31 44 75.5 109t68 99.5t50.5 69t46 50.5q40 35 83.5 35.5t71.5 -33.5q28 -32 20 -74.5t-48 -76.5 q-25 -19 -70.5 -42.5t-142 -68.5t-150.5 -72z" />
<glyph unicode="&#x144;" horiz-adv-x="1187" d="M39 0v12q79 0 106 37.5t27 120.5v485q0 83 -27 120.5t-106 37.5v12l405 41v-172q164 172 338 172q109 0 179.5 -68.5t70.5 -207.5v-420q0 -83 27 -120.5t106 -37.5v-12h-530v12q66 0 92.5 38.5t26.5 119.5v448q0 154 -123 154q-88 0 -178 -90v-512q0 -81 25 -119.5 t91 -38.5v-12h-530zM426 975q29 41 75.5 109t69.5 100.5t50.5 67.5t46.5 51q40 35 82.5 35.5t70.5 -33.5q28 -32 20 -75t-48 -77q-25 -19 -71 -43t-140.5 -67.5t-151.5 -71.5z" />
<glyph unicode="&#x145;" horiz-adv-x="1480" d="M20 0v12q45 0 79 5.5t61.5 20.5t46 34.5t32.5 54.5t22 73t12.5 97.5t6 120.5t1.5 149v371q0 165 -53.5 240t-192.5 75v13h446l727 -801v233q0 89 -1.5 149t-6 120t-12.5 97.5t-21.5 73t-32.5 55t-46 34.5t-61 20.5t-79 5.5v13h543v-13q-60 0 -101.5 -10t-71.5 -38.5 t-47 -65.5t-26.5 -105.5t-12.5 -143t-3 -192.5v-712l-10 -2l-918 1009v-426q0 -118 3 -192.5t12.5 -143t26.5 -105.5t47 -65.5t71.5 -38.5t101.5 -10v-12h-543zM616 -657q88 32 153 105.5t71 160.5q-36 -25 -78 -25q-54 0 -92.5 37.5t-38.5 91.5t40.5 92.5t100.5 38.5 q65 0 104 -47t39 -119q0 -102 -77.5 -198.5t-216.5 -145.5z" />
<glyph unicode="&#x146;" horiz-adv-x="1187" d="M39 0v12q79 0 106 37.5t27 120.5v485q0 83 -27 120.5t-106 37.5v12l405 41v-172q164 172 338 172q109 0 179.5 -68.5t70.5 -207.5v-420q0 -83 27 -120.5t106 -37.5v-12h-530v12q66 0 92.5 38.5t26.5 119.5v448q0 154 -123 154q-88 0 -178 -90v-512q0 -81 25 -119.5 t91 -38.5v-12h-530zM455 -657q88 32 152.5 105.5t70.5 160.5q-36 -25 -78 -25q-54 0 -92.5 37.5t-38.5 91.5t40.5 92.5t100.5 38.5q65 0 104.5 -47t39.5 -119q0 -102 -78 -198.5t-217 -145.5z" />
<glyph unicode="&#x147;" horiz-adv-x="1480" d="M20 0v12q45 0 79 5.5t61.5 20.5t46 34.5t32.5 54.5t22 73t12.5 97.5t6 120.5t1.5 149v371q0 165 -53.5 240t-192.5 75v13h446l727 -801v233q0 89 -1.5 149t-6 120t-12.5 97.5t-21.5 73t-32.5 55t-46 34.5t-61 20.5t-79 5.5v13h543v-13q-60 0 -101.5 -10t-71.5 -38.5 t-47 -65.5t-26.5 -105.5t-12.5 -143t-3 -192.5v-712l-10 -2l-918 1009v-426q0 -118 3 -192.5t12.5 -143t26.5 -105.5t47 -65.5t71.5 -38.5t101.5 -10v-12h-543zM477 1716l4 4l307 -166l306 166l4 -4l-230 -309q-33 -45 -80 -45q-48 0 -81 45z" />
<glyph unicode="&#x148;" horiz-adv-x="1187" d="M39 0v12q79 0 106 37.5t27 120.5v485q0 83 -27 120.5t-106 37.5v12l405 41v-172q164 172 338 172q109 0 179.5 -68.5t70.5 -207.5v-420q0 -83 27 -120.5t106 -37.5v-12h-530v12q66 0 92.5 38.5t26.5 119.5v448q0 154 -123 154q-88 0 -178 -90v-512q0 -81 25 -119.5 t91 -38.5v-12h-530zM289 1307l4 4l307 -166l305 166l4 -4l-229 -310q-33 -45 -80 -45q-49 0 -82 45z" />
<glyph unicode="&#x14a;" horiz-adv-x="1480" d="M20 0v12q45 0 79 5.5t61.5 20.5t46 34.5t32.5 54.5t22 73t12.5 97.5t6 120.5t1.5 149v371q0 165 -53.5 240t-192.5 75v13h446l727 -801v233q0 89 -1.5 149t-6 120t-12.5 97.5t-21.5 73t-32.5 55t-46 34.5t-61 20.5t-79 5.5v13h543v-13q-60 0 -101.5 -10t-71.5 -38.5 t-47 -65.5t-26.5 -105.5t-12.5 -143t-3 -192.5v-581q0 -89 -39 -165.5t-109 -132.5t-159.5 -96.5t-196.5 -64.5l-6 10q181 60 252 157.5t71 246.5v102l-741 819v-426q0 -118 3 -192.5t12.5 -143t26.5 -105.5t47 -65.5t71.5 -38.5t101.5 -10v-12h-543z" />
<glyph unicode="&#x14b;" horiz-adv-x="1150" d="M39 0v12q79 0 106 37.5t27 120.5v485q0 83 -27 120.5t-106 37.5v12l405 41v-172q164 172 338 172q110 0 180 -68t70 -208v-549q0 -65 -28.5 -122.5t-72.5 -99t-106 -77.5t-119.5 -59t-123.5 -43l-7 8q51 27 85.5 59.5t53 61.5t27.5 70.5t11 71t2 79.5v628q0 154 -123 154 q-88 0 -178 -90v-512q0 -81 25 -119.5t91 -38.5v-12h-530z" />
<glyph unicode="&#x14c;" horiz-adv-x="1574" d="M82 633q0 189 91 339t252 234t363 84q150 0 281.5 -49t225 -135.5t147 -209t53.5 -263.5q0 -189 -91.5 -339.5t-253 -234.5t-362.5 -84q-202 0 -363 84t-252 234.5t-91 339.5zM410 633q0 -102 10.5 -190.5t37.5 -173.5t68.5 -144.5t108.5 -96t153 -36.5q72 0 130.5 24.5 t99 70t70 104t46 132.5t24 149.5t7.5 160.5t-7.5 160.5t-24 149.5t-46 132.5t-70 104t-99 70t-130.5 24.5q-87 0 -154 -36.5t-108.5 -96.5t-68 -145t-37 -173t-10.5 -190zM492 1434v75h591v-75h-591z" />
<glyph unicode="&#x14d;" horiz-adv-x="1122" d="M70 422q0 133 67 235.5t178 155.5t246 53q136 0 247 -53t178 -155.5t67 -235.5q0 -134 -67 -236.5t-178 -155.5t-247 -53q-135 0 -246 53t-178 155.5t-67 236.5zM266 1024v76h592v-76h-592zM367 422q0 -210 46 -320t148 -110q103 0 149 110t46 320t-46 319t-149 109 q-102 0 -148 -109.5t-46 -318.5z" />
<glyph unicode="&#x14e;" horiz-adv-x="1574" d="M82 633q0 189 91 339t252 234t363 84q150 0 281.5 -49t225 -135.5t147 -209t53.5 -263.5q0 -189 -91.5 -339.5t-253 -234.5t-362.5 -84q-202 0 -363 84t-252 234.5t-91 339.5zM410 633q0 -102 10.5 -190.5t37.5 -173.5t68.5 -144.5t108.5 -96t153 -36.5q72 0 130.5 24.5 t99 70t70 104t46 132.5t24 149.5t7.5 160.5t-7.5 160.5t-24 149.5t-46 132.5t-70 104t-99 70t-130.5 24.5q-87 0 -154 -36.5t-108.5 -96.5t-68 -145t-37 -173t-10.5 -190zM530 1739h7q16 -71 75 -118.5t174 -47.5q118 0 177 47.5t75 118.5h6q0 -43 -7 -88t-25.5 -94 t-46.5 -86.5t-74.5 -62t-104.5 -24.5q-71 0 -124 36t-80 93t-39.5 113.5t-12.5 112.5z" />
<glyph unicode="&#x14f;" horiz-adv-x="1122" d="M70 422q0 133 67 235.5t178 155.5t246 53q136 0 247 -53t178 -155.5t67 -235.5q0 -134 -67 -236.5t-178 -155.5t-247 -53q-135 0 -246 53t-178 155.5t-67 236.5zM305 1329h6q16 -71 75.5 -118.5t174.5 -47.5q118 0 177 47.5t75 118.5h4q0 -44 -7 -88.5t-25 -93.5t-46 -86 t-74 -61.5t-104 -24.5t-103.5 24.5t-73.5 61.5t-46.5 86t-25.5 94t-7 88zM367 422q0 -210 46 -320t148 -110q103 0 149 110t46 320t-46 319t-149 109q-102 0 -148 -109.5t-46 -318.5z" />
<glyph unicode="&#x150;" horiz-adv-x="1574" d="M82 633q0 189 91 339t252 234t363 84q150 0 281.5 -49t225 -135.5t147 -209t53.5 -263.5q0 -189 -91.5 -339.5t-253 -234.5t-362.5 -84q-202 0 -363 84t-252 234.5t-91 339.5zM410 633q0 -102 10.5 -190.5t37.5 -173.5t68.5 -144.5t108.5 -96t153 -36.5q72 0 130.5 24.5 t99 70t70 104t46 132.5t24 149.5t7.5 160.5t-7.5 160.5t-24 149.5t-46 132.5t-70 104t-99 70t-130.5 24.5q-87 0 -154 -36.5t-108.5 -96.5t-68 -145t-37 -173t-10.5 -190zM535 1380q15 36 37 90.5t35 86t28.5 68t27.5 59t23 36.5q29 38 66 45.5t67 -14.5q31 -23 35.5 -58.5 t-25.5 -78.5q-11 -15 -30 -33t-50 -43t-56.5 -44.5t-74.5 -57t-79 -60.5zM881 1380q8 20 26 65.5t25.5 64.5t21.5 54.5t22.5 53.5t19 41t19.5 37t17 24q27 37 64.5 45.5t66.5 -14.5q32 -23 37 -59t-24 -78q-14 -18 -45.5 -45t-61 -50t-89 -68.5t-95.5 -74.5z" />
<glyph unicode="&#x151;" horiz-adv-x="1122" d="M70 422q0 133 67 235.5t178 155.5t246 53q136 0 247 -53t178 -155.5t67 -235.5q0 -134 -67 -236.5t-178 -155.5t-247 -53q-135 0 -246 53t-178 155.5t-67 236.5zM301 971q15 36 37 90.5t34.5 86t28.5 68t28.5 59t23.5 36.5q27 37 65 45t68 -15q31 -23 35.5 -58.5 t-25.5 -78.5q-18 -23 -53.5 -53t-117.5 -92t-120 -92zM367 422q0 -210 46 -320t148 -110q103 0 149 110t46 320t-46 319t-149 109q-102 0 -148 -109.5t-46 -318.5zM645 971q13 31 36.5 90t35.5 87.5t29 66.5t29.5 60t23.5 36q27 37 64 45t67 -15q32 -23 36.5 -59t-26.5 -78 q-14 -18 -45 -45.5t-59.5 -49t-90 -68.5t-96.5 -74z" />
<glyph unicode="&#x152;" horiz-adv-x="2164" d="M82 633q0 196 91.5 346.5t251.5 230.5t363 80q36 0 151 -12t151 -12h925l29 -414l-8 -2q-21 92 -57 162.5t-94.5 125.5t-145.5 84t-201 29h-147v-612h55q309 0 373 297h10v-606h-10q-63 295 -373 295h-55v-611h161q96 0 173.5 25t129 64t92.5 98.5t65 115.5t44 127l10 -2 l-38 -442h-938q-33 0 -148.5 -12.5t-153.5 -12.5q-203 0 -363 80.5t-251.5 231t-91.5 346.5zM412 633q0 -102 10.5 -190.5t37 -173.5t67.5 -144.5t108 -96t153 -36.5q146 0 221.5 58.5t75.5 172.5v817q0 113 -76.5 173.5t-220.5 60.5q-86 0 -153 -36.5t-108 -96.5 t-67.5 -145t-37 -173t-10.5 -190z" />
<glyph unicode="&#x153;" horiz-adv-x="1710" d="M70 422q0 200 141.5 322t349.5 122q214 0 340 -129q123 129 322 129q183 0 298 -107.5t121 -293.5h-598q-2 -205 74 -322.5t217 -117.5q168 0 293 176l12 -8q-30 -42 -62.5 -74.5t-82.5 -67.5t-119.5 -54.5t-152.5 -19.5q-206 0 -326 123q-126 -123 -336 -123 q-136 0 -247 53t-177.5 155.5t-66.5 236.5zM367 422q0 -210 46 -320t148 -110q103 0 149 110t46 320t-46 319t-149 109q-102 0 -148 -109.5t-46 -318.5zM1044 481h322q0 40 -1.5 77t-10.5 94.5t-23.5 99t-44 72t-69.5 30.5q-43 0 -76.5 -34.5t-53.5 -91t-30.5 -119.5 t-12.5 -128z" />
<glyph unicode="&#x154;" horiz-adv-x="1466" d="M57 0v12q106 0 140 41t34 160v840q0 119 -34 159.5t-140 40.5v13h678q285 0 425 -88t140 -246q0 -77 -33.5 -134.5t-84 -91t-125 -55t-140 -30t-145.5 -11.5v-8q78 -1 137.5 -5.5t104.5 -15.5t76.5 -23t55 -35t37 -43t26.5 -56t20.5 -65t20.5 -79.5t26 -89.5 q32 -102 72 -140t129 -38v-12h-449q-33 54 -78 225q-47 195 -56 225q-30 91 -81 121q-48 29 -151 29h-125v-387q0 -119 34 -160t140 -41v-12h-654zM537 614h153q78 0 137.5 26.5t93 72t50 101t16.5 118.5q0 65 -17 120.5t-52 101t-96.5 71.5t-143.5 26h-141v-637zM578 1384 q27 39 74 108.5t69 101t49.5 67t46.5 51.5q40 35 83.5 35.5t72.5 -33.5q28 -32 19 -74.5t-50 -76.5q-24 -19 -69.5 -43t-140 -68t-150.5 -72z" />
<glyph unicode="&#x155;" horiz-adv-x="894" d="M39 0v12q78 0 105.5 39t27.5 123v475q0 84 -27.5 123t-105.5 39v12l405 41v-278q35 118 107.5 199t167.5 81q75 0 117.5 -46.5t42.5 -108.5q0 -64 -44 -109t-106 -45q-64 0 -108.5 47.5t-40.5 118.5q-87 -40 -127 -145v-404q0 -87 32.5 -124.5t114.5 -37.5v-12h-561z M328 975q27 39 74 108.5t69 101t49.5 67t46.5 51.5q40 35 83.5 35.5t72.5 -33.5q28 -32 19 -75t-50 -77q-24 -19 -70.5 -43t-139 -67t-150.5 -72z" />
<glyph unicode="&#x156;" horiz-adv-x="1466" d="M57 0v12q106 0 140 41t34 160v840q0 119 -34 159.5t-140 40.5v13h678q285 0 425 -88t140 -246q0 -77 -33.5 -134.5t-84 -91t-125 -55t-140 -30t-145.5 -11.5v-8q78 -1 137.5 -5.5t104.5 -15.5t76.5 -23t55 -35t37 -43t26.5 -56t20.5 -65t20.5 -79.5t26 -89.5 q32 -102 72 -140t129 -38v-12h-449q-33 54 -78 225q-47 195 -56 225q-30 91 -81 121q-48 29 -151 29h-125v-387q0 -119 34 -160t140 -41v-12h-654zM537 614h153q78 0 137.5 26.5t93 72t50 101t16.5 118.5q0 65 -17 120.5t-52 101t-96.5 71.5t-143.5 26h-141v-637zM627 -657 q88 32 152.5 105.5t70.5 160.5q-36 -25 -78 -25q-54 0 -92.5 37.5t-38.5 91.5q0 55 40 93t101 38q65 0 103.5 -47t38.5 -119q0 -102 -77 -198.5t-216 -145.5z" />
<glyph unicode="&#x157;" horiz-adv-x="894" d="M39 0v12q78 0 105.5 39t27.5 123v475q0 84 -27.5 123t-105.5 39v12l405 41v-278q35 118 107.5 199t167.5 81q75 0 117.5 -46.5t42.5 -108.5q0 -64 -44 -109t-106 -45q-64 0 -108.5 47.5t-40.5 118.5q-87 -40 -127 -145v-404q0 -87 32.5 -124.5t114.5 -37.5v-12h-561z M160 -657q88 32 152.5 105.5t70.5 160.5q-36 -25 -78 -25q-54 0 -92.5 37.5t-38.5 91.5q0 55 40 93t101 38q65 0 103.5 -47t38.5 -119q0 -102 -77 -198.5t-216 -145.5z" />
<glyph unicode="&#x158;" horiz-adv-x="1466" d="M57 0v12q106 0 140 41t34 160v840q0 119 -34 159.5t-140 40.5v13h678q285 0 425 -88t140 -246q0 -77 -33.5 -134.5t-84 -91t-125 -55t-140 -30t-145.5 -11.5v-8q78 -1 137.5 -5.5t104.5 -15.5t76.5 -23t55 -35t37 -43t26.5 -56t20.5 -65t20.5 -79.5t26 -89.5 q32 -102 72 -140t129 -38v-12h-449q-33 54 -78 225q-47 195 -56 225q-30 91 -81 121q-48 29 -151 29h-125v-387q0 -119 34 -160t140 -41v-12h-654zM416 1716l4 4l305 -166l307 166l4 -4l-229 -309q-33 -45 -82 -45q-47 0 -80 45zM537 614h153q78 0 137.5 26.5t93 72t50 101 t16.5 118.5q0 65 -17 120.5t-52 101t-96.5 71.5t-143.5 26h-141v-637z" />
<glyph unicode="&#x159;" horiz-adv-x="894" d="M39 0v12q78 0 105.5 39t27.5 123v475q0 84 -27.5 123t-105.5 39v12l405 41v-278q35 118 107.5 199t167.5 81q75 0 117.5 -46.5t42.5 -108.5q0 -64 -44 -109t-106 -45q-64 0 -108.5 47.5t-40.5 118.5q-87 -40 -127 -145v-404q0 -87 32.5 -124.5t114.5 -37.5v-12h-561z M162 1307l4 4l307 -166l305 166l4 -4l-229 -310q-33 -45 -80 -45q-49 0 -82 45z" />
<glyph unicode="&#x15a;" horiz-adv-x="1187" d="M109 416l12 2q30 -78 56 -133.5t66 -115t84 -96t107 -60t139 -23.5q136 0 208.5 65t72.5 164q0 57 -25 102.5t-67.5 77t-97 58.5t-115.5 50.5t-121.5 49t-115 59t-97 75t-67.5 102.5t-25 137q0 170 121.5 265t351.5 95q53 0 115 -5.5t103.5 -11t94 -4t101.5 12.5l22 -408 l-10 -2q-25 61 -43.5 101.5t-47 93t-59 86t-69.5 64.5t-89 46t-108 15q-121 0 -184.5 -61t-63.5 -152q0 -54 25 -97.5t68 -74t98 -56.5t116 -50t122 -50t116 -60.5t98 -77t68 -105t25 -138.5q0 -181 -137 -281t-382 -100q-185 0 -446 54zM475 1384q29 41 75.5 109 t69.5 100.5t50.5 67.5t46.5 51q40 35 82.5 35.5t70.5 -33.5q28 -32 20 -74.5t-48 -76.5q-25 -19 -70.5 -42.5t-142 -68.5t-150.5 -72z" />
<glyph unicode="&#x15b;" horiz-adv-x="890" d="M90 283l10 2q61 -131 98 -180q86 -115 222 -115q95 0 136.5 43.5t41.5 97.5q0 41 -21.5 72.5t-57 51t-80.5 38.5t-92 34.5t-92 40t-80.5 53t-57 75.5t-21.5 106q0 126 92 195t261 69q44 0 110.5 -6.5t98 -7.5t98.5 10l12 -287l-10 -2q-21 47 -38.5 81t-45.5 74.5t-57 66 t-69.5 42.5t-86.5 17q-78 0 -117 -41t-39 -94q0 -44 28 -76.5t73 -53t99 -39.5t108 -42.5t99 -53.5t73 -81.5t28 -118.5q0 -132 -103 -204.5t-282 -72.5q-128 0 -328 39zM283 975q32 45 75.5 109.5t67.5 99t50.5 69t45.5 50.5q40 35 84 35.5t72 -33.5q28 -32 19.5 -75 t-48.5 -77q-25 -19 -70.5 -42.5t-140.5 -68t-151 -71.5z" />
<glyph unicode="&#x15c;" horiz-adv-x="1187" d="M109 416l12 2q30 -78 56 -133.5t66 -115t84 -96t107 -60t139 -23.5q136 0 208.5 65t72.5 164q0 57 -25 102.5t-67.5 77t-97 58.5t-115.5 50.5t-121.5 49t-115 59t-97 75t-67.5 102.5t-25 137q0 170 121.5 265t351.5 95q53 0 115 -5.5t103.5 -11t94 -4t101.5 12.5l22 -408 l-10 -2q-25 61 -43.5 101.5t-47 93t-59 86t-69.5 64.5t-89 46t-108 15q-121 0 -184.5 -61t-63.5 -152q0 -54 25 -97.5t68 -74t98 -56.5t116 -50t122 -50t116 -60.5t98 -77t68 -105t25 -138.5q0 -181 -137 -281t-382 -100q-185 0 -446 54zM297 1364l231 309q33 45 80 45 q44 0 82 -45l230 -309l-5 -4l-307 166l-307 -166z" />
<glyph unicode="&#x15d;" horiz-adv-x="890" d="M90 283l10 2q61 -131 98 -180q86 -115 222 -115q95 0 136.5 43.5t41.5 97.5q0 41 -21.5 72.5t-57 51t-80.5 38.5t-92 34.5t-92 40t-80.5 53t-57 75.5t-21.5 106q0 126 92 195t261 69q44 0 110.5 -6.5t98 -7.5t98.5 10l12 -287l-10 -2q-21 47 -38.5 81t-45.5 74.5t-57 66 t-69.5 42.5t-86.5 17q-78 0 -117 -41t-39 -94q0 -44 28 -76.5t73 -53t99 -39.5t108 -42.5t99 -53.5t73 -81.5t28 -118.5q0 -132 -103 -204.5t-282 -72.5q-128 0 -328 39zM137 954l230 310q33 45 79 45q49 0 82 -45l230 -310l-4 -4l-308 166l-305 -166z" />
<glyph unicode="&#x15e;" horiz-adv-x="1187" d="M109 416l12 2q30 -78 56 -133.5t66 -115t84 -96t107 -60t139 -23.5q136 0 208.5 65t72.5 164q0 57 -25 102.5t-67.5 77t-97 58.5t-115.5 50.5t-121.5 49t-115 59t-97 75t-67.5 102.5t-25 137q0 170 121.5 265t351.5 95q53 0 115 -5.5t103.5 -11t94 -4t101.5 12.5l22 -408 l-10 -2q-25 61 -43.5 101.5t-47 93t-59 86t-69.5 64.5t-89 46t-108 15q-121 0 -184.5 -61t-63.5 -152q0 -54 25 -97.5t68 -74t98 -56.5t116 -50t122 -50t116 -60.5t98 -77t68 -105t25 -138.5q0 -181 -136 -280.5t-389 -100.5l-104 -104q54 14 123 14q118 0 187 -44t69 -124 q0 -48 -25.5 -84.5t-69 -56.5t-92.5 -29.5t-104 -9.5q-147 0 -250 66l8 10q28 -19 73 -32t87 -13q79 0 122.5 44t43.5 112q0 61 -34.5 99t-98.5 38q-42 0 -76 -17l-6 6l125 125q-186 3 -418 54z" />
<glyph unicode="&#x15f;" horiz-adv-x="890" d="M90 283l10 2q61 -131 98 -180q86 -115 222 -115q95 0 136.5 43.5t41.5 97.5q0 41 -21.5 72.5t-57 51t-80.5 38.5t-92 34.5t-92 40t-80.5 53t-57 75.5t-21.5 106q0 126 92 195t261 69q44 0 110.5 -6.5t98 -7.5t98.5 10l12 -287l-10 -2q-21 47 -38.5 81t-45.5 74.5t-57 66 t-69.5 42.5t-86.5 17q-78 0 -117 -41t-39 -94q0 -44 28 -76.5t73 -53t99 -39.5t108 -42.5t99 -53.5t73 -81.5t28 -118.5q0 -134 -106 -207t-299 -70l-107 -106q54 14 123 14q118 0 187 -44t69 -124q0 -48 -25.5 -84.5t-69 -56.5t-92.5 -29.5t-104 -9.5q-147 0 -250 66l8 10 q28 -19 73 -32t87 -13q79 0 122.5 44t43.5 112q0 61 -34.5 99t-98.5 38q-42 0 -76 -17l-6 6l127 130q-111 2 -285 36z" />
<glyph unicode="&#x160;" horiz-adv-x="1187" d="M109 416l12 2q30 -78 56 -133.5t66 -115t84 -96t107 -60t139 -23.5q136 0 208.5 65t72.5 164q0 57 -25 102.5t-67.5 77t-97 58.5t-115.5 50.5t-121.5 49t-115 59t-97 75t-67.5 102.5t-25 137q0 170 121.5 265t351.5 95q53 0 115 -5.5t103.5 -11t94 -4t101.5 12.5l22 -408 l-10 -2q-25 61 -43.5 101.5t-47 93t-59 86t-69.5 64.5t-89 46t-108 15q-121 0 -184.5 -61t-63.5 -152q0 -54 25 -97.5t68 -74t98 -56.5t116 -50t122 -50t116 -60.5t98 -77t68 -105t25 -138.5q0 -181 -137 -281t-382 -100q-185 0 -446 54zM297 1737l4 4l305 -166l307 166 l5 -4l-230 -310q-33 -45 -82 -45q-47 0 -80 45z" />
<glyph unicode="&#x161;" horiz-adv-x="890" d="M90 283l10 2q61 -131 98 -180q86 -115 222 -115q95 0 136.5 43.5t41.5 97.5q0 41 -21.5 72.5t-57 51t-80.5 38.5t-92 34.5t-92 40t-80.5 53t-57 75.5t-21.5 106q0 126 92 195t261 69q44 0 110.5 -6.5t98 -7.5t98.5 10l12 -287l-10 -2q-21 47 -38.5 81t-45.5 74.5t-57 66 t-69.5 42.5t-86.5 17q-78 0 -117 -41t-39 -94q0 -44 28 -76.5t73 -53t99 -39.5t108 -42.5t99 -53.5t73 -81.5t28 -118.5q0 -132 -103 -204.5t-282 -72.5q-128 0 -328 39zM133 1307l4 4l307 -166l306 166l4 -4l-230 -310q-33 -45 -80 -45q-49 0 -82 45z" />
<glyph unicode="&#x162;" horiz-adv-x="1368" d="M57 813l33 453h1186l35 -453l-11 -2q-23 78 -45.5 134.5t-59.5 118t-82 99.5t-111.5 63t-149.5 25h-16v-1022q0 -129 46 -173t158 -44v-12h-385l-106 -109q58 15 123 15q118 0 187 -44t69 -124q0 -48 -25.5 -84.5t-69 -56.5t-92.5 -29.5t-104 -9.5q-152 0 -250 65l8 10 q28 -19 73 -32t87 -13q79 0 122.5 44t43.5 112q0 60 -35 98.5t-98 38.5q-41 0 -78 -16l-4 6l127 129h-307v12q112 0 158 44t46 173v1022h-16q-82 0 -148.5 -25t-111 -63t-82 -99.5t-60 -118t-46.5 -134.5z" />
<glyph unicode="&#x163;" horiz-adv-x="722" d="M29 817v27h133v219l280 53v-272h252v-27h-252v-614q0 -150 107 -150q92 0 188 117l11 -8q-164 -199 -351 -182l-106 -109q54 14 123 14q117 0 185.5 -44t68.5 -124q0 -64 -45.5 -106t-107.5 -58t-136 -16q-150 0 -250 66l6 10q30 -19 75 -32t87 -13q77 0 121.5 44.5 t44.5 111.5q0 60 -35 98.5t-98 38.5q-44 0 -78 -17l-6 6l129 132q-99 11 -156 78t-57 186v571h-133z" />
<glyph unicode="&#x164;" horiz-adv-x="1368" d="M57 813l33 453h1186l35 -453l-11 -2q-23 78 -45.5 134.5t-59.5 118t-82 99.5t-111.5 63t-149.5 25h-16v-1022q0 -129 46 -173t158 -44v-12h-714v12q112 0 158 44t46 173v1022h-16q-82 0 -148.5 -25t-111 -63t-82 -99.5t-60 -118t-46.5 -134.5zM373 1716l4 4l307 -166 l305 166l4 -4l-229 -309q-33 -45 -80 -45q-49 0 -82 45z" />
<glyph unicode="&#x165;" horiz-adv-x="720" d="M29 817v27h133v219l280 53v-272h252v-27h-252v-614q0 -150 107 -150q92 0 188 117l11 -8q-32 -38 -60 -65.5t-69 -57.5t-92 -46t-109 -16q-118 0 -187 69t-69 200v571h-133zM578 963q3 37 8 137.5t10 153.5t14 79q14 42 52 65t79 9q39 -15 54 -55t-2 -84 q-8 -21 -30.5 -56.5t-44 -65.5t-65.5 -90.5t-69 -94.5z" />
<glyph unicode="&#x166;" horiz-adv-x="1368" d="M57 813l35 453h1184l35 -453l-11 -2q-23 78 -45.5 134.5t-59.5 118t-81.5 99.5t-111 63t-148.5 25h-18v-622h268v-19h-268v-381q0 -129 46 -173t158 -44v-12h-712v12q112 0 158 44t46 173v381h-266v19h266v622h-18q-82 0 -148.5 -25t-111 -63t-81.5 -99.5t-59.5 -118 t-45.5 -134.5z" />
<glyph unicode="&#x167;" horiz-adv-x="722" d="M29 817v27h135v219l278 53v-272h252v-27h-252v-301h232v-18h-232v-295q0 -150 107 -150q92 0 188 117l11 -8q-30 -37 -58.5 -65t-70 -58t-92.5 -46t-109 -16q-116 0 -185 69t-69 200v252h-125v18h125v301h-135z" />
<glyph unicode="&#x168;" horiz-adv-x="1441" d="M33 1253v13h653v-13q-103 0 -138.5 -51t-35.5 -174v-663q0 -357 305 -357q165 0 267 104t102 306v293q0 115 -3 189t-13.5 140t-27.5 102.5t-47.5 63.5t-71 37t-99.5 10v13h542v-13q-45 0 -79 -5.5t-61 -20.5t-46 -34t-32.5 -53.5t-21.5 -71t-12.5 -95t-6 -117.5 t-1.5 -145v-293q0 -219 -121 -331t-352 -112q-88 0 -165 16t-144 51t-114.5 87.5t-75 129.5t-27.5 173v596q0 123 -35.5 174t-138.5 51zM469 1403q13 138 37 197q43 106 137 106q52 0 159 -51t163 -51q26 0 46 8t31.5 19t19 29t10.5 31.5t5 32.5h10q-4 -48 -9.5 -83t-18 -80 t-30 -73.5t-48 -48.5t-70.5 -20q-51 0 -156 51.5t-163 51.5q-33 0 -55.5 -11t-33.5 -31t-16 -37.5t-8 -41.5z" />
<glyph unicode="&#x169;" horiz-adv-x="1171" d="M20 811v12l412 41v-639q0 -78 32 -116.5t91 -38.5q86 0 178 92v487q0 82 -25.5 122t-91.5 40v12l398 41v-690q0 -84 27.5 -123t105.5 -39v-12h-406v150q-165 -173 -338 -173q-109 0 -179 68t-70 207v397q0 83 -28 122.5t-106 39.5zM260 993q3 27 4 38.5t5 41t8 46 t11.5 43.5t16 42.5t21.5 35.5t28 30.5t35.5 18t44.5 7.5q52 0 159 -51t163 -51q33 0 55.5 11t33.5 31.5t15.5 37.5t7.5 41h11q-3 -38 -7 -68.5t-12 -68t-20.5 -65.5t-30.5 -52.5t-44.5 -37.5t-59.5 -13q-51 0 -157.5 51t-162.5 51q-33 0 -55.5 -11t-34 -31.5t-16.5 -37 t-9 -41.5z" />
<glyph unicode="&#x16a;" horiz-adv-x="1441" d="M33 1253v13h653v-13q-103 0 -138.5 -51t-35.5 -174v-663q0 -357 305 -357q165 0 267 104t102 306v293q0 115 -3 189t-13.5 140t-27.5 102.5t-47.5 63.5t-71 37t-99.5 10v13h542v-13q-45 0 -79 -5.5t-61 -20.5t-46 -34t-32.5 -53.5t-21.5 -71t-12.5 -95t-6 -117.5 t-1.5 -145v-293q0 -219 -121 -331t-352 -112q-88 0 -165 16t-144 51t-114.5 87.5t-75 129.5t-27.5 173v596q0 123 -35.5 174t-138.5 51zM475 1434v75h592v-75h-592z" />
<glyph unicode="&#x16b;" horiz-adv-x="1171" d="M20 811v12l412 41v-639q0 -78 32 -116.5t91 -38.5q86 0 178 92v487q0 82 -25.5 122t-91.5 40v12l398 41v-690q0 -84 27.5 -123t105.5 -39v-12h-406v150q-165 -173 -338 -173q-109 0 -179 68t-70 207v397q0 83 -28 122.5t-106 39.5zM260 1024v76h592v-76h-592z" />
<glyph unicode="&#x16c;" horiz-adv-x="1441" d="M33 1253v13h653v-13q-103 0 -138.5 -51t-35.5 -174v-663q0 -357 305 -357q165 0 267 104t102 306v293q0 115 -3 189t-13.5 140t-27.5 102.5t-47.5 63.5t-71 37t-99.5 10v13h542v-13q-45 0 -79 -5.5t-61 -20.5t-46 -34t-32.5 -53.5t-21.5 -71t-12.5 -95t-6 -117.5 t-1.5 -145v-293q0 -219 -121 -331t-352 -112q-88 0 -165 16t-144 51t-114.5 87.5t-75 129.5t-27.5 173v596q0 123 -35.5 174t-138.5 51zM516 1739h4q16 -71 75.5 -118.5t176.5 -47.5q116 0 175 47.5t75 118.5h6q0 -56 -12.5 -112.5t-39.5 -113.5t-80 -93t-124 -36 q-58 0 -104 24.5t-74 62t-46 86.5t-25 93.5t-7 88.5z" />
<glyph unicode="&#x16d;" horiz-adv-x="1171" d="M20 811v12l412 41v-639q0 -78 32 -116.5t91 -38.5q86 0 178 92v487q0 82 -25.5 122t-91.5 40v12l398 41v-690q0 -84 27.5 -123t105.5 -39v-12h-406v150q-165 -173 -338 -173q-109 0 -179 68t-70 207v397q0 83 -28 122.5t-106 39.5zM303 1329h6q16 -71 75.5 -118.5 t174.5 -47.5q118 0 177 47.5t75 118.5h4q0 -44 -7 -88.5t-25 -93.5t-46 -86t-74 -61.5t-104 -24.5t-103.5 24.5t-73.5 61.5t-46.5 86t-25.5 94t-7 88z" />
<glyph unicode="&#x16e;" horiz-adv-x="1441" d="M33 1253v13h653v-13q-103 0 -138.5 -51t-35.5 -174v-663q0 -357 305 -357q165 0 267 104t102 306v293q0 115 -3 189t-13.5 140t-27.5 102.5t-47.5 63.5t-71 37t-99.5 10v13h542v-13q-45 0 -79 -5.5t-61 -20.5t-46 -34t-32.5 -53.5t-21.5 -71t-12.5 -95t-6 -117.5 t-1.5 -145v-293q0 -219 -121 -331t-352 -112q-88 0 -165 16t-144 51t-114.5 87.5t-75 129.5t-27.5 173v596q0 123 -35.5 174t-138.5 51zM518 1567q0 94 70 152.5t182 58.5q113 0 183.5 -58.5t70.5 -152.5q0 -92 -70.5 -149.5t-183.5 -57.5q-112 0 -182 57.5t-70 149.5z M694 1567q0 -201 76 -201t76 201q0 202 -76 202t-76 -202z" />
<glyph unicode="&#x16f;" horiz-adv-x="1171" d="M20 811v12l412 41v-639q0 -78 32 -116.5t91 -38.5q86 0 178 92v487q0 82 -25.5 122t-91.5 40v12l398 41v-690q0 -84 27.5 -123t105.5 -39v-12h-406v150q-165 -173 -338 -173q-109 0 -179 68t-70 207v397q0 83 -28 122.5t-106 39.5zM311 1157q0 94 70.5 152.5t183.5 58.5 q112 0 182 -58.5t70 -152.5q0 -92 -70 -149.5t-182 -57.5q-113 0 -183.5 57.5t-70.5 149.5zM487 1157q0 -201 78 -201q74 0 74 201q0 203 -74 203q-78 0 -78 -203z" />
<glyph unicode="&#x170;" horiz-adv-x="1441" d="M33 1253v13h653v-13q-103 0 -138.5 -51t-35.5 -174v-663q0 -357 305 -357q165 0 267 104t102 306v293q0 115 -3 189t-13.5 140t-27.5 102.5t-47.5 63.5t-71 37t-99.5 10v13h542v-13q-45 0 -79 -5.5t-61 -20.5t-46 -34t-32.5 -53.5t-21.5 -71t-12.5 -95t-6 -117.5 t-1.5 -145v-293q0 -219 -121 -331t-352 -112q-88 0 -165 16t-144 51t-114.5 87.5t-75 129.5t-27.5 173v596q0 123 -35.5 174t-138.5 51zM500 1380q15 36 37 90.5t35 86t28.5 68t27.5 59t23 36.5q29 38 66 45.5t67 -14.5q31 -23 36 -58.5t-25 -78.5q-11 -15 -30 -33 t-50 -42.5t-57.5 -45t-74.5 -57t-79 -60.5zM846 1380q8 20 26 65.5t25.5 64.5t21.5 54.5t22.5 53.5t19 41t19.5 37t17 24q27 37 64.5 45.5t66.5 -14.5q32 -23 37 -59t-24 -78q-14 -18 -45.5 -45t-61 -50t-89 -68.5t-95.5 -74.5z" />
<glyph unicode="&#x171;" horiz-adv-x="1171" d="M20 811v12l412 41v-639q0 -78 32 -116.5t91 -38.5q86 0 178 92v487q0 82 -25.5 122t-91.5 40v12l398 41v-690q0 -84 27.5 -123t105.5 -39v-12h-406v150q-165 -173 -338 -173q-109 0 -179 68t-70 207v397q0 83 -28 122.5t-106 39.5zM287 971q14 34 36.5 90.5t35 87t29 67 t29 59t23.5 36.5q27 37 64 45t67 -15q32 -23 37 -59t-26 -78q-14 -18 -45 -45.5t-59.5 -49t-90 -68.5t-96.5 -74zM633 971q17 41 45 111t42 104.5t32 71t32 53.5q27 37 65.5 45t68.5 -15q31 -23 35.5 -58.5t-25.5 -78.5q-18 -23 -53.5 -53t-117.5 -92t-120 -92z" />
<glyph unicode="&#x172;" horiz-adv-x="1441" d="M33 1253v13h653v-13q-103 0 -138.5 -51t-35.5 -174v-663q0 -357 305 -357q165 0 267 104t102 306v293q0 115 -3 189.5t-13.5 140.5t-27.5 102.5t-47.5 63.5t-71 36.5t-99.5 9.5v13h542v-13q-45 0 -79 -5.5t-61 -20.5t-46 -34t-32.5 -53.5t-21.5 -71t-12.5 -95t-6 -117.5 t-1.5 -145v-293q0 -161 -63 -258t-180 -152q-33 -14 -53 -24t-51.5 -32.5t-50 -47t-32.5 -63.5t-14 -85q0 -83 43 -125.5t121 -42.5q45 0 104 19l4 -10q-135 -52 -262 -52q-109 0 -168 45t-59 123q0 32 11.5 61t26.5 50.5t45.5 44t52 36t63 31.5t61 25.5t63.5 24.5 q-75 -11 -133 -11q-112 0 -205 26t-166.5 79t-115 143t-41.5 209v596q0 123 -35.5 174t-138.5 51z" />
<glyph unicode="&#x173;" horiz-adv-x="1171" d="M20 811v12l412 41v-639q0 -78 32 -116.5t91 -38.5q86 0 178 92v487q0 82 -25.5 122t-91.5 40v12l398 41v-690q0 -84 27.5 -123t105.5 -39v-12h-113q-38 -19 -64.5 -37.5t-55.5 -47.5t-44.5 -70t-15.5 -91q0 -82 43 -124t121 -42q45 0 104 19l4 -10q-135 -52 -262 -52 q-109 0 -168 45t-59 123q0 31 11 59t25.5 49t42.5 42.5t49 35t60 31t59 25.5t62 24t55 21h-260v150q-165 -173 -338 -173q-109 0 -179 68t-70 207v397q0 83 -28 122.5t-106 39.5z" />
<glyph unicode="&#x174;" horiz-adv-x="2023" d="M-41 1253v13h672v-13q-52 0 -83 -18t-39.5 -51t-3 -72t24.5 -88l263 -655l217 551l-25 67q-49 125 -112 195.5t-150 70.5v13h698v-13q-57 0 -92 -22t-45.5 -59.5t-6 -82t22.5 -96.5l228 -612l147 395q70 189 70 299q0 178 -178 178v13h532v-13q-164 0 -266 -170 q-46 -74 -129 -291q-7 -17 -10 -26l-301 -776h-13l-358 899l-360 -899h-15l-422 997q-15 34 -21.5 48.5t-24 49t-30 52t-35 43.5t-44 39.5t-50.5 23.5t-61 10zM750 1364l231 309q33 45 80 45q44 0 82 -45l229 -309l-4 -4l-307 166l-307 -166z" />
<glyph unicode="&#x175;" horiz-adv-x="1546" d="M-18 831v13h561v-13q-81 0 -95.5 -47t25.5 -129l168 -364l135 313l-20 47q-21 47 -34 71.5t-34 54t-44 42t-52 12.5v13h547v-13q-87 0 -107.5 -47t15.5 -129l137 -348l65 166q76 184 76 260q0 98 -117 98v13h377v-13q-129 0 -203 -114q-12 -18 -23.5 -38t-25 -51.5 t-20 -46.5t-24.5 -61t-23 -57l-201 -473h-10l-267 590l-266 -590h-10l-330 655q-44 87 -90.5 136.5t-109.5 49.5zM522 954l232 310q33 45 80 45q43 0 81 -45l230 -310l-4 -4l-307 166l-308 -166z" />
<glyph unicode="&#x176;" horiz-adv-x="1386" d="M-33 1253v13h707v-13q-100 0 -123 -62t37 -157l258 -428h2l125 215q123 209 123 301q0 131 -178 131v13h534v-13q-85 0 -147.5 -35t-118.5 -104q-67 -83 -197 -305l-127 -211v-354q0 -130 46.5 -181t158.5 -51v-12h-715v12q114 0 159.5 50.5t45.5 181.5v264l-326 526 q-65 107 -128.5 163t-135.5 56zM432 1364l230 309q33 45 81 45q47 0 80 -45l230 -309l-4 -4l-306 166l-307 -166z" />
<glyph unicode="&#x177;" horiz-adv-x="1024" d="M-16 831v13h587v-13q-170 0 -88 -176l164 -360l70 162q82 191 82 264q0 110 -125 110v13h391v-13q-126 0 -211 -131q-11 -16 -21.5 -35.5t-24 -48.5t-21.5 -47t-27 -61.5t-27 -61.5l-221 -489q-144 -313 -342 -313q-58 0 -84.5 23.5t-26.5 62.5q0 46 36 68t91.5 28.5 t113.5 13t111.5 33t77.5 76.5l21 45l-326 651q-44 88 -90 137t-110 49zM244 954l231 310q33 45 80 45q44 0 82 -45l229 -310l-4 -4l-307 166l-307 -166z" />
<glyph unicode="&#x178;" horiz-adv-x="1386" d="M-33 1253v13h707v-13q-100 0 -123 -62t37 -157l258 -428h2l125 215q123 209 123 301q0 131 -178 131v13h534v-13q-85 0 -147.5 -35t-118.5 -104q-67 -83 -197 -305l-127 -211v-354q0 -130 46.5 -181t158.5 -51v-12h-715v12q114 0 159.5 50.5t45.5 181.5v264l-326 526 q-65 107 -128.5 163t-135.5 56zM422 1552q0 55 38.5 94.5t94.5 39.5t95.5 -39.5t39.5 -96.5q0 -55 -39.5 -95t-93.5 -40q-55 0 -95 40.5t-40 96.5zM801 1552q0 55 38.5 94.5t94.5 39.5t95.5 -39.5t39.5 -96.5q0 -55 -39.5 -95t-93.5 -40q-56 0 -95.5 40t-39.5 97z" />
<glyph unicode="&#x179;" horiz-adv-x="1282" d="M57 4l785 1245h-283q-88 0 -164 -36.5t-131 -99t-93.5 -136t-61.5 -156.5l-13 2l37 443h1063l4 -4l-790 -1246h329q72 0 136.5 26t112.5 68t89 99.5t67.5 116.5t45.5 123h12l-39 -449h-1104zM545 1384q27 39 74 108.5t69 101t49.5 67t46.5 51.5q40 35 83.5 35.5 t72.5 -33.5q28 -32 19 -74.5t-50 -76.5q-24 -19 -69.5 -43t-140 -68t-150.5 -72z" />
<glyph unicode="&#x17a;" horiz-adv-x="964" d="M66 6l512 823h-134q-64 0 -121.5 -30t-101 -80.5t-75.5 -108t-54 -121.5l-10 3l35 352h764l4 -6l-510 -824h149q216 0 359 336h10l-37 -350h-786zM360 975q29 41 75.5 109t69.5 100.5t50.5 67.5t46.5 51q40 35 83 35.5t71 -33.5q28 -32 19.5 -75t-48.5 -77 q-25 -19 -70.5 -42.5t-140.5 -68t-151 -71.5z" />
<glyph unicode="&#x17b;" horiz-adv-x="1282" d="M57 4l785 1245h-283q-88 0 -164 -36.5t-131 -99t-93.5 -136t-61.5 -156.5l-13 2l37 443h1063l4 -4l-790 -1246h329q72 0 136.5 26t112.5 68t89 99.5t67.5 116.5t45.5 123h12l-39 -449h-1104zM537 1556q0 57 41.5 98.5t99.5 41.5q57 0 98 -41.5t41 -98.5q0 -58 -41 -99.5 t-98 -41.5q-58 0 -99.5 41.5t-41.5 99.5z" />
<glyph unicode="&#x17c;" horiz-adv-x="964" d="M66 6l512 823h-134q-64 0 -121.5 -30t-101 -80.5t-75.5 -108t-54 -121.5l-10 3l35 352h764l4 -6l-510 -824h149q216 0 359 336h10l-37 -350h-786zM369 1147q0 57 41.5 98t99.5 41q57 0 98 -41t41 -98q0 -58 -41 -99.5t-98 -41.5q-58 0 -99.5 41t-41.5 100z" />
<glyph unicode="&#x17d;" horiz-adv-x="1282" d="M57 4l785 1245h-283q-88 0 -164 -36.5t-131 -99t-93.5 -136t-61.5 -156.5l-13 2l37 443h1063l4 -4l-790 -1246h329q72 0 136.5 26t112.5 68t89 99.5t67.5 116.5t45.5 123h12l-39 -449h-1104zM352 1716l4 4l308 -166l307 166l4 -4l-232 -309q-33 -45 -79 -45q-44 0 -82 45 z" />
<glyph unicode="&#x17e;" horiz-adv-x="964" d="M66 6l512 823h-134q-64 0 -121.5 -30t-101 -80.5t-75.5 -108t-54 -121.5l-10 3l35 352h764l4 -6l-510 -824h149q216 0 359 336h10l-37 -350h-786zM193 1307l4 4l305 -166l307 166l4 -4l-229 -310q-33 -45 -82 -45q-47 0 -80 45z" />
<glyph unicode="&#x1fc;" horiz-adv-x="2070" d="M-90 0v12q69 0 139 33.5t137 96.5t122 129.5t118 156.5l543 760q-18 36 -53.5 50.5t-98.5 14.5v13h1104l29 -414l-8 -2q-21 92 -57 162.5t-94.5 125.5t-145.5 84t-201 29h-148v-612h56q308 0 372 297h11v-606h-11q-63 295 -372 295h-56v-611h162q96 0 173.5 25t129 64 t92.5 98.5t65 115.5t44 127l10 -2l-39 -442h-1116v12q106 0 140 41t34 160v242h-520l-27 -39q-88 -124 -112.5 -214t19 -140t157.5 -50v-12h-598zM485 475h506v578q0 82 -14 116zM1223 1384q32 45 75.5 109.5t67.5 99t50.5 69t45.5 50.5q40 35 84 35.5t72 -33.5 q28 -32 19.5 -74.5t-48.5 -76.5q-19 -15 -57 -35.5t-76 -38.5t-108 -51t-121 -58z" />
<glyph unicode="&#x1fd;" horiz-adv-x="1585" d="M72 215q0 121 96.5 179.5t253.5 58.5q116 0 225 -31v211q0 104 -36 162.5t-130 58.5q-115 0 -182 -94q38 -17 62 -54.5t24 -78.5q0 -57 -40.5 -97.5t-100.5 -40.5q-61 0 -98 44t-37 100q0 98 109 165.5t278 67.5q201 0 309 -100q121 100 293 100q183 0 298.5 -107.5 t121.5 -293.5h-598q-2 -205 73.5 -322.5t214.5 -117.5q170 0 295 176l10 -8q-152 -216 -415 -216q-126 0 -220.5 45t-150.5 125q-134 -170 -354 -170q-139 0 -220 64t-81 174zM358 238q0 -91 41 -146t115 -55q115 0 203 125q-70 109 -70 244q-74 20 -121 20 q-82 0 -125 -49.5t-43 -138.5zM649 975q24 35 60.5 89t57 83.5t45.5 64.5t43.5 56.5t33.5 34.5q40 35 83 35.5t72 -33.5q28 -32 19.5 -75t-49.5 -77q-24 -19 -71 -43t-139 -67t-151 -72zM920 481h321q0 40 -1.5 77t-10.5 94.5t-23.5 99t-44 72t-69.5 30.5q-57 0 -97 -61 t-56.5 -141.5t-18.5 -170.5z" />
<glyph unicode="&#x1fe;" horiz-adv-x="1576" d="M82 633q0 189 91 339t252 234t363 84q251 0 435 -129l125 148l14 -15l-123 -145q122 -89 189 -222t67 -294q0 -189 -91.5 -339.5t-253 -234.5t-362.5 -84q-249 0 -432 125l-125 -145l-16 14l123 144q-122 91 -189 224.5t-67 295.5zM412 633q0 -221 51 -371l643 760 q-89 252 -318 252q-73 0 -131.5 -25t-99 -71t-69.5 -104.5t-45 -133t-23.5 -149t-7.5 -158.5zM471 238q90 -246 317 -246q72 0 130.5 24.5t99 70t70 104t46 132.5t24 149.5t7.5 160.5q0 220 -51 366zM604 1405q24 35 60.5 89t57 83.5t45.5 64.5t43.5 56.5t33.5 34.5 q40 35 83 35.5t72 -33.5q28 -32 19.5 -75t-49.5 -77q-24 -19 -71 -43t-139 -67t-151 -72z" />
<glyph unicode="&#x1ff;" horiz-adv-x="1122" d="M70 422q0 133 67 235.5t178 155.5t246 53q184 0 313 -94l97 102l12 -12l-94 -100q164 -128 164 -340q0 -134 -67 -236.5t-178 -155.5t-247 -53q-183 0 -317 95l-92 -101l-15 13l92 98q-159 127 -159 340zM367 422q0 -114 16 -182l352 387q-19 111 -61 167t-113 56 q-102 0 -148 -109.5t-46 -318.5zM385 219q19 -113 61.5 -170t114.5 -57q103 0 149 110t46 320q0 94 -17 184zM397 975q24 35 60.5 89t57 83.5t45.5 64.5t43.5 56.5t33.5 34.5q40 35 83.5 35.5t72.5 -33.5q28 -32 19 -75t-50 -77q-24 -19 -71 -43t-139 -67t-151 -72z" />
<glyph unicode="&#x218;" horiz-adv-x="1187" d="M109 416l12 2q30 -78 56 -133.5t66 -115t84 -96t107 -60t139 -23.5q136 0 208.5 65t72.5 164q0 57 -25 102.5t-67.5 77t-97 58.5t-115.5 50.5t-121.5 49t-115 59t-97 75t-67.5 102.5t-25 137q0 170 121.5 265t351.5 95q53 0 115 -5.5t103.5 -11t94 -4t101.5 12.5l22 -408 l-10 -2q-25 61 -43.5 101.5t-47 93t-59 86t-69.5 64.5t-89 46t-108 15q-121 0 -184.5 -61t-63.5 -152q0 -54 25 -97.5t68 -74t98 -56.5t116 -50t122 -50t116 -60.5t98 -77t68 -105t25 -138.5q0 -181 -137 -281t-382 -100q-185 0 -446 54zM444 -657q88 32 153 105.5t71 160.5 q-36 -25 -78 -25q-54 0 -92.5 37.5t-38.5 91.5q0 55 40 93t101 38q65 0 103 -47t38 -119q0 -102 -77 -198.5t-215 -145.5z" />
<glyph unicode="&#x219;" horiz-adv-x="890" d="M90 283l10 2q61 -131 98 -180q86 -115 222 -115q95 0 136.5 43.5t41.5 97.5q0 41 -21.5 72.5t-57 51t-80.5 38.5t-92 34.5t-92 40t-80.5 53t-57 75.5t-21.5 106q0 126 92 195t261 69q44 0 110.5 -6.5t98 -7.5t98.5 10l12 -287l-10 -2q-21 47 -38.5 81t-45.5 74.5t-57 66 t-69.5 42.5t-86.5 17q-78 0 -117 -41t-39 -94q0 -44 28 -76.5t73 -53t99 -39.5t108 -42.5t99 -53.5t73 -81.5t28 -118.5q0 -132 -103 -204.5t-282 -72.5q-128 0 -328 39zM305 -657q88 32 152.5 105.5t70.5 160.5q-36 -25 -77 -25q-54 0 -93 37.5t-39 91.5t41 92.5t101 38.5 q65 0 104 -47t39 -119q0 -102 -78 -198.5t-217 -145.5z" />
<glyph unicode="&#x21a;" horiz-adv-x="1368" d="M57 813l33 453h1186l35 -453l-11 -2q-23 78 -45.5 134.5t-59.5 118t-82 99.5t-111.5 63t-149.5 25h-16v-1022q0 -129 46 -173t158 -44v-12h-714v12q112 0 158 44t46 173v1022h-16q-82 0 -148.5 -25t-111 -63t-82 -99.5t-60 -118t-46.5 -134.5zM543 -657q88 33 153.5 106 t69.5 160q-31 -25 -78 -25q-54 0 -91.5 37.5t-37.5 91.5q0 55 40 93t101 38q65 0 103.5 -47t38.5 -119q0 -102 -77 -198.5t-216 -145.5z" />
<glyph unicode="&#x21b;" horiz-adv-x="722" d="M29 817v27h133v219l280 53v-272h252v-27h-252v-614q0 -150 107 -150q92 0 188 117l11 -8q-32 -38 -60 -65.5t-69 -57.5t-92 -46t-109 -16q-118 0 -187 69t-69 200v571h-133zM264 -657q88 32 152.5 105.5t70.5 160.5q-36 -25 -77 -25q-54 0 -92.5 37.5t-38.5 91.5 t40.5 92.5t100.5 38.5q65 0 104 -47t39 -119q0 -102 -78 -198.5t-217 -145.5z" />
<glyph unicode="&#x2c6;" horiz-adv-x="927" d="M158 954l229 310q33 45 80 45q49 0 82 -45l229 -310l-4 -4l-307 166l-305 -166z" />
<glyph unicode="&#x2c7;" horiz-adv-x="919" d="M158 1307l4 4l305 -166l307 166l4 -4l-229 -310q-33 -45 -82 -45q-47 0 -80 45z" />
<glyph unicode="&#x2d8;" horiz-adv-x="747" d="M119 1329h6q16 -71 75.5 -118.5t176.5 -47.5q116 0 175 47.5t75 118.5h6q0 -43 -7 -88t-25.5 -94t-46.5 -86t-73.5 -61.5t-103.5 -24.5t-104.5 24.5t-74.5 61.5t-46.5 86t-25.5 94t-7 88z" />
<glyph unicode="&#x2d9;" horiz-adv-x="612" d="M176 1147q0 57 41 98t98 41q58 0 100 -41t42 -98q0 -58 -41.5 -99.5t-100.5 -41.5q-57 0 -98 41.5t-41 99.5z" />
<glyph unicode="&#x2da;" horiz-adv-x="708" d="M102 1157q0 94 70 152.5t182 58.5t182 -58.5t70 -152.5q0 -92 -70 -149.5t-182 -57.5t-182 57.5t-70 149.5zM279 1157q0 -201 75 -201q74 0 74 201q0 203 -74 203q-75 0 -75 -203z" />
<glyph unicode="&#x2db;" horiz-adv-x="724" d="M135 -287q0 53 29 97t81 75.5t100 52.5t112 45t92 37l6 -8q-88 -48 -120 -76q-83 -71 -83 -182q0 -82 42.5 -124t119.5 -42q45 0 104 19l5 -10q-131 -52 -261 -52q-109 0 -168 45t-59 123z" />
<glyph unicode="&#x2dc;" horiz-adv-x="847" d="M121 993q3 27 4 38.5t5 41t8 46t11.5 43.5t16 42.5t21.5 35.5t28 30.5t35.5 18t44.5 7.5q52 0 158.5 -51t162.5 -51q33 0 55.5 11t33.5 31t16 37.5t8 41.5h10q-4 -48 -9.5 -83t-18 -80t-29.5 -73.5t-47.5 -48.5t-69.5 -20q-52 0 -158 51t-163 51q-33 0 -55.5 -11 t-33.5 -31t-16 -37.5t-8 -41.5z" />
<glyph unicode="&#x2dd;" horiz-adv-x="983" d="M164 971q17 41 45 111t42 104.5t32 71t32 53.5q27 37 64.5 45t66.5 -15q32 -23 37 -59t-24 -78q-18 -23 -53.5 -53t-117.5 -92t-120 -92zM508 971q15 36 37 90.5t35 86t28.5 68t27.5 59t23 36.5q29 37 66.5 45t67.5 -15q31 -23 35.5 -58.5t-25.5 -78.5q-18 -23 -53.5 -53 t-117.5 -92t-120 -92z" />
<glyph unicode="&#x1e80;" horiz-adv-x="2023" d="M-41 1253v13h672v-13q-52 0 -83 -18t-39.5 -51t-3 -72t24.5 -88l263 -655l217 551l-25 67q-49 125 -112 195.5t-150 70.5v13h698v-13q-57 0 -92 -22t-45.5 -59.5t-6 -82t22.5 -96.5l228 -612l147 395q70 189 70 299q0 178 -178 178v13h532v-13q-164 0 -266 -170 q-46 -74 -129 -291q-7 -17 -10 -26l-301 -776h-13l-358 899l-360 -899h-15l-422 997q-15 34 -21.5 48.5t-24 49t-30 52t-35 43.5t-44 39.5t-50.5 23.5t-61 10zM796 1639.5q-9 42.5 19 74.5q29 34 72.5 33.5t83.5 -35.5q24 -20 55.5 -62.5t89.5 -128.5t94 -137l-4 -4 q-39 19 -98 46.5t-91 42.5t-70 34t-62 33.5t-39 26.5q-41 34 -50 76.5z" />
<glyph unicode="&#x1e81;" horiz-adv-x="1546" d="M-18 831v13h561v-13q-81 0 -95.5 -47t25.5 -129l168 -364l135 313l-20 47q-21 47 -34 71.5t-34 54t-44 42t-52 12.5v13h547v-13q-87 0 -107.5 -47t15.5 -129l137 -348l65 166q76 184 76 260q0 98 -117 98v13h377v-13q-129 0 -203 -114q-12 -18 -23.5 -38t-25 -51.5 t-20 -46.5t-24.5 -61t-23 -57l-201 -473h-10l-267 590l-266 -590h-10l-330 655q-44 87 -90.5 136.5t-109.5 49.5zM551.5 1230q-8.5 43 19.5 75q28 34 72 33.5t84 -35.5q19 -16 46 -50.5t50.5 -69.5t67 -99.5t74.5 -108.5l-4 -4q-48 23 -119.5 56.5t-108.5 51t-75.5 38.5 t-57.5 36q-40 34 -48.5 77z" />
<glyph unicode="&#x1e82;" horiz-adv-x="2023" d="M-41 1253v13h672v-13q-52 0 -83 -18t-39.5 -51t-3 -72t24.5 -88l263 -655l217 551l-25 67q-49 125 -112 195.5t-150 70.5v13h698v-13q-57 0 -92 -22t-45.5 -59.5t-6 -82t22.5 -96.5l228 -612l147 395q70 189 70 299q0 178 -178 178v13h532v-13q-164 0 -266 -170 q-46 -74 -129 -291q-7 -17 -10 -26l-301 -776h-13l-358 899l-360 -899h-15l-422 997q-15 34 -21.5 48.5t-24 49t-30 52t-35 43.5t-44 39.5t-50.5 23.5t-61 10zM920 1384q30 42 75.5 108.5t68.5 100.5t50.5 68.5t46.5 50.5q40 35 83 35.5t71 -33.5q28 -32 19.5 -74.5 t-48.5 -76.5q-19 -15 -57 -35.5t-76 -38.5t-108 -51t-121 -58z" />
<glyph unicode="&#x1e83;" horiz-adv-x="1546" d="M-18 831v13h561v-13q-81 0 -95.5 -47t25.5 -129l168 -364l135 313l-20 47q-21 47 -34 71.5t-34 54t-44 42t-52 12.5v13h547v-13q-87 0 -107.5 -47t15.5 -129l137 -348l65 166q76 184 76 260q0 98 -117 98v13h377v-13q-129 0 -203 -114q-12 -18 -23.5 -38t-25 -51.5 t-20 -46.5t-24.5 -61t-23 -57l-201 -473h-10l-267 590l-266 -590h-10l-330 655q-44 87 -90.5 136.5t-109.5 49.5zM700 975q29 41 75.5 109t69.5 100.5t50.5 67.5t46.5 51q40 35 83 35.5t71 -33.5q28 -32 19.5 -75t-48.5 -77q-25 -19 -70.5 -42.5t-140.5 -68t-151 -71.5z" />
<glyph unicode="&#x1e84;" horiz-adv-x="2023" d="M-41 1253v13h672v-13q-52 0 -83 -18t-39.5 -51t-3 -72t24.5 -88l263 -655l217 551l-25 67q-49 125 -112 195.5t-150 70.5v13h698v-13q-57 0 -92 -22t-45.5 -59.5t-6 -82t22.5 -96.5l228 -612l147 395q70 189 70 299q0 178 -178 178v13h532v-13q-164 0 -266 -170 q-46 -74 -129 -291q-7 -17 -10 -26l-301 -776h-13l-358 899l-360 -899h-15l-422 997q-15 34 -21.5 48.5t-24 49t-30 52t-35 43.5t-44 39.5t-50.5 23.5t-61 10zM725 1552q0 55 38.5 94.5t94.5 39.5q57 0 96 -39.5t39 -96.5q0 -56 -39 -95.5t-94 -39.5q-54 0 -94.5 40.5 t-40.5 96.5zM1104 1552q0 55 38.5 94.5t94.5 39.5q57 0 96 -39.5t39 -96.5q0 -56 -39 -95.5t-94 -39.5t-95 40.5t-40 96.5z" />
<glyph unicode="&#x1e85;" horiz-adv-x="1546" d="M-18 831v13h561v-13q-81 0 -95.5 -47t25.5 -129l168 -364l135 313l-20 47q-21 47 -34 71.5t-34 54t-44 42t-52 12.5v13h547v-13q-87 0 -107.5 -47t15.5 -129l137 -348l65 166q76 184 76 260q0 98 -117 98v13h377v-13q-129 0 -203 -114q-12 -18 -23.5 -38t-25 -51.5 t-20 -46.5t-24.5 -61t-23 -57l-201 -473h-10l-267 590l-266 -590h-10l-330 655q-44 87 -90.5 136.5t-109.5 49.5zM477 1143q0 55 38.5 94t94.5 39q57 0 96 -39t39 -96q0 -56 -39 -95.5t-94 -39.5q-54 0 -94.5 40t-40.5 97zM856 1143q0 55 38.5 94t94.5 39q57 0 96 -39 t39 -96q0 -56 -39 -95.5t-94 -39.5t-95 40t-40 97z" />
<glyph unicode="&#x1ef2;" horiz-adv-x="1386" d="M-33 1253v13h707v-13q-100 0 -123 -62t37 -157l258 -428h2l125 215q123 209 123 301q0 131 -178 131v13h534v-13q-85 0 -147.5 -35t-118.5 -104q-67 -83 -197 -305l-127 -211v-354q0 -130 46.5 -181t158.5 -51v-12h-715v12q114 0 159.5 50.5t45.5 181.5v264l-326 526 q-65 107 -128.5 163t-135.5 56zM463.5 1639.5q-8.5 42.5 19.5 74.5q28 34 71 33.5t83 -35.5q24 -20 55.5 -62t90.5 -129.5t94 -136.5l-5 -4q-37 18 -97.5 46.5t-91.5 43t-69.5 33.5t-62 33.5t-39.5 26.5q-40 34 -48.5 76.5z" />
<glyph unicode="&#x1ef3;" horiz-adv-x="1024" d="M-16 831v13h587v-13q-170 0 -88 -176l164 -360l70 162q82 191 82 264q0 110 -125 110v13h391v-13q-126 0 -211 -131q-11 -16 -21.5 -35.5t-24 -48.5t-21.5 -47t-27 -61.5t-27 -61.5l-221 -489q-144 -313 -342 -313q-58 0 -84.5 23.5t-26.5 62.5q0 46 36 68t91.5 28.5 t113.5 13t111.5 33t77.5 76.5l21 45l-326 651q-44 88 -90 137t-110 49zM291.5 1230q-8.5 43 19.5 75q28 34 71 33.5t83 -35.5q24 -20 55.5 -62t90.5 -129.5t94 -136.5l-5 -4q-40 19 -98 46t-90.5 42.5t-70 34t-61.5 33t-40 26.5q-40 34 -48.5 77z" />
<glyph unicode="&#x2000;" horiz-adv-x="984" />
<glyph unicode="&#x2001;" horiz-adv-x="1968" />
<glyph unicode="&#x2002;" horiz-adv-x="984" />
<glyph unicode="&#x2003;" horiz-adv-x="1968" />
<glyph unicode="&#x2004;" horiz-adv-x="656" />
<glyph unicode="&#x2005;" horiz-adv-x="492" />
<glyph unicode="&#x2006;" horiz-adv-x="328" />
<glyph unicode="&#x2007;" horiz-adv-x="328" />
<glyph unicode="&#x2008;" horiz-adv-x="246" />
<glyph unicode="&#x2009;" horiz-adv-x="393" />
<glyph unicode="&#x200a;" horiz-adv-x="109" />
<glyph unicode="&#x2013;" horiz-adv-x="1171" d="M117 442v78h938v-78h-938z" />
<glyph unicode="&#x2014;" horiz-adv-x="1777" d="M117 442v78h1544v-78h-1544z" />
<glyph unicode="&#x2018;" horiz-adv-x="487" d="M74 1010q0 117 89 228.5t247 164.5l4 -8q-100 -37 -174 -121.5t-80 -183.5q42 30 90 30q62 0 105.5 -44t43.5 -105q0 -62 -46.5 -107t-114.5 -45q-75 0 -119.5 53.5t-44.5 137.5z" />
<glyph unicode="&#x2019;" horiz-adv-x="501" d="M98 827q100 37 174.5 121.5t81.5 184.5q-43 -31 -90 -31q-62 0 -105.5 44t-43.5 105q0 63 46 107.5t115 44.5q74 0 119 -54t45 -137q0 -117 -89.5 -228.5t-246.5 -164.5z" />
<glyph unicode="&#x201a;" horiz-adv-x="520" d="M78 -274q101 37 175.5 121t80.5 184q-43 -31 -90 -31q-62 0 -106 44t-44 106t47 106.5t115 44.5q74 0 119 -53.5t45 -136.5q0 -117 -89.5 -229t-246.5 -165z" />
<glyph unicode="&#x201c;" horiz-adv-x="933" d="M74 1010q0 117 89 228.5t247 164.5l4 -8q-100 -37 -174 -121.5t-80 -183.5q42 30 90 30q62 0 105.5 -44t43.5 -105q0 -62 -46.5 -107t-114.5 -45q-75 0 -119.5 53.5t-44.5 137.5zM518 1010q0 117 89.5 228.5t246.5 164.5l6 -8q-100 -37 -174.5 -121t-81.5 -184 q42 30 90 30q62 0 106 -44t44 -105q0 -63 -46.5 -107.5t-115.5 -44.5q-74 0 -119 54t-45 137z" />
<glyph unicode="&#x201d;" horiz-adv-x="946" d="M98 827q100 37 174.5 121.5t81.5 184.5q-43 -31 -90 -31q-62 0 -105.5 44t-43.5 105q0 63 46 107.5t115 44.5q74 0 119 -54t45 -137q0 -117 -89.5 -228.5t-246.5 -164.5zM545 827q99 37 173.5 121.5t80.5 184.5q-43 -31 -90 -31q-62 0 -106 44t-44 105q0 62 47 107 t115 45q75 0 119.5 -53.5t44.5 -137.5q0 -117 -89 -228.5t-247 -164.5z" />
<glyph unicode="&#x201e;" horiz-adv-x="964" d="M78 -274q101 37 175.5 121t80.5 184q-43 -31 -90 -31q-62 0 -106 44t-44 106t47 106.5t115 44.5q74 0 119 -53.5t45 -136.5q0 -117 -89.5 -229t-246.5 -165zM524 -274q99 37 174 121t82 184q-46 -31 -90 -31q-63 0 -107 44t-44 106t46.5 106.5t116.5 44.5q74 0 119 -53.5 t45 -136.5q0 -117 -90 -229t-248 -165z" />
<glyph unicode="&#x2020;" horiz-adv-x="1050" d="M92 840q0 50 23.5 81t64.5 31q33 0 87.5 -27.5t121 -55t129.5 -27.5q-1 65 -28 142.5t-53.5 144.5t-26.5 106q0 60 32.5 92.5t83.5 32.5q50 0 82.5 -33t32.5 -92q0 -32 -17 -81.5t-37 -94.5t-37 -105.5t-18 -111.5q63 0 129 27.5t120.5 55t88.5 27.5q41 0 64.5 -31 t23.5 -81q0 -64 -32 -138.5t-58 -74.5q-10 0 -12 18q-12 78 -28 104q-34 56 -153 71q-58 7 -143 7q1 -202 19.5 -385.5t40.5 -289.5t40.5 -204.5t18.5 -152.5q0 -73 -32.5 -111t-92.5 -38q-61 0 -94 37.5t-33 111.5q0 53 18.5 152t40.5 204.5t40.5 289.5t19.5 386 q-72 0 -124 -4.5t-85.5 -16t-54 -24t-31 -34.5t-15.5 -42.5t-10 -51.5q-1 -6 -1 -9q-2 -18 -15 -18q-25 0 -57.5 75t-32.5 138z" />
<glyph unicode="&#x2021;" horiz-adv-x="1050" d="M92 137q0 63 32.5 138t57.5 75q13 0 15 -18q12 -78 26 -104q31 -54 141 -70q60 -8 154 -8q-2 64 -42 176.5t-40 162.5q0 48 40 160t42 178q-72 0 -124 -4.5t-85.5 -16t-54 -24t-31 -34.5t-15.5 -42.5t-10 -51.5q-1 -6 -1 -9q-2 -18 -15 -18q-25 0 -57.5 75t-32.5 138 q0 50 23.5 81t64.5 31q33 0 87.5 -27.5t121 -55t129.5 -27.5q-1 65 -28 142.5t-53.5 144.5t-26.5 106q0 60 32.5 92.5t83.5 32.5q50 0 82.5 -33t32.5 -92q0 -32 -17 -81.5t-37 -94.5t-37 -105.5t-18 -111.5q63 0 129 27.5t120.5 55t88.5 27.5q41 0 64.5 -31t23.5 -81 q0 -64 -32 -138.5t-58 -74.5q-10 0 -12 18q-12 78 -28 104q-34 56 -153 71q-58 7 -143 7q2 -64 49.5 -176.5t47.5 -161.5q0 -51 -47.5 -163t-49.5 -176q212 0 273 50q34 28 46 97q1 9 5 35q2 18 12 18q26 0 58 -74.5t32 -138.5q0 -49 -24 -80.5t-64 -31.5q-34 0 -88.5 27 t-120.5 55t-129 30q1 -52 18 -112.5t37 -105.5t37 -94.5t17 -82.5q0 -59 -32.5 -92t-82.5 -33q-51 0 -83.5 32.5t-32.5 92.5q0 40 26.5 107t53.5 144.5t28 143.5q-63 -2 -129.5 -30t-121 -55t-87.5 -27q-40 0 -64 31.5t-24 80.5z" />
<glyph unicode="&#x2022;" horiz-adv-x="735" d="M152 498q0 89 63 152t152 63q91 0 154 -63t63 -152q0 -90 -63.5 -153.5t-153.5 -63.5q-89 0 -152 64t-63 153z" />
<glyph unicode="&#x2026;" horiz-adv-x="1652" d="M94 141q0 66 47 113t113 47t112 -47t46 -113t-46 -112.5t-112 -46.5t-113 46.5t-47 112.5zM668 141q0 66 46.5 113t112.5 47t112 -47t46 -113t-46 -112.5t-112 -46.5t-112.5 46.5t-46.5 112.5zM1241 141q0 66 47 113t113 47t112 -47t46 -113t-46 -112.5t-112 -46.5 t-113 46.5t-47 112.5z" />
<glyph unicode="&#x202f;" horiz-adv-x="393" />
<glyph unicode="&#x2030;" horiz-adv-x="2314" d="M66 946q0 81 30 147.5t80 107.5t111.5 63t126.5 22q90 0 170.5 -41.5t126.5 -118.5q57 -14 118 -14q74 0 169.5 22.5t175.5 59.5q11 16 20 45t19 45t28 16q15 0 24 -9.5t9 -24.5q0 -29 -26 -51.5t-56 -34.5l-889 -1198l-16 14l874 1173q-170 -75 -327 -75q-67 0 -111 12 q37 -72 37 -160q0 -80 -30 -145.5t-80 -106.5t-111 -63.5t-125 -22.5q-65 0 -126.5 22t-111 63.5t-80 107t-30.5 145.5zM285 946q0 -74 5.5 -129t19.5 -100.5t40 -69.5t64 -24q37 0 63 24t40 69.5t20 101t6 128.5q0 185 -39 262q-37 29 -68 60q-18 6 -22 6q-38 0 -64 -24.5 t-40 -71t-19.5 -102t-5.5 -130.5zM770 317q0 81 30.5 146.5t80 106.5t111 63t126.5 22q64 0 125 -22t111 -63t80 -107t30 -146t-30 -146t-80 -106.5t-111 -62.5t-125 -22q-65 0 -126.5 22t-111.5 62.5t-80 106t-30 146.5zM989 317q0 -74 5.5 -129.5t19.5 -101.5t40 -70 t64 -24q71 0 100 86t29 239t-29 239.5t-100 86.5q-38 0 -64 -24t-40 -70.5t-19.5 -102t-5.5 -129.5zM1554 317q0 80 30.5 146t81 107t112 63t125.5 22t125 -22t111 -63t80 -107t30 -146t-30 -146t-80 -106.5t-111 -62.5t-125 -22q-87 0 -165 36.5t-131 115.5t-53 185z M1776 317q0 -74 5.5 -129t19 -101.5t39 -70.5t63.5 -24t64 24t40 70t19.5 101.5t5.5 129.5t-5.5 129.5t-19.5 102t-40 70.5t-64 24t-63.5 -24t-39 -71t-19 -102t-5.5 -129z" />
<glyph unicode="&#x2039;" horiz-adv-x="714" d="M47 455v8l592 407l6 -8l-424 -403l424 -404l-6 -8z" />
<glyph unicode="&#x203a;" horiz-adv-x="714" d="M68 55l426 404l-426 403l6 8l592 -407v-8l-592 -408z" />
<glyph unicode="&#x2044;" horiz-adv-x="327" d="M-283 -8l877 1292l14 -8l-876 -1294z" />
<glyph unicode="&#x205f;" horiz-adv-x="492" />
<glyph unicode="&#x2070;" horiz-adv-x="845" d="M61 1079q0 181 98.5 294.5t264.5 113.5q165 0 263.5 -113.5t98.5 -294.5q0 -182 -98 -294.5t-264 -112.5q-167 0 -265 112.5t-98 294.5zM289 1079q0 -78 4.5 -138t17.5 -124.5t41.5 -99.5t71.5 -35q135 0 135 397q0 398 -135 398q-43 0 -71.5 -35.5t-41.5 -99.5 t-17.5 -124.5t-4.5 -138.5z" />
<glyph unicode="&#x2074;" horiz-adv-x="796" d="M6 897l117 100q61 50 101 127t40 158q0 128 -110 203q63 3 125 -5.5t114.5 -28t85.5 -54t33 -78.5q0 -46 -40 -91.5t-90 -76.5t-125.5 -76.5t-117.5 -79.5l-112 -94h401v117l203 178h6v-295q51 0 81 7l30 7q12 0 19 -6t7 -14q0 -7 -8.5 -12.5t-17.5 -5.5q-4 0 -14.5 3 t-35 6t-61.5 3v-68q0 -79 31 -103t102 -24v-8h-489v8q77 0 112 28.5t35 108.5v60h-418z" />
<glyph unicode="&#x2075;" horiz-adv-x="772" d="M41 848q0 44 31.5 75t79.5 31t76 -29t28 -73q0 -41 -23 -69.5t-57 -34.5q43 -66 119 -66q93 0 145 71.5t52 170.5q0 92 -49 150.5t-142 58.5q-81 0 -170 -46q-10 -43 -33 -43q-18 0 -18 19t43 33l33 374q10 -1 59.5 -5t80.5 -5.5t85 -3.5t93 1t82 9.5t74.5 20.5t49.5 35 q16 -56 16 -97q0 -42 -16.5 -72.5t-45 -46.5t-60.5 -23t-68 -7q-75 0 -149 29t-195 96l-31 -303q114 57 240 57q145 0 246.5 -63.5t101.5 -178.5q0 -114 -102.5 -177.5t-258.5 -63.5q-142 0 -229.5 50.5t-87.5 125.5z" />
<glyph unicode="&#x2076;" horiz-adv-x="833" d="M59 1061q0 187 109 306.5t297 119.5q126 0 203 -51t77 -127q0 -44 -27.5 -74.5t-74.5 -30.5t-77.5 30t-30.5 75q0 34 19.5 61.5t49.5 34.5q-30 72 -112 72q-78 0 -132.5 -70t-76 -171t-17.5 -216q20 77 78 121.5t152 44.5q119 0 198.5 -70t79.5 -178q0 -118 -91.5 -192 t-248.5 -74q-80 0 -144.5 21.5t-107 58t-71 87t-40.5 105.5t-12 117zM270 920q0 -103 40.5 -171.5t113.5 -68.5q41 0 71 23.5t45 63t22 81t7 86.5q0 104 -32.5 165.5t-98.5 61.5q-65 0 -117 -59t-51 -182z" />
<glyph unicode="&#x2077;" horiz-adv-x="677" d="M51 1143v327h12l9 -215h2q5 53 12 87t22 71t42 55.5t67 18.5q37 0 73.5 -17t67 -41t59.5 -48t62 -41t64 -17q55 0 84.5 43.5t29.5 79.5q0 8 -1 15t-1 9h13q0 -4 1 -11.5t1 -12.5q0 -41 -18 -83t-52.5 -96t-46.5 -79q-62 -121 -95 -235.5t-40 -266.5h-217q4 39 14.5 78 t22 70t35.5 71t38.5 63t48 65t47 58.5t53 62t50.5 58.5l34 34t36 37t30 35t29 40l-2 4q-28 -38 -45.5 -57.5t-53 -37.5t-79.5 -18q-31 0 -124 15.5t-142 15.5q-67 0 -97.5 -28.5t-34.5 -108.5h-10z" />
<glyph unicode="&#x2078;" horiz-adv-x="864" d="M59 889q0 83 74 141t238 68q-142 9 -215.5 59t-73.5 131q0 90 90.5 144.5t259.5 54.5t259.5 -54.5t90.5 -144.5q0 -81 -73 -131t-215 -59q164 -10 237.5 -68t73.5 -141q0 -42 -19 -79t-60 -69t-116.5 -50.5t-177.5 -18.5t-177 18.5t-116.5 50.5t-60.5 69t-19 79zM287 887 q0 -101 39.5 -153t105.5 -52q67 0 107.5 52t40.5 153t-40.5 154t-107.5 53q-66 0 -105.5 -53t-39.5 -154zM309 1288q0 -89 31 -137.5t92 -48.5q123 0 123 186q0 189 -123 189q-61 0 -92 -49t-31 -140z" />
<glyph unicode="&#x2079;" horiz-adv-x="837" d="M61 1223q0 115 91.5 189.5t246.5 74.5q98 0 173 -32.5t118 -89t64.5 -124t21.5 -145.5q0 -88 -26.5 -164.5t-76.5 -134.5t-128 -91.5t-174 -33.5q-126 0 -204.5 50t-78.5 124q0 44 28 74t77 30q47 0 77.5 -28t30.5 -72q0 -36 -21 -63t-53 -35q34 -70 117 -70q58 0 101 33 t66 81t36 113t15.5 119t0.5 109q-20 -72 -75.5 -114t-147.5 -42q-121 0 -200 66.5t-79 175.5zM266 1235q0 -117 41.5 -170t102.5 -53q63 0 108 54.5t45 174.5q0 105 -38.5 170.5t-110.5 65.5q-42 0 -73 -23t-46 -61t-22 -77t-7 -81z" />
<glyph unicode="&#x2080;" horiz-adv-x="845" d="M61 188q0 181 98.5 294.5t264.5 113.5q165 0 263.5 -113.5t98.5 -294.5q0 -182 -98 -294.5t-264 -112.5q-167 0 -265 112.5t-98 294.5zM289 188q0 -78 4.5 -138t17.5 -124.5t41.5 -99.5t71.5 -35q135 0 135 397q0 398 -135 398q-43 0 -71.5 -35.5t-41.5 -99.5 t-17.5 -124.5t-4.5 -138.5z" />
<glyph unicode="&#x2081;" horiz-adv-x="534" d="M29 481v8q201 16 356 93l6 -2v-650q0 -79 31 -103t102 -24v-8h-489v8q76 0 110.5 29t34.5 109v473q0 36 -12 51.5t-47 15.5h-92z" />
<glyph unicode="&#x2082;" horiz-adv-x="794" d="M51 387q0 78 91.5 143.5t244.5 65.5q88 0 159.5 -23.5t116 -73t44.5 -118.5q0 -54 -30 -95t-76.5 -65t-109.5 -48.5t-123.5 -44.5t-123.5 -55t-105 -79q-29 -29 -41 -66q47 92 203 92q54 0 146 -19t135 -19q127 0 127 106q0 21 -7 49h11q16 -59 16 -129q0 -45 -7.5 -82.5 t-25 -71t-49.5 -52.5t-76 -19q-45 0 -86.5 20t-74 48.5t-63.5 57t-68 48.5t-76 20q-55 0 -85 -35t-30 -89q0 -34 8 -58h-12q-14 68 -2.5 117t55.5 96q29 32 78.5 70t92 70t84 71t65.5 89.5t24 109.5q0 74 -38.5 119t-110.5 45q-59 0 -99.5 -29t-56.5 -68q39 -6 64.5 -35.5 t25.5 -68.5q0 -44 -31 -74.5t-77 -30.5q-48 0 -77.5 33t-29.5 78z" />
<glyph unicode="&#x2083;" horiz-adv-x="796" d="M53 -43q0 42 29.5 74t75.5 32t77 -30t31 -76q0 -36 -22.5 -65.5t-57.5 -38.5q39 -60 131 -60q94 0 143.5 57.5t49.5 149.5q0 187 -207 193q-41 0 -69 -7.5t-29 -7.5q-9 0 -17 6t-8 13q0 8 7.5 14t17.5 6q2 0 32.5 -7t63.5 -7q96 0 140 57t44 141t-42 132.5t-117 48.5 q-87 0 -127 -62q36 -9 59 -37t23 -65q0 -45 -30 -74t-77 -29q-48 0 -75 30t-27 73q0 77 86.5 127.5t230.5 50.5q145 0 234.5 -53.5t89.5 -145.5q0 -97 -97.5 -147.5t-250.5 -48.5h-13v-6h13q163 0 267.5 -50.5t104.5 -150.5q0 -102 -102 -157.5t-254 -55.5q-148 0 -238 50.5 t-90 125.5z" />
<glyph unicode="&#x2084;" horiz-adv-x="796" d="M6 6l117 100q60 50 99.5 127t39.5 158q0 129 -108 203q62 3 123.5 -5.5t114 -28t85.5 -54t33 -78.5q0 -46 -39.5 -91.5t-89.5 -76.5t-125 -76.5t-117 -79.5l-112 -94h401v117l203 178h6v-295q51 0 81 8l30 7q11 0 17.5 -6.5t6.5 -14.5q0 -7 -7.5 -12.5t-16.5 -5.5 q-4 0 -14.5 3t-35 6t-61.5 3v-68q0 -79 31 -103t100 -24v-8h-487v8q76 0 111.5 29t35.5 109v59h-420z" />
<glyph unicode="&#x2085;" horiz-adv-x="772" d="M41 -43q0 44 31.5 75t79.5 31t76 -29t28 -73q0 -41 -23 -69.5t-57 -34.5q43 -66 119 -66q93 0 145 71.5t52 170.5q0 92 -49 150.5t-142 58.5q-83 0 -170 -45q-10 -43 -33 -43q-18 0 -18 18q0 19 43 33l33 375q4 0 70 -5.5t99.5 -7.5t100 -2t107.5 6t83.5 21t63.5 39 q16 -56 16 -96q0 -80 -55.5 -115t-134.5 -35q-75 0 -149 29t-195 96l-31 -303q114 57 240 57q145 0 246.5 -63t101.5 -178q0 -114 -102.5 -178t-258.5 -64q-142 0 -229.5 50.5t-87.5 125.5z" />
<glyph unicode="&#x2086;" horiz-adv-x="833" d="M59 170q0 187 109 306.5t297 119.5q126 0 203 -51t77 -127q0 -44 -27.5 -74.5t-74.5 -30.5t-77.5 30t-30.5 75q0 34 19.5 61.5t49.5 34.5q-30 72 -112 72q-78 0 -132.5 -70t-76 -171t-17.5 -216q20 77 78 121.5t152 44.5q119 0 198.5 -70t79.5 -178q0 -118 -91.5 -192 t-248.5 -74q-80 0 -144.5 21.5t-107 58t-71 87t-40.5 105.5t-12 117zM270 29q0 -103 40.5 -171.5t113.5 -68.5q41 0 71 23.5t45 63t22 81t7 86.5q0 104 -32.5 165.5t-98.5 61.5q-65 0 -117 -59t-51 -182z" />
<glyph unicode="&#x2087;" horiz-adv-x="677" d="M51 252v328h12l9 -215h2q4 41 8.5 69.5t15 61.5t24.5 53t38.5 33.5t56.5 13.5q37 0 73.5 -17t67 -41t59.5 -48t62 -41t64 -17q55 0 84.5 43.5t29.5 79.5q0 8 -1 15.5t-1 9.5h13q0 -4 1 -12t1 -13q0 -41 -18 -83t-52.5 -96t-46.5 -79q-62 -121 -95 -235.5t-40 -266.5h-217 q4 39 15 78t22 69.5t35.5 71.5t38 63t48 65.5t47 59t53.5 62.5t50 58q11 12 33.5 34t36 36t30.5 35t29 40l-2 4q-28 -38 -45.5 -57.5t-53 -37.5t-79.5 -18q-31 0 -124 15.5t-142 15.5q-67 0 -97.5 -28.5t-34.5 -108.5h-10z" />
<glyph unicode="&#x2088;" horiz-adv-x="864" d="M59 -2q0 83 74 141t238 68q-142 9 -215.5 59t-73.5 131q0 90 90.5 144.5t259.5 54.5t259.5 -54.5t90.5 -144.5q0 -81 -73 -131t-215 -59q164 -10 237.5 -68t73.5 -141q0 -42 -19 -79t-60 -69t-116.5 -50.5t-177.5 -18.5t-177 18.5t-116.5 50.5t-60.5 69t-19 79zM287 -4 q0 -101 39.5 -153t105.5 -52q67 0 107.5 52t40.5 153t-40.5 154t-107.5 53q-66 0 -105.5 -53t-39.5 -154zM309 397q0 -89 31 -137.5t92 -48.5q123 0 123 186q0 189 -123 189q-61 0 -92 -49t-31 -140z" />
<glyph unicode="&#x2089;" horiz-adv-x="837" d="M61 332q0 115 91.5 189.5t246.5 74.5q98 0 173 -32.5t118 -89t64.5 -124t21.5 -145.5q0 -88 -26.5 -164.5t-76.5 -134.5t-128 -91.5t-174 -33.5q-126 0 -204.5 50t-78.5 124q0 44 28 74t77 30q47 0 77.5 -28t30.5 -72q0 -36 -21 -63t-53 -35q34 -70 117 -70q58 0 101 33 t66 81t36 113t15.5 119t0.5 109q-20 -72 -75.5 -114t-147.5 -42q-121 0 -200 66.5t-79 175.5zM266 344q0 -117 41.5 -170t102.5 -53q63 0 108 54.5t45 174.5q0 105 -38.5 170.5t-110.5 65.5q-42 0 -73 -23t-46 -61t-22 -77t-7 -81z" />
<glyph unicode="&#x20ac;" horiz-adv-x="1394" d="M70 496v18h133q-6 52 -6 107q0 77 12 147h-139v18h141q50 231 219 367.5t406 136.5q110 0 200 -31t144 -81t83 -107t29 -113q0 -73 -43.5 -122.5t-111.5 -49.5q-65 0 -110.5 47.5t-45.5 114.5q0 62 38.5 107.5t96.5 52.5q-68 166 -237 166q-87 0 -156 -40t-113.5 -109.5 t-71.5 -154t-38 -184.5h399v-18h-401q-6 -68 -6 -135q0 -76 4 -119h403v-18h-401q7 -74 22.5 -140t44.5 -132.5t69.5 -113.5t101.5 -76.5t136 -29.5q137 0 244.5 91.5t175.5 254.5l15 -6q-38 -88 -82.5 -152.5t-104.5 -115t-139.5 -76t-177.5 -25.5q-240 0 -401.5 141.5 t-196.5 379.5h-135z" />
<glyph unicode="&#x2116;" horiz-adv-x="2344" d="M59 37q44 -35 88.5 -53.5t106.5 -18.5q136 0 194 87t58 267v619q0 165 -53.5 240t-192.5 75v13h432l608 -803v538q0 109 13.5 199.5t42 164t78 114.5t116.5 41q97 0 157 -79.5t60 -205.5q-85 68 -192 68q-136 0 -195 -86.5t-59 -266.5v-964l-10 -2l-785 1009v-725 q0 -109 -13 -199t-41 -163.5t-77 -114.5t-116 -41q-98 0 -159 81t-61 206zM1456 74v18h789v-18h-789zM1456 217v19h789v-19h-789zM1466 698q0 160 111.5 255.5t271.5 95.5q104 0 190.5 -41t140.5 -122t54 -188q0 -106 -54 -186.5t-140.5 -121t-190.5 -40.5 q-160 0 -271.5 94.5t-111.5 253.5zM1718 698q0 -170 31.5 -253t99.5 -83t99.5 84t31.5 254q0 168 -31.5 251t-99.5 83t-99.5 -83t-31.5 -253z" />
<glyph unicode="&#x2117;" horiz-adv-x="1492" d="M90 633q0 179 88.5 330.5t240 239t329.5 87.5q133 0 255 -51.5t210 -139.5t140 -210t52 -256q0 -178 -88 -329.5t-239.5 -240t-329.5 -88.5t-329.5 88.5t-240 240t-88.5 329.5zM109 633q0 -130 50.5 -248t136.5 -204t204 -136.5t248 -50.5t248 50.5t203.5 136.5t136 204 t50.5 248q0 174 -85.5 321t-232.5 232.5t-320 85.5q-130 0 -248 -50.5t-204 -136t-136.5 -204t-50.5 -248.5zM393 266v8q59 0 80 24t21 91v485q0 68 -20.5 92.5t-80.5 24.5v6h430q171 0 252.5 -58.5t81.5 -152.5q0 -97 -80 -155t-254 -58h-71v9h22q48 0 81.5 18t50.5 49 t24.5 64t7.5 73q0 39 -7.5 72t-24.5 64t-50.5 49t-81.5 18h-67v-600q0 -67 20.5 -91t79.5 -24v-8h-414z" />
<glyph unicode="&#x2122;" horiz-adv-x="1742" d="M94 1047l17 219h575l16 -219h-6q-15 48 -30 81t-39.5 65t-60 48t-81.5 16h-8v-485q0 -63 22.5 -83.5t75.5 -20.5v-9h-354v9q53 0 75.5 20.5t22.5 83.5v485h-8q-46 0 -82 -16.5t-60 -48t-39.5 -65t-29.5 -80.5h-6zM735 659v9q76 0 107 51.5t41 202.5l12 170 q6 87 -18.5 127.5t-98.5 40.5v6h262l189 -398l170 398h213v-6q-49 0 -65.5 -30.5t-14.5 -94.5l16 -342q3 -68 22.5 -96.5t69.5 -28.5v-9h-327v9q49 0 66 27.5t14 88.5l-21 390l-217 -502h-4l-240 487l-20 -237q-12 -153 9 -203.5t97 -50.5v-9h-262z" />
<glyph unicode="&#x2212;" horiz-adv-x="1167" d="M127 494v18h911v-18h-911z" />
<glyph unicode="&#x2260;" horiz-adv-x="1167" d="M123 332v20h317l252 424h-569v19h582l202 342l17 -11l-197 -331h307v-19h-319l-252 -424h571v-20h-581l-199 -334l-16 10l192 324h-307z" />
<glyph unicode="&#x25fc;" horiz-adv-x="839" d="M0 0v840h840v-840h-840z" />
<glyph unicode="&#xfb06;" horiz-adv-x="1564" d="M90 283l10 2q61 -131 98 -180q86 -115 222 -115q95 0 136.5 43.5t41.5 97.5q0 41 -21.5 72.5t-57 51t-80.5 38.5t-92 34.5t-92 40t-80.5 53t-57 75.5t-21.5 106q0 126 92 195t261 69q25 0 51 -2t57 -5.5t45 -4.5q-84 100 -84 231q0 160 112.5 272.5t274.5 112.5 q158 0 269.5 -104t111.5 -260v-262h252v-27h-252v-614q0 -150 107 -150q92 0 188 117l10 -8q-32 -38 -60 -65.5t-69.5 -57.5t-92 -46t-107.5 -16q-118 0 -187 69t-69 200v569h-111v21q68 0 119.5 6t101.5 23t81.5 46.5t51 78t19.5 114.5q0 147 -109 248.5t-254 101.5 q-151 0 -259.5 -110.5t-108.5 -256.5q0 -133 92 -235q67 -3 127 10l12 -287l-10 -2q-21 47 -38.5 81t-45.5 74.5t-57 66t-69.5 42.5t-86.5 17q-78 0 -117 -41t-39 -94q0 -44 28 -76.5t73 -53t99 -39.5t108 -42.5t99 -53.5t73 -81.5t28 -118.5q0 -132 -103 -204.5t-282 -72.5 q-128 0 -328 39z" />
<glyph horiz-adv-x="2080" d="M70 422q0 102 39 186.5t105.5 140.5t154 86.5t184.5 30.5q57 0 113 -12q-68 71 -68 137q0 30 13 57t32 48t54.5 42.5t65 36t80.5 33.5t84 29.5t91 28.5q253 77 295 95q40 17 69 38l7 -4v-1028l178 176q135 132 135 207q0 81 -139 81v13h489v-13q-79 0 -139.5 -25 t-130.5 -77q-57 -43 -133 -119l-15 -14l301 -455q83 -129 187 -129v-12h-412l-266 399l-55 -53v-176q0 -83 27 -120.5t106 -37.5v-12h-547v12q79 0 106 37.5t27 120.5v1104q-14 -4 -41 -12.5t-41 -12.5q-203 -62 -276 -100q-131 -68 -132 -158q0 -64 78 -145 q103 -31 163.5 -102t60.5 -148q0 -66 -42.5 -106.5t-103.5 -40.5t-103 42.5t-42 102.5q0 55 33 95.5t86 49.5q-49 115 -162 115q-62 0 -108 -36t-71 -96t-37 -128t-12 -143q0 -202 74 -314t205 -112q89 0 161.5 50t123.5 126l12 -8q-145 -216 -410 -216q-107 0 -194.5 36.5 t-143.5 98.5t-86 142t-30 168z" />
<glyph horiz-adv-x="1671" d="M70 422q0 102 39 186.5t105.5 140.5t154 86.5t184.5 30.5q90 0 172 -30q-100 100 -100 249q0 160 112.5 272.5t274.5 112.5q158 0 269.5 -104t111.5 -260v-262h252v-27h-252v-614q0 -150 106 -150q93 0 189 117l10 -8q-31 -38 -59.5 -65.5t-70 -57.5t-92.5 -46t-108 -16 q-118 0 -187 69t-69 200v569h-111v21q68 0 119.5 6t101.5 23t81.5 46.5t51 78t19.5 114.5q0 148 -109 249t-253 101q-151 0 -260 -110.5t-109 -256.5q0 -82 37.5 -155t103.5 -125q64 -39 100 -95.5t36 -115.5q0 -66 -42.5 -106.5t-103.5 -40.5t-103 42.5t-42 102.5 q0 55 33 95.5t86 49.5q-49 115 -162 115q-62 0 -108 -36t-71 -96t-37 -128t-12 -143q0 -202 74 -314t205 -112q89 0 161.5 50t123.5 126l12 -8q-145 -216 -410 -216q-107 0 -194.5 36.5t-143.5 98.5t-86 142t-30 168z" />
<glyph horiz-adv-x="1974" d="M39 0v12q78 0 105.5 39t27.5 123v475q0 84 -27.5 123t-105.5 39v12l405 41v-278q25 87 73.5 158t111.5 102q-72 78 -72 155q0 40 19.5 74.5t49.5 60t79 50.5t94 42t110 38q34 10 110 32.5t109.5 33.5t77 29.5t68.5 37.5l6 -4v-1028l180 176q133 130 133 207q0 81 -137 81 v13h488v-13q-79 0 -139 -25t-130 -77q-66 -50 -135 -119l-12 -14l299 -455q83 -129 188 -129v-12h-413l-267 399l-55 -53v-176q0 -83 27 -120.5t106 -37.5v-12h-545v12q79 0 106 37.5t27 120.5v1104q-48 -17 -83 -25q-64 -20 -110 -37.5t-92 -41t-74.5 -47.5t-46 -55.5 t-17.5 -68.5q0 -71 71 -145q40 12 70 12q75 0 117.5 -46.5t42.5 -108.5q0 -64 -44 -109t-106 -45q-64 0 -108.5 47.5t-40.5 118.5q-87 -40 -127 -145v-404q0 -87 32.5 -124.5t114.5 -37.5v-12h-561z" />
<glyph horiz-adv-x="1411" d="M29 817v27h133v219l280 53v-272h410v219l278 53v-272h252v-27h-252v-614q0 -150 107 -150q92 0 188 117l11 -8q-30 -37 -58.5 -65t-70 -58t-92.5 -46t-109 -16q-116 0 -185 69t-69 200v571h-410v-614q0 -150 107 -150q92 0 188 117l11 -8q-32 -38 -60 -65.5t-69 -57.5 t-92 -46t-109 -16q-118 0 -187 69t-69 200v571h-133z" />
<glyph horiz-adv-x="2134" d="M20 1006q0 120 130.5 177.5t361.5 57.5q126 0 268.5 -17.5t247.5 -38t222 -38t198 -17.5q95 0 163 21t103.5 58t50.5 77.5t15 89.5q0 126 -109 219q62 -7 119 -25t108 -47.5t81 -76t30 -103.5q0 -81 -61 -134t-163.5 -76t-246.5 -23q-93 0 -203.5 12t-162.5 21t-183 33 v-555h47q307 0 375 301h8v-615h-8q-32 140 -120.5 219.5t-254.5 79.5h-47v-377q0 -128 46 -172.5t159 -44.5v-12h-684v12q106 0 140 41t34 160v1004q-46 6 -84 6q-101 0 -172 -19t-108.5 -53.5t-53.5 -75.5t-16 -94q0 -135 108 -227q-62 7 -119 25t-107.5 48t-81 76 t-30.5 103zM1561 0v12q79 0 106 37.5t27 120.5v485q0 83 -27 120.5t-106 37.5v12l413 41v-696q0 -83 27 -120.5t106 -37.5v-12h-546z" />
<glyph horiz-adv-x="2488" d="M18 1047q0 81 61.5 134.5t165.5 77t249 23.5q168 0 460 -43t392 -43q325 0 325 240q0 130 -108 227q62 -7 118 -25t106.5 -47.5t80.5 -76t30 -103.5q0 -124 -145 -182v-527q164 164 330 164q110 0 180 -68t70 -208v-420q0 -83 27 -120.5t106 -37.5v-12h-531v12 q66 0 92.5 38.5t26.5 119.5v448q0 154 -123 154q-88 0 -178 -90v-512q0 -83 27 -120.5t106 -37.5v-12h-547v12q79 0 106.5 37.5t27.5 120.5v1012q-23 -4 -78 -4q-133 0 -408 39v-988q0 -128 46 -172.5t159 -44.5v-12h-715v12q113 0 159 44.5t46 172.5v1028q-72 7 -109 7 q-325 0 -325 -244q0 -133 108 -225q-62 7 -118.5 25t-107.5 47.5t-81.5 76t-30.5 103.5z" />
<glyph horiz-adv-x="2330" d="M82 625q0 198 93.5 349.5t260.5 233.5t381 82q53 0 124 -6t120 -11t110 -2.5t113 15.5l37 -432h-12q-89 221 -205 322.5t-266 101.5q-92 0 -165.5 -36.5t-121.5 -97t-80 -144.5t-45.5 -174.5t-13.5 -190.5q0 -101 13 -191.5t44 -175t77.5 -146t118.5 -98t162 -36.5 q170 0 297 122.5t213 331.5l11 -2l-70 -403q-84 -26 -208 -44t-239 -18q-179 0 -322.5 49t-236 137t-141.5 206t-49 258zM1462 74v18h789v-18h-789zM1462 217v19h789v-19h-789zM1473 698q0 160 111 255.5t271 95.5q104 0 191 -41t141 -122t54 -188q0 -158 -112.5 -253 t-273.5 -95q-160 0 -271 94.5t-111 253.5zM1724 698q0 -170 31.5 -253t99.5 -83q69 0 100.5 83.5t31.5 254.5q0 169 -31.5 251.5t-100.5 82.5q-68 0 -99.5 -83t-31.5 -253z" />
<glyph horiz-adv-x="1253" d="M98 508q0 105 35 199.5t100.5 168.5t167.5 118t226 44t226 -44t167 -118t100 -168.5t35 -199.5q0 -106 -35 -201t-100 -169t-167 -117.5t-226 -43.5t-226 43.5t-167.5 117.5t-100.5 169t-35 201zM410 508q0 -516 217 -516t217 516t-217 516t-217 -516z" />
<glyph horiz-adv-x="862" d="M90 862v10q301 26 522 146l9 -4v-801q0 -64 12 -104t39.5 -61t62 -28.5t90.5 -7.5v-12h-721v12q121 0 172.5 45.5t51.5 169.5v529q0 55 -19 80.5t-73 25.5h-146z" />
<glyph horiz-adv-x="1157" d="M100 748q0 51 31 101.5t88 93t149 69t203 26.5q123 0 223 -31.5t162 -96.5t62 -154q0 -56 -25.5 -100.5t-68 -73.5t-101 -54.5t-122 -43t-133 -40t-132 -45.5t-122 -59.5t-99.5 -81.5q-23 -31 -33 -53q72 93 250 96q83 0 215 -31.5t193 -31.5q180 0 180 151q0 29 -6 64 h12q21 -82 21 -166q0 -47 -6.5 -89.5t-22.5 -83t-40.5 -69.5t-63.5 -47t-89 -18q-61 0 -118.5 27.5t-102.5 66.5t-89 78t-97 66.5t-109 27.5q-64 0 -103 -32.5t-50 -88.5q-11 -59 6 -125h-17q-43 155 56 270q32 40 87 81t109 73t112 73.5t102 82.5t72 99.5t28 125.5 q0 99 -57 157t-160 58q-158 0 -222 -131q54 -9 88.5 -50t34.5 -98q0 -63 -42.5 -105t-104.5 -42q-64 0 -106 46t-42 108z" />
<glyph horiz-adv-x="1210" d="M84 4q0 68 44.5 118t111.5 50q65 0 110 -47.5t45 -114.5q0 -58 -34 -103t-87 -57q60 -106 220 -106q149 0 225 92.5t76 241.5q0 150 -81.5 228t-238.5 81q-66 1 -110.5 -9.5t-45.5 -10.5q-13 0 -24.5 8.5t-11.5 21.5t10 23t26 10q8 0 22.5 -6.5t47.5 -12.5t86 -5 q143 6 212 96t69 225q0 132 -66 211.5t-186 79.5q-140 0 -209 -109q55 -11 90 -54.5t35 -102.5q0 -66 -45.5 -111t-112.5 -45q-68 0 -109.5 45.5t-41.5 114.5q0 120 130 201t345 81q217 0 352 -84.5t135 -234.5q0 -152 -143.5 -234t-370.5 -84h-14v-8h14q115 0 212 -18 t175.5 -55.5t123 -101.5t44.5 -148t-44 -151t-119.5 -109t-171.5 -64t-204 -22q-219 0 -355 81.5t-136 198.5z" />
<glyph horiz-adv-x="1208" d="M35 88l188 178q88 81 150.5 205t62.5 250q0 107 -46 186.5t-118 126.5q130 4 244.5 -21.5t193 -87t78.5 -149.5q0 -58 -33.5 -112.5t-94.5 -104.5t-125 -94t-146.5 -101t-136.5 -104l-186 -166h610v201l282 266h11v-467q58 1 94.5 7t52 12t23.5 6q18 0 28.5 -10t10.5 -23 t-12.5 -22t-26.5 -9q-7 0 -24 5.5t-54 10.5t-92 5v-117q0 -64 12 -104t40 -61t62.5 -28.5t90.5 -7.5v-12h-721v12q121 0 172 45t51 170v105h-637z" />
<glyph horiz-adv-x="1181" d="M72 6q0 70 44 118t113 48t111.5 -45t42.5 -113q0 -61 -34 -104.5t-87 -54.5q64 -111 203 -111q62 0 113.5 21.5t87 58.5t60 86.5t35.5 104t11 112.5q0 154 -78.5 248t-224.5 94q-125 0 -262 -72q-7 -36 -16.5 -52.5t-32.5 -16.5q-29 0 -29 28q0 34 64 56l55 604 q23 -1 84.5 -4.5t98.5 -5.5t100.5 -4.5t106.5 -1.5t99.5 3.5t96.5 9.5t79.5 17t67 26.5t43.5 37.5q33 -87 33 -150q0 -61 -23.5 -106t-64 -69.5t-87 -36t-100.5 -11.5q-114 0 -236 46t-292 140l-47 -491q89 42 172.5 64t187.5 22q143 0 259.5 -42t190 -131t73.5 -210 q0 -123 -73.5 -213.5t-195 -135t-274.5 -44.5q-212 0 -343.5 81t-131.5 199z" />
<glyph horiz-adv-x="1269" d="M96 606q0 196 71 349.5t211 244t329 90.5q187 0 303 -81.5t116 -198.5q0 -69 -42 -116.5t-111 -47.5q-67 0 -111.5 45.5t-44.5 112.5q0 55 30.5 97t80.5 56q-56 117 -187 117q-78 0 -140.5 -42t-102.5 -112t-65.5 -164t-34 -195t-3.5 -208q27 116 117.5 184t232.5 68 q186 0 307.5 -114.5t121.5 -287.5q0 -186 -140.5 -307t-374.5 -121q-122 0 -219.5 36t-160.5 96t-105 142.5t-60 171t-18 185.5zM395 381q0 -106 27 -193.5t85 -143.5t138 -56q64 0 112.5 37.5t74.5 100t38.5 131.5t12.5 144q0 106 -21 185.5t-70.5 129.5t-123.5 50 q-50 0 -96.5 -21t-87.5 -64.5t-65.5 -121t-23.5 -178.5z" />
<glyph horiz-adv-x="1067" d="M92 508v504h19l10 -330h4q6 63 13.5 108t23 94t37 79t57.5 49.5t84 19.5q55 0 110.5 -26t101 -63.5t89.5 -75t94.5 -63.5t98.5 -26q44 0 79 22t54 54.5t29 63t10 53.5q0 11 -5 41h21q2 -10 2 -35q-1 -49 -18.5 -104.5t-36 -91t-55.5 -100.5t-52 -93 q-106 -208 -160 -398.5t-67 -443.5h-309q5 50 17 101t24.5 93.5t37 93.5t41.5 86t51.5 88t54 82t62 85t61 80t67 84t65.5 82q13 16 43.5 49.5t48 53t40 50.5t38.5 60l-4 4q-27 -40 -46.5 -64t-50 -50t-68.5 -38t-87 -12q-53 0 -196 26.5t-218 26.5q-102 0 -147 -48.5 t-51 -170.5h-17z" />
<glyph horiz-adv-x="1306" d="M96 326q0 64 25.5 119t78.5 102t146.5 78t218.5 39q-212 15 -322 96t-110 211q0 144 135 231.5t385 87.5q249 0 385 -87.5t136 -231.5q0 -130 -111 -211t-322 -96q124 -8 217 -39t146.5 -77.5t79.5 -102t26 -119.5q0 -55 -18 -104.5t-60.5 -95t-105 -78.5t-158.5 -53 t-215 -20t-215 20t-158.5 53t-105 78.5t-60.5 95t-18 104.5zM414 324q0 -160 62 -247t177 -87q114 0 177 87.5t63 246.5q0 158 -63 245.5t-177 87.5q-115 0 -177 -87t-62 -246zM449 973q0 -141 50 -221t154 -80q102 0 153.5 80.5t51.5 220.5q0 142 -51 222.5t-154 80.5 q-104 0 -154 -80.5t-50 -222.5z" />
<glyph horiz-adv-x="1269" d="M96 614q0 185 140 304.5t372 119.5q120 0 217.5 -35.5t161 -95t107 -141.5t62 -170.5t18.5 -185.5q0 -141 -40 -264.5t-115.5 -218t-193.5 -149t-264 -54.5q-190 0 -307 81t-117 197q0 69 42.5 116.5t111.5 47.5q67 0 111 -45t44 -111q0 -55 -31 -97t-81 -56 q59 -119 196 -119q67 0 121 28t89.5 75t63 109t40.5 131t22 140t7.5 136t-1.5 120q-27 -117 -116 -184.5t-234 -67.5q-184 0 -305 108t-121 281zM387 627q0 -177 64.5 -267t166.5 -90q48 0 91 20.5t80 62t59 115.5t22 171q0 166 -62.5 275.5t-180.5 109.5q-64 0 -112.5 -36 t-75.5 -96.5t-39.5 -127t-12.5 -137.5z" />
<glyph horiz-adv-x="2271" d="M0 43q0 91 47.5 166.5t123 121t170 66t189.5 9.5q-128 -36 -195 -130t-67 -223q0 -147 82.5 -241.5t229.5 -94.5q74 0 141 28.5t118.5 74t101.5 117.5t86.5 142.5t78.5 164.5l448 1007h-251q-138 0 -214.5 -78.5t-76.5 -191.5q0 -61 24.5 -122t67.5 -103 q-131 11 -213 79.5t-82 168.5q0 121 121 191.5t325 70.5h328l465 -985q27 -57 51 -98t57.5 -83.5t74.5 -65t87 -22.5v-12h-721v12q107 0 137 76t-22 186l-67 144h-437l-75 -174q-25 -56 -41.5 -91t-41 -85t-44.5 -82t-48 -73.5t-54.5 -67.5t-60.5 -55.5t-70.5 -47.5t-79 -34 t-92.5 -23t-105 -7q-215 0 -355.5 101.5t-140.5 263.5zM1217 438h419l-213 469z" />
<glyph horiz-adv-x="1794" d="M25 1004q0 121 121 191.5t325 70.5h655q539 0 539 -305q0 -294 -496 -302v-6q281 -4 409 -85t128 -232q0 -154 -130.5 -245t-404.5 -91h-722v12q106 0 140 41t34 160v1038h-105q-138 0 -214.5 -78.5t-76.5 -191.5q0 -61 24.5 -122t67.5 -103q-131 11 -212.5 79.5 t-81.5 168.5zM928 14h172q97 0 163 49t93.5 120.5t27.5 158.5q0 63 -16.5 116t-50.5 96.5t-93.5 68t-138.5 24.5h-157v-633zM928 662h116q152 0 224.5 79t72.5 217q0 56 -12.5 104.5t-39.5 92.5t-79 70t-123 26h-159v-589z" />
<glyph horiz-adv-x="1413" d="M82 627q0 194 95.5 346t261.5 234.5t374 82.5q126 0 230.5 -31.5t167.5 -81.5t97.5 -108.5t34.5 -116.5q0 -68 -43 -119t-112 -51q-66 0 -112 47t-46 115q0 59 35.5 103t89.5 55q-43 77 -122.5 126.5t-194.5 49.5q-91 0 -164.5 -36t-122 -97.5t-81 -146.5t-46.5 -178.5 t-14 -198.5q0 -96 11.5 -182t41.5 -170.5t76.5 -145t120.5 -98t169 -37.5q115 0 198.5 48.5t129.5 121.5q-53 12 -86 55.5t-33 101.5q0 69 45 115.5t111 46.5q70 0 113 -51t43 -121q0 -56 -33.5 -113t-97 -106t-170.5 -80t-238 -31q-167 0 -305 49.5t-230.5 137t-143 207 t-50.5 258.5z" />
<glyph horiz-adv-x="1964" d="M25 1004q0 121 121 191.5t325 70.5h664q346 0 544.5 -170t198.5 -463t-198.5 -463t-544.5 -170h-686v12q106 0 140 41t34 160v1038h-105q-138 0 -214.5 -78.5t-76.5 -191.5q0 -61 24.5 -122t67.5 -103q-131 11 -212.5 79.5t-81.5 168.5zM928 14h168q98 0 176.5 34.5 t129.5 93t85 139t48.5 167.5t14.5 185t-14.5 185t-48.5 167.5t-84.5 138.5t-128.5 92.5t-176 34.5h-170v-1237z" />
<glyph horiz-adv-x="1701" d="M25 1004q0 121 121 191.5t325 70.5h1081l29 -414l-8 -2q-21 92 -57 162.5t-94.5 125.5t-145.5 84t-201 29h-147v-612h55q309 0 373 297h10v-606h-10q-63 295 -373 295h-55v-611h162q80 0 147 16.5t116.5 48t88 70t67.5 90t48 99t36 106.5l11 -2l-39 -442h-1116v12 q106 0 140 41t34 160v1038h-105q-138 0 -214.5 -78.5t-76.5 -191.5q0 -61 24.5 -122t67.5 -103q-131 11 -212.5 79.5t-81.5 168.5z" />
<glyph horiz-adv-x="1624" d="M25 1004q0 121 121 191.5t325 70.5h1073l31 -422l-10 -2q-43 191 -164 300t-334 109h-139v-630h47q307 0 375 301h8v-615h-8q-32 140 -120.5 219.5t-254.5 79.5h-47v-377q0 -128 46 -172.5t159 -44.5v-12h-684v12q106 0 140 41t34 160v1038h-105q-138 0 -214.5 -78.5 t-76.5 -191.5q0 -61 24.5 -122t67.5 -103q-131 11 -212.5 79.5t-81.5 168.5z" />
<glyph horiz-adv-x="1599" d="M82 614q0 125 41.5 233.5t114.5 189t171.5 138t215.5 86.5t243 29q102 0 192 -19.5t154.5 -52.5t111.5 -75.5t70 -90t23 -94.5q0 -65 -41 -117.5t-112 -52.5q-66 0 -112 47t-46 115q0 59 33.5 102.5t87.5 55.5q-47 73 -134 120.5t-208 47.5t-214 -52.5t-149.5 -145 t-85 -211.5t-28.5 -259q0 -98 13.5 -185t46.5 -168t82 -139t125 -93t171 -35q135 0 274 71v322q0 120 -38.5 166.5t-149.5 46.5v12h653v-12q-105 0 -138.5 -39.5t-33.5 -159.5v-530q0 -81 -40.5 -151.5t-112 -122.5t-156 -90t-184.5 -64l-4 8q54 29 92.5 63t60 67t33.5 76 t15 78.5t3 84.5v186q-134 -25 -270 -25q-154 0 -281 33t-217 91t-151.5 139t-91 175.5t-29.5 200.5z" />
<glyph horiz-adv-x="2406" d="M10 57q0 117 79 200.5t198 118.5t252 25q-260 -70 -260 -352q0 -74 18 -136t54.5 -112t99 -78t145.5 -28q187 0 285 140.5t98 420.5v995h-107q-138 0 -214 -78.5t-76 -191.5q0 -61 24.5 -122t67.5 -103q-131 11 -213 79.5t-82 168.5q0 121 121 191.5t325 70.5h631v-13 q-106 0 -140 -40.5t-34 -159.5v-404h588v404q0 119 -34 159.5t-140 40.5v13h653v-13q-106 0 -140 -40.5t-34 -159.5v-840q0 -119 34 -160t140 -41v-12h-653v12q106 0 140 41t34 160v418h-588v-375q0 -277 -183 -427.5t-505 -150.5q-277 0 -430.5 106.5t-153.5 272.5z" />
<glyph horiz-adv-x="1159" d="M25 1004q0 121 121 191.5t325 70.5h631v-13q-106 0 -140 -40.5t-34 -159.5v-840q0 -119 34 -160t140 -41v-12h-653v12q106 0 140 41t34 160v1038h-105q-138 0 -214.5 -78.5t-76.5 -191.5q0 -61 24.5 -122t67.5 -103q-131 11 -212.5 79.5t-81.5 168.5z" />
<glyph horiz-adv-x="1499" d="M10 57q0 117 79 200.5t198 118.5t252 25q-260 -70 -260 -352q0 -74 18 -136t54.5 -112t99 -78t145.5 -28q187 0 285 140.5t98 420.5v995h-107q-138 0 -214 -78.5t-76 -191.5q0 -61 24.5 -122t67.5 -103q-131 11 -213 79.5t-82 168.5q0 121 121 191.5t325 70.5h631v-13 q-106 0 -140 -40.5t-34 -159.5v-797q0 -277 -183 -427.5t-505 -150.5q-277 0 -430.5 106.5t-153.5 272.5z" />
<glyph horiz-adv-x="1832" d="M25 1004q0 121 121 191.5t325 70.5h631v-13q-106 0 -140 -40.5t-34 -159.5v-527l344 342q190 190 190 293q0 92 -157 92v13h579v-13q-152 0 -305 -120q-101 -77 -287 -267l-45 -45l420 -612q11 -17 41.5 -62t50 -73.5t55 -77t62 -81.5t65.5 -77.5t72.5 -74.5t75.5 -62.5 t80.5 -51.5t82.5 -31.5t87 -12.5q61 0 143 35l6 -11q-172 -84 -352 -84q-114 0 -214 32t-187 97t-162 150.5t-154 204.5l-385 579l-106 -106v-289q0 -119 34 -160t140 -41v-12h-653v12q106 0 140 41t34 160v1038h-105q-138 0 -214.5 -78.5t-76.5 -191.5q0 -61 24.5 -122 t67.5 -103q-131 11 -212.5 79.5t-81.5 168.5z" />
<glyph horiz-adv-x="1228" d="M23 1004q0 121 121 191.5t325 70.5h661v-13q-112 0 -158 -45t-46 -172v-1253q169 -48 409 -199q28 -17 107 -69.5t117 -74.5t103 -54.5t121.5 -46t114.5 -13.5q155 0 247.5 102.5t92.5 262.5q0 132 -57 215q148 -50 221.5 -142t73.5 -198q0 -137 -111.5 -231.5 t-298.5 -94.5q-67 0 -135 15t-121 34.5t-124 58t-114.5 66t-124 80t-122.5 78.5q-126 79 -235 132t-252.5 92.5t-282.5 39.5q-36 0 -98 -4v14q98 0 131 38t33 161v1206h-105q-138 0 -214.5 -78.5t-76.5 -191.5q0 -61 24.5 -122t67.5 -103q-131 11 -212.5 79.5t-81.5 168.5z " />
<glyph horiz-adv-x="2707" d="M6 45q0 92 47.5 167.5t123.5 120.5t170.5 64.5t189.5 8.5q-126 -38 -194.5 -125t-68.5 -222q0 -148 83 -238.5t239 -90.5q95 0 180 37.5t153 107.5t112 179.5t53 244.5l63 952h-244q-138 0 -214 -78.5t-76 -191.5q0 -61 24.5 -122t67.5 -103q-132 11 -214.5 79.5 t-82.5 168.5q0 121 121 191.5t325 70.5h549l412 -856l362 856h432v-13q-109 0 -144 -61.5t-30 -192.5l37 -735q8 -138 47 -195t148 -57v-12h-670v12q105 0 141.5 57t30.5 181l-47 837l-451 -1060h-8l-508 1032l-51 -760q-19 -292 -173.5 -456.5t-430.5 -164.5 q-220 0 -362 101.5t-142 265.5z" />
<glyph horiz-adv-x="2285" d="M8 47q0 74 30.5 137.5t83 107.5t120.5 73t144.5 39.5t152.5 1.5q-126 -38 -194.5 -125.5t-68.5 -221.5q0 -147 84.5 -238t239.5 -91q96 0 182.5 38.5t154.5 109.5t108 181.5t40 245.5v946h-172q-138 0 -214 -78.5t-76 -191.5q0 -61 24.5 -122t67.5 -103 q-131 11 -213 79.5t-82 168.5q0 121 121 191.5t325 70.5h420l727 -801v233q0 89 -1.5 149t-6 120t-12.5 97.5t-21.5 73t-32.5 55t-46 34.5t-61 20.5t-79 5.5v13h543v-13q-60 0 -101.5 -10t-71.5 -38.5t-47 -65.5t-26.5 -105.5t-12.5 -143t-3 -192.5v-712l-11 -2l-917 1009 v-688q0 -289 -156 -458t-436 -169q-221 0 -363.5 102t-142.5 267z" />
<glyph horiz-adv-x="1579" d="M82 635q0 195 94.5 345t258 230t368.5 80q127 0 229 -29.5t167 -94t65 -154.5q0 -82 -52.5 -140.5t-129.5 -84t-167 -25.5q-59 0 -100 8q107 23 165 94t58 174q0 46 -12 85.5t-38 75t-75.5 55.5t-117.5 20q-88 0 -156 -36t-110 -95t-69 -143.5t-37.5 -173t-10.5 -191.5 t10.5 -192t37 -174t67.5 -144.5t108 -96t153 -36.5t153 36t109 95t69 141t37.5 166.5t10.5 179.5q0 35 -1.5 59.5t-4.5 52.5t-4 42q164 85 164 250q0 32 -16 82q190 -184 190 -461q0 -147 -55.5 -271.5t-151 -209t-225 -132t-275.5 -47.5t-275 47.5t-224.5 132t-151 209 t-55.5 271.5z" />
<glyph horiz-adv-x="1703" d="M25 1004q0 121 121 191.5t325 70.5h649q144 0 251.5 -29t170.5 -81t93 -117t30 -144q0 -78 -30 -142t-93 -115t-170.5 -79.5t-251.5 -28.5h-108v15h43q64 0 114 20.5t81.5 54.5t52 80.5t28.5 94t8 100.5t-8 101.5t-28.5 96t-52 82t-81.5 55.5t-114 21h-127v-1038 q0 -119 34 -160t140 -41v-12h-653v12q106 0 140 41t34 160v1038h-105q-138 0 -214.5 -78.5t-76.5 -191.5q0 -61 24.5 -122t67.5 -103q-131 11 -212.5 79.5t-81.5 168.5z" />
<glyph horiz-adv-x="1556" d="M63 694q0 168 87.5 303.5t250 214t371.5 78.5q159 0 292 -47t223 -128t140 -191t50 -236q0 -90 -27 -170.5t-72.5 -144t-113.5 -121t-143 -101t-169 -83t-182 -68.5t-192 -57q120 24 227 24q101 0 183.5 -26.5t154.5 -75.5t176 -141q189 -170 257 -221q159 -121 291 -132 q17 -2 34 -2q72 0 132 30t126 93l8 -6q-29 -34 -54 -59t-69.5 -59t-89.5 -56t-110 -37.5t-136 -15.5q-90 0 -174.5 23t-163 67.5t-139.5 89.5t-135 110q-41 35 -103.5 92.5t-97.5 89t-86.5 72t-89.5 61t-85.5 35.5t-94.5 15q-54 0 -100 -18.5t-76.5 -37t-47.5 -18.5 q-14 0 -23 9t-9 22q0 20 22.5 27t73.5 12.5t86 15.5q44 8 123 41q94 36 169 75.5t151 102.5t126 139t81.5 185t31.5 240q0 75 -10 148t-37 150.5t-68 135t-109.5 94.5t-156.5 37q-84 0 -151.5 -34t-110 -88.5t-71.5 -127t-40.5 -144.5t-11.5 -145q0 -236 115 -371t288 -135 q52 0 111 17q-100 -84 -281 -84q-240 0 -395.5 151.5t-155.5 380.5z" />
<glyph horiz-adv-x="1869" d="M25 1004q0 121 121 191.5t325 70.5h655q285 0 425.5 -88t140.5 -246q0 -55 -17.5 -101t-46 -77.5t-71.5 -56.5t-87.5 -40t-100 -25.5t-103 -15t-103.5 -6.5v-8h68q69 0 118 -5t91 -20.5t70.5 -34t59 -56t54.5 -76.5t59 -105q25 -46 60.5 -115.5t59 -115t57 -106 t60.5 -101t62.5 -86.5t70 -74.5t76 -54t88 -37.5t97.5 -12q35 0 109 16l2 -8q-143 -60 -307 -60q-100 0 -187 29t-150.5 73t-123.5 114.5t-100.5 136t-86.5 153.5q-22 44 -172 359q-51 104 -74 131q-38 46 -112 52q-16 1 -37 1h-147v-387q0 -119 34 -160t140 -41v-12h-653 v12q106 0 140 41t34 160v1038h-105q-138 0 -214.5 -78.5t-76.5 -191.5q0 -61 24.5 -122t67.5 -103q-131 11 -212.5 79.5t-81.5 168.5zM928 614h159q98 0 165.5 47.5t96.5 117.5t29 153q0 65 -17 120.5t-52 101t-96.5 71.5t-143.5 26h-141v-637z" />
<glyph horiz-adv-x="1198" d="M84 266q0 68 45 117t113 49q66 0 110.5 -47t44.5 -113q0 -59 -36 -102.5t-91 -54.5q43 -53 120 -89t183 -36q141 0 216 65t75 166q0 56 -25 101.5t-67.5 77t-97.5 58t-116 50.5t-121.5 49.5t-115.5 59t-97.5 74t-67.5 100.5t-25 133q0 172 130 269t351 97q205 0 333 -79 t128 -197q0 -68 -42 -115t-109 -47q-66 0 -110 44t-44 110q0 56 33 98.5t86 56.5q-93 117 -262 117q-125 0 -191.5 -61t-66.5 -152q0 -68 40.5 -120t105.5 -86t143 -65t156.5 -67t143.5 -81t105.5 -118t40.5 -168q0 -183 -137.5 -284t-374.5 -101q-223 0 -364.5 85.5 t-141.5 205.5z" />
<glyph horiz-adv-x="1642" d="M18 1047q0 79 59 133t152 78t213 24q139 0 426 -43t367 -43q64 0 114.5 14.5t81.5 38.5t51 56.5t28 65.5t8 69q0 125 -109 223q64 -8 121.5 -26.5t107 -48t78.5 -75.5t29 -102q0 -117 -118 -177t-304 -60q-141 0 -336 30v-975q0 -128 46 -172.5t159 -44.5v-12h-715v12 q113 0 159 44.5t46 172.5v1020q-128 13 -154 13q-79 0 -136.5 -21.5t-87 -59t-43 -78t-13.5 -87.5q0 -134 108 -221q-64 8 -121.5 26t-107.5 47.5t-79.5 75.5t-29.5 103z" />
<glyph horiz-adv-x="1826" d="M20 1004q0 121 121.5 191.5t325.5 70.5h604v-13q-103 0 -138.5 -51t-35.5 -174v-663q0 -357 305 -357q165 0 267 104t102 306v293q0 115 -3 189t-13 140t-27 102.5t-47 64t-70.5 37t-99.5 9.5v13h540v-13q-59 0 -100 -10t-71 -37.5t-46.5 -64t-26.5 -103.5t-13 -139.5 t-3 -187.5v-293q0 -219 -120 -331t-351 -112q-112 0 -205 26t-166.5 79t-115 143t-41.5 209v819h-76q-138 0 -214.5 -78.5t-76.5 -191.5q0 -61 24.5 -122t67.5 -103q-132 11 -214.5 79.5t-82.5 168.5z" />
<glyph horiz-adv-x="1327" d="M-43 1253v13h719v-13q-76 -2 -112.5 -39.5t-35.5 -93.5t31 -127l307 -712q65 107 113.5 197t102 206.5t83 228.5t29.5 209q0 172 -98.5 254t-298.5 51q45 84 113 133.5t155 49.5q109 0 177.5 -77.5t68.5 -225.5q0 -76 -20.5 -167t-50.5 -175.5t-79.5 -188t-91.5 -181.5 t-104 -180.5t-100 -161t-96 -147.5t-75 -116h-18l-451 997q-22 49 -36 77t-40.5 69.5t-51.5 63.5t-61.5 39t-78.5 17z" />
<glyph horiz-adv-x="2002" d="M-41 1253v13h672v-13q-52 0 -83 -18t-39.5 -51t-3 -72t24.5 -88l263 -655l217 551l-25 67q-45 120 -111 193t-151 73v13h698v-13q-57 0 -92 -22t-45.5 -59.5t-6 -82t22.5 -96.5l263 -712q288 512 288 833q0 184 -101 264t-302 49q102 183 270 183q110 0 180 -78.5 t70 -231.5q0 -423 -571 -1310h-17l-358 899l-360 -899h-15l-422 997q-15 34 -21.5 48.5t-24 49t-30 52t-35 43.5t-44 39.5t-50.5 23.5t-61 10z" />
<glyph horiz-adv-x="2269" d="M18 129q0 92 47.5 166.5t123.5 119t170.5 64t189.5 8.5q-128 -36 -195 -129.5t-67 -222.5q0 -145 81 -232t228 -87q61 0 122.5 18t112.5 45t105.5 70.5t94 82t85.5 93t73 90.5t64 86l181 238l-275 426q-42 65 -74.5 108t-76.5 88.5t-91.5 68.5t-97.5 23v13h740v-13 q-76 0 -106 -36t-19.5 -86.5t47.5 -106.5l170 -266l55 73q145 193 145 297q0 59 -38.5 92t-112.5 33v13h596v-13q-150 0 -320 -147q-112 -99 -258 -291l-59 -72l291 -448q183 -283 344 -283v-12h-738v12q99 0 118 65.5t-44 162.5l-184 282l-174 -231q-149 -193 -224 -271 q-183 -192 -379 -241q-78 -19 -163 -19q-208 0 -348 102.5t-140 266.5z" />
<glyph horiz-adv-x="1275" d="M-33 1253v13h707v-13q-100 0 -123 -62t37 -157l268 -446q156 186 230.5 314.5t74.5 252.5q0 149 -104 227.5t-295 44.5q102 183 270 183q107 0 176.5 -75.5t69.5 -211.5q0 -82 -28.5 -171.5t-67.5 -162t-101.5 -156.5t-108.5 -137t-110 -121v-331q0 -130 46.5 -181 t158.5 -51v-12h-715v12q114 0 159.5 50.5t45.5 181.5v264l-326 526q-65 107 -128.5 163t-135.5 56z" />
<glyph horiz-adv-x="1202" d="M31 -164l782 1413h-283q-88 0 -164 -36.5t-131 -99t-93.5 -136t-61.5 -156.5l-12 2l36 443h1063l4 -4l-802 -1440q238 -51 542 -238q37 -22 113 -71.5t118 -73.5t103.5 -55t117.5 -44.5t112 -13.5q155 0 247.5 102.5t92.5 262.5q0 130 -58 215q148 -50 221.5 -142 t73.5 -198q0 -137 -111.5 -231.5t-298.5 -94.5q-79 0 -154 17t-157 57t-135 70.5t-154 96t-147 93.5q-96 58 -176 99.5t-178 81.5t-201.5 60.5t-208.5 20.5q-62 0 -98 -4z" />
<glyph horiz-adv-x="1150" d="M-256 1610q0 128 112 224t289 134q-70 -70 -105.5 -153t-35.5 -193q0 -115 41.5 -208t108.5 -154.5t162 -106t191.5 -68t207.5 -34.5v30q5 121 49 217t116 156t162.5 91.5t192.5 31.5q83 0 143 -20.5t91.5 -57t45 -76t13.5 -86.5q0 -297 -535 -317v-850q0 -83 27 -120.5 t106 -37.5v-12h-403v113q-111 -136 -279 -136q-112 0 -198 62.5t-129 162t-43 216.5q0 192 116 320t314 128q133 0 211 -61v225q-269 24 -491.5 108t-351 209t-128.5 263zM367 430q0 -107 21.5 -190.5t68.5 -135t114 -51.5q81 0 144 74v596q-16 53 -56.5 89t-93.5 36 q-52 0 -92.5 -40.5t-62.5 -105t-32.5 -134t-10.5 -138.5zM993 1038q270 9 392 88t122 211q0 101 -64.5 160t-170.5 59q-76 0 -131.5 -31.5t-87 -89t-46 -130t-14.5 -162.5v-105z" />
<glyph horiz-adv-x="1150" d="M-1081 1477q0 154 135.5 260t372.5 106q134 0 279 -36t286 -99.5t262.5 -127t267 -142t240.5 -121.5q56 118 166 178.5t239 60.5q115 0 172.5 -48t57.5 -128q0 -87 -64 -136.5t-184 -49.5q-77 0 -156 18v-1042q0 -83 27 -120.5t106 -37.5v-12h-403v113 q-111 -136 -279 -136q-112 0 -198 62.5t-129 162t-43 216.5q0 192 116 320t314 128q133 0 211 -61v295q0 113 39 196q-107 48 -286 144t-307 163.5t-291.5 122t-295.5 54.5q-181 0 -288 -90t-107 -242q0 -83 40.5 -171.5t127.5 -158.5q-189 13 -308.5 115t-119.5 244z M367 430q0 -107 21.5 -190.5t68.5 -135t114 -51.5q81 0 144 74v596q-16 53 -56.5 89t-93.5 36q-52 0 -92.5 -40.5t-62.5 -105t-32.5 -134t-10.5 -138.5zM993 1231q80 -21 156 -21q111 0 169 48t58 122q0 68 -46.5 113t-129.5 45q-110 0 -156 -79t-51 -228z" />
<glyph horiz-adv-x="1173" d="M-1798 1546q0 68 30 131.5t86 114.5t146 82t201 31q145 0 303.5 -54t310.5 -143t293 -183t306 -196t296 -160q37 190 167.5 288.5t320.5 98.5q167 0 245 -69t78 -172q0 -126 -105 -197t-280 -71q-69 0 -162 14v-359q164 164 330 164q110 0 180 -68t70 -208v-420 q0 -83 27 -120.5t106 -37.5v-12h-530v12q66 0 92 38.5t26 119.5v448q0 154 -123 154q-88 0 -178 -90v-512q0 -83 27 -120.5t106 -37.5v-12h-546v12q79 0 106 37.5t27 120.5v858q0 66 12 119q-112 48 -243 124t-239 150t-230 151.5t-226 136t-217.5 95.5t-212.5 37 q-86 0 -153 -27.5t-107 -74.5t-60 -106t-20 -126q0 -194 147 -327q-188 41 -297.5 136.5t-109.5 229.5zM438 1079q85 -16 162 -16q166 0 265.5 68.5t99.5 183.5q0 99 -73.5 160t-189.5 61q-68 0 -117 -24t-77 -61.5t-44 -96t-21 -113.5t-5 -129v-33z" />
<glyph horiz-adv-x="1136" d="M-1233 -651q0 133 106.5 229t290.5 135q-137 -131 -137 -321q0 -145 89 -239.5t261 -94.5q102 0 217 37t219 94.5t226.5 134.5t229.5 150t238 149t243 123q-11 48 -11 115v757q0 154 -123 154q-88 0 -178 -90v-512q0 -83 27 -120.5t106 -37.5v-12h-546v12q79 0 106 37.5 t27 120.5v989q0 83 -27 119.5t-106 36.5v12l413 41v-666q164 164 330 164q110 0 180 -68t70 -208v-758q96 14 164 14q174 0 278.5 -69t104.5 -195q0 -104 -78.5 -175t-247.5 -71q-191 0 -319 100.5t-166 287.5q-132 -58 -298 -160t-308 -196t-294.5 -183t-313 -143 t-308.5 -54q-114 0 -205 31.5t-146.5 83.5t-84.5 115t-29 131zM1018 -186v-29q0 -76 4.5 -132t20.5 -115t44 -96t76.5 -61t116.5 -24q118 0 191 62.5t73 162.5q0 115 -98 181.5t-262 66.5q-78 0 -166 -16z" />
<glyph horiz-adv-x="598" d="M-1796 1546q0 68 29.5 131.5t85 114.5t145.5 82t201 31q146 0 304.5 -54t310.5 -143t293.5 -183t306.5 -196t296 -160q37 190 167 288.5t321 98.5q167 0 244 -68.5t77 -172.5q0 -126 -104.5 -197t-278.5 -71q-68 0 -164 14v-891q0 -83 27 -120.5t106 -37.5v-12h-544v12 q79 0 106 37.5t27 120.5v862q0 71 10 115q-112 48 -242.5 124t-238.5 150t-230 151.5t-226 136t-217 95.5t-212 37q-169 0 -254.5 -96t-85.5 -238q0 -196 145 -327q-187 41 -296 136.5t-109 229.5zM438 1079q85 -16 164 -16q165 0 264 68.5t99 183.5q0 99 -72.5 160 t-187.5 61q-68 0 -117 -24t-77.5 -61.5t-45.5 -95.5t-22 -114t-5 -129v-33z" />
<glyph horiz-adv-x="598" d="M-383 1303q0 49 19.5 92.5t59 80.5t107.5 58.5t156 21.5q192 0 313 -94.5t154 -287.5q130 59 296 161t307 195t293 181t309.5 141t301.5 53q111 0 201 -31t145.5 -82t85 -114.5t29.5 -131.5q0 -134 -109 -229.5t-296 -136.5q73 65 109 150.5t36 178.5q0 66 -19.5 124 t-58.5 105.5t-106 75t-154 27.5q-117 0 -251.5 -50t-270.5 -132.5t-267.5 -170.5t-288.5 -183.5t-288 -151.5q8 -47 8 -111v-872q0 -83 27 -120.5t106 -37.5v-12h-544v12q79 0 106 37.5t27 120.5v895q-85 -18 -174 -18q-173 0 -271 66t-98 190zM-362 1303 q0 -115 91.5 -177.5t256.5 -62.5q86 0 174 18v47q0 55 -1 91.5t-6.5 83.5t-15 77.5t-27.5 62.5t-43 50.5t-63 30.5t-86 12q-118 0 -199 -66.5t-81 -166.5z" />
<glyph horiz-adv-x="1024" d="M-236 -369q0 50 23.5 90t61.5 63t80.5 34.5t86.5 11.5q137 0 342 -129q59 100 150 291l-326 653q-43 87 -90 136.5t-110 49.5v13h587v-13q-169 0 -90 -176l166 -360l70 162q80 194 80 266q0 108 -125 108v13h393v-13q-71 0 -120.5 -34t-90.5 -97q-8 -13 -16.5 -27.5 t-15 -27.5t-18 -37.5t-19 -41.5t-25 -55.5t-29.5 -64.5l-211 -466q-85 -189 -145 -287q70 -45 182.5 -128t200 -144.5t192.5 -124.5t211 -97.5t205 -34.5q79 0 142.5 22.5t103.5 58t67 83t38 95t11 96.5q0 186 -147 288q177 -22 292.5 -117.5t115.5 -232.5q0 -49 -15.5 -97 t-51.5 -95t-88.5 -82t-134 -56.5t-181.5 -21.5q-113 0 -228.5 29t-209 72t-200 108t-182 120.5t-174.5 127.5t-160 112q-74 -118 -156 -177.5t-196 -59.5q-113 0 -179.5 53.5t-66.5 140.5zM-215 -369q0 -79 61.5 -128.5t165.5 -49.5q105 0 183.5 58t150.5 174 q-194 129 -330 129q-92 0 -161.5 -48.5t-69.5 -134.5z" />
<glyph d="M-57 0v10q32 0 60.5 7t54 22.5t46.5 32t43 45.5t37 51.5t36 61.5t33 64.5t34 70.5l331 720h15l424 -835q55 -113 113 -176.5t133 -63.5v-10h-670v10q67 0 99.5 31.5t30.5 81t-30 113.5l-53 118h-379l-8 -18q-32 -66 -38.5 -124.5t11.5 -103.5t66.5 -71.5t122.5 -26.5v-10 h-512zM307 371h363l-181 397z" />
<glyph horiz-adv-x="1308" d="M66 0v10q89 0 121 37t32 139v703q0 100 -32 137t-121 37v12h624q249 0 370.5 -66.5t121.5 -191.5q0 -250 -469 -256v-6q508 -8 508 -270q0 -130 -121 -207.5t-369 -77.5h-665zM512 12h145q127 0 189.5 81.5t62.5 197.5q0 114 -63 186t-201 72h-133v-537zM512 563h96 q133 0 197.5 67.5t64.5 186.5q0 46 -10.5 86.5t-33.5 77.5t-68 58.5t-107 21.5h-139v-498z" />
<glyph horiz-adv-x="1304" d="M86 528q0 172 87 301.5t239 198t346 68.5q48 0 111.5 -5t107.5 -8.5t99 -1.5t102 13l32 -367h-8q-79 182 -183.5 269t-240.5 87q-80 0 -144.5 -30t-107 -81t-71.5 -121.5t-41.5 -148t-12.5 -163.5q0 -110 20.5 -205t63 -174t115.5 -124.5t170 -45.5q152 0 266 104 t191 279l8 -2l-64 -340q-178 -51 -401 -51q-327 0 -505.5 149.5t-178.5 398.5z" />
<glyph horiz-adv-x="1456" d="M66 0v10q89 0 121 37t32 139v703q0 100 -32 137t-121 37v12h630q315 0 494.5 -143.5t179.5 -392.5q0 -250 -179.5 -394.5t-494.5 -144.5h-630zM512 12h145q88 0 157.5 29t114 78t73.5 118t41 143t12 159q0 83 -12 156.5t-41 142t-73.5 117t-113.5 77.5t-156 29h-147 v-1049z" />
<glyph horiz-adv-x="1214" d="M66 0v10q89 0 121 37t32 139v703q0 100 -32 137t-121 37v12h1005l27 -350l-11 -2q-77 338 -450 338h-125v-518h55q270 0 330 252h8v-512h-8q-28 117 -106 182t-224 65h-55v-518h137q350 0 457 363l8 -2l-35 -373h-1013z" />
<glyph horiz-adv-x="1148" d="M66 0v10q89 0 121 37t32 139v703q0 100 -32 137t-121 37v12h997l27 -362h-9q-37 160 -148 254t-294 94h-127v-533h49q266 0 328 256h8v-524h-8q-62 256 -328 256h-49v-317q0 -109 44.5 -149t139.5 -40v-10h-630z" />
<glyph horiz-adv-x="1474" d="M84 522q0 133 56 243t151 181.5t219.5 110.5t263.5 39q46 0 115.5 -5t120.5 -8.5t112.5 -1.5t108.5 13l33 -353l-11 -2q-70 173 -190 258.5t-262 85.5q-84 0 -152 -30t-114 -82t-77 -124t-45 -153.5t-14 -173.5q0 -106 19.5 -196t61.5 -167.5t118.5 -122t181.5 -44.5 q117 0 238 59v268q0 102 -36 143.5t-128 41.5v12h598v-12q-89 0 -120.5 -35.5t-31.5 -136.5v-281q-278 -69 -520 -69q-332 0 -514 149t-182 393z" />
<glyph horiz-adv-x="1540" d="M66 0v10q89 0 121 37t32 139v703q0 100 -32 137t-121 37v12h600v-12q-89 0 -121.5 -37t-32.5 -137v-338h516v338q0 100 -33 137t-121 37v12h601v-12q-90 0 -122 -36.5t-32 -137.5v-703q0 -102 32 -139t122 -37v-10h-601v10q88 0 121 37.5t33 138.5v349h-516v-349 q0 -101 32.5 -138.5t121.5 -37.5v-10h-600z" />
<glyph horiz-adv-x="731" d="M66 0v10q89 0 121 37t32 139v703q0 100 -32 137t-121 37v12h600v-12q-89 0 -121.5 -37t-32.5 -137v-703q0 -101 32.5 -138.5t121.5 -37.5v-10h-600z" />
<glyph horiz-adv-x="710" d="M27 -285q51 25 86 55t53.5 57t28.5 65t12 65.5t2 71.5v860q0 100 -32 137t-120 37v12h600v-12q-89 0 -122 -37t-33 -137v-817q0 -68 -40 -128.5t-109 -104.5t-149 -76t-173 -54z" />
<glyph horiz-adv-x="1368" d="M66 0v10q89 0 121 37t32 139v703q0 100 -32 137t-121 37v12h600v-12q-89 0 -121.5 -37t-32.5 -137v-447l297 279q182 170 182 264q0 78 -139 78v12h520v-12q-139 0 -287 -111q-50 -35 -92 -74t-129 -126l-45 -45l373 -545q59 -85 104.5 -118.5t102.5 -33.5v-10h-451 l-342 510q-37 -34 -94 -88v-236q0 -101 32.5 -138.5t121.5 -37.5v-10h-600z" />
<glyph horiz-adv-x="1150" d="M66 0v10q89 0 121 37t32 139v703q0 100 -32 137t-121 37v12h630v-12q-96 0 -140 -38.5t-44 -145.5v-867h106q99 0 180 29.5t137 82.5t92.5 118.5t55.5 144.5l9 -2l-29 -385h-997z" />
<glyph horiz-adv-x="1738" d="M4 0v10q73 0 118 20.5t78 80t50 154.5t29 255l20 238q13 167 -29 236t-182 69v12h481l361 -704l315 704h400v-12q-95 0 -127.5 -51.5t-24.5 -169.5l35 -606q6 -127 41 -176.5t129 -49.5v-10h-611v10q96 0 129 48.5t25 162.5l-43 703l-403 -901h-9l-454 872l-35 -375 q-9 -106 -11 -181.5t5 -134t21 -94.5t40.5 -59t60.5 -31.5t83 -9.5v-10h-492z" />
<glyph horiz-adv-x="1363" d="M31 0v10q53 0 89.5 8.5t63 33t41.5 57.5t24 93t12 127.5t3 172.5v278q0 149 -47 216t-170 67v12h410l649 -665v161q0 105 -3 173t-12 128t-24.5 92.5t-42 57t-63 33t-89.5 8.5v12h486v-12q-53 0 -89 -8.5t-63 -33t-42 -57t-24 -93t-11.5 -127.5t-2.5 -173v-581l-10 -2 l-833 854v-340q0 -105 3 -172.5t12 -127.5t24 -93t41.5 -57.5t63 -33t89.5 -8.5v-10h-485z" />
<glyph horiz-adv-x="1454" d="M84 539q0 159 83.5 286.5t230.5 199t329 71.5t329 -71.5t230.5 -199t83.5 -286.5q0 -242 -183 -400.5t-460 -158.5t-460 158.5t-183 400.5zM401 539q0 -88 8.5 -162.5t31.5 -147t58.5 -123t94 -81.5t133.5 -31t133.5 31t94 81.5t58.5 123t31.5 147t8.5 162.5 q0 110 -15 200.5t-50 171t-101.5 125.5t-159.5 45t-159.5 -45t-101.5 -125.5t-50 -171t-15 -200.5z" />
<glyph horiz-adv-x="1228" d="M66 0v10q89 0 121 37t32 139v703q0 100 -32 137t-121 37v12h620q256 0 376 -86.5t120 -226.5q0 -141 -119.5 -225t-376.5 -84h-102v12h37q58 0 102 17.5t71 45.5t44 68t23.5 80t6.5 86q0 59 -11 108t-37 94t-77 71t-122 26h-109v-875q0 -101 32.5 -138.5t121.5 -37.5v-10 h-600z" />
<glyph horiz-adv-x="1454" d="M84 539q0 159 83.5 286.5t230.5 199t329 71.5t329 -71.5t230.5 -199t83.5 -286.5q0 -232 -169.5 -388.5t-430.5 -168.5q66 -5 137.5 -34.5t124 -61t123 -57.5t135.5 -26q64 0 105.5 25.5t74.5 73.5l9 -6q-37 -54 -64 -88.5t-68 -75t-87 -60.5t-97 -20q-58 0 -137 30 t-146 66t-153 66t-156 30q-114 0 -204 -94l-9 6q10 10 45.5 45t48 46t42.5 37.5t48.5 37t46.5 26t55.5 22.5t57.5 10q-176 4 -317 77t-221 199.5t-80 282.5zM401 539q0 -88 8.5 -162.5t31.5 -147t58.5 -123t94 -81.5t133.5 -31t133 30.5t93.5 81t58.5 123t32 147.5t9 163 q0 111 -15.5 202t-50.5 170.5t-101 124.5t-159 45t-159.5 -45t-101.5 -125.5t-50 -171t-15 -200.5z" />
<glyph horiz-adv-x="1355" d="M66 0v10q89 0 121 37t32 139v703q0 100 -32 137t-121 37v12h632q260 0 382 -76t122 -211q0 -61 -27.5 -107.5t-70.5 -75.5t-107.5 -48.5t-128 -28t-141.5 -12.5v-6q71 -1 126 -5.5t96 -14.5t69 -20.5t49 -30.5t33 -37.5t23 -47.5t17 -54.5t17 -65t21 -72.5 q15 -46 27.5 -71t32 -45.5t47 -28t69.5 -7.5v-10h-422q-33 45 -64 178q-7 29 -18 79q-18 85 -28.5 119.5t-35 72.5t-62 48.5t-101.5 10.5h-111v-322q0 -101 32.5 -138.5t121.5 -37.5v-10h-600zM512 520h139q68 0 118 22.5t77.5 61.5t40 84.5t12.5 99.5q0 55 -12.5 101 t-40.5 86t-80.5 63t-124.5 23h-129v-541z" />
</font>
</defs>
</svg>
