<?xml version="1.0" encoding="utf-8"?>
<!-- Generator: Adobe Illustrator 19.2.1, SVG Export Plug-In . SVG Version: 6.00 Build 0)  -->
<svg version="1.1" id="Layer_1" xmlns="http://www.w3.org/2000/svg" xmlns:xlink="http://www.w3.org/1999/xlink" x="0px" y="0px"
	 viewBox="0 0 73 50" style="enable-background:new 0 0 73 50;" xml:space="preserve">
<style type="text/css">
	.st0{fill-opacity:0;}
	.st1{fill:#FFFFFF;}
</style>
<rect y="0" class="st0" width="73" height="50"/>
<g id="XMLID_635_">
	<g id="XMLID_652_">
		<path class="st1" d="M16.5,35.3V22.8l-4.5,9.1H9.4l-4.5-9.1v12.5H0V14.4h5.2l5.4,10.9l5.4-10.9h5.2v20.9H16.5z"/>
	</g>
	<g id="XMLID_649_">
		<path class="st1" d="M31.8,35.4c-1.3,0.2-2.5,0.2-3.5,0c-1.1-0.2-2.1-0.6-2.9-1.2c-0.8-0.6-1.5-1.3-2.1-2.2
			c-0.5-0.9-0.9-1.8-1.1-2.8c-0.2-1.1-0.2-2.2,0-3.2c0.2-1,0.6-2,1.1-2.9c0.6-0.9,1.3-1.6,2.2-2.2c0.9-0.6,2-1,3.3-1.3
			c1.3-0.2,2.5-0.2,3.6,0c1.1,0.2,2,0.7,2.9,1.2c0.8,0.6,1.5,1.3,2,2.2c0.5,0.9,0.9,1.8,1.1,2.9c0.1,0.3,0.1,0.5,0.1,0.8
			c0,0.3,0,0.5,0,0.7l-11.2,2.1c0.3,1,0.8,1.7,1.5,2.1c0.8,0.4,1.6,0.5,2.4,0.4c0.7-0.1,1.3-0.4,1.9-0.9c0.6-0.4,0.9-1,1-1.6
			l4.1,0.4c-0.4,1.3-1.1,2.5-2.2,3.4C35,34.4,33.5,35.1,31.8,35.4z M33.2,25.5c-0.3-0.9-0.8-1.6-1.5-2.1c-0.7-0.4-1.5-0.6-2.4-0.4
			c-0.9,0.2-1.6,0.6-2.1,1.3c-0.5,0.7-0.7,1.5-0.6,2.5L33.2,25.5z"/>
	</g>
	<g id="XMLID_642_">
		<path class="st1" d="M46.3,35.6c-1.1,0-2-0.2-2.9-0.6c-0.9-0.4-1.7-1-2.3-1.7c-0.6-0.7-1.2-1.6-1.5-2.5c-0.4-1-0.5-2-0.5-3.2
			c0-1.1,0.2-2.2,0.5-3.1c0.3-1,0.8-1.8,1.4-2.5c0.6-0.7,1.3-1.3,2.2-1.7c0.8-0.4,1.7-0.6,2.7-0.6c1.1,0,2.1,0.3,2.9,0.8
			c0.9,0.5,1.5,1.2,2,2.1v-7.8h4.7V30c0,0.5,0.1,0.8,0.2,1c0.1,0.2,0.4,0.3,0.8,0.3v4c-0.4,0.1-0.8,0.2-1.1,0.2c-0.3,0-0.6,0-0.9,0
			c-0.8,0-1.5-0.2-2-0.5c-0.5-0.3-0.8-0.8-0.9-1.5l-0.1-0.8c-0.5,1-1.3,1.7-2.2,2.1C48.4,35.3,47.4,35.6,46.3,35.6z M47.6,31.6
			c0.6,0,1.3-0.2,1.9-0.6c0.6-0.4,1.1-0.9,1.4-1.6v-3.2c-0.3-0.8-0.8-1.4-1.4-1.9c-0.7-0.5-1.3-0.7-2-0.7c-0.5,0-1,0.1-1.4,0.3
			c-0.4,0.2-0.8,0.5-1.1,0.9c-0.3,0.4-0.6,0.8-0.7,1.3c-0.2,0.5-0.3,1-0.3,1.6c0,0.6,0.1,1.1,0.3,1.6c0.2,0.5,0.4,0.9,0.8,1.3
			c0.3,0.4,0.7,0.6,1.2,0.8C46.5,31.5,47,31.6,47.6,31.6z"/>
	</g>
	<g id="XMLID_639_">
		<path class="st1" d="M62.6,35.6c-0.8,0-1.5-0.1-2.1-0.4c-0.7-0.2-1.2-0.6-1.7-1c-0.5-0.4-0.8-1-1.1-1.6c-0.3-0.6-0.4-1.3-0.4-2
			c0-0.8,0.2-1.5,0.5-2.1c0.3-0.6,0.8-1.2,1.4-1.6c0.6-0.5,1.3-0.8,2.1-1.1c0.8-0.3,1.7-0.4,2.7-0.4c0.6,0,1.3,0.1,1.9,0.2
			c0.6,0.1,1.1,0.3,1.6,0.5v-0.7c0-1.8-1-2.7-3.1-2.7c-0.8,0-1.6,0.1-2.4,0.4c-0.8,0.3-1.6,0.7-2.4,1.3L58,21.5
			c1-0.7,2.1-1.2,3.2-1.5c1.1-0.3,2.3-0.5,3.5-0.5c2.3,0,4.1,0.5,5.4,1.6c1.3,1.1,1.9,2.7,1.9,4.8v4c0,0.5,0.1,0.8,0.2,1
			c0.1,0.2,0.4,0.3,0.8,0.3v4c-0.4,0.1-0.8,0.2-1.1,0.2c-0.3,0-0.6,0-0.9,0c-0.9,0-1.5-0.2-2-0.5c-0.5-0.3-0.7-0.8-0.9-1.5L68,32.8
			c-0.7,0.9-1.5,1.6-2.5,2C64.6,35.3,63.6,35.6,62.6,35.6z M63.9,32.2c0.5,0,1-0.1,1.5-0.3c0.5-0.2,0.9-0.4,1.2-0.7
			c0.5-0.4,0.7-0.7,0.7-1.1v-1.5c-0.4-0.2-0.9-0.3-1.3-0.4c-0.5-0.1-0.9-0.1-1.3-0.1c-0.9,0-1.6,0.2-2.1,0.6
			c-0.6,0.4-0.8,0.9-0.8,1.5c0,0.6,0.2,1,0.6,1.4C62.7,32,63.3,32.2,63.9,32.2z"/>
	</g>
</g>
</svg>
